<svg width="512" height="336" viewBox="0 0 512 336" fill="none" xmlns="http://www.w3.org/2000/svg">
<path d="M512 111.817H0V8.828C0 3.953 3.953 0 8.828 0H503.173C508.048 0 512.001 3.953 512.001 8.828L512 111.817Z" fill="#FF4B55"/>
<path d="M503.172 335.449H8.828C3.953 335.449 0 331.496 0 326.621V223.633H512V326.621C512 331.497 508.047 335.449 503.172 335.449Z" fill="#41479B"/>
<path d="M512 111.815H0V223.625H512V111.815Z" fill="white"/>
<path d="M383 112H121V224H383V112Z" fill="#151515"/>
<path d="M241.961 42.1036C241.554 42.2643 241.164 42.425 240.763 42.6144C240.585 42.7005 240.401 42.7866 240.224 42.8842C239.409 43.3377 238.154 44.1527 237.173 45.8747C236.973 46.2191 236.784 46.5233 236.589 46.7931C236.256 47.2523 235.912 47.6139 235.459 47.9066C235.075 48.1477 234.616 48.3429 234.003 48.5036C233.12 48.7102 232.26 49.1292 231.406 49.6343C230.064 50.4322 228.745 51.4539 227.381 52.2288C226.527 52.9003 225.741 52.9577 225.403 53.7843C225.294 54.0655 225.225 54.4271 225.225 54.9265C225.225 55.4948 225.443 56.0171 225.741 56.4361C226.028 56.8379 226.389 57.1421 226.721 57.3028C226.848 57.3774 226.882 58.1408 226.888 58.7435C226.893 59.0994 226.888 59.3921 226.888 59.4668C226.882 59.9833 226.985 60.4655 227.163 60.9189C227.455 61.6594 227.96 62.3023 228.613 62.8246C229.405 63.456 230.408 63.9037 231.457 64.1218C232.203 64.2768 232.971 64.317 233.722 64.2251C233.894 64.1964 234.077 64.1677 234.249 64.1333C234.238 64.5179 234.204 64.7704 234.341 65.1722C234.381 65.3042 234.444 65.442 234.53 65.6084C234.84 66.2341 236.044 67.692 237.191 68.5817C235.023 68.7022 232.914 68.9089 231.073 68.84C229.485 68.7711 228.206 68.6793 227.106 68.53C224.967 68.2373 223.522 67.7035 221.928 66.567C221.55 66.2972 221.166 65.993 220.753 65.6486C220.575 65.4994 220.42 65.3387 220.266 65.1779C219.022 63.8291 218.592 61.9693 218.844 60.6951C219.125 59.4266 219.939 58.2843 219.612 57.5037C219.463 57.5669 219.314 57.63 219.159 57.7046C216.871 58.8124 214.108 61.602 213.879 64.1792C213.271 71.7444 216.877 73.6328 220.529 74.7808C220.535 74.7865 220.541 74.7865 220.547 74.7865C220.581 74.798 220.61 74.8037 220.644 74.8152C222.857 75.4983 224.789 75.7164 226.762 75.768C227.427 75.7852 228.103 75.7852 228.797 75.7738C229.089 75.7623 229.405 75.7565 229.732 75.7451C230.855 75.7106 232.197 75.6188 233.722 75.2514C233.946 75.194 234.175 75.1366 234.404 75.0735C235.465 74.7291 236.01 74.7922 236.812 75.0678C236.571 75.3605 236.348 75.659 236.136 75.9632V75.9689C235.694 76.6003 235.304 77.2432 234.943 77.909C234.937 77.9205 234.932 77.932 234.926 77.9492C234.742 78.2821 234.565 78.6265 234.393 78.9709C234.387 78.9881 234.376 78.9996 234.37 79.0168C234.215 79.3268 234.066 79.631 233.911 79.9409C233.722 80.3198 233.533 80.7101 233.338 81.0889C233.338 81.0946 233.332 81.0946 233.332 81.1004C232.982 81.7949 232.615 82.4894 232.208 83.1667C232.203 83.1782 232.197 83.1897 232.191 83.1954C231.99 83.5169 231.784 83.844 231.56 84.1597C231.538 84.1884 231.52 84.2171 231.497 84.2458C231.274 84.5673 231.039 84.883 230.781 85.1872C230.781 85.2446 230.821 85.302 230.89 85.3479C231.085 85.4799 231.526 85.5545 232.008 85.589C232.69 85.6464 233.441 85.6406 233.67 85.6406C234.095 85.6406 234.507 85.5144 234.926 85.3536C235.23 85.2331 235.539 85.1068 235.866 84.9805C237.082 84.573 238.223 84.5271 239.117 84.573C239.581 84.596 239.776 84.7165 239.857 84.8428C239.874 84.8657 239.88 84.8944 239.891 84.9174C239.891 84.9231 239.897 84.9289 239.897 84.9404C239.903 84.9461 239.903 84.9518 239.903 84.9576C239.92 85.0437 239.914 85.1183 239.925 85.1527C240.086 85.4742 240.659 85.2733 240.619 85.8874C240.596 86.1228 240.539 86.4155 240.43 86.7656C240.258 86.9436 240.08 87.1273 239.897 87.3109C238.985 88.2236 238.016 89.1534 237.248 89.98C237.065 90.1751 236.858 90.3875 236.64 90.6056C234.72 92.5228 231.543 95.1172 229.244 92.7696C227.736 91.2141 230.511 88.6655 229.68 88.281C229.525 88.2064 229.25 88.2064 228.797 88.3039C226.326 88.7516 224.48 89.8709 223.167 91.3231C222.685 90.7549 222.209 90.1464 221.739 89.5151C220.925 88.4245 220.117 87.2765 219.274 86.163C218.528 85.1814 217.766 84.2344 216.94 83.3963C216.573 83.029 216.149 82.6157 215.69 82.1795C213.323 79.9409 209.951 76.9849 208.289 75.2055C207.549 74.4306 206.574 73.5065 205.519 72.5193C203.312 70.4529 200.732 68.0995 199.035 66.2054C198.92 66.0791 198.806 65.9471 198.697 65.8323C196.959 63.7889 193.909 59.3462 192.768 57.211C192.631 56.9469 192.516 56.7116 192.436 56.5337C192.413 56.4763 192.39 56.4189 192.367 56.3672C191.788 54.9035 191.346 53.394 192.596 51.4596C192.992 50.8454 193.296 50.3231 193.548 49.7836C193.709 49.4334 193.852 49.0776 193.967 48.6758C194.173 48.1477 194.293 47.5852 194.379 46.9308C194.431 46.5348 194.471 46.0986 194.506 45.6107C194.586 44.6291 194.305 43.3606 193.898 42.58C193.737 42.2701 193.514 41.9716 193.267 41.6731C193.261 41.6731 193.261 41.6731 193.261 41.6674C193.187 41.5813 193.118 41.4952 193.043 41.4091C193.032 41.4033 193.026 41.3919 193.021 41.3804C193.319 40.7719 193.588 40.0946 193.8 39.337C194.758 36.0423 194.7 32.0473 192.407 30.5722L190.549 29.3783L189.988 31.5307C189.913 31.8292 189.793 32.0301 189.46 32.5811C189.3 32.8509 189.11 33.1609 188.887 33.5569C188.6 34.062 187.964 34.5729 187.299 35.1124C187 35.3535 186.691 35.606 186.387 35.8701C186.381 35.8701 186.376 35.8643 186.37 35.8643C186.054 35.7036 185.705 35.5544 185.332 35.4339C185.309 35.4281 185.286 35.4166 185.263 35.4109C185.086 35.3535 184.908 35.3018 184.73 35.2617C184.696 35.2559 184.661 35.2502 184.633 35.2387C184.484 35.2043 184.334 35.1813 184.185 35.1583C184.14 35.1526 184.099 35.1411 184.054 35.1411C183.887 35.1182 183.727 35.1067 183.572 35.1009C183.515 35.0952 183.457 35.0952 183.406 35.0952C183.285 35.0952 183.165 35.1009 183.05 35.1124C183.004 35.1182 182.958 35.1182 182.918 35.1239C182.775 35.1411 182.643 35.1698 182.506 35.2043C182.46 35.2215 182.414 35.233 182.368 35.2502C182.253 35.2904 182.139 35.3363 182.035 35.3937C182.024 35.3994 182.007 35.4052 181.989 35.4166C181.737 35.5486 181.508 35.7151 181.284 35.8988C180.831 36.2661 180.43 36.7024 180.063 37.173C179.994 36.9147 179.92 36.6679 179.834 36.4269C179.811 36.358 179.788 36.3006 179.765 36.2317C179.702 36.0595 179.639 35.893 179.57 35.7323C179.53 35.6405 179.49 35.5487 179.45 35.4626C179.387 35.3363 179.329 35.21 179.266 35.0837C179.215 34.9861 179.163 34.8886 179.106 34.791C179.048 34.6877 178.985 34.5843 178.928 34.4868C178.865 34.3835 178.802 34.2801 178.733 34.1768C178.676 34.0965 178.618 34.0161 178.561 33.9357C178.481 33.8267 178.4 33.7176 178.314 33.6143C178.274 33.5569 178.223 33.4995 178.171 33.4479C178.074 33.3331 177.97 33.2125 177.867 33.1035C177.844 33.0862 177.827 33.069 177.804 33.0518C176.503 31.7316 174.754 30.9453 172.598 30.7558C172.226 30.2106 171.778 29.671 171.251 29.12C169.961 27.7194 167.129 26.1123 164.858 25.9458C164.612 25.9229 164.227 25.8942 163.78 25.8942C163.075 25.8942 162.45 25.9745 161.911 26.1238L159.583 26.8011L161.103 28.701C161.768 29.5275 163.195 31.502 163.683 33.6545C163.58 33.7234 163.476 33.798 163.373 33.8783C163.322 33.9185 163.264 33.9644 163.213 34.0104C163.161 34.0563 163.104 34.0965 163.052 34.1481C162.989 34.1998 162.926 34.2572 162.863 34.3146C162.817 34.3548 162.777 34.3949 162.737 34.4351C162.674 34.4983 162.605 34.5614 162.542 34.6303C162.507 34.6647 162.473 34.7049 162.439 34.7393C162.215 34.9861 161.997 35.2387 161.796 35.5142C161.768 35.5486 161.739 35.5888 161.71 35.629C161.659 35.7036 161.602 35.7782 161.55 35.8586C161.516 35.9103 161.481 35.9619 161.447 36.0136C161.401 36.0882 161.349 36.1628 161.309 36.2374C161.275 36.3006 161.24 36.358 161.212 36.4154C161.172 36.49 161.131 36.5589 161.091 36.6335C161.051 36.7138 161.011 36.7942 160.977 36.8688C160.925 36.9721 160.879 37.0697 160.839 37.173C160.805 37.2534 160.776 37.3338 160.742 37.4084C160.719 37.4715 160.696 37.5404 160.673 37.6035C160.65 37.6781 160.627 37.747 160.604 37.8216C160.581 37.8848 160.564 37.9479 160.552 38.0168C160.535 38.0857 160.518 38.1603 160.501 38.2292C160.489 38.2981 160.472 38.3612 160.466 38.4243C160.449 38.499 160.443 38.5678 160.438 38.6424C160.432 38.6998 160.42 38.7515 160.415 38.8032C160.237 40.6744 160.248 42.6087 160.312 44.4971C160.277 44.5086 160.243 44.5201 160.214 44.5373C160.031 44.5947 159.853 44.6578 159.675 44.7267C159.612 44.7554 159.549 44.7841 159.48 44.8071C159.331 44.8702 159.188 44.9334 159.039 45.008C158.976 45.0367 158.913 45.0654 158.849 45.0998C158.7 45.1802 158.551 45.2605 158.408 45.3466C158.362 45.3753 158.311 45.3983 158.265 45.427C158.087 45.5418 157.909 45.6566 157.743 45.7771C157.674 45.8288 157.611 45.8862 157.542 45.9378C157.445 46.0125 157.353 46.0871 157.261 46.1674C157.175 46.2421 157.095 46.3167 157.015 46.3913C156.952 46.4544 156.889 46.5118 156.831 46.575C156.74 46.6668 156.654 46.7586 156.568 46.8505C156.562 46.8562 156.556 46.862 156.556 46.8677C156.436 46.862 156.327 46.8447 156.212 46.8447C154.916 46.8447 153.626 47.2064 152.147 47.964C151.299 48.3888 149.659 49.6056 148.908 50.6962L148.14 51.804L149.091 52.7626C149.418 53.0955 152.755 55.3398 153.397 55.7014C153.552 55.7932 153.695 55.8736 153.844 55.9597C153.861 55.9712 153.879 55.9826 153.896 55.9884C153.89 56.0745 153.884 56.1548 153.884 56.2352C153.873 56.4189 153.867 56.5911 153.861 56.7575C153.861 56.8666 153.861 56.9699 153.861 57.079C153.861 57.1651 153.867 57.2454 153.873 57.3315C153.879 57.4176 153.879 57.5152 153.89 57.607C153.896 57.6874 153.907 57.7677 153.913 57.8538C153.925 57.9399 153.936 58.026 153.947 58.1121C153.959 58.1925 153.97 58.2671 153.988 58.3475C154.005 58.4278 154.022 58.5139 154.033 58.5886C154.051 58.6632 154.068 58.7435 154.085 58.8124C154.108 58.887 154.131 58.9731 154.148 59.0477C154.171 59.1224 154.194 59.1912 154.217 59.2601C154.24 59.3405 154.274 59.4208 154.303 59.4955C154.326 59.5586 154.355 59.6275 154.377 59.6906C154.429 59.8226 154.486 59.9604 154.555 60.0867C154.584 60.1555 154.618 60.2129 154.658 60.2818C154.699 60.3564 154.733 60.4253 154.773 60.4999C154.813 60.5688 154.853 60.6377 154.893 60.7008C154.934 60.7697 154.974 60.8386 155.02 60.9075C155.06 60.9706 155.106 61.0395 155.151 61.1084C155.197 61.183 155.243 61.2519 155.295 61.3207C155.341 61.3839 155.387 61.4528 155.432 61.5159C155.49 61.5963 155.547 61.6709 155.604 61.7455C155.645 61.8029 155.69 61.8545 155.736 61.9119C155.822 62.021 155.908 62.1301 156 62.2391C156.017 62.2621 156.04 62.285 156.063 62.308C156.183 62.4515 156.304 62.6007 156.441 62.75C157.387 63.7831 159.4 64.4719 161.424 64.6728C162.691 64.7934 163.958 64.7302 164.973 64.4318C165.311 64.3227 165.689 64.0874 166.056 63.7946C166.165 63.7085 166.274 63.6167 166.377 63.5191C166.441 63.7028 166.521 63.875 166.618 64.0472C166.624 64.0587 166.63 64.0701 166.635 64.0759C166.928 64.5695 167.346 65.0172 167.776 65.4994C168.011 65.7749 168.292 65.9987 168.602 66.2054C169.215 66.6129 169.972 66.9573 170.878 67.5198C170.821 67.5543 170.769 67.5887 170.712 67.6174C170.54 67.7092 170.374 67.8068 170.219 67.8986C170.133 67.9503 170.058 68.002 169.978 68.0594C169.852 68.1455 169.726 68.2258 169.611 68.3119C169.537 68.3693 169.462 68.4325 169.393 68.4841C169.29 68.5702 169.187 68.6506 169.084 68.7424C169.015 68.8055 168.952 68.8687 168.889 68.9261C168.797 69.0122 168.711 69.104 168.625 69.1959C168.568 69.259 168.51 69.3164 168.459 69.3795C168.378 69.4771 168.298 69.5804 168.224 69.678C168.178 69.7354 168.132 69.7985 168.092 69.8559C168.011 69.9707 167.937 70.0913 167.868 70.2118C167.845 70.2577 167.817 70.2979 167.788 70.3438C167.702 70.5103 167.616 70.6825 167.547 70.8547C167.524 70.9063 167.513 70.9523 167.49 71.0039C167.438 71.1302 167.392 71.2622 167.352 71.3885C167.329 71.4631 167.312 71.5377 167.295 71.6066C167.26 71.7157 167.237 71.8305 167.209 71.9395C167.192 72.0199 167.174 72.106 167.157 72.1806C167.134 72.2897 167.117 72.3987 167.1 72.5078C167.088 72.5939 167.077 72.68 167.065 72.7661C167.048 72.8809 167.043 72.9957 167.031 73.1105C167.025 73.1966 167.02 73.2769 167.014 73.363C167.008 73.495 167.002 73.6213 166.997 73.7533C166.997 73.8279 166.991 73.9026 166.991 73.9772C166.991 74.1781 166.991 74.3905 166.997 74.5971V74.6028C167.002 74.8037 167.014 75.0104 167.025 75.217C166.939 75.3203 166.859 75.4294 166.79 75.5327C166.349 76.1985 165.512 76.8988 164.56 77.3752C163.706 77.8401 162.914 78.0869 162.76 78.1214L159.36 78.9077L162.123 80.9971C162.634 81.3759 165.305 83.0175 168.166 83.4308C168.74 83.5226 169.284 83.5685 169.8 83.5685C170.431 83.5685 171.016 83.4997 171.555 83.3504C171.681 83.448 171.813 83.5398 171.945 83.6317C171.968 83.6489 172.002 83.6661 172.031 83.6891C172.14 83.7522 172.248 83.8211 172.363 83.8727C172.403 83.8957 172.443 83.9129 172.484 83.9301C172.604 83.9818 172.73 84.0335 172.856 84.0736C172.891 84.0851 172.925 84.0966 172.959 84.1081C173.131 84.154 173.303 84.1884 173.493 84.2114C173.762 84.2286 174.032 84.2171 174.295 84.2057C174.347 84.1999 174.398 84.1999 174.45 84.1942C174.937 84.1597 175.413 84.0794 175.849 83.9646C175.901 83.9474 175.952 83.9359 176.004 83.9129C176.147 83.8727 176.285 83.8268 176.422 83.7752C176.485 83.7522 176.543 83.735 176.606 83.7063C176.732 83.6546 176.858 83.5972 176.967 83.5398C177.007 83.5226 177.053 83.4997 177.093 83.4767C177.248 83.3963 177.391 83.3102 177.512 83.2241C177.976 82.9027 178.383 82.3746 178.796 81.8006C179.169 81.2783 179.547 80.7158 179.971 80.2279C181.066 81.6858 182.769 83.2471 183.297 84.6132C183.302 84.6304 183.308 84.6419 183.308 84.6591C183.371 84.8428 183.423 85.015 183.446 85.1929C183.589 86.0883 183.818 87.7988 182.895 88.5393C182.764 88.6483 182.609 88.7287 182.425 88.7918C180.608 89.4003 179.753 87.5061 178.905 87.0412C178.899 87.0412 178.893 87.0297 178.888 87.0297C178.114 89.0329 178.481 90.0144 179.088 91.7019C179.18 91.943 179.392 92.2243 179.685 92.5285C180.516 93.378 181.984 94.3653 183.108 94.8991C183.589 95.1287 184.013 95.2836 184.283 95.3066C182.414 96.7818 181.645 99.2786 181.158 101.982C181.078 102.481 180.998 102.952 180.935 103.377C180.86 103.836 180.808 104.255 180.791 104.599C180.728 105.724 181.038 106.166 182.339 105.294C182.408 105.242 182.465 105.208 182.528 105.162C185.481 103.13 185.59 102.654 186.76 104.037C187.041 104.376 187.39 104.818 187.86 105.38C188.073 105.621 188.302 105.874 188.531 106.126C189.563 107.251 190.779 108.445 191.839 109.346C192.894 110.253 195.331 110.494 196.145 110.661C195.841 111.43 195.446 112.773 195.148 114.099C195.148 114.099 195.148 114.099 195.148 114.105C195.142 114.122 195.142 114.139 195.136 114.162C195.039 114.587 194.953 115.012 194.89 115.413C194.735 116.355 194.391 122.927 195.732 121.044C195.784 120.97 195.841 120.884 195.904 120.774C195.956 120.683 196.019 120.585 196.082 120.493C196.277 120.212 196.524 119.925 196.805 119.661C196.914 119.552 197.022 119.454 197.143 119.357C197.229 119.282 197.321 119.219 197.412 119.15C197.877 118.8 198.381 118.519 198.869 118.358C200.984 117.704 203.215 116.802 203.662 117.376C202.441 119.632 201.586 120.815 201.586 123.765C201.586 124.505 201.707 125.935 201.833 126.589C202.033 127.53 202.2 128.104 202.28 128.311C202.286 128.317 202.286 128.328 202.291 128.334C202.366 128.563 202.567 129.201 202.653 129.459C201.861 129.815 200.847 130.36 199.711 131.02C195.388 133.506 189.271 137.598 186.639 139.079C182.454 141.495 175.872 146.082 169.817 144.073C169.795 144.067 169.777 144.061 169.754 144.05C169.64 144.01 169.531 143.958 169.428 143.912C169.393 143.895 169.365 143.883 169.336 143.866C169.227 143.803 169.118 143.745 169.009 143.677C168.986 143.654 168.957 143.642 168.923 143.619C168.826 143.55 168.728 143.476 168.636 143.395C168.613 143.372 168.585 143.355 168.562 143.332C168.47 143.252 168.384 143.166 168.298 143.08C168.275 143.057 168.252 143.034 168.229 143.011C168.155 142.93 168.08 142.844 168.006 142.764C167.971 142.724 167.937 142.684 167.903 142.643C167.851 142.58 167.799 142.517 167.748 142.448C166.762 141.214 165.873 139.733 163.35 139.188C163.184 138.499 162.886 137.862 162.45 137.3C160.724 135.038 157.416 134.562 154.957 134.562C153.689 134.562 152.594 134.694 152.113 134.808L149.739 135.405L151.23 137.363C151.413 137.61 151.568 137.753 151.688 137.868C151.826 138.006 152.05 138.212 152.801 139.659C152.996 140.009 153.162 140.399 153.34 140.807C153.368 140.864 153.391 140.927 153.42 140.99C153.368 141.019 153.323 141.048 153.277 141.071C153.156 141.134 153.042 141.191 152.927 141.266C152.835 141.318 152.755 141.375 152.669 141.432C152.554 141.507 152.44 141.582 152.331 141.662C152.262 141.714 152.199 141.771 152.136 141.823C151.941 141.983 151.752 142.156 151.574 142.333C151.499 142.408 151.419 142.488 151.344 142.563C151.264 142.649 151.19 142.747 151.115 142.839C151.041 142.93 150.972 143.017 150.903 143.114C150.834 143.2 150.771 143.292 150.714 143.384C150.645 143.493 150.576 143.608 150.507 143.717C150.462 143.797 150.41 143.878 150.364 143.964C150.261 144.153 150.169 144.348 150.089 144.549C150.077 144.566 150.072 144.589 150.066 144.606C149.986 144.802 149.917 144.997 149.865 145.192C149.842 145.255 149.831 145.312 149.819 145.37C149.779 145.531 149.745 145.68 149.716 145.841C149.705 145.904 149.693 145.967 149.688 146.036C149.665 146.196 149.653 146.351 149.647 146.506C149.642 146.564 149.636 146.621 149.636 146.673C149.636 146.879 149.647 147.08 149.67 147.276C149.67 147.281 149.67 147.287 149.67 147.293C149.699 147.505 149.745 147.7 149.802 147.901C149.814 147.953 149.831 147.993 149.848 148.039C149.894 148.188 149.951 148.332 150.014 148.475C150.043 148.538 150.072 148.596 150.106 148.653C150.135 148.716 150.163 148.774 150.198 148.837C150.244 148.906 150.295 148.975 150.347 149.043C150.376 149.084 150.404 149.124 150.433 149.164C150.559 149.33 150.697 149.491 150.857 149.64C149.693 149.922 148.753 150.564 147.899 151.397C147.515 151.764 147.148 152.166 146.786 152.591C146.689 152.705 146.609 152.82 146.54 152.947C146.523 152.969 146.511 152.998 146.494 153.021C146.437 153.124 146.391 153.228 146.351 153.331C146.339 153.354 146.328 153.383 146.322 153.406C146.276 153.538 146.236 153.664 146.207 153.79C146.207 153.796 146.207 153.802 146.207 153.808C146.179 153.934 146.161 154.066 146.139 154.186C146.139 154.192 146.139 154.192 146.139 154.198C145.577 154.376 145.015 154.617 144.476 154.927C142.658 155.92 140.17 158.962 139.453 161.068L139.448 161.097L139.436 161.126C139.304 161.574 138.949 163.175 139.006 164.363L139.138 167.227L141.506 165.637C142.303 165.098 144.677 164.357 147.05 164.357C147.107 164.357 147.159 164.363 147.211 164.369C147.211 164.38 147.211 164.386 147.211 164.392C147.222 164.547 147.245 164.69 147.279 164.828C147.285 164.857 147.297 164.891 147.302 164.92C147.337 165.058 147.383 165.19 147.434 165.316C147.44 165.327 147.446 165.339 147.452 165.345C147.509 165.471 147.572 165.591 147.646 165.701C147.658 165.712 147.658 165.724 147.669 165.735C147.75 165.856 147.836 165.965 147.927 166.074C147.939 166.085 147.95 166.097 147.962 166.108C148.151 166.32 148.375 166.521 148.615 166.717C148.644 166.739 148.673 166.762 148.701 166.791C148.793 166.866 148.896 166.94 148.994 167.015C149.166 167.141 149.349 167.279 149.538 167.417C150.353 167.945 151.941 168.398 152.548 168.479C152.72 168.513 152.875 168.553 153.019 168.593C153.38 168.691 153.667 168.812 153.925 168.949C154.062 169.024 154.194 169.104 154.332 169.19C154.337 169.248 154.349 169.294 154.355 169.351C154.377 169.541 154.412 169.73 154.446 169.925C154.469 170.023 154.486 170.12 154.509 170.218C154.584 170.539 154.687 170.872 154.807 171.199C154.848 171.297 154.882 171.395 154.922 171.492C154.962 171.578 155.002 171.67 155.043 171.762C155.088 171.865 155.14 171.969 155.192 172.072C155.226 172.146 155.26 172.215 155.301 172.29C155.387 172.451 155.484 172.617 155.587 172.778C154.584 176.618 157.359 181.319 158.041 182.042L160.019 184.143L160.759 181.347C160.85 181.02 160.948 180.854 162.226 178.914C162.433 178.615 162.783 178.294 163.144 177.949C163.31 177.794 163.488 177.628 163.671 177.45C163.929 177.548 164.182 177.634 164.394 177.697C164.394 177.697 164.394 177.697 164.399 177.697C164.468 177.72 164.531 177.737 164.589 177.749C164.646 177.76 164.698 177.772 164.732 177.777C165.219 177.858 166.441 177.817 167.289 177.657C167.673 177.588 168.04 177.513 168.401 177.433C169.537 177.175 170.54 176.813 171.383 176.141C171.543 176.015 171.692 175.877 171.847 175.734C174.089 173.375 174.989 172.204 175.23 169.627C175.293 168.949 175.316 168.192 175.304 167.273C175.878 167.239 176.457 167.21 177.036 167.176C177.414 167.153 177.781 167.118 178.154 167.09C178.337 167.072 178.527 167.067 178.71 167.049C178.945 167.021 179.163 166.981 179.375 166.935C180.138 166.768 180.745 166.47 181.342 166.045C181.405 165.999 181.468 165.953 181.531 165.907C181.582 166.051 181.64 166.183 181.709 166.303C181.726 166.338 181.737 166.366 181.754 166.395C182.402 167.497 183.377 168.358 183.744 168.731C183.761 168.748 183.79 168.766 183.807 168.783C183.83 168.806 183.853 168.823 183.876 168.84C183.904 168.869 183.945 168.898 183.979 168.921C184.002 168.938 184.031 168.955 184.059 168.972C184.099 169.001 184.14 169.03 184.185 169.058C184.22 169.076 184.254 169.099 184.289 169.122C184.334 169.15 184.375 169.179 184.42 169.208C184.495 169.248 184.581 169.294 184.661 169.345C184.696 169.368 184.742 169.391 184.782 169.414C184.839 169.443 184.896 169.477 184.959 169.506C185.011 169.535 185.063 169.558 185.108 169.581C185.154 169.609 185.206 169.632 185.258 169.655C185.321 169.684 185.384 169.718 185.447 169.747C185.47 169.759 185.493 169.77 185.516 169.776C185.705 169.862 185.888 169.948 186.072 170.023C186.272 170.757 186.272 171.682 186.272 172.583V173.507C186.249 173.61 186.226 173.725 186.209 173.863L185.854 176.314L188.222 175.654C188.394 175.602 188.577 175.573 188.761 175.533C189.97 175.286 191.805 174.925 193.422 172.365C193.772 171.802 194.351 170.729 194.632 169.426C194.844 169.311 195.056 169.202 195.268 169.087C195.285 169.076 195.302 169.064 195.32 169.058C195.394 169.012 195.48 168.967 195.555 168.915C195.583 168.892 195.618 168.88 195.646 168.857C195.715 168.812 195.79 168.76 195.853 168.708C195.876 168.691 195.904 168.674 195.927 168.651C196.019 168.576 196.111 168.502 196.197 168.416C196.208 168.41 196.214 168.398 196.226 168.387C196.306 168.306 196.38 168.226 196.455 168.14C196.478 168.117 196.495 168.094 196.512 168.071C196.587 167.979 196.656 167.882 196.719 167.778C196.724 167.767 196.736 167.75 196.747 167.738C196.822 167.612 196.902 167.48 196.971 167.331C197.636 165.942 197.733 164.065 197.63 162.538C197.624 162.48 197.624 162.429 197.624 162.377C197.602 162.004 197.642 161.752 197.728 161.579C197.871 161.292 198.152 161.212 198.513 161.172C198.777 161.143 199.081 161.132 199.413 161.068C199.557 161.04 199.689 161.011 199.826 160.982C202.785 160.368 203.725 159.938 204.659 160.368C206.442 161.269 205.754 164.954 204.132 165.896C204.155 165.913 204.224 165.907 204.31 165.884C204.654 165.804 205.399 165.5 206.024 165.218C206.402 165.046 206.735 164.885 206.895 164.788C207.062 164.69 207.222 164.581 207.371 164.478C208.707 163.519 209.321 162.142 209.831 161.487C210.02 161.241 210.198 161.097 210.387 161.109C210.788 161.109 210.788 161.068 211.115 161.35L211.121 161.355C211.172 161.407 211.213 161.476 211.247 161.545C211.253 161.562 211.264 161.585 211.276 161.608C211.304 161.677 211.327 161.757 211.339 161.838C211.344 161.866 211.35 161.889 211.356 161.924C211.362 161.97 211.362 162.021 211.367 162.073C211.379 162.228 211.379 162.389 211.367 162.549C211.367 162.561 211.367 162.572 211.367 162.578C211.367 162.756 211.356 162.963 211.35 163.175C211.333 163.588 211.322 164.07 211.408 164.667C211.803 167.032 214.154 170.97 215.656 171.716C215.874 171.825 216.069 171.865 216.241 171.831C216.241 170.396 216.264 170.298 216.275 169.764C216.281 169.615 216.281 169.426 216.281 169.167C216.281 168.106 216.281 167.612 216.401 166.625C216.453 166.033 216.47 165.322 216.613 164.702C216.699 164.34 216.814 164.013 217.009 163.755C217.743 162.813 219.692 161.952 220.506 161.258C221.154 160.684 222.983 159.214 223.15 159.002C223.236 159.266 223.333 159.524 223.425 159.783C223.763 160.661 224.176 161.493 224.732 162.234C224.749 162.257 224.761 162.28 224.778 162.303C224.835 162.377 224.898 162.446 224.961 162.521C225.03 162.607 225.099 162.693 225.173 162.773C225.317 162.928 225.46 163.072 225.621 163.215C226.314 163.829 229.926 166.82 230.46 165.144C228.671 161.786 228.631 158.101 229.846 157.2C230.838 156.465 231.755 155.788 232.558 155.145C234.806 157.825 243.95 164.576 246.748 166.206C248.25 167.067 258.33 175.091 259.178 175.952C257.71 175.757 255.83 175.636 254.305 175.562C253.594 175.533 252.958 175.51 252.476 175.499C252.247 175.499 252.126 175.544 252.092 175.631C252.017 175.837 252.453 176.273 253.112 176.853C253.634 177.312 254.299 177.858 254.953 178.449C256.701 180.05 258.49 181.973 258.897 182.461C259.098 182.691 259.333 182.955 259.585 183.23C260.766 184.539 262.349 186.301 262.716 187.782C262.739 187.851 262.756 187.925 262.779 187.994C262.521 187.943 262.274 187.897 262.051 187.857C261.764 187.805 261.529 187.765 261.42 187.742C260.68 187.575 259.339 187.42 258.301 187.3C258.032 187.271 257.774 187.237 257.561 187.214C256.61 187.105 255.532 187.03 254.442 186.973C253.026 186.898 251.576 186.864 250.291 186.841C248.829 186.806 247.367 186.823 245.917 186.886C244.936 186.927 243.956 186.978 242.981 187.059C240.786 187.225 238.63 187.466 236.549 187.742C234.811 187.862 232.724 188.321 230.637 188.626C230.093 188.706 229.542 188.781 228.998 188.827C228.866 188.838 228.734 188.855 228.608 188.861C228.602 188.861 228.591 188.861 228.585 188.861C226.962 188.976 225.42 188.89 224.113 188.356C224.09 188.344 224.061 188.333 224.038 188.327C222.221 187.587 219.973 186.364 219.973 184.223C219.973 184.194 219.979 184.166 219.979 184.143C219.985 184.045 219.99 183.953 220.002 183.867C220.013 183.816 220.019 183.775 220.031 183.724C220.048 183.643 220.071 183.569 220.094 183.5C220.111 183.443 220.134 183.397 220.157 183.345C220.185 183.282 220.22 183.213 220.254 183.156C220.277 183.115 220.306 183.069 220.334 183.029C220.369 182.983 220.403 182.937 220.438 182.903C220.472 182.857 220.512 182.817 220.547 182.771C220.667 182.65 220.793 182.53 220.936 182.427C220.965 182.404 220.988 182.386 221.017 182.369C221.166 182.26 221.326 182.157 221.493 182.053C221.504 182.053 221.516 182.048 221.521 182.036C221.716 181.927 221.917 181.812 222.112 181.698C222.249 181.623 222.381 181.543 222.513 181.462C222.548 181.439 222.582 181.422 222.616 181.399C222.616 181.393 222.616 181.393 222.616 181.393C221.395 180.498 218.958 180.619 217.336 180.906C217.032 180.963 216.74 181.043 216.447 181.124C215.536 181.393 214.676 181.789 213.718 182.254C212.893 182.679 211.786 183.764 210.949 184.923C210.45 185.612 210.049 186.324 209.854 186.95C209.779 187.191 209.739 187.42 209.733 187.621C209.733 188.683 209.98 190.227 209.733 190.399C209.533 190.52 209.166 190.359 208.719 190.279C208.449 190.25 208.157 190.233 207.864 190.216C207.813 190.216 207.755 190.21 207.704 190.204C207.446 190.193 207.176 190.181 206.901 190.175C206.861 190.175 206.821 190.175 206.781 190.175C206.46 190.17 206.133 190.164 205.806 190.164H205.8C205.158 190.17 204.522 190.181 203.908 190.204H203.903C203.788 190.21 203.673 190.216 203.559 190.216C203.392 190.221 203.226 190.227 203.065 190.233C201.357 190.302 199.591 190.99 197.928 191.84C196.656 192.494 195.446 193.241 194.368 193.878C194.144 193.992 193.714 194.291 193.164 194.721C193.101 194.773 193.032 194.825 192.969 194.876C192.929 194.911 192.889 194.94 192.843 194.974C192.831 194.985 192.814 194.997 192.803 195.008C190.377 196.96 186.198 200.823 185.538 202.7C185.538 202.711 185.538 202.711 185.533 202.717C185.51 202.792 185.487 202.861 185.47 202.929C185.435 203.102 185.516 203.607 185.728 203.676C185.774 203.687 185.819 203.693 185.877 203.664C190.63 201.449 197.579 201.041 202.945 202.149C204.08 202.396 205.244 202.568 206.408 202.706C207.601 202.849 208.799 202.958 209.957 203.073C210.502 203.125 211.041 203.182 211.568 203.239C212.233 203.32 212.887 203.4 213.506 203.503C213.512 203.509 213.512 203.521 213.517 203.526C213.798 204.072 213.609 204.651 213.254 205.266C212.984 205.736 212.617 206.224 212.285 206.741C212.107 207.016 211.935 207.303 211.797 207.59C211.58 208.067 211.304 208.721 211.023 209.427C210.479 210.805 209.911 212.423 209.642 213.451C209.59 213.617 209.55 213.778 209.51 213.944C209.011 215.764 208.753 217.52 208.248 219.644C208.048 220.499 207.807 221.412 207.486 222.416C207.452 222.531 207.406 222.64 207.36 222.749C206.374 225.206 203.564 226.67 198.628 227.37C198.163 227.445 197.728 227.502 197.309 227.548C196.759 227.611 196.248 227.651 195.761 227.668C194.981 227.697 194.259 227.68 193.542 227.622C193.301 227.605 193.072 227.599 192.849 227.588C190.549 227.467 189.013 227.387 188.864 224.965C188.824 224.345 188.743 223.599 188.606 222.818C188.405 221.636 188.073 220.379 187.562 219.334C187.459 219.133 187.356 218.927 187.241 218.743C187.127 218.565 187.006 218.393 186.886 218.221C186.874 218.203 186.863 218.186 186.851 218.163C186.599 217.813 186.335 217.486 186.054 217.182C186.054 217.182 186.054 217.176 186.049 217.176C185.332 216.407 184.518 215.827 183.612 215.603C182.03 211.918 176.789 209.456 175.224 209.163L172.885 208.721L173.349 211.069C173.458 211.637 173.55 212.033 173.607 212.32C173.733 212.946 173.733 212.946 173.739 213.192C173.745 213.353 173.751 213.583 173.762 213.921L173.774 214.128C173.808 215.081 173.825 215.678 173.676 217.641C173.59 217.71 173.504 217.767 173.424 217.836C173.407 217.853 173.389 217.865 173.372 217.876C173.321 217.916 173.28 217.951 173.24 217.991C173.217 218.008 173.189 218.031 173.172 218.043C172.805 218.416 172.398 219.053 172.042 219.638C171.95 219.793 171.859 219.942 171.778 220.086C171.727 220.172 171.675 220.258 171.629 220.339C171.509 220.58 171.343 220.993 171.016 222.095C170.878 222.038 170.746 221.98 170.626 221.928C170.46 221.86 170.311 221.791 170.161 221.728C169.542 221.464 169.049 221.274 168.419 221.274C168.378 221.274 168.344 221.28 168.304 221.286C168.103 221.291 167.914 221.309 167.731 221.326C167.667 221.337 167.604 221.343 167.541 221.343C167.341 221.372 167.146 221.406 166.968 221.446C166.922 221.458 166.876 221.469 166.83 221.481C166.641 221.527 166.463 221.578 166.297 221.641C166.291 221.647 166.28 221.647 166.274 221.653C166.102 221.716 165.947 221.791 165.793 221.865C165.77 221.883 165.735 221.894 165.707 221.906C165.558 221.986 165.414 222.078 165.277 222.17C165.248 222.187 165.225 222.204 165.202 222.221C164.91 222.434 164.64 222.675 164.376 222.95C164.365 222.962 164.354 222.979 164.342 222.985C164.204 223.134 164.067 223.283 163.929 223.45C163.694 223.427 163.465 223.398 163.224 223.386H163.092C161.103 223.386 157.743 224.552 156.178 225.774L156.155 225.797L156.12 225.82C155.88 226.027 155.237 226.635 154.641 227.663L153.328 229.913L155.92 230.096C157.737 230.223 158.752 230.475 160.489 231.629C160.484 232.077 160.489 232.547 160.529 233.029C160.541 233.179 160.552 233.334 160.57 233.483C160.581 233.575 160.587 233.667 160.598 233.758C160.633 234.011 160.673 234.263 160.724 234.516C160.736 234.585 160.759 234.66 160.77 234.734C160.822 234.975 160.879 235.222 160.948 235.457C160.959 235.486 160.965 235.521 160.977 235.549C161.057 235.813 161.143 236.077 161.246 236.33C161.269 236.393 161.292 236.456 161.321 236.514C161.43 236.778 161.544 237.036 161.676 237.283C162.765 239.435 164.566 240.973 168.155 240.686C168.017 240.927 167.891 241.174 167.776 241.415C167.473 242.041 167.266 242.627 167.237 242.977C167.163 244.021 167.18 244.94 167.318 245.766C167.318 245.778 167.318 245.789 167.323 245.801C165.804 248.854 166.343 252.97 166.423 253.492L166.825 256.173L168.98 254.543C169.428 254.204 169.554 254.135 171.056 253.383L171.698 253.056C171.83 252.987 171.985 252.918 172.145 252.861C172.151 252.866 172.157 252.872 172.157 252.878C172.248 252.976 172.346 253.062 172.443 253.153C172.489 253.194 172.529 253.234 172.575 253.274C172.673 253.354 172.776 253.429 172.885 253.504C172.936 253.538 172.988 253.578 173.04 253.607C173.149 253.676 173.258 253.739 173.372 253.802C173.43 253.831 173.487 253.865 173.55 253.888C173.665 253.946 173.779 254.003 173.9 254.049C173.963 254.078 174.026 254.095 174.095 254.118C174.215 254.164 174.335 254.204 174.456 254.244C174.53 254.267 174.599 254.278 174.674 254.301C174.794 254.33 174.92 254.365 175.046 254.388C175.127 254.405 175.213 254.416 175.299 254.433C175.465 254.456 175.643 254.485 175.82 254.497C175.969 254.514 176.113 254.525 176.262 254.525C176.342 254.531 176.422 254.525 176.503 254.525C176.64 254.525 176.778 254.525 176.91 254.52C176.99 254.52 177.07 254.508 177.156 254.502C177.294 254.491 177.431 254.479 177.569 254.462C177.649 254.451 177.724 254.439 177.804 254.428C177.947 254.405 178.085 254.382 178.223 254.347C178.297 254.33 178.372 254.313 178.446 254.301C178.59 254.261 178.727 254.227 178.871 254.181C178.939 254.164 179.008 254.141 179.071 254.118C179.22 254.072 179.358 254.014 179.501 253.963C179.559 253.94 179.622 253.923 179.679 253.888C179.834 253.819 179.989 253.75 180.138 253.67C180.183 253.653 180.218 253.636 180.258 253.613C180.447 253.509 180.631 253.4 180.808 253.285C180.986 253.165 181.152 253.021 181.313 252.872C182.408 251.816 183.188 250.094 184.426 249.273C185.808 248.343 187.333 248.332 188.663 248.544C188.64 248.78 188.64 249.009 188.652 249.239C188.663 249.451 188.686 249.658 188.732 249.847C188.898 250.461 189.34 251.69 189.913 252.224C189.982 252.292 190.062 252.367 190.154 252.453C190.332 252.62 190.538 252.826 190.767 253.039C190.968 253.234 191.18 253.429 191.387 253.624C191.341 254.146 191.346 254.663 191.461 255.335C191.604 256.15 191.415 257.183 191.243 258.187L191.22 258.308C191.146 258.692 191.111 258.859 191.094 258.928C191.02 259.06 190.934 259.238 190.813 259.542L189.867 261.999L192.47 261.735C194.098 261.568 196.231 261.074 198.358 258.647C198.972 257.935 199.637 257.039 200.107 256.035C200.227 255.995 200.348 255.943 200.468 255.891C200.491 255.88 200.526 255.868 200.549 255.857C200.721 255.777 200.887 255.69 201.047 255.587C201.076 255.57 201.105 255.547 201.133 255.53C201.259 255.449 201.386 255.363 201.506 255.271C201.563 255.231 201.621 255.18 201.672 255.134C201.758 255.065 201.85 254.984 201.93 254.91C201.993 254.858 202.051 254.795 202.108 254.738C202.188 254.663 202.263 254.583 202.332 254.508C202.389 254.445 202.446 254.382 202.504 254.313C202.572 254.238 202.635 254.152 202.699 254.066C202.75 253.997 202.807 253.928 202.859 253.854C202.922 253.762 202.985 253.676 203.043 253.578C203.088 253.509 203.134 253.44 203.18 253.366C203.26 253.24 203.329 253.108 203.404 252.976C203.455 252.878 203.507 252.775 203.559 252.677C203.604 252.574 203.656 252.47 203.708 252.367C203.742 252.281 203.776 252.195 203.811 252.109C203.851 252.017 203.885 251.925 203.92 251.833C203.948 251.741 203.983 251.65 204.011 251.558C204.04 251.466 204.069 251.38 204.092 251.288C204.12 251.196 204.149 251.104 204.172 251.012C204.195 250.921 204.218 250.835 204.235 250.754C204.258 250.657 204.275 250.559 204.298 250.461C204.315 250.381 204.327 250.306 204.338 250.22C204.35 250.117 204.367 250.019 204.378 249.922C204.384 249.859 204.39 249.801 204.396 249.744C204.407 249.635 204.419 249.526 204.424 249.423C204.539 249.411 204.654 249.394 204.757 249.382C204.763 249.382 204.768 249.382 204.768 249.382C204.946 249.359 205.101 249.325 205.256 249.291C205.284 249.285 205.313 249.279 205.342 249.273C205.485 249.233 205.623 249.193 205.76 249.141C205.783 249.13 205.812 249.118 205.835 249.113C205.967 249.055 206.104 248.992 206.236 248.917C206.253 248.906 206.276 248.894 206.293 248.889C206.437 248.803 206.574 248.717 206.729 248.607C207.669 250.329 209.086 252.115 210.783 253.607C212.291 254.933 214.011 256.035 215.817 256.649C215.822 256.649 215.822 256.655 215.822 256.655C215.851 256.666 215.88 256.666 215.903 256.678C216.763 256.965 217.64 257.143 218.523 257.183C218.5 257.148 218.471 257.108 218.442 257.068C218.219 256.747 217.944 256.368 217.651 255.955C216.401 254.181 214.785 251.77 214.785 250.341C215.048 250.461 215.312 250.605 215.581 250.76C216.476 251.277 217.428 251.914 218.523 252.39C219.371 252.786 220.386 252.941 221.401 252.901C221.642 252.889 221.894 252.872 222.135 252.838C222.869 252.757 224.004 252.183 224.531 251.937C224.531 251.931 224.531 251.931 224.531 251.931C223.637 251.156 222.943 250.662 222.582 250.335C222.204 249.997 221.802 249.612 221.407 249.222C221.08 248.9 220.759 248.579 220.466 248.286C220.294 248.137 220.042 247.833 219.824 247.54C219.624 247.264 219.452 246.995 219.411 246.857C219.423 246.857 219.429 246.857 219.44 246.851C219.543 246.828 219.658 246.805 219.773 246.782C219.824 246.771 219.887 246.759 219.945 246.748C220.025 246.736 220.105 246.725 220.185 246.713C220.294 246.702 220.403 246.685 220.524 246.673C220.615 246.662 220.701 246.65 220.793 246.644C220.873 246.639 220.959 246.633 221.045 246.621C221.154 246.616 221.263 246.604 221.378 246.599C221.43 246.593 221.481 246.587 221.533 246.587C223.459 246.472 225.947 246.53 227.977 246.518C228.023 246.518 228.069 246.518 228.12 246.518C228.292 246.512 228.464 246.512 228.625 246.512C228.751 246.507 228.877 246.507 228.992 246.507C229.049 246.501 229.101 246.501 229.152 246.501C229.307 246.495 229.462 246.489 229.605 246.484C230.248 246.461 230.884 246.047 231.394 245.801C231.629 245.686 231.836 245.611 232.002 245.623C232.168 245.617 232.334 245.617 232.506 245.611C233.303 245.588 234.1 245.56 234.834 245.479C235 245.456 235.172 245.445 235.333 245.416C235.66 245.364 236.09 245.261 236.491 245.152C236.732 245.089 236.967 245.026 237.162 244.968C237.271 244.934 237.409 244.894 237.552 244.854C237.942 244.745 238.418 244.624 238.836 244.498C239.014 244.446 239.174 244.394 239.318 244.348C239.318 244.084 239.18 243.774 238.962 243.459C238.957 243.447 238.951 243.436 238.939 243.43C238.59 242.931 238.056 242.414 237.586 241.972C237.409 241.811 237.237 241.656 237.087 241.519C236.715 241.186 236.371 240.818 236.061 240.405C235.144 239.183 234.53 237.581 234.439 235.503C234.381 234.631 234.387 234.028 234.421 233.414C234.433 233.161 234.456 232.909 234.479 232.633C234.479 232.266 234.599 231.325 234.685 230.957C234.8 230.372 234.995 229.092 235.144 228.478C235.155 228.443 235.161 228.403 235.167 228.38C235.379 227.686 235.591 226.807 235.792 226.044C235.941 225.459 236.078 224.93 236.182 224.615C236.354 224.035 236.451 223.346 236.52 222.646C236.629 221.486 236.629 220.316 236.629 219.627C244.248 219.317 256.484 218.1 263.57 214.943C262.985 217.692 262.463 220.304 262.165 221.911C262.114 222.204 262.062 222.468 262.028 222.692C261.936 223.197 261.833 223.714 261.724 224.242C260.99 227.818 259.906 231.744 257.923 233.994C257.263 234.711 255.302 235.853 253.531 236.376C252.889 236.565 252.269 236.674 251.753 236.657C249.965 236.577 248.623 233.173 247.207 233.954H247.201C246.593 237.667 247.333 241.433 251.083 243.114C252.333 243.677 253.921 244.004 255.899 244.027C256.019 244.027 256.145 244.021 256.266 244.004C256.277 244.004 256.289 243.998 256.3 243.998C256.673 243.958 257.022 243.878 257.298 243.832C257.332 243.826 257.361 243.82 257.395 243.815C257.424 243.815 257.458 243.809 257.481 243.809C257.51 243.803 257.544 243.803 257.573 243.803C257.602 243.803 257.624 243.803 257.653 243.809C257.676 243.809 257.699 243.815 257.716 243.815C257.739 243.82 257.762 243.832 257.779 243.843C257.791 243.849 257.802 243.855 257.814 243.866C258.112 244.165 257.441 244.785 256.988 245.473C256.879 245.634 256.787 245.795 256.719 245.956C256.512 246.386 256.312 246.943 256.128 247.609C255.033 251.564 254.574 259.043 256.558 262.377C256.621 262.475 259.992 269.013 261.248 268.731C261.288 268.72 261.328 268.703 261.363 268.68C261.368 268.674 261.374 268.674 261.374 268.674C261.592 268.513 261.712 268.089 261.712 267.297C261.712 262.768 262.762 258.325 265.342 254.858C265.772 254.284 266.236 253.727 266.752 253.211C267.515 252.442 268.254 251.363 268.948 250.088C269.693 248.734 270.381 247.161 271.006 245.491C271.453 246.088 272.331 247.264 272.807 247.867C272.933 248.028 273.036 248.16 273.087 248.217C273.569 248.785 274.475 249.905 275.232 250.8C275.564 251.19 275.874 251.546 276.092 251.782C278.936 254.812 278.976 255.92 276.579 260.013C275.364 262.056 273.208 264.932 270.972 268.158C268.696 271.349 266.053 273.811 263.295 274.259C263.002 274.311 262.687 274.316 262.36 274.305C260.921 274.248 259.19 273.691 257.401 273.892C257.384 273.892 257.378 273.897 257.361 273.897C257.126 273.926 256.902 273.966 256.69 274.012C256.598 274.035 256.524 274.058 256.432 274.081C256.3 274.121 256.174 274.15 256.054 274.196C255.962 274.225 255.876 274.265 255.79 274.305C255.681 274.351 255.578 274.397 255.48 274.448C255.4 274.489 255.32 274.535 255.239 274.586C255.142 274.644 255.05 274.707 254.964 274.77C254.895 274.822 254.821 274.867 254.758 274.925C254.66 274.999 254.574 275.08 254.483 275.166C254.431 275.218 254.379 275.269 254.322 275.321C254.207 275.436 254.104 275.556 254.001 275.688C253.978 275.717 253.949 275.746 253.926 275.78C253.8 275.947 253.674 276.119 253.56 276.302C253.049 276.193 252.527 276.124 251.971 276.124C247.786 276.124 243.343 279.741 242.781 282.588L242.334 284.849L244.598 284.51C245.556 284.367 246.066 284.304 246.353 284.304C246.502 284.304 246.593 284.31 246.851 284.355C247.069 284.396 247.316 284.436 247.694 284.476C247.912 284.499 248.044 284.568 248.428 284.774C248.956 285.061 249.644 285.44 250.807 285.716C250.807 285.722 250.807 285.722 250.807 285.727C250.807 285.928 250.807 286.112 250.813 286.29C250.813 286.359 250.819 286.433 250.825 286.496C250.836 286.651 250.853 286.801 250.882 286.95C250.888 286.979 250.888 287.007 250.888 287.03C250.888 287.042 250.893 287.053 250.899 287.065C250.905 287.105 250.916 287.151 250.928 287.191C250.951 287.294 250.979 287.398 251.008 287.501C251.02 287.53 251.037 287.564 251.043 287.598C251.083 287.719 251.134 287.845 251.192 287.966C251.203 287.989 251.209 288.006 251.22 288.035C251.283 288.167 251.358 288.316 251.438 288.465C251.45 288.482 251.455 288.505 251.467 288.523C251.96 289.389 252.671 289.579 252.464 290.256C252.419 290.394 252.338 290.549 252.212 290.738C252.195 290.767 252.178 290.796 252.161 290.819C251.799 291.335 251.45 291.846 251.151 292.391C250.716 293.201 250.406 294.085 250.406 295.164C250.406 295.778 250.492 296.346 250.647 296.863C250.71 297.069 250.773 297.27 250.853 297.454C250.865 297.477 250.882 297.517 250.905 297.569C250.974 297.741 251.094 298.062 251.226 298.395C251.123 298.573 251.02 298.751 250.922 298.946C249.982 300.846 249.844 304.634 250.366 306.5L250.389 306.575C250.567 307.097 250.985 307.768 251.645 308.733L253.187 311L254.408 308.549C255.119 307.103 255.973 306.196 257.693 304.858C257.842 304.95 258.003 305.031 258.163 305.105C258.192 305.122 258.227 305.134 258.255 305.145C258.404 305.214 258.565 305.277 258.725 305.329C258.771 305.346 258.817 305.358 258.869 305.375C259.023 305.421 259.184 305.461 259.345 305.495C259.402 305.507 259.459 305.524 259.517 305.536C259.677 305.564 259.838 305.593 260.01 305.61C260.067 305.616 260.13 305.622 260.193 305.627C260.359 305.645 260.526 305.656 260.703 305.662C260.761 305.662 260.818 305.662 260.881 305.662C261.059 305.668 261.231 305.668 261.414 305.656C261.449 305.656 261.483 305.65 261.512 305.65C262.085 305.622 262.658 305.536 263.226 305.409C263.323 305.386 263.427 305.369 263.518 305.346C263.65 305.312 263.776 305.277 263.897 305.237C264.006 305.203 264.115 305.174 264.229 305.14C264.344 305.099 264.464 305.059 264.579 305.019C264.694 304.973 264.803 304.939 264.917 304.893C265.026 304.847 265.13 304.801 265.233 304.755C265.342 304.703 265.456 304.652 265.56 304.6C265.657 304.548 265.754 304.502 265.858 304.451C265.961 304.393 266.064 304.33 266.167 304.279C266.259 304.221 266.345 304.17 266.431 304.112C266.534 304.049 266.626 303.98 266.718 303.911C266.798 303.854 266.878 303.802 266.947 303.745C267.05 303.664 267.148 303.578 267.239 303.492C267.291 303.446 267.343 303.4 267.394 303.36C267.784 302.987 268.151 302.471 268.512 301.954C268.667 301.736 268.816 301.523 268.965 301.311C269.2 300.984 269.435 300.685 269.665 300.444C269.819 300.278 270.003 300.266 270.198 300.341C270.622 300.508 271.087 301.081 271.367 301.334C271.367 301.34 271.367 301.34 271.367 301.34C271.413 301.386 271.471 301.432 271.534 301.483C271.551 301.506 271.574 301.518 271.591 301.535C271.631 301.569 271.671 301.604 271.717 301.638C271.746 301.661 271.769 301.678 271.797 301.701C272.187 303.481 273.214 305.438 274.888 307.55L274.974 307.659L276.917 310.179L277.783 307.108C277.863 306.816 278.035 306.563 278.523 305.88C278.786 305.495 279.125 305.025 279.532 304.399C279.71 304.124 279.95 303.848 280.203 303.555C280.621 303.073 281.097 302.516 281.447 301.81C281.602 301.776 281.756 301.742 281.917 301.701C281.963 301.69 282.009 301.673 282.06 301.661C282.163 301.633 282.272 301.598 282.381 301.564C282.444 301.541 282.507 301.518 282.571 301.495C282.657 301.466 282.748 301.432 282.834 301.397C282.897 301.368 282.966 301.34 283.029 301.311C283.115 301.277 283.195 301.242 283.276 301.202C283.345 301.168 283.413 301.133 283.476 301.093C283.551 301.053 283.625 301.013 283.706 300.972C283.775 300.938 283.838 300.898 283.906 300.858C283.981 300.812 284.05 300.766 284.124 300.726C284.193 300.68 284.25 300.64 284.319 300.594C284.388 300.548 284.457 300.502 284.531 300.45C284.594 300.404 284.657 300.358 284.721 300.312C284.795 300.255 284.858 300.209 284.921 300.146C284.984 300.1 285.042 300.054 285.105 300.002C285.173 299.945 285.237 299.882 285.305 299.824C285.363 299.773 285.42 299.721 285.472 299.669C285.546 299.601 285.626 299.526 285.701 299.451C285.787 299.365 285.867 299.279 285.947 299.193C286.011 299.118 286.079 299.05 286.142 298.969C286.194 298.912 286.246 298.849 286.297 298.786C286.349 298.717 286.406 298.654 286.458 298.585C286.509 298.516 286.555 298.453 286.607 298.384C286.653 298.309 286.704 298.246 286.75 298.177C286.796 298.108 286.842 298.039 286.894 297.965C286.939 297.896 286.98 297.827 287.02 297.758C287.066 297.683 287.111 297.609 287.157 297.534C287.197 297.465 287.237 297.391 287.278 297.322C287.318 297.242 287.358 297.167 287.398 297.092C287.438 297.023 287.473 296.949 287.501 296.874C287.541 296.794 287.582 296.713 287.616 296.633C287.65 296.558 287.679 296.49 287.713 296.415C287.748 296.329 287.782 296.249 287.817 296.157C287.84 296.088 287.862 296.013 287.891 295.944C287.92 295.852 287.954 295.766 287.983 295.68C288 295.611 288.017 295.548 288.04 295.479C288.143 295.123 288.229 294.756 288.287 294.383C288.298 294.331 288.304 294.28 288.31 294.222C288.327 294.113 288.338 294.004 288.35 293.901C288.356 293.844 288.361 293.78 288.367 293.717C288.373 293.614 288.378 293.499 288.384 293.396C288.39 293.333 288.396 293.269 288.396 293.206C288.396 293.097 288.396 292.988 288.396 292.879C288.396 292.816 288.396 292.753 288.39 292.69C288.39 292.581 288.384 292.466 288.373 292.351C288.367 292.294 288.361 292.236 288.356 292.179C288.344 292.058 288.333 291.944 288.315 291.829C288.304 291.777 288.298 291.72 288.292 291.674C288.27 291.548 288.252 291.416 288.224 291.295C288.218 291.255 288.206 291.215 288.201 291.18C288.166 291.037 288.138 290.899 288.103 290.767C288.103 290.755 288.098 290.744 288.098 290.738C288.006 290.405 287.903 290.084 287.776 289.757C287.541 289.154 286.848 288.523 286.005 288.023C286.051 288 286.097 287.966 286.154 287.931C286.458 287.713 286.899 287.3 287.186 287.07C287.26 287.013 287.323 286.961 287.369 286.933C287.788 286.657 288.35 285.877 288.682 285.314C288.682 285.314 288.688 285.303 288.688 285.297C289.084 285.509 289.468 285.71 289.886 285.871C289.904 285.882 289.926 285.888 289.944 285.894C289.944 285.894 289.944 285.894 289.949 285.899C290.236 286.009 290.534 286.095 290.855 286.158C291.343 286.25 291.876 286.273 292.489 286.198C292.782 286.164 293.086 286.135 293.389 286.1C293.418 286.095 293.447 286.095 293.475 286.095H293.481C293.607 286.077 293.722 286.066 293.848 286.043C293.923 286.037 293.997 286.032 294.066 286.02C294.249 285.991 294.433 285.957 294.611 285.917C295.018 285.831 295.482 285.676 295.889 285.521C295.901 285.526 295.901 285.532 295.912 285.549C296.187 286.026 296.508 286.439 296.818 286.847C297.03 287.128 297.237 287.398 297.42 287.673L298.67 289.487L300.04 287.742C301.147 286.341 301.68 285.532 301.863 282.427C301.961 280.292 301.324 278.334 300.103 277.043C300.046 276.985 299.983 276.934 299.92 276.876C299.903 276.785 299.891 276.698 299.88 276.618C299.874 276.549 299.857 276.475 299.851 276.411C299.771 276.044 299.123 274.982 299.037 274.856C298.928 274.741 298.882 274.638 298.882 274.529C298.882 274.523 298.882 274.512 298.882 274.506C298.888 274.46 298.899 274.414 298.922 274.368C298.928 274.357 298.934 274.345 298.939 274.339C298.962 274.293 298.991 274.253 299.025 274.213C299.037 274.202 299.048 274.19 299.06 274.179C299.1 274.138 299.146 274.098 299.197 274.058C299.209 274.047 299.226 274.035 299.243 274.024C299.295 273.983 299.352 273.943 299.415 273.909C299.427 273.897 299.45 273.886 299.467 273.874C299.536 273.84 299.604 273.8 299.685 273.76C299.708 273.748 299.719 273.742 299.736 273.731C299.828 273.685 299.92 273.645 300.017 273.605C300.046 273.593 300.08 273.576 300.109 273.564C300.189 273.536 300.27 273.501 300.35 273.467C300.43 273.438 300.505 273.404 300.585 273.381C300.614 273.369 300.642 273.358 300.677 273.346C300.768 273.312 300.866 273.277 300.958 273.249C300.975 273.243 300.992 273.237 301.003 273.232C301.445 273.082 301.898 272.939 302.299 272.818C302.334 272.807 302.362 272.795 302.391 272.79C302.46 272.767 302.523 272.749 302.58 272.732C302.672 272.703 302.775 272.675 302.861 272.646C303.05 272.583 303.268 272.491 303.486 272.388C304.013 272.13 304.598 271.774 305.091 271.378C305.458 271.085 305.779 270.775 305.991 270.471C306.077 270.35 306.146 270.224 306.192 270.109C306.227 270.069 306.33 269.839 306.313 269.799C306.313 269.793 306.313 269.782 306.313 269.782C306.146 269.782 305.516 269.673 304.954 269.535C304.661 269.466 304.386 269.386 304.203 269.305C304.128 269.271 304.071 269.237 304.031 269.208C304.065 269.196 304.134 269.173 304.237 269.133C304.959 268.835 307.259 267.825 307.941 267.388C307.952 267.383 307.969 267.371 307.981 267.365C307.992 267.36 307.992 267.36 308.004 267.354C308.038 267.331 308.078 267.308 308.096 267.285C308.784 266.671 309.397 265.93 309.804 265.362C310.131 264.955 310.372 264.874 310.171 264.467C310.131 264.386 309.884 264.3 309.603 264.26C308.996 264.18 308.021 264.14 307.287 264.059C307.104 264.036 306.473 264.031 305.86 263.956C305.848 263.956 305.842 263.956 305.831 263.956C305.768 263.944 305.711 263.939 305.647 263.933C305.607 263.921 305.573 263.921 305.533 263.916C305.487 263.91 305.447 263.899 305.401 263.893C305.326 263.876 305.258 263.864 305.189 263.847C305.172 263.847 305.16 263.841 305.149 263.835C305.074 263.824 305.011 263.801 304.948 263.784C304.925 263.772 304.908 263.766 304.891 263.761C304.845 263.744 304.799 263.726 304.759 263.709C304.742 263.698 304.724 263.692 304.707 263.68C304.667 263.663 304.638 263.64 304.61 263.617C304.598 263.606 304.587 263.6 304.57 263.589C304.541 263.56 304.512 263.525 304.495 263.497C304.495 263.491 304.489 263.491 304.489 263.485C304.415 263.342 304.518 263.21 304.701 263.078C305.114 262.802 305.934 262.578 306.146 262.464C306.731 262.171 307.253 261.815 307.734 261.419C308.13 261.092 308.503 260.742 308.829 260.374C309.323 259.84 309.563 259.393 309.93 258.819C310.011 258.652 310.251 258.078 310.332 257.791C311.312 257.625 313.365 255.748 314.471 254.037C314.746 253.613 314.964 253.205 315.09 252.838C315.108 252.775 315.119 252.729 315.142 252.677C315.234 252.407 315.285 252.224 315.251 252.017C315.171 251.65 315.004 251.69 314.683 251.73C313.909 251.816 312.774 252.304 312.166 252.344C312.029 252.35 311.914 252.344 311.811 252.338C311.788 252.338 311.771 252.333 311.748 252.333C311.668 252.327 311.587 252.315 311.53 252.298C311.513 252.292 311.496 252.287 311.473 252.281C311.415 252.264 311.364 252.247 311.324 252.224C311.306 252.212 311.295 252.206 311.283 252.195C311.249 252.172 311.22 252.143 311.197 252.115C311.192 252.103 311.186 252.086 311.174 252.074C311.157 252.046 311.146 252.011 311.14 251.977C311.134 251.96 311.134 251.942 311.134 251.931C311.134 251.891 311.134 251.85 311.146 251.81C311.146 251.793 311.152 251.77 311.163 251.747C311.174 251.707 311.192 251.655 311.209 251.609C311.215 251.586 311.226 251.569 311.238 251.541C311.266 251.489 311.295 251.437 311.329 251.374C311.341 251.357 311.352 251.34 311.364 251.317C311.404 251.254 311.45 251.185 311.501 251.116C311.513 251.104 311.518 251.093 311.53 251.081C311.971 250.473 312.717 249.704 313.388 248.906C313.508 247.718 314.528 246.69 315.136 245.829C316.478 243.906 317.045 243.046 317.126 241.45C317.126 240.996 317.206 240.629 316.799 240.342H316.793C316.593 240.221 316.312 240.176 315.985 240.176C315.503 240.204 315.022 240.273 314.58 240.325C314.488 240.336 314.397 240.348 314.305 240.354C314.213 240.365 314.116 240.376 314.03 240.382H314.024C313.852 240.411 313.428 240.497 313.032 240.56C312.849 240.589 312.671 240.612 312.528 240.629C312.161 240.658 311.536 240.646 311.02 240.583C310.853 240.566 310.704 240.543 310.572 240.508C308.136 240.181 303.423 236.37 302.202 234.694C301.25 233.425 296.612 229.603 294.565 228.765C294.433 228.707 294.307 228.661 294.192 228.638C295.19 219.977 295.517 209.634 294.886 200.1C297.357 204.158 300.505 207.837 303.985 210.994C308.657 215.167 313.777 218.772 318.083 223.111C320.755 225.803 322.98 228.529 324.745 231.646C325.72 233.368 326.551 235.216 327.228 237.242C327.343 237.661 327.44 238.098 327.526 238.54C328.019 241.169 327.956 244.067 327.956 246.903C327.956 247.901 327.205 250.703 327.761 251.19C327.979 251.38 328.398 251.225 329.143 250.461C331.631 247.988 332.984 245.944 334.423 243.218C334.739 242.615 335.06 241.972 335.404 241.289C335.421 241.255 335.438 241.209 335.461 241.169C335.845 240.336 336.281 239.033 336.591 237.782C336.803 236.927 336.958 236.1 336.986 235.48C336.992 235.36 336.992 235.245 336.998 235.124C337.032 234.12 337.049 233.064 337.015 232.071C337.009 231.87 337.003 231.663 336.992 231.462C336.958 230.86 336.803 230.148 336.619 229.459C336.367 228.512 336.075 227.605 335.977 227.083C335.977 227.003 335.977 226.934 335.989 226.871C335.989 226.859 335.989 226.853 335.989 226.848C335.994 226.796 336.006 226.744 336.017 226.698C336.017 226.693 336.017 226.681 336.023 226.67C336.034 226.629 336.052 226.589 336.069 226.561C336.075 226.555 336.075 226.549 336.075 226.543C336.12 226.474 336.172 226.423 336.235 226.4C336.235 226.4 336.241 226.4 336.241 226.394C336.27 226.383 336.304 226.377 336.333 226.371C336.338 226.371 336.344 226.371 336.344 226.371C336.373 226.365 336.401 226.371 336.424 226.371C336.447 226.371 336.47 226.377 336.499 226.377C336.522 226.383 336.539 226.383 336.562 226.388C336.591 226.4 336.614 226.406 336.642 226.411C336.665 226.423 336.688 226.429 336.717 226.44C336.74 226.446 336.763 226.457 336.786 226.469C336.849 226.497 336.917 226.532 336.98 226.572C336.986 226.578 336.992 226.584 337.003 226.584C337.044 226.606 337.089 226.635 337.13 226.658C337.135 226.664 337.141 226.664 337.147 226.67C337.336 226.79 337.519 226.922 337.68 227.031C338.425 227.525 339.744 227.967 340.868 228.225C341.516 228.374 342.1 228.466 342.473 228.466C342.96 228.466 343.453 228.46 343.952 228.449C345.151 228.426 346.343 228.363 347.432 228.219C350.884 227.892 354.255 227.112 357.265 225.642C358.567 224.988 360.029 224.333 361.003 223.306C361.279 223.036 361.514 222.749 361.766 222.468C361.955 222.25 362.156 222.032 362.362 221.814C362.368 221.808 362.379 221.796 362.385 221.791C362.42 221.756 362.546 221.624 362.683 221.412C362.706 221.377 362.729 221.343 362.752 221.297C362.758 221.268 362.798 221.2 362.838 221.113C362.85 221.096 362.855 221.079 362.867 221.056C362.981 220.821 363.153 220.499 363.194 220.39C363.205 220.367 363.205 220.356 363.205 220.356C362.89 220.321 362.609 220.35 362.334 220.396C361.955 220.459 361.588 220.545 361.181 220.557C361.107 220.557 361.038 220.557 360.969 220.557C359.369 220.488 357.632 220.27 355.878 219.954C352.57 219.357 349.198 218.416 346.567 217.537C346.194 217.411 345.827 217.285 345.483 217.164C345.466 217.159 345.46 217.153 345.449 217.141C345.403 217.124 345.363 217.107 345.328 217.084C345.311 217.073 345.305 217.061 345.288 217.055C345.26 217.038 345.237 217.021 345.219 216.998C345.208 216.986 345.202 216.969 345.196 216.963C345.179 216.941 345.168 216.918 345.156 216.895C345.151 216.883 345.151 216.872 345.151 216.854C345.145 216.837 345.145 216.803 345.151 216.786C345.151 216.768 345.151 216.757 345.156 216.745C345.162 216.717 345.173 216.688 345.185 216.659C345.185 216.648 345.191 216.636 345.196 216.619C345.214 216.585 345.237 216.55 345.265 216.516C345.265 216.504 345.277 216.493 345.282 216.493C345.644 215.999 346.647 215.368 347.713 214.771C348.562 214.294 349.451 213.841 350.076 213.497C350.19 213.439 350.288 213.382 350.379 213.33C350.385 213.33 350.385 213.33 350.391 213.324C350.592 213.21 350.758 213.112 350.844 213.043C352.266 211.895 353.04 210.707 353.814 209.318C354.06 208.876 354.84 207.246 355.362 206.086C355.614 205.53 355.803 205.082 355.843 204.933C356.027 204.296 356.617 203.016 356.841 202.137C356.864 202.057 356.881 201.971 356.898 201.902C356.904 201.833 356.915 201.77 356.927 201.707C357.019 201.001 356.996 200.542 356.738 200.427C356.422 200.283 355.906 200.473 355.276 200.84C354.227 201.46 352.856 202.579 351.572 203.515C351.016 203.917 350.483 204.278 349.995 204.56C349.428 204.875 348.722 205.208 347.948 205.541C346.309 206.259 344.354 206.976 342.639 207.504C341.676 207.831 340.793 208.302 340.122 208.721C339.675 208.997 339.314 209.243 339.09 209.416C339.016 209.473 338.947 209.519 338.901 209.553C339.148 207.55 340.203 204.967 340.61 203.125C341.143 200.972 341.143 199.078 341.109 196.994C341.126 196.994 341.143 196.994 341.16 196.989C341.183 196.989 341.2 196.989 341.223 196.977C342.588 196.386 343.895 195.502 345.053 194.503C345.89 193.78 346.647 193.005 347.283 192.23C347.45 192.035 347.754 191.633 348.109 191.111C349.244 189.441 350.941 186.502 350.603 185.09C351.985 184.275 354.702 182.18 356.096 180.515C358.343 177.743 359.467 174.965 359.57 171.98C360.31 171.463 361.078 170.843 361.944 170.034C364.524 167.595 365.281 164.334 365.309 159.915C365.991 159.226 366.588 158.474 367.058 157.665C368.491 155.271 370.309 149.239 369.162 145.634C372.115 141.782 373.898 136.307 372.51 131.784C372.459 131.623 372.419 131.462 372.361 131.307C373.783 128.081 374.592 124.563 373.479 120.723C373.273 120 373.003 119.259 372.648 118.507C372.654 118.496 372.659 118.479 372.665 118.461C372.786 118.14 372.912 117.807 373.032 117.445C373.152 117.112 373.244 116.699 373.319 116.234C373.319 116.234 373.319 116.228 373.324 116.223C373.474 115.299 373.531 114.191 373.485 113.06C373.485 113.054 373.485 113.049 373.485 113.043C373.479 112.779 373.462 112.509 373.439 112.245C373.433 112.222 373.433 112.199 373.433 112.176C373.399 111.78 373.353 111.39 373.29 111.017C373.273 110.925 373.256 110.833 373.244 110.741C373.233 110.655 373.21 110.575 373.198 110.489C373.17 110.339 373.135 110.196 373.101 110.047C373.089 110.018 373.084 109.983 373.078 109.949C372.98 109.57 372.86 109.214 372.728 108.899C372.722 108.881 372.711 108.864 372.705 108.841C372.642 108.698 372.573 108.56 372.505 108.439C372.499 108.428 372.493 108.416 372.487 108.399C372.407 108.262 372.327 108.135 372.241 108.026C370.859 108.56 369.965 111.057 367.241 112.859C366.485 113.347 365.722 113.892 364.959 114.461C363.589 115.471 362.219 116.538 360.866 117.405C360.751 117.48 360.648 117.549 360.539 117.623C359.742 118.157 359.1 118.651 358.595 119.121C358.458 116.177 358.171 113.192 357.208 110.856C355.19 105.902 353.923 102.969 351.492 98.7735C351.331 98.4922 351.159 98.2052 350.987 97.9125C350.792 97.5796 350.58 97.2237 350.362 96.8678C348.069 92.9934 344.772 87.6898 341.751 84.992C344.141 83.7293 347.507 82.8453 350.786 84.4066C351.589 84.8026 352.249 85.411 352.77 86.14C353.991 87.8447 354.456 90.2096 354.198 92.0636C354.198 92.0636 354.198 92.0636 354.204 92.0636C354.227 92.0578 354.249 92.0463 354.272 92.0349C354.496 91.966 354.72 91.8799 354.943 91.7823C355.023 91.7479 355.098 91.7019 355.178 91.6618C355.339 91.5814 355.505 91.5011 355.66 91.4035C355.757 91.3461 355.849 91.2829 355.941 91.2198C356.078 91.1337 356.216 91.0419 356.354 90.95C356.451 90.8754 356.554 90.8008 356.652 90.7204C356.715 90.6688 356.778 90.6286 356.835 90.5769C356.904 90.5195 356.967 90.4564 357.036 90.3933C357.116 90.3244 357.196 90.2555 357.277 90.1809C357.414 90.0489 357.558 89.9111 357.69 89.7734C357.753 89.7102 357.816 89.6528 357.873 89.5839C358.056 89.3888 358.228 89.1879 358.4 88.9812C358.481 88.8894 358.555 88.7918 358.63 88.6942C358.727 88.568 358.825 88.4417 358.916 88.3097C358.997 88.2006 359.071 88.0916 359.152 87.9768C359.238 87.8562 359.318 87.73 359.392 87.5979C359.461 87.4889 359.536 87.3741 359.604 87.2593C359.69 87.11 359.776 86.9608 359.857 86.8116C359.954 86.6279 360.046 86.4442 360.138 86.2605C360.201 86.1285 360.258 86.0022 360.315 85.876C360.373 85.7497 360.424 85.6234 360.476 85.5029C360.522 85.3823 360.568 85.2733 360.602 85.1585C360.648 85.0322 360.694 84.9059 360.734 84.7796C360.768 84.6649 360.803 84.5501 360.831 84.4353C360.866 84.3147 360.9 84.1942 360.929 84.0794C360.975 83.8727 361.015 83.6719 361.044 83.4767C361.055 83.3619 361.061 83.2586 361.078 83.1553C361.084 83.0462 361.095 82.9371 361.095 82.8338C361.101 82.7305 361.101 82.6272 361.095 82.5296C361.089 82.4263 361.078 82.3287 361.072 82.2311C361.061 82.1336 361.055 82.0417 361.038 81.9556C361.015 81.8408 360.986 81.726 360.952 81.617C360.935 81.5653 360.929 81.5079 360.906 81.4505C360.321 79.9065 359.427 78.6265 358.36 77.6565C361.25 76.1928 365.051 71.8592 364.736 64.2251C364.759 64.1849 364.782 64.1448 364.799 64.1046C364.925 63.852 365.045 63.6052 365.16 63.3469C365.195 63.2666 365.235 63.1805 365.269 63.1058C365.309 63.0025 365.361 62.9049 365.401 62.8131C365.47 62.6581 365.544 62.4917 365.607 62.331C365.711 62.0956 365.802 61.8488 365.888 61.602C366.313 60.3737 366.548 58.9559 366.708 57.6472C366.737 57.4463 366.76 57.2454 366.783 57.0503C366.869 56.063 366.674 53.8302 366.416 52.114C366.341 51.5974 366.261 51.1267 366.181 50.7479C366.519 49.8123 366.743 48.9972 366.829 48.406C367.018 47.0456 367.098 45.6107 367.001 44.1757C366.851 41.9831 366.272 39.7904 364.982 37.8676C364.982 37.8676 364.977 37.8676 364.977 37.8618C364.965 37.8389 364.948 37.8216 364.937 37.7987C364.638 37.3682 364.312 36.9492 363.945 36.5474C363.973 36.2834 363.991 36.048 363.991 35.8758C363.991 30.6755 362.769 25.8425 358.911 24C358.957 33.0116 351.922 37.3108 350.219 46.0297C349.221 44.4971 347.725 43.1942 345.999 42.4767C345.942 42.4537 345.884 42.4308 345.827 42.4136C345.667 42.3504 345.506 42.2873 345.34 42.2356C345.145 42.1725 344.944 42.1208 344.749 42.0749C344.721 42.0692 344.692 42.0577 344.663 42.0519C344.451 42.006 344.233 41.9716 344.015 41.9371C343.998 41.9371 343.987 41.9314 343.969 41.9314C343.809 41.9084 343.648 41.9027 343.494 41.897C343.419 41.897 343.345 41.8797 343.264 41.8797C343.173 41.8797 343.075 41.8855 342.983 41.8855C342.84 41.8855 342.697 41.8855 342.548 41.897C342.525 41.897 342.496 41.9027 342.473 41.9084C341.779 41.9716 341.074 42.1323 340.375 42.425C339.044 42.9474 338.007 43.5156 337.135 44.2675C336.034 45.2146 335.197 46.4544 334.36 48.274C333.225 50.8167 335.862 49.9156 337.124 49.7893C346.028 48.6815 343.058 60.5975 342.284 62.1128C341.131 64.3571 340.237 65.9815 338.574 67.9847C337.783 68.949 336.808 69.9937 335.541 71.245C335.358 71.4287 335.152 71.6296 334.939 71.8362C334.509 72.2552 334.022 72.7316 333.489 73.254C333.225 73.5237 332.944 73.7992 332.657 74.092C332.474 74.2757 332.296 74.4536 332.107 74.643C329.751 72.1462 327.153 68.4038 325.502 64.4203C324.51 62.0325 323.857 59.5529 323.799 57.1995C323.788 56.9125 323.788 56.6313 323.794 56.3615C323.834 54.3583 324.321 52.9405 325.508 51.7122C325.514 51.7007 325.531 51.6892 325.548 51.6777C325.617 51.6089 325.686 51.54 325.754 51.4711C325.789 51.4424 325.823 51.4194 325.852 51.3907C325.904 51.3448 325.955 51.3046 326.007 51.2645C326.041 51.2358 326.076 51.2128 326.116 51.1898C326.167 51.1611 326.213 51.1267 326.259 51.098C326.299 51.075 326.339 51.0521 326.374 51.0349C326.425 51.0119 326.471 50.9832 326.523 50.9602C326.557 50.943 326.597 50.9258 326.637 50.9086C326.695 50.8856 326.746 50.8684 326.798 50.8512C326.832 50.8397 326.867 50.8282 326.901 50.8167C326.987 50.7938 327.073 50.7708 327.153 50.7536C327.188 50.7479 327.216 50.7421 327.251 50.7364C327.308 50.7306 327.366 50.7192 327.423 50.7134C327.463 50.7077 327.503 50.7077 327.543 50.7077C327.589 50.7019 327.641 50.6962 327.687 50.6962C327.727 50.6962 327.761 50.6962 327.796 50.6962C327.87 50.7019 327.945 50.7019 328.013 50.7077C328.042 50.7134 328.071 50.7134 328.099 50.7134C328.197 50.7249 328.294 50.7364 328.392 50.7536C328.421 50.7593 328.455 50.7708 328.484 50.7766C328.558 50.788 328.627 50.8053 328.696 50.8225C328.724 50.8282 328.759 50.8397 328.793 50.8454C328.885 50.8684 328.977 50.8971 329.074 50.9258C329.086 50.9315 329.103 50.9373 329.12 50.943C329.206 50.966 329.286 51.0004 329.367 51.0291C329.395 51.0349 329.418 51.0521 329.447 51.0578C329.527 51.0865 329.602 51.1152 329.682 51.1439C329.693 51.1554 329.711 51.1611 329.728 51.1669C329.819 51.2071 329.911 51.2415 330.003 51.2817C330.026 51.2932 330.043 51.2932 330.06 51.3046C330.141 51.3391 330.215 51.3735 330.29 51.4137C330.301 51.4137 330.313 51.4194 330.324 51.4252C330.427 51.4711 330.53 51.517 330.628 51.5629C330.679 51.5859 330.731 51.6088 330.788 51.6318C330.817 51.6433 330.84 51.6548 330.869 51.6662C330.932 51.6949 330.995 51.7236 331.052 51.7466C331.064 51.7523 331.069 51.7581 331.081 51.7581C331.155 51.7868 331.213 51.8097 331.276 51.8327C331.293 51.8327 331.31 51.8384 331.327 51.8442C331.379 51.8614 331.431 51.8729 331.476 51.8901C331.488 51.8901 331.499 51.8958 331.517 51.9016C331.574 51.9131 331.625 51.9245 331.677 51.9303C331.683 51.9303 331.689 51.9303 331.689 51.9303C331.74 51.9303 331.78 51.9303 331.815 51.9303C331.826 51.9303 331.838 51.9245 331.838 51.9245C331.889 51.9188 331.929 51.9073 331.969 51.8901C331.958 51.8671 331.941 51.8384 331.924 51.8097C331.207 50.5068 330.754 47.7918 328.604 45.9091C327.687 45.1113 326.465 44.457 324.774 44.147C321.237 43.4927 318.479 44.8415 316.65 46.8907C316.099 47.4761 315.526 48.3888 315.062 49.1981C315.05 49.2211 315.039 49.244 315.027 49.267C315.004 49.1177 314.993 48.9742 314.976 48.8307C314.918 48.3716 314.867 47.9583 314.832 47.6311C314.809 47.4245 314.781 47.2178 314.746 47.0112C314.23 43.9289 312.516 41.0475 311.948 38.7056C311.885 38.4588 311.828 38.2062 311.771 37.9537C311.645 37.4026 311.53 36.8286 311.432 36.2432C311.209 34.946 311.071 33.5741 311.094 32.1908C311.134 30.3483 311.215 26.2099 312.109 24.0804C311.725 24.3387 311.358 24.5912 311.008 24.8495C308.583 26.6403 306.869 28.6321 305.67 32.1736C305.504 32.673 305.344 33.201 305.195 33.7635C301.812 37.041 298.916 42.2528 299.599 48.0731C299.662 48.6356 299.788 49.2325 299.971 49.8524C299.736 50.1624 299.53 50.5068 299.352 50.8684C297.959 53.6809 298.097 58.0375 298.83 60.7238C298.928 61.0854 299.037 61.4183 299.152 61.711C299.473 62.5204 299.937 63.3125 300.499 64.0587C300.315 64.7474 300.189 65.3731 300.092 65.9586C299.69 68.5817 300.138 70.2979 300.614 71.8649C300.791 72.4906 301.118 73.1219 301.56 73.7361C301.582 73.7705 301.611 73.805 301.634 73.8337C301.76 74.0059 301.892 74.1781 302.035 74.3503C302.11 74.4364 302.19 74.5167 302.259 74.5971C302.362 74.7119 302.465 74.8267 302.574 74.9415C302.597 74.9702 302.632 74.9931 302.655 75.0161C303.205 75.5671 303.841 76.0837 304.524 76.5372C301.238 77.3752 300.619 79.8778 300.894 83.3332C300.917 83.5628 300.963 83.8096 301.021 84.0736C301.221 84.9633 301.651 86.0137 302.207 86.9895C302.58 87.6438 302.999 88.2638 303.457 88.7803C303.721 89.0846 304.776 90.0087 305.774 90.7606C305.779 90.7606 305.785 90.7663 305.791 90.7721C305.797 90.7836 305.808 90.7893 305.819 90.795C306.313 91.1567 306.777 91.4838 307.132 91.6618C307.488 91.8512 307.723 91.8914 307.723 91.6847C307.723 91.0878 307.689 90.4507 307.677 89.802C307.66 88.0686 307.843 86.2835 309.449 85.2044C309.638 85.0781 309.844 84.9518 310.079 84.8485C310.383 84.705 310.773 84.6017 311.215 84.5328C312.327 84.3434 313.743 84.3606 314.872 84.4869C315.234 84.5271 315.566 84.5788 315.847 84.6476C317.665 85.1011 319.935 86.978 320.898 87.7299C319.528 89.561 318.123 91.5585 316.678 93.7166C315.171 95.9782 313.634 98.4233 312.086 101.069C312.012 101.19 311.943 101.311 311.868 101.437C311.776 101.586 311.685 101.758 311.582 101.948C310.332 104.244 308.096 109.214 306.536 113.852C306.53 113.869 306.525 113.887 306.525 113.898C306.485 113.996 306.456 114.099 306.421 114.202C306.387 114.323 306.341 114.438 306.307 114.558C306.301 114.57 306.301 114.575 306.295 114.587C306.089 115.224 305.9 115.855 305.728 116.475C305.722 116.493 305.716 116.504 305.716 116.521C305.607 116.917 305.504 117.308 305.412 117.692C305.263 118.283 305.143 118.857 305.051 119.391C305.034 119.374 305.017 119.351 305 119.334C302.437 116.51 301.141 116.711 298.091 115.201C297.311 114.816 296.703 114.438 296.21 114.07H296.205C296.044 113.95 295.895 113.835 295.763 113.72C295.757 113.714 295.752 113.709 295.752 113.709C295.62 113.594 295.494 113.485 295.385 113.37H295.379C294.628 112.635 294.324 112.004 294.009 111.602C293.997 111.591 293.991 111.579 293.986 111.573C293.951 111.533 293.917 111.493 293.883 111.453C293.865 111.436 293.842 111.413 293.831 111.395C293.802 111.373 293.774 111.344 293.739 111.321C293.716 111.304 293.688 111.286 293.665 111.269C293.636 111.246 293.607 111.229 293.573 111.212C293.544 111.2 293.51 111.183 293.481 111.172C293.447 111.16 293.412 111.149 293.378 111.143C293.361 111.137 293.344 111.126 293.326 111.12C293.292 111.12 293.258 111.114 293.223 111.109C293.217 111.103 293.212 111.097 293.212 111.097C293.172 111.263 293.131 111.424 293.103 111.585C293.074 111.717 293.045 111.843 293.023 111.969C292.977 112.165 292.931 112.354 292.885 112.543C292.862 112.653 292.833 112.762 292.81 112.871C292.77 113.026 292.73 113.181 292.696 113.336C292.57 113.846 292.443 114.346 292.329 114.828C292.145 115.586 291.985 116.32 291.876 117.049C291.876 117.066 291.87 117.084 291.864 117.101C291.801 117.543 291.75 117.979 291.721 118.421C291.721 118.461 291.715 118.496 291.715 118.53C291.71 118.737 291.698 118.943 291.698 119.15C291.698 119.167 291.698 119.179 291.698 119.196C291.698 119.42 291.71 119.649 291.721 119.873C291.727 119.908 291.727 119.942 291.727 119.977C291.744 120.178 291.761 120.384 291.79 120.597C291.796 120.625 291.801 120.66 291.801 120.688C291.836 120.929 291.876 121.176 291.922 121.417C291.922 121.429 291.927 121.435 291.927 121.44C291.973 121.676 292.031 121.928 292.094 122.169C292.105 122.198 292.111 122.232 292.122 122.267C292.191 122.525 292.266 122.783 292.352 123.053C292.564 123.742 292.81 124.316 293.074 124.81C292.392 126.061 291.973 128.46 291.904 129.976C291.904 129.981 291.904 129.987 291.904 129.993C291.818 131.893 292.638 134.177 293.814 136.025C293.969 136.266 294.123 136.502 294.29 136.726C293.785 138.04 293.361 139.768 293.389 141.438C293.395 142.052 293.458 142.661 293.602 143.24C293.819 144.142 294.037 144.893 294.313 145.577C294.496 146.03 294.708 146.46 294.972 146.874C295.195 147.224 295.448 147.563 295.757 147.907C295.826 147.982 295.912 148.056 295.987 148.131C296.216 148.36 296.468 148.59 296.761 148.82C296.635 150.473 296.635 151.781 296.721 152.958C296.755 153.394 296.801 153.808 296.852 154.215C296.893 154.456 296.933 154.691 296.979 154.933C297.116 155.696 297.277 156.413 297.46 157.039C298.205 159.398 299.066 160.81 300.889 162.188C300.751 164.484 300.986 166.171 301.525 167.6C301.537 167.641 301.554 167.687 301.571 167.727C301.697 168.042 301.829 168.352 301.967 168.657C303.354 171.825 304.988 174.144 306.284 174.89C306.399 174.959 306.525 175.022 306.651 175.085C306.725 175.125 306.8 175.16 306.88 175.194C307.075 176.199 307.419 177.186 307.855 178.122C308.348 179.184 308.967 180.171 309.661 181.038C309.988 181.451 310.286 181.83 310.578 182.186C311.501 183.305 312.356 184.171 313.646 185.01C313.972 185.187 315.601 186.003 316.484 186.399C317.642 189.831 321.741 196.397 326.328 196.926C326.437 197.947 326.42 198.963 326.299 199.922C326.299 199.95 326.293 199.985 326.293 200.014C326.288 200.048 326.282 200.077 326.276 200.111C325.972 202.241 325.118 204.089 323.822 205.157C322.55 206.201 320.852 206.488 318.829 205.57C317.802 205.105 316.696 204.336 315.52 203.193C314.603 202.304 313.743 201.362 312.923 200.41C311.106 198.274 309.546 196.053 308.285 194.096C308.239 194.027 308.187 193.947 308.13 193.86C306.811 191.771 302.563 183.913 301.703 182.306C301.628 182.157 301.537 181.996 301.462 181.847C299.02 177.157 295.947 171.756 293.905 167.199C291.99 162.986 288.625 155.283 286.836 151.064C285.724 148.475 283.987 145.565 282.783 142.89C282.525 142.322 282.29 141.765 282.095 141.22C283.855 141.369 285.672 141.289 287.61 141.031C287.576 140.876 287.507 140.715 287.421 140.56C286.922 139.653 285.626 138.666 284.663 137.793C284.296 137.46 283.981 137.15 283.775 136.869C283.752 136.84 283.723 136.806 283.706 136.777C282.204 134.481 280.535 130.963 279.32 128.954C279.452 128.839 279.589 128.707 279.727 128.569C279.727 128.563 279.732 128.558 279.738 128.558C279.87 128.414 280.002 128.259 280.145 128.093C280.151 128.087 280.151 128.087 280.151 128.081C280.426 127.743 280.707 127.352 280.982 126.922C280.982 126.916 280.988 126.91 280.994 126.905C281.269 126.474 281.544 126.015 281.808 125.527C281.905 125.355 281.991 125.165 282.089 124.988C282.129 124.907 282.175 124.827 282.215 124.741C282.301 124.574 282.381 124.408 282.462 124.236C282.525 124.109 282.582 123.977 282.645 123.851C282.72 123.696 282.788 123.535 282.857 123.375C282.926 123.225 282.983 123.076 283.046 122.927C283.109 122.778 283.167 122.634 283.23 122.491C283.316 122.278 283.396 122.066 283.471 121.859C283.522 121.727 283.568 121.595 283.614 121.463C283.7 121.228 283.78 120.993 283.855 120.769C283.889 120.665 283.918 120.568 283.947 120.47C284.004 120.269 284.061 120.08 284.113 119.891C284.136 119.799 284.159 119.707 284.187 119.626C284.239 119.408 284.291 119.207 284.331 119.007C284.342 118.949 284.354 118.898 284.365 118.846C284.417 118.588 284.463 118.335 284.485 118.111C284.766 115.488 285.38 107.802 284.485 105.834C286.039 106.631 287.478 107.82 289.284 108.589C289.766 108.795 290.282 108.956 290.815 109.088C290.953 109.117 291.085 109.163 291.228 109.191H291.234C291.727 109.283 292.226 109.369 292.73 109.444C292.776 109.45 292.822 109.461 292.868 109.467C293.086 109.496 293.298 109.524 293.51 109.553C294.341 109.645 295.178 109.691 296.015 109.651C296.199 109.633 296.422 109.593 296.669 109.547C297.621 109.358 298.871 108.95 299.226 108.457C299.163 107.929 298.67 107.533 298.011 107.274C297.856 107.211 297.689 107.154 297.523 107.108C295.975 106.7 295.528 106.04 295.041 105.305C294.599 104.657 293.974 103.561 293.539 102.51C293.447 102.292 293.366 102.074 293.298 101.867C293.246 101.718 293.194 101.552 293.137 101.379C292.432 99.3188 290.953 95.496 290.087 93.7568C290.253 91.8741 290.901 91.5872 291.182 90.2383C291.383 89.2568 291.348 87.6611 291.262 86.7197C291.159 85.8013 290.999 85.1642 290.775 84.4812C290.655 84.1253 290.528 83.7522 290.374 83.3217C290.465 83.1323 290.54 82.9429 290.614 82.7535C291.721 80.0155 291.664 77.513 291.377 75.7336C291.285 75.1366 291.171 74.6143 291.062 74.201C290.993 73.9083 290.855 73.6271 290.683 73.363C290.351 72.8407 289.904 72.3528 289.554 71.8649C289.554 71.8362 289.554 71.8075 289.554 71.7788C289.542 71.6812 289.525 71.6066 289.531 71.5377C289.531 71.3426 289.68 71.1819 290.569 70.6767C290.764 70.5677 291.062 70.3668 291.383 70.1429C291.985 69.7124 292.661 69.1557 292.931 68.7539C292.994 68.6678 293.063 68.576 293.131 68.4841C293.43 68.0823 293.762 67.6231 293.865 67.1582C294.353 64.9024 294.559 64.1275 294.634 62.3252C294.714 60.8099 294.433 59.2486 294.272 57.7735C294.272 57.785 294.267 57.7964 294.267 57.8022C294.267 57.8194 294.261 57.8481 294.255 57.8768L294.249 57.8825C294.106 58.3704 292.982 59.8456 292.684 60.1498C292.117 60.718 291.463 61.4585 290.488 61.4987C289.336 61.5389 288.344 61.4987 287.484 61.3896C286.211 61.2232 285.225 60.9075 284.451 60.4885C283.883 60.1785 283.425 59.8226 283.046 59.4266C284.428 58.4451 285.093 57.211 285.701 56.3041C286.59 54.9495 286.796 52.1254 286.635 49.3014C286.549 48.1247 286.389 46.9538 286.183 45.8862C286.091 45.3868 285.988 44.9104 285.884 44.4627C285.667 43.5673 285.437 42.7924 285.214 42.2127C285.001 41.6559 284.709 41.2885 284.377 41.0532C283.625 40.5251 282.616 40.6629 281.636 40.858C280.162 41.1336 278.769 41.6329 277.502 42.2815C277.13 41.9716 276.751 41.6731 276.384 41.3574C268.684 33.4536 241.961 42.1036 241.961 42.1036ZM334.36 150.329C332.973 148.768 332.13 147.861 331.608 147.74C330.937 147.585 330.794 148.733 330.702 151.471C330.588 155.69 327.497 160.397 326.116 165.109C326.093 165.19 326.07 165.27 326.035 165.368C319.413 150.128 317.269 143.613 316.501 138.849C316.449 138.534 316.403 138.224 316.363 137.92C316.363 137.885 316.352 137.845 316.352 137.799C316.191 136.41 315.962 133.781 316.002 132.513C316.162 128.087 316.409 124.735 317.137 121.125C318.605 113.875 323.111 104.215 327.784 98.4406C327.79 98.4348 327.796 98.4234 327.801 98.4176C328.868 97.0917 330.227 95.5706 331.654 94.0496C332.979 95.232 334.183 96.5808 335.295 98.0503C341.814 106.683 344.807 119.724 345.007 131.479C345.133 139.917 343.792 145.852 342.731 152.441C342.255 155.179 341.217 162.722 339.968 165.965C339.968 165.936 339.973 165.907 339.973 165.873C339.973 160.77 337.491 153.848 334.36 150.329ZM239.243 65.5912C239.243 65.5683 239.249 65.5396 239.249 65.5223C239.329 64.8278 239.409 63.9726 239.616 63.433C239.713 63.2666 240.401 62.1875 240.654 61.757C241.21 61.6135 241.772 61.5102 242.345 61.47C242.385 61.47 242.42 61.4642 242.46 61.4642C242.471 61.4642 242.477 61.4642 242.488 61.4642C242.7 61.4528 242.901 61.4585 243.102 61.4642C243.171 61.47 243.234 61.4757 243.302 61.4815C243.44 61.4929 243.572 61.5102 243.704 61.5274C243.778 61.5389 243.841 61.5503 243.91 61.5675C244.031 61.5905 244.145 61.6192 244.26 61.6536C244.323 61.6709 244.386 61.6938 244.449 61.7168C244.564 61.7512 244.673 61.7971 244.782 61.8488C244.833 61.8718 244.885 61.889 244.936 61.9119C245.063 61.9808 245.189 62.0497 245.303 62.1243C245.326 62.1358 245.349 62.1473 245.372 62.1645C245.51 62.2563 245.636 62.3597 245.762 62.4687C245.796 62.4974 245.825 62.5319 245.854 62.5606C245.94 62.6409 246.026 62.7327 246.106 62.8246C246.146 62.8705 246.181 62.9164 246.215 62.9623C246.284 63.0484 246.347 63.1345 246.404 63.2206C246.439 63.278 246.473 63.3297 246.507 63.3871C246.559 63.4789 246.616 63.5708 246.662 63.6683C246.691 63.7257 246.72 63.7831 246.748 63.8405C246.8 63.9496 246.846 64.0644 246.886 64.1792C246.903 64.2309 246.932 64.2768 246.949 64.3284C247.006 64.4949 247.058 64.6614 247.104 64.8393C247.115 64.8909 247.127 64.9369 247.138 64.9885C247.167 65.1148 247.195 65.2526 247.224 65.3846C247.236 65.4592 247.247 65.5338 247.259 65.6027C247.276 65.7232 247.293 65.8438 247.304 65.97C247.31 66.0447 247.316 66.1193 247.327 66.1996C247.333 66.303 247.339 66.412 247.345 66.5211C247.35 66.6875 247.35 66.8597 247.35 67.0319C247.35 67.1238 247.35 67.2213 247.345 67.3074C247.339 67.5715 247.322 67.8298 247.293 68.0995C247.419 68.8859 248.44 69.0983 248.503 70.2692C248.52 70.539 248.48 70.8547 248.371 71.2393C247.717 70.6308 247.006 70.1544 246.261 69.7756C244.117 68.7022 241.623 68.4612 239.111 68.5013C239.111 68.4726 239.117 68.4382 239.117 68.4095C239.192 67.5083 239.192 66.148 239.243 65.5912ZM188.835 103.985C188.577 103.807 188.394 103.584 188.291 103.297L188.835 103.985Z" fill="#FFC107"/>
<path d="M191.998 31.4415C191.791 32.2241 191.429 32.6326 190.74 33.864C190.045 35.0954 188.54 35.9183 187.403 37.0634C185.778 38.5825 185.45 40.9647 187.932 42.363C192.245 44.82 194.927 33.3289 191.998 31.4415ZM162.776 27.1719C163.632 28.2364 165.671 31.0733 165.872 34.1057C165.952 35.7514 168.353 37.5985 170.265 36.7757C174.131 35.176 172.873 32.1781 170.512 29.7153C169.375 28.4839 166.888 27.1719 165.143 27.0453C164.689 27.005 163.632 26.9245 162.776 27.1719ZM150.607 51.1439C151.175 50.3211 152.599 49.2565 153.248 48.9228C155 48.0194 156.913 47.4842 159.112 48.5948C160.657 49.4177 161.306 50.1139 161.272 52.0473C161.191 53.6067 160.376 54.2627 159.198 54.7173C157.125 55.4941 156.229 54.7576 154.558 53.8081C154.064 53.5664 150.727 51.2647 150.607 51.1439ZM163.506 79.305C163.833 79.5524 166.274 81.0715 168.835 81.4398C171.403 81.8483 174.045 81.3592 174.332 77.4176C174.412 76.7213 174.09 76.3128 173.723 75.7777C173.355 75.2885 172.66 75.1217 171.971 75.0008C171.322 74.8742 170.627 74.9145 170.019 75.0814C169.37 75.2483 168.835 75.5763 168.554 76.0251C167.905 77.0148 166.808 77.8779 165.746 78.4073C164.689 78.977 163.712 79.2647 163.506 79.305ZM152.927 136.122C153.335 136.651 153.455 136.369 154.638 138.625C155.287 139.816 155.615 141.134 156.631 142.406C158.015 144.126 161.432 144.788 162.127 142.032C164 134.891 154.064 135.834 152.927 136.122ZM188.299 173.927C189.476 173.599 191.062 173.726 192.572 171.338C193.916 169.163 194.605 165.883 191.515 164.444C190.78 164.116 190.131 164.156 189.482 164.364C188.914 164.525 188.626 165.02 188.219 165.595C187.811 166.124 187.731 166.746 187.771 167.402C187.771 168.058 187.811 168.512 188.058 169.168C188.425 170.273 188.385 171.551 188.385 172.736C188.374 174.048 188.374 173.352 188.299 173.927ZM159.641 180.78C159.801 180.165 159.968 179.917 161.346 177.823C162.122 176.712 163.586 175.935 164.201 174.456C164.97 172.362 163.586 169.163 160.984 169.899C154.265 171.746 158.911 180.004 159.641 180.78ZM141.004 164.116C142.221 163.293 145.438 162.35 148.453 162.597C150.365 162.718 153.013 161.118 152.645 159.064C151.991 155.082 148.579 154.466 145.644 156.147C144.14 156.969 141.94 159.72 141.371 161.406C141.245 161.814 140.964 163.213 141.004 164.116ZM175.434 210.708C175.963 213.378 175.802 212.267 175.882 213.827C175.923 214.978 175.963 215.593 175.762 218.096C175.561 220.519 179.139 223.396 181.379 221.14C186.748 215.714 177.18 211.03 175.434 210.708ZM156.505 228.483C158.865 228.65 160.209 229.058 162.811 230.945C164.235 232.01 167.044 232.177 167.738 230.41C169.163 227.044 166.883 225.116 163.667 224.996C162.081 224.955 158.946 226.02 157.642 227.044C157.361 227.292 156.918 227.786 156.505 228.483ZM168.514 253.318C169.163 252.823 169.37 252.748 171.483 251.678C172.706 251.062 174.372 250.895 175.469 249.704C177.014 248.105 176.853 244.531 174.165 244.203C167.256 243.3 168.393 252.495 168.514 253.318ZM192.853 260.217C194.077 260.096 195.869 259.768 197.695 257.674C199.406 255.706 200.951 252.748 198.143 250.82C197.454 250.366 196.391 250.452 195.702 250.613C195.093 250.78 194.806 251.148 194.318 251.597C193.83 252.092 193.663 252.668 193.583 253.324C193.502 253.98 193.462 254.434 193.583 255.13C193.79 256.281 193.543 257.553 193.336 258.698C193.1 259.97 193.135 259.481 192.853 260.217ZM244.99 283.044C247.431 282.676 247.064 282.837 248.488 282.998C249.751 283.125 249.993 283.982 252.433 284.396C254.754 284.845 258.257 280.823 255.891 278.976C251.744 275.736 245.519 280.368 244.99 283.044ZM253.622 308C254.679 305.865 256.023 304.714 258.544 302.867C260.497 301.434 260.824 299.714 259.722 298.109C257.769 295.237 254.518 296.797 253.008 299.829C252.278 301.308 252.118 304.64 252.56 306.233C252.686 306.607 253.174 307.344 253.622 308ZM276.94 306.855C277.181 305.986 277.709 305.497 278.892 303.69C279.662 302.499 280.925 301.722 281.046 300.076C281.207 297.861 278.157 295.439 276.078 296.67C270.995 299.748 276.365 306.113 276.94 306.855ZM299.487 286.899C300.424 285.708 300.831 285.213 300.992 282.463C301.113 279.839 299.855 276.876 296.432 277.129C295.662 277.209 294.801 277.952 294.359 278.527C293.991 279.022 294.031 279.471 293.951 280.167C293.865 280.823 294.112 281.398 294.439 281.933C294.767 282.509 295.416 282.509 295.99 282.791C297.006 283.286 297.248 283.573 298.023 284.845C298.431 285.547 298.999 286.157 299.487 286.899Z" fill="#E6332A"/>
<path d="M248 72.0568C247.669 72.8889 247.27 73.4326 246.066 73.4326C245.764 73.4326 245.433 73.4271 245.08 73.4049C244.76 73.1164 244.292 72.6892 243.802 72.3619C242.553 71.5353 243.037 72.1234 241.212 70.2648C241.041 70.0873 240.853 69.932 240.665 69.7822C241.452 69.8377 242.222 69.9375 242.992 70.0263C243.671 70.0929 247.19 71.1802 248 72.0568ZM237.539 69.8654C229.576 70.5755 222.092 70.7364 218.738 65.7101C217.649 64.0513 217.563 63.2136 217.483 61C217.158 61.2386 215.464 62.5811 215.185 64.2011C214.985 65.4715 214.814 66.7364 215.424 68.2454C215.949 69.5936 216.188 69.8266 216.765 70.459C217.814 71.6851 219.793 72.7891 221.448 73.2717C224.562 74.176 227.391 74.0595 230.18 73.8598C232.787 73.6434 235.297 73.2607 237.858 72.9555C237.898 71.8792 237.972 70.6698 238.075 69.7988C237.898 69.8155 237.721 69.8377 237.539 69.8654Z" fill="#E6332A"/>
<path d="M241.194 71.9889L240.158 70.9301C240.085 70.819 239.786 70.4007 239.603 70.5172C239.383 70.6019 239.451 72.0842 239.504 73C240.247 72.8729 241.116 72.8782 242 72.9418C241.691 72.5977 241.43 72.2271 241.194 71.9889ZM236.023 64.1117C236.013 64.2546 236.002 64.387 236.002 64.514C235.987 64.874 236.044 65.2022 236.343 65.5251C236.714 65.864 237.232 66.5469 237.719 66.9227C238.2 67.3409 238.31 66.9545 238.326 66.4357C238.342 66.1075 238.31 65.7263 238.31 65.451C238.342 64.8793 238.509 63.7994 238.692 63C237.782 63.3812 236.897 63.8047 236.023 64.1117Z" fill="#F5F5F5"/>
</svg>
