<svg width="512" height="338" viewBox="0 0 512 338" fill="none" xmlns="http://www.w3.org/2000/svg">
<path d="M512 327.211C512 333.14 507.149 337.99 501.222 337.99H10.779C4.85 337.989 0 333.139 0 327.211V10.779C0 4.851 4.85 0 10.779 0H501.222C507.15 0 512 4.851 512 10.779V327.211Z" fill="#FFF7EE"/>
<path d="M501.222 0.000976562H209.372V32.509H512V10.779C512 4.85098 507.148 0.000976562 501.222 0.000976562Z" fill="#E02424"/>
<path d="M209.371 122.193V142.476C209.371 149.2 203.904 154.701 197.221 154.701H512V122.194H209.371V122.193Z" fill="#E02424"/>
<path d="M512 183.289H0V215.796H512V183.289Z" fill="#E02424"/>
<path d="M512 244.384H0V276.891H512V244.384Z" fill="#E02424"/>
<path d="M512 327.211V305.482H0V327.211C0 333.14 4.85 337.99 10.779 337.99H501.222C507.148 337.989 512 333.139 512 327.211Z" fill="#E02424"/>
<path d="M511.989 61.0991H209.366V93.6061H511.989V61.0991Z" fill="#E02424"/>
<path d="M10.779 0.000976562C4.85 0.000976562 0 4.85098 0 10.779V154.7H208.716C215.399 154.7 220.866 149.199 220.866 142.475V0.000976562H10.779Z" fill="#0853A4"/>
<path d="M47.7154 43.0812C47.4724 43.0812 47.2244 43.0242 46.9974 42.9002L44.0594 41.3172L41.1204 42.9002C40.8944 43.0232 40.6484 43.0812 40.4034 43.0812C40.0834 43.0812 39.7644 42.9812 39.4944 42.7802C39.0204 42.4272 38.7814 41.8282 38.8824 41.2362L39.4424 37.8812L37.0654 35.5082C36.6454 35.0872 36.4934 34.4592 36.6754 33.8872C36.8564 33.3142 37.3394 32.8972 37.9224 32.8112L41.2064 32.3222L42.6774 29.2712C42.9374 28.7312 43.4734 28.3892 44.0604 28.3892C44.6474 28.3892 45.1844 28.7312 45.4434 29.2712L46.9134 32.3222L50.1984 32.8112C50.7804 32.8982 51.2624 33.3142 51.4444 33.8872C51.6264 34.4592 51.4744 35.0872 51.0524 35.5082L48.6764 37.8812L49.2364 41.2362C49.3374 41.8282 49.0984 42.4272 48.6254 42.7802C48.3564 42.9802 48.0364 43.0812 47.7154 43.0812Z" fill="white"/>
<path d="M47.7154 70.5001C47.4724 70.5001 47.2244 70.4441 46.9974 70.3191L44.0594 68.7351L41.1204 70.3191C40.8944 70.4431 40.6484 70.5001 40.4034 70.5001C40.0834 70.5001 39.7644 70.4001 39.4944 70.1991C39.0204 69.8461 38.7814 69.2471 38.8824 68.6531L39.4424 65.3L37.0654 62.9261C36.6454 62.5081 36.4934 61.8771 36.6754 61.3061C36.8564 60.7341 37.3394 60.318 37.9224 60.229L41.2064 59.7411L42.6774 56.6901C42.9374 56.1511 43.4734 55.8101 44.0604 55.8101C44.6474 55.8101 45.1844 56.1511 45.4434 56.6901L46.9134 59.7411L50.1984 60.229C50.7804 60.318 51.2624 60.7341 51.4444 61.3061C51.6264 61.8771 51.4744 62.5081 51.0524 62.9261L48.6764 65.3L49.2364 68.6531C49.3374 69.2481 49.0984 69.8451 48.6254 70.1991C48.3564 70.4011 48.0364 70.5001 47.7154 70.5001Z" fill="white"/>
<path d="M47.7154 97.9214C47.4724 97.9214 47.2244 97.8624 46.9974 97.7404L44.0594 96.1584L41.1204 97.7404C40.8944 97.8634 40.6484 97.9214 40.4034 97.9214C40.0834 97.9214 39.7644 97.8204 39.4944 97.6204C39.0204 97.2664 38.7814 96.6674 38.8824 96.0764L39.4424 92.7224L37.0654 90.3504C36.6454 89.9284 36.4934 89.2984 36.6754 88.7274C36.8564 88.1554 37.3394 87.7374 37.9224 87.6504L41.2064 87.1624L42.6774 84.1114C42.9374 83.5734 43.4734 83.2324 44.0604 83.2324C44.6474 83.2324 45.1844 83.5734 45.4434 84.1114L46.9134 87.1624L50.1984 87.6504C50.7804 87.7384 51.2624 88.1564 51.4444 88.7274C51.6264 89.2984 51.4744 89.9284 51.0524 90.3504L48.6764 92.7224L49.2364 96.0764C49.3374 96.6674 49.0984 97.2664 48.6254 97.6204C48.3564 97.8204 48.0364 97.9214 47.7154 97.9214Z" fill="white"/>
<path d="M47.7154 125.341C47.4724 125.341 47.2244 125.282 46.9974 125.16L44.0594 123.576L41.1204 125.16C40.8944 125.283 40.6484 125.341 40.4034 125.341C40.0834 125.341 39.7644 125.241 39.4944 125.039C39.0204 124.686 38.7814 124.086 38.8824 123.494L39.4424 120.142L37.0654 117.768C36.6454 117.348 36.4934 116.718 36.6754 116.146C36.8564 115.574 37.3394 115.156 37.9224 115.069L41.2064 114.581L42.6774 111.53C42.9374 110.992 43.4734 110.65 44.0604 110.65C44.6474 110.65 45.1844 110.993 45.4434 111.53L46.9134 114.581L50.1984 115.069C50.7804 115.157 51.2624 115.575 51.4444 116.146C51.6264 116.718 51.4744 117.348 51.0524 117.768L48.6764 120.142L49.2364 123.494C49.3374 124.086 49.0984 124.686 48.6254 125.039C48.3564 125.241 48.0364 125.341 47.7154 125.341Z" fill="white"/>
<path d="M30.3472 29.3712C30.1042 29.3712 29.8562 29.3142 29.6292 29.1892L26.6902 27.6072L23.7522 29.1892C23.5252 29.3132 23.2792 29.3712 23.0332 29.3712C22.7132 29.3712 22.3952 29.2702 22.1252 29.0692C21.6502 28.7172 21.4112 28.1162 21.5132 27.5242L22.0722 24.1702L19.6962 21.7972C19.2762 21.3762 19.1242 20.7472 19.3062 20.1752C19.4872 19.6022 19.9682 19.1852 20.5532 19.0982L23.8372 18.6102L25.3072 15.5582C25.5662 15.0192 26.1022 14.6782 26.6902 14.6782C27.2782 14.6782 27.8142 15.0202 28.0722 15.5582L29.5432 18.6102L32.8282 19.0982C33.4102 19.1862 33.8932 19.6022 34.0742 20.1752C34.2562 20.7472 34.1052 21.3762 33.6842 21.7972L31.3072 24.1702L31.8682 27.5242C31.9682 28.1162 31.7302 28.7162 31.2552 29.0692C30.9862 29.2692 30.6682 29.3712 30.3472 29.3712Z" fill="white"/>
<path d="M30.3472 56.7911C30.1042 56.7911 29.8562 56.7311 29.6292 56.6101L26.6902 55.0271L23.7522 56.6101C23.5252 56.7321 23.2792 56.7911 23.0332 56.7911C22.7132 56.7911 22.3952 56.6891 22.1252 56.4901C21.6502 56.1351 21.4112 55.5371 21.5132 54.9451L22.0722 51.5911L19.6962 49.2171C19.2762 48.7971 19.1242 48.1681 19.3062 47.5951C19.4872 47.0231 19.9682 46.6071 20.5532 46.5201L23.8372 46.0311L25.3072 42.9801C25.5662 42.4411 26.1022 42.0991 26.6902 42.0991C27.2782 42.0991 27.8142 42.4421 28.0722 42.9801L29.5432 46.0311L32.8282 46.5201C33.4102 46.6071 33.8932 47.0241 34.0742 47.5951C34.2562 48.1681 34.1052 48.7971 33.6842 49.2171L31.3072 51.5911L31.8682 54.9451C31.9682 55.5371 31.7302 56.1351 31.2552 56.4901C30.9862 56.6891 30.6682 56.7911 30.3472 56.7911Z" fill="white"/>
<path d="M30.3472 84.211C30.1042 84.211 29.8562 84.152 29.6292 84.031L26.6902 82.447L23.7522 84.031C23.5252 84.152 23.2792 84.211 23.0332 84.211C22.7132 84.211 22.3952 84.109 22.1252 83.91C21.6502 83.557 21.4112 82.957 21.5132 82.364L22.0722 79.011L19.6962 76.637C19.2762 76.217 19.1242 75.588 19.3062 75.016C19.4872 74.443 19.9682 74.026 20.5532 73.94L23.8372 73.452L25.3072 70.399C25.5662 69.861 26.1022 69.52 26.6902 69.52C27.2782 69.52 27.8142 69.861 28.0722 70.399L29.5432 73.452L32.8282 73.94C33.4102 74.028 33.8932 74.444 34.0742 75.016C34.2562 75.588 34.1052 76.217 33.6842 76.637L31.3072 79.011L31.8682 82.364C31.9682 82.957 31.7302 83.557 31.2552 83.91C30.9862 84.109 30.6682 84.211 30.3472 84.211Z" fill="white"/>
<path d="M30.3472 111.631C30.1042 111.631 29.8562 111.574 29.6292 111.45L26.6902 109.867L23.7522 111.45C23.5252 111.573 23.2792 111.631 23.0332 111.631C22.7132 111.631 22.3952 111.531 22.1252 111.33C21.6502 110.977 21.4112 110.376 21.5132 109.785L22.0722 106.431L19.6962 104.058C19.2762 103.639 19.1242 103.009 19.3062 102.435C19.4872 101.863 19.9682 101.447 20.5532 101.36L23.8372 100.873L25.3072 97.8215C25.5662 97.2825 26.1022 96.9395 26.6902 96.9395C27.2782 96.9395 27.8142 97.2825 28.0722 97.8215L29.5432 100.873L32.8282 101.36C33.4102 101.448 33.8932 101.864 34.0742 102.435C34.2562 103.008 34.1052 103.638 33.6842 104.058L31.3072 106.431L31.8682 109.785C31.9682 110.376 31.7302 110.976 31.2552 111.33C30.9862 111.531 30.6682 111.631 30.3472 111.631Z" fill="white"/>
<path d="M30.3472 139.05C30.1042 139.05 29.8562 138.991 29.6292 138.869L26.6902 137.287L23.7522 138.869C23.5252 138.991 23.2792 139.05 23.0332 139.05C22.7132 139.05 22.3952 138.95 22.1252 138.749C21.6502 138.397 21.4112 137.796 21.5132 137.204L22.0722 133.851L19.6962 131.479C19.2762 131.058 19.1242 130.428 19.3062 129.856C19.4872 129.283 19.9682 128.866 20.5532 128.779L23.8372 128.291L25.3072 125.241C25.5662 124.702 26.1022 124.36 26.6902 124.36C27.2782 124.36 27.8142 124.702 28.0722 125.241L29.5432 128.291L32.8282 128.779C33.4102 128.866 33.8932 129.283 34.0742 129.856C34.2562 130.428 34.1052 131.058 33.6842 131.479L31.3072 133.851L31.8682 137.204C31.9682 137.796 31.7302 138.397 31.2552 138.749C30.9862 138.951 30.6682 139.05 30.3472 139.05Z" fill="white"/>
<path d="M81.4322 43.0812C81.1872 43.0812 80.9402 43.0242 80.7132 42.9002L77.7752 41.3172L74.8372 42.9002C74.6112 43.0232 74.3642 43.0812 74.1192 43.0812C73.7982 43.0812 73.4812 42.9812 73.2102 42.7802C72.7362 42.4272 72.4962 41.8282 72.5982 41.2362L73.1582 37.8812L70.7812 35.5082C70.3602 35.0872 70.2082 34.4592 70.3902 33.8872C70.5722 33.3142 71.0552 32.8972 71.6372 32.8112L74.9232 32.3222L76.3922 29.2712C76.6512 28.7312 77.1882 28.3892 77.7752 28.3892C78.3622 28.3892 78.8992 28.7312 79.1582 29.2712L80.6282 32.3222L83.9132 32.8112C84.4952 32.8982 84.9782 33.3142 85.1592 33.8872C85.3422 34.4592 85.1892 35.0872 84.7682 35.5082L82.3912 37.8812L82.9522 41.2362C83.0522 41.8282 82.8132 42.4272 82.3392 42.7802C82.0702 42.9802 81.7522 43.0812 81.4322 43.0812Z" fill="white"/>
<path d="M81.4322 70.5001C81.1872 70.5001 80.9402 70.4441 80.7132 70.3191L77.7752 68.7351L74.8372 70.3191C74.6112 70.4431 74.3642 70.5001 74.1192 70.5001C73.7982 70.5001 73.4812 70.4001 73.2102 70.1991C72.7362 69.8461 72.4962 69.2471 72.5982 68.6531L73.1582 65.3L70.7812 62.9261C70.3602 62.5081 70.2082 61.8771 70.3902 61.3061C70.5722 60.7341 71.0552 60.318 71.6372 60.229L74.9232 59.7411L76.3922 56.6901C76.6512 56.1511 77.1882 55.8101 77.7752 55.8101C78.3622 55.8101 78.8992 56.1511 79.1582 56.6901L80.6282 59.7411L83.9132 60.229C84.4952 60.318 84.9782 60.7341 85.1592 61.3061C85.3422 61.8771 85.1892 62.5081 84.7682 62.9261L82.3912 65.3L82.9522 68.6531C83.0522 69.2481 82.8132 69.8451 82.3392 70.1991C82.0702 70.4011 81.7522 70.5001 81.4322 70.5001Z" fill="white"/>
<path d="M81.4322 97.9214C81.1872 97.9214 80.9402 97.8624 80.7132 97.7404L77.7752 96.1584L74.8372 97.7404C74.6112 97.8634 74.3642 97.9214 74.1192 97.9214C73.7982 97.9214 73.4812 97.8204 73.2102 97.6204C72.7362 97.2664 72.4962 96.6674 72.5982 96.0764L73.1582 92.7224L70.7812 90.3504C70.3602 89.9284 70.2082 89.2984 70.3902 88.7274C70.5722 88.1554 71.0552 87.7374 71.6372 87.6504L74.9232 87.1624L76.3922 84.1114C76.6512 83.5734 77.1882 83.2324 77.7752 83.2324C78.3622 83.2324 78.8992 83.5734 79.1582 84.1114L80.6282 87.1624L83.9132 87.6504C84.4952 87.7384 84.9782 88.1564 85.1592 88.7274C85.3422 89.2984 85.1892 89.9284 84.7682 90.3504L82.3912 92.7224L82.9522 96.0764C83.0522 96.6674 82.8132 97.2664 82.3392 97.6204C82.0702 97.8204 81.7522 97.9214 81.4322 97.9214Z" fill="white"/>
<path d="M81.4322 125.341C81.1872 125.341 80.9402 125.282 80.7132 125.16L77.7752 123.576L74.8372 125.16C74.6112 125.283 74.3642 125.341 74.1192 125.341C73.7982 125.341 73.4812 125.241 73.2102 125.039C72.7362 124.686 72.4962 124.086 72.5982 123.494L73.1582 120.142L70.7812 117.768C70.3602 117.348 70.2082 116.718 70.3902 116.146C70.5722 115.574 71.0552 115.156 71.6372 115.069L74.9232 114.581L76.3922 111.53C76.6512 110.992 77.1882 110.65 77.7752 110.65C78.3622 110.65 78.8992 110.993 79.1582 111.53L80.6282 114.581L83.9132 115.069C84.4952 115.157 84.9782 115.575 85.1592 116.146C85.3422 116.718 85.1892 117.348 84.7682 117.768L82.3912 120.142L82.9522 123.494C83.0522 124.086 82.8132 124.686 82.3392 125.039C82.0702 125.241 81.7522 125.341 81.4322 125.341Z" fill="white"/>
<path d="M64.0631 29.3712C63.8181 29.3712 63.5721 29.3142 63.3451 29.1892L60.4061 27.6072L57.4681 29.1892C57.2411 29.3132 56.9961 29.3712 56.7501 29.3712C56.4291 29.3712 56.1121 29.2702 55.8421 29.0692C55.3681 28.7172 55.1281 28.1162 55.2291 27.5242L55.7891 24.1702L53.4131 21.7972C52.9921 21.3762 52.8411 20.7472 53.0221 20.1752C53.2031 19.6022 53.6861 19.1852 54.2691 19.0982L57.5541 18.6102L59.0231 15.5582C59.2831 15.0192 59.8191 14.6782 60.4071 14.6782C60.9941 14.6782 61.5311 15.0202 61.7901 15.5582L63.2601 18.6102L66.5451 19.0982C67.1281 19.1862 67.6101 19.6022 67.7911 20.1752C67.9731 20.7472 67.8211 21.3762 67.3991 21.7972L65.0231 24.1702L65.5851 27.5242C65.6851 28.1162 65.4461 28.7162 64.9711 29.0692C64.7011 29.2692 64.3821 29.3712 64.0631 29.3712Z" fill="white"/>
<path d="M64.0631 56.7911C63.8181 56.7911 63.5721 56.7311 63.3451 56.6101L60.4061 55.0271L57.4681 56.6101C57.2411 56.7321 56.9961 56.7911 56.7501 56.7911C56.4291 56.7911 56.1121 56.6891 55.8421 56.4901C55.3681 56.1351 55.1281 55.5371 55.2291 54.9451L55.7891 51.5911L53.4131 49.2171C52.9921 48.7971 52.8411 48.1681 53.0221 47.5951C53.2031 47.0231 53.6861 46.6071 54.2691 46.5201L57.5541 46.0311L59.0231 42.9801C59.2831 42.4411 59.8191 42.0991 60.4071 42.0991C60.9941 42.0991 61.5311 42.4421 61.7901 42.9801L63.2601 46.0311L66.5451 46.5201C67.1281 46.6071 67.6101 47.0241 67.7911 47.5951C67.9731 48.1681 67.8211 48.7971 67.3991 49.2171L65.0231 51.5911L65.5851 54.9451C65.6851 55.5371 65.4461 56.1351 64.9711 56.4901C64.7011 56.6891 64.3821 56.7911 64.0631 56.7911Z" fill="white"/>
<path d="M64.0631 84.211C63.8181 84.211 63.5721 84.152 63.3451 84.031L60.4061 82.447L57.4681 84.031C57.2411 84.152 56.9961 84.211 56.7501 84.211C56.4291 84.211 56.1121 84.109 55.8421 83.91C55.3681 83.557 55.1281 82.957 55.2291 82.364L55.7891 79.011L53.4131 76.637C52.9921 76.217 52.8411 75.588 53.0221 75.016C53.2031 74.443 53.6861 74.026 54.2691 73.94L57.5541 73.452L59.0231 70.399C59.2831 69.861 59.8191 69.52 60.4071 69.52C60.9941 69.52 61.5311 69.861 61.7901 70.399L63.2601 73.452L66.5451 73.94C67.1281 74.028 67.6101 74.444 67.7911 75.016C67.9731 75.588 67.8211 76.217 67.3991 76.637L65.0231 79.011L65.5851 82.364C65.6851 82.957 65.4461 83.557 64.9711 83.91C64.7011 84.109 64.3821 84.211 64.0631 84.211Z" fill="white"/>
<path d="M64.0631 111.631C63.8181 111.631 63.5721 111.574 63.3451 111.45L60.4061 109.867L57.4681 111.45C57.2411 111.573 56.9961 111.631 56.7501 111.631C56.4291 111.631 56.1121 111.531 55.8421 111.33C55.3681 110.977 55.1281 110.376 55.2291 109.785L55.7891 106.431L53.4131 104.058C52.9921 103.639 52.8411 103.009 53.0221 102.435C53.2031 101.863 53.6861 101.447 54.2691 101.36L57.5541 100.873L59.0231 97.8215C59.2831 97.2825 59.8191 96.9395 60.4071 96.9395C60.9941 96.9395 61.5311 97.2825 61.7901 97.8215L63.2601 100.873L66.5451 101.36C67.1281 101.448 67.6101 101.864 67.7911 102.435C67.9731 103.008 67.8211 103.638 67.3991 104.058L65.0231 106.431L65.5851 109.785C65.6851 110.376 65.4461 110.976 64.9711 111.33C64.7011 111.531 64.3821 111.631 64.0631 111.631Z" fill="white"/>
<path d="M64.0631 139.05C63.8181 139.05 63.5721 138.991 63.3451 138.869L60.4061 137.287L57.4681 138.869C57.2411 138.991 56.9961 139.05 56.7501 139.05C56.4291 139.05 56.1121 138.95 55.8421 138.749C55.3681 138.397 55.1281 137.796 55.2291 137.204L55.7891 133.851L53.4131 131.479C52.9921 131.058 52.8411 130.428 53.0221 129.856C53.2031 129.283 53.6861 128.866 54.2691 128.779L57.5541 128.291L59.0231 125.241C59.2831 124.702 59.8191 124.36 60.4071 124.36C60.9941 124.36 61.5311 124.702 61.7901 125.241L63.2601 128.291L66.5451 128.779C67.1281 128.866 67.6101 129.283 67.7911 129.856C67.9731 130.428 67.8211 131.058 67.3991 131.479L65.0231 133.851L65.5851 137.204C65.6851 137.796 65.4461 138.397 64.9711 138.749C64.7011 138.951 64.3821 139.05 64.0631 139.05Z" fill="white"/>
<path d="M115.146 43.0812C114.903 43.0812 114.655 43.0242 114.428 42.9002L111.489 41.3172L108.551 42.9002C108.324 43.0232 108.079 43.0812 107.833 43.0812C107.513 43.0812 107.195 42.9812 106.925 42.7802C106.451 42.4272 106.212 41.8282 106.313 41.2362L106.872 37.8812L104.496 35.5082C104.075 35.0872 103.924 34.4592 104.106 33.8872C104.288 33.3142 104.768 32.8972 105.353 32.8112L108.638 32.3222L110.108 29.2712C110.366 28.7312 110.903 28.3892 111.49 28.3892C112.078 28.3892 112.614 28.7312 112.873 29.2712L114.343 32.3222L117.629 32.8112C118.211 32.8982 118.694 33.3142 118.875 33.8872C119.057 34.4592 118.905 35.0872 118.484 35.5082L116.107 37.8812L116.669 41.2362C116.768 41.8282 116.53 42.4272 116.055 42.7802C115.785 42.9802 115.466 43.0812 115.146 43.0812Z" fill="white"/>
<path d="M115.146 70.5001C114.903 70.5001 114.655 70.4441 114.428 70.3191L111.489 68.7351L108.551 70.3191C108.324 70.4431 108.079 70.5001 107.833 70.5001C107.513 70.5001 107.195 70.4001 106.925 70.1991C106.451 69.8461 106.212 69.2471 106.313 68.6531L106.872 65.3L104.496 62.9261C104.075 62.5081 103.924 61.8771 104.106 61.3061C104.288 60.7341 104.768 60.318 105.353 60.229L108.638 59.7411L110.108 56.6901C110.366 56.1511 110.903 55.8101 111.49 55.8101C112.078 55.8101 112.614 56.1511 112.873 56.6901L114.343 59.7411L117.629 60.229C118.211 60.318 118.694 60.7341 118.875 61.3061C119.057 61.8771 118.905 62.5081 118.484 62.9261L116.107 65.3L116.669 68.6531C116.768 69.2481 116.53 69.8451 116.055 70.1991C115.785 70.4011 115.466 70.5001 115.146 70.5001Z" fill="white"/>
<path d="M115.146 97.9214C114.903 97.9214 114.655 97.8624 114.428 97.7404L111.489 96.1584L108.551 97.7404C108.324 97.8634 108.079 97.9214 107.833 97.9214C107.513 97.9214 107.195 97.8204 106.925 97.6204C106.451 97.2664 106.212 96.6674 106.313 96.0764L106.872 92.7224L104.496 90.3504C104.075 89.9284 103.924 89.2984 104.106 88.7274C104.288 88.1554 104.768 87.7374 105.353 87.6504L108.638 87.1624L110.108 84.1114C110.366 83.5734 110.903 83.2324 111.49 83.2324C112.078 83.2324 112.614 83.5734 112.873 84.1114L114.343 87.1624L117.629 87.6504C118.211 87.7384 118.694 88.1564 118.875 88.7274C119.057 89.2984 118.905 89.9284 118.484 90.3504L116.107 92.7224L116.669 96.0764C116.768 96.6674 116.53 97.2664 116.055 97.6204C115.785 97.8204 115.466 97.9214 115.146 97.9214Z" fill="white"/>
<path d="M115.146 125.341C114.903 125.341 114.655 125.282 114.428 125.16L111.489 123.576L108.551 125.16C108.324 125.283 108.079 125.341 107.833 125.341C107.513 125.341 107.195 125.241 106.925 125.039C106.451 124.686 106.212 124.086 106.313 123.494L106.872 120.142L104.496 117.768C104.075 117.348 103.924 116.718 104.106 116.146C104.288 115.574 104.768 115.156 105.353 115.069L108.638 114.581L110.108 111.53C110.366 110.992 110.903 110.65 111.49 110.65C112.078 110.65 112.614 110.993 112.873 111.53L114.343 114.581L117.629 115.069C118.211 115.157 118.694 115.575 118.875 116.146C119.057 116.718 118.905 117.348 118.484 117.768L116.107 120.142L116.669 123.494C116.768 124.086 116.53 124.686 116.055 125.039C115.785 125.241 115.466 125.341 115.146 125.341Z" fill="white"/>
<path d="M97.7784 29.3712C97.5334 29.3712 97.2874 29.3142 97.0604 29.1892L94.1224 27.6072L91.1834 29.1892C90.9574 29.3132 90.7114 29.3712 90.4654 29.3712C90.1454 29.3712 89.8264 29.2702 89.5574 29.0692C89.0834 28.7172 88.8434 28.1162 88.9444 27.5242L89.5044 24.1702L87.1284 21.7972C86.7074 21.3762 86.5554 20.7472 86.7374 20.1752C86.9184 19.6022 87.4014 19.1852 87.9844 19.0982L91.2704 18.6102L92.7384 15.5582C92.9994 15.0192 93.5344 14.6782 94.1224 14.6782C94.7084 14.6782 95.2464 15.0202 95.5044 15.5582L96.9744 18.6102L100.26 19.0982C100.843 19.1862 101.324 19.6022 101.504 20.1752C101.686 20.7472 101.534 21.3762 101.113 21.7972L98.7374 24.1702L99.2984 27.5242C99.3984 28.1162 99.1594 28.7162 98.6854 29.0692C98.4184 29.2692 98.0984 29.3712 97.7784 29.3712Z" fill="white"/>
<path d="M97.7784 56.7911C97.5334 56.7911 97.2874 56.7311 97.0604 56.6101L94.1224 55.0271L91.1834 56.6101C90.9574 56.7321 90.7114 56.7911 90.4654 56.7911C90.1454 56.7911 89.8264 56.6891 89.5574 56.4901C89.0834 56.1351 88.8434 55.5371 88.9444 54.9451L89.5044 51.5911L87.1284 49.2171C86.7074 48.7971 86.5554 48.1681 86.7374 47.5951C86.9184 47.0231 87.4014 46.6071 87.9844 46.5201L91.2704 46.0311L92.7384 42.9801C92.9994 42.4411 93.5344 42.0991 94.1224 42.0991C94.7084 42.0991 95.2464 42.4421 95.5044 42.9801L96.9744 46.0311L100.26 46.5201C100.843 46.6071 101.324 47.0241 101.504 47.5951C101.686 48.1681 101.534 48.7971 101.113 49.2171L98.7374 51.5911L99.2984 54.9451C99.3984 55.5371 99.1594 56.1351 98.6854 56.4901C98.4184 56.6891 98.0984 56.7911 97.7784 56.7911Z" fill="white"/>
<path d="M97.7784 84.211C97.5334 84.211 97.2874 84.152 97.0604 84.031L94.1224 82.447L91.1834 84.031C90.9574 84.152 90.7114 84.211 90.4654 84.211C90.1454 84.211 89.8264 84.109 89.5574 83.91C89.0834 83.557 88.8434 82.957 88.9444 82.364L89.5044 79.011L87.1284 76.637C86.7074 76.217 86.5554 75.588 86.7374 75.016C86.9184 74.443 87.4014 74.026 87.9844 73.94L91.2704 73.452L92.7384 70.399C92.9994 69.861 93.5344 69.52 94.1224 69.52C94.7084 69.52 95.2464 69.861 95.5044 70.399L96.9744 73.452L100.26 73.94C100.843 74.028 101.324 74.444 101.504 75.016C101.686 75.588 101.534 76.217 101.113 76.637L98.7374 79.011L99.2984 82.364C99.3984 82.957 99.1594 83.557 98.6854 83.91C98.4184 84.109 98.0984 84.211 97.7784 84.211Z" fill="white"/>
<path d="M97.7784 111.631C97.5334 111.631 97.2874 111.574 97.0604 111.45L94.1224 109.867L91.1834 111.45C90.9574 111.573 90.7114 111.631 90.4654 111.631C90.1454 111.631 89.8264 111.531 89.5574 111.33C89.0834 110.977 88.8434 110.376 88.9444 109.785L89.5044 106.431L87.1284 104.058C86.7074 103.639 86.5554 103.009 86.7374 102.435C86.9184 101.863 87.4014 101.447 87.9844 101.36L91.2704 100.873L92.7384 97.8215C92.9994 97.2825 93.5344 96.9395 94.1224 96.9395C94.7084 96.9395 95.2464 97.2825 95.5044 97.8215L96.9744 100.873L100.26 101.36C100.843 101.448 101.324 101.864 101.504 102.435C101.686 103.008 101.534 103.638 101.113 104.058L98.7374 106.431L99.2984 109.785C99.3984 110.376 99.1594 110.976 98.6854 111.33C98.4184 111.531 98.0984 111.631 97.7784 111.631Z" fill="white"/>
<path d="M97.7784 139.05C97.5334 139.05 97.2874 138.991 97.0604 138.869L94.1224 137.287L91.1834 138.869C90.9574 138.991 90.7114 139.05 90.4654 139.05C90.1454 139.05 89.8264 138.95 89.5574 138.749C89.0834 138.397 88.8434 137.796 88.9444 137.204L89.5044 133.851L87.1284 131.479C86.7074 131.058 86.5554 130.428 86.7374 129.856C86.9184 129.283 87.4014 128.866 87.9844 128.779L91.2704 128.291L92.7384 125.241C92.9994 124.702 93.5344 124.36 94.1224 124.36C94.7084 124.36 95.2464 124.702 95.5044 125.241L96.9744 128.291L100.26 128.779C100.843 128.866 101.324 129.283 101.504 129.856C101.686 130.428 101.534 131.058 101.113 131.479L98.7374 133.851L99.2984 137.204C99.3984 137.796 99.1594 138.397 98.6854 138.749C98.4184 138.951 98.0984 139.05 97.7784 139.05Z" fill="white"/>
<path d="M148.862 43.0812C148.618 43.0812 148.37 43.0242 148.143 42.9002L145.205 41.3172L142.267 42.9002C142.04 43.0232 141.794 43.0812 141.548 43.0812C141.228 43.0812 140.91 42.9812 140.64 42.7802C140.166 42.4272 139.926 41.8282 140.028 41.2362L140.588 37.8812L138.211 35.5082C137.79 35.0872 137.637 34.4592 137.82 33.8872C138.001 33.3142 138.483 32.8972 139.066 32.8112L142.351 32.3222L143.821 29.2712C144.081 28.7312 144.617 28.3892 145.204 28.3892C145.791 28.3892 146.328 28.7312 146.587 29.2712L148.058 32.3222L151.342 32.8112C151.924 32.8982 152.406 33.3142 152.586 33.8872C152.769 34.4592 152.617 35.0872 152.195 35.5082L149.818 37.8812L150.38 41.2362C150.479 41.8282 150.241 42.4272 149.766 42.7802C149.501 42.9802 149.182 43.0812 148.862 43.0812Z" fill="white"/>
<path d="M148.862 70.5001C148.618 70.5001 148.37 70.4441 148.143 70.3191L145.205 68.7351L142.267 70.3191C142.04 70.4431 141.794 70.5001 141.548 70.5001C141.228 70.5001 140.91 70.4001 140.64 70.1991C140.166 69.8461 139.926 69.2471 140.028 68.6531L140.588 65.3L138.211 62.9261C137.79 62.5081 137.637 61.8771 137.82 61.3061C138.001 60.7341 138.483 60.318 139.066 60.229L142.351 59.7411L143.821 56.6901C144.081 56.1511 144.617 55.8101 145.204 55.8101C145.791 55.8101 146.328 56.1511 146.587 56.6901L148.058 59.7411L151.342 60.229C151.924 60.318 152.406 60.7341 152.586 61.3061C152.769 61.8771 152.617 62.5081 152.195 62.9261L149.818 65.3L150.38 68.6531C150.479 69.2481 150.241 69.8451 149.766 70.1991C149.501 70.4011 149.182 70.5001 148.862 70.5001Z" fill="white"/>
<path d="M148.862 97.9214C148.618 97.9214 148.37 97.8624 148.143 97.7404L145.205 96.1584L142.267 97.7404C142.04 97.8634 141.794 97.9214 141.548 97.9214C141.228 97.9214 140.91 97.8204 140.64 97.6204C140.166 97.2664 139.926 96.6674 140.028 96.0764L140.588 92.7224L138.211 90.3504C137.79 89.9284 137.637 89.2984 137.82 88.7274C138.001 88.1554 138.483 87.7374 139.066 87.6504L142.351 87.1624L143.821 84.1114C144.081 83.5734 144.617 83.2324 145.204 83.2324C145.791 83.2324 146.328 83.5734 146.587 84.1114L148.058 87.1624L151.342 87.6504C151.924 87.7384 152.406 88.1564 152.586 88.7274C152.769 89.2984 152.617 89.9284 152.195 90.3504L149.818 92.7224L150.38 96.0764C150.479 96.6674 150.241 97.2664 149.766 97.6204C149.501 97.8204 149.182 97.9214 148.862 97.9214Z" fill="white"/>
<path d="M148.862 125.341C148.618 125.341 148.37 125.282 148.143 125.16L145.205 123.576L142.267 125.16C142.04 125.283 141.794 125.341 141.548 125.341C141.228 125.341 140.91 125.241 140.64 125.039C140.166 124.686 139.926 124.086 140.028 123.494L140.588 120.142L138.211 117.768C137.79 117.348 137.637 116.718 137.82 116.146C138.001 115.574 138.483 115.156 139.066 115.069L142.351 114.581L143.821 111.53C144.081 110.992 144.617 110.65 145.204 110.65C145.791 110.65 146.328 110.993 146.587 111.53L148.058 114.581L151.342 115.069C151.924 115.157 152.406 115.575 152.586 116.146C152.769 116.718 152.617 117.348 152.195 117.768L149.818 120.142L150.38 123.494C150.479 124.086 150.241 124.686 149.766 125.039C149.501 125.241 149.182 125.341 148.862 125.341Z" fill="white"/>
<path d="M131.493 29.3712C131.25 29.3712 131.002 29.3142 130.774 29.1892L127.836 27.6072L124.898 29.1892C124.672 29.3132 124.424 29.3712 124.181 29.3712C123.86 29.3712 123.542 29.2702 123.271 29.0692C122.797 28.7172 122.558 28.1162 122.659 27.5242L123.219 24.1702L120.843 21.7972C120.422 21.3762 120.27 20.7472 120.452 20.1752C120.634 19.6022 121.117 19.1852 121.699 19.0982L124.985 18.6102L126.454 15.5582C126.714 15.0192 127.251 14.6782 127.837 14.6782C128.425 14.6782 128.961 15.0202 129.22 15.5582L130.69 18.6102L133.975 19.0982C134.557 19.1862 135.041 19.6022 135.221 20.1752C135.404 20.7472 135.252 21.3762 134.83 21.7972L132.453 24.1702L133.014 27.5242C133.114 28.1162 132.875 28.7162 132.401 29.0692C132.133 29.2692 131.814 29.3712 131.493 29.3712Z" fill="white"/>
<path d="M131.493 56.7911C131.25 56.7911 131.002 56.7311 130.774 56.6101L127.836 55.0271L124.898 56.6101C124.672 56.7321 124.424 56.7911 124.181 56.7911C123.86 56.7911 123.542 56.6891 123.271 56.4901C122.797 56.1351 122.558 55.5371 122.659 54.9451L123.219 51.5911L120.843 49.2171C120.422 48.7971 120.27 48.1681 120.452 47.5951C120.634 47.0231 121.117 46.6071 121.699 46.5201L124.985 46.0311L126.454 42.9801C126.714 42.4411 127.251 42.0991 127.837 42.0991C128.425 42.0991 128.961 42.4421 129.22 42.9801L130.69 46.0311L133.975 46.5201C134.557 46.6071 135.041 47.0241 135.221 47.5951C135.404 48.1681 135.252 48.7971 134.83 49.2171L132.453 51.5911L133.014 54.9451C133.114 55.5371 132.875 56.1351 132.401 56.4901C132.133 56.6891 131.814 56.7911 131.493 56.7911Z" fill="white"/>
<path d="M131.493 84.211C131.25 84.211 131.002 84.152 130.774 84.031L127.836 82.447L124.898 84.031C124.672 84.152 124.424 84.211 124.181 84.211C123.86 84.211 123.542 84.109 123.271 83.91C122.797 83.557 122.558 82.957 122.659 82.364L123.219 79.011L120.843 76.637C120.422 76.217 120.27 75.588 120.452 75.016C120.634 74.443 121.117 74.026 121.699 73.94L124.985 73.452L126.454 70.399C126.714 69.861 127.251 69.52 127.837 69.52C128.425 69.52 128.961 69.861 129.22 70.399L130.69 73.452L133.975 73.94C134.557 74.028 135.041 74.444 135.221 75.016C135.404 75.588 135.252 76.217 134.83 76.637L132.453 79.011L133.014 82.364C133.114 82.957 132.875 83.557 132.401 83.91C132.133 84.109 131.814 84.211 131.493 84.211Z" fill="white"/>
<path d="M131.493 111.631C131.25 111.631 131.002 111.574 130.774 111.45L127.836 109.867L124.898 111.45C124.672 111.573 124.424 111.631 124.181 111.631C123.86 111.631 123.542 111.531 123.271 111.33C122.797 110.977 122.558 110.376 122.659 109.785L123.219 106.431L120.843 104.058C120.422 103.639 120.27 103.009 120.452 102.435C120.634 101.863 121.117 101.447 121.699 101.36L124.985 100.873L126.454 97.8215C126.714 97.2825 127.251 96.9395 127.837 96.9395C128.425 96.9395 128.961 97.2825 129.22 97.8215L130.69 100.873L133.975 101.36C134.557 101.448 135.041 101.864 135.221 102.435C135.404 103.008 135.252 103.638 134.83 104.058L132.453 106.431L133.014 109.785C133.114 110.376 132.875 110.976 132.401 111.33C132.133 111.531 131.814 111.631 131.493 111.631Z" fill="white"/>
<path d="M131.493 139.05C131.25 139.05 131.002 138.991 130.774 138.869L127.836 137.287L124.898 138.869C124.672 138.991 124.424 139.05 124.181 139.05C123.86 139.05 123.542 138.95 123.271 138.749C122.797 138.397 122.558 137.796 122.659 137.204L123.219 133.851L120.843 131.479C120.422 131.058 120.27 130.428 120.452 129.856C120.634 129.283 121.117 128.866 121.699 128.779L124.985 128.291L126.454 125.241C126.714 124.702 127.251 124.36 127.837 124.36C128.425 124.36 128.961 124.702 129.22 125.241L130.69 128.291L133.975 128.779C134.557 128.866 135.041 129.283 135.221 129.856C135.404 130.428 135.252 131.058 134.83 131.479L132.453 133.851L133.014 137.204C133.114 137.796 132.875 138.397 132.401 138.749C132.133 138.951 131.814 139.05 131.493 139.05Z" fill="white"/>
<path d="M182.577 43.0812C182.332 43.0812 182.086 43.0242 181.858 42.9002L178.919 41.3172L175.981 42.9002C175.754 43.0232 175.508 43.0812 175.264 43.0812C174.943 43.0812 174.625 42.9812 174.357 42.7802C173.881 42.4272 173.64 41.8282 173.744 41.2362L174.303 37.8812L171.927 35.5082C171.507 35.0872 171.354 34.4592 171.536 33.8872C171.718 33.3142 172.201 32.8972 172.783 32.8112L176.068 32.3222L177.538 29.2712C177.797 28.7312 178.333 28.3892 178.92 28.3892C179.509 28.3892 180.046 28.7312 180.304 29.2712L181.774 32.3222L185.06 32.8112C185.641 32.8982 186.124 33.3142 186.303 33.8872C186.485 34.4592 186.334 35.0872 185.912 35.5082L183.536 37.8812L184.097 41.2362C184.197 41.8282 183.959 42.4272 183.485 42.7802C183.217 42.9802 182.898 43.0812 182.577 43.0812Z" fill="white"/>
<path d="M182.577 70.5001C182.332 70.5001 182.086 70.4441 181.858 70.3191L178.919 68.7351L175.981 70.3191C175.754 70.4431 175.508 70.5001 175.264 70.5001C174.943 70.5001 174.625 70.4001 174.357 70.1991C173.881 69.8461 173.64 69.2471 173.744 68.6531L174.303 65.3L171.927 62.9261C171.507 62.5081 171.354 61.8771 171.536 61.3061C171.718 60.7341 172.201 60.318 172.783 60.229L176.068 59.7411L177.538 56.6901C177.797 56.1511 178.333 55.8101 178.92 55.8101C179.509 55.8101 180.046 56.1511 180.304 56.6901L181.774 59.7411L185.06 60.229C185.641 60.318 186.124 60.7341 186.303 61.3061C186.485 61.8771 186.334 62.5081 185.912 62.9261L183.536 65.3L184.097 68.6531C184.197 69.2481 183.959 69.8451 183.485 70.1991C183.217 70.4011 182.898 70.5001 182.577 70.5001Z" fill="white"/>
<path d="M182.577 97.9214C182.332 97.9214 182.086 97.8624 181.858 97.7404L178.919 96.1584L175.981 97.7404C175.754 97.8634 175.508 97.9214 175.264 97.9214C174.943 97.9214 174.625 97.8204 174.357 97.6204C173.881 97.2664 173.64 96.6674 173.744 96.0764L174.303 92.7224L171.927 90.3504C171.507 89.9284 171.354 89.2984 171.536 88.7274C171.718 88.1554 172.201 87.7374 172.783 87.6504L176.068 87.1624L177.538 84.1114C177.797 83.5734 178.333 83.2324 178.92 83.2324C179.509 83.2324 180.046 83.5734 180.304 84.1114L181.774 87.1624L185.06 87.6504C185.641 87.7384 186.124 88.1564 186.303 88.7274C186.485 89.2984 186.334 89.9284 185.912 90.3504L183.536 92.7224L184.097 96.0764C184.197 96.6674 183.959 97.2664 183.485 97.6204C183.217 97.8204 182.898 97.9214 182.577 97.9214Z" fill="white"/>
<path d="M182.577 125.341C182.332 125.341 182.086 125.282 181.858 125.16L178.919 123.576L175.981 125.16C175.754 125.283 175.508 125.341 175.264 125.341C174.943 125.341 174.625 125.241 174.357 125.039C173.881 124.686 173.64 124.086 173.744 123.494L174.303 120.142L171.927 117.768C171.507 117.348 171.354 116.718 171.536 116.146C171.718 115.574 172.201 115.156 172.783 115.069L176.068 114.581L177.538 111.53C177.797 110.992 178.333 110.65 178.92 110.65C179.509 110.65 180.046 110.993 180.304 111.53L181.774 114.581L185.06 115.069C185.641 115.157 186.124 115.575 186.303 116.146C186.485 116.718 186.334 117.348 185.912 117.768L183.536 120.142L184.097 123.494C184.197 124.086 183.959 124.686 183.485 125.039C183.217 125.241 182.898 125.341 182.577 125.341Z" fill="white"/>
<path d="M165.208 29.3712C164.965 29.3712 164.717 29.3142 164.491 29.1892L161.552 27.6072L158.614 29.1892C158.388 29.3132 158.141 29.3712 157.896 29.3712C157.576 29.3712 157.257 29.2702 156.988 29.0692C156.514 28.7172 156.274 28.1162 156.375 27.5242L156.935 24.1702L154.56 21.7972C154.138 21.3762 153.987 20.7472 154.168 20.1752C154.35 19.6022 154.83 19.1852 155.415 19.0982L158.7 18.6102L160.17 15.5582C160.43 15.0192 160.966 14.6782 161.553 14.6782C162.141 14.6782 162.677 15.0202 162.936 15.5582L164.406 18.6102L167.692 19.0982C168.273 19.1862 168.756 19.6022 168.936 20.1752C169.118 20.7472 168.966 21.3762 168.545 21.7972L166.168 24.1702L166.73 27.5242C166.83 28.1162 166.591 28.7162 166.117 29.0692C165.847 29.2692 165.529 29.3712 165.208 29.3712Z" fill="white"/>
<path d="M165.208 56.7911C164.965 56.7911 164.717 56.7311 164.491 56.6101L161.552 55.0271L158.614 56.6101C158.388 56.7321 158.141 56.7911 157.896 56.7911C157.576 56.7911 157.257 56.6891 156.988 56.4901C156.514 56.1351 156.274 55.5371 156.375 54.9451L156.935 51.5911L154.56 49.2171C154.138 48.7971 153.987 48.1681 154.168 47.5951C154.35 47.0231 154.83 46.6071 155.415 46.5201L158.7 46.0311L160.17 42.9801C160.43 42.4411 160.966 42.0991 161.553 42.0991C162.141 42.0991 162.677 42.4421 162.936 42.9801L164.406 46.0311L167.692 46.5201C168.273 46.6071 168.756 47.0241 168.936 47.5951C169.118 48.1681 168.966 48.7971 168.545 49.2171L166.168 51.5911L166.73 54.9451C166.83 55.5371 166.591 56.1351 166.117 56.4901C165.847 56.6891 165.529 56.7911 165.208 56.7911Z" fill="white"/>
<path d="M165.208 84.211C164.965 84.211 164.717 84.152 164.491 84.031L161.552 82.447L158.614 84.031C158.388 84.152 158.141 84.211 157.896 84.211C157.576 84.211 157.257 84.109 156.988 83.91C156.514 83.557 156.274 82.957 156.375 82.364L156.935 79.011L154.56 76.637C154.138 76.217 153.987 75.588 154.168 75.016C154.35 74.443 154.83 74.026 155.415 73.94L158.7 73.452L160.17 70.399C160.43 69.861 160.966 69.52 161.553 69.52C162.141 69.52 162.677 69.861 162.936 70.399L164.406 73.452L167.692 73.94C168.273 74.028 168.756 74.444 168.936 75.016C169.118 75.588 168.966 76.217 168.545 76.637L166.168 79.011L166.73 82.364C166.83 82.957 166.591 83.557 166.117 83.91C165.847 84.109 165.529 84.211 165.208 84.211Z" fill="white"/>
<path d="M165.208 111.631C164.965 111.631 164.717 111.574 164.491 111.45L161.552 109.867L158.614 111.45C158.388 111.573 158.141 111.631 157.896 111.631C157.576 111.631 157.257 111.531 156.988 111.33C156.514 110.977 156.274 110.376 156.375 109.785L156.935 106.431L154.56 104.058C154.138 103.639 153.987 103.009 154.168 102.435C154.35 101.863 154.83 101.447 155.415 101.36L158.7 100.873L160.17 97.8215C160.43 97.2825 160.966 96.9395 161.553 96.9395C162.141 96.9395 162.677 97.2825 162.936 97.8215L164.406 100.873L167.692 101.36C168.273 101.448 168.756 101.864 168.936 102.435C169.118 103.008 168.966 103.638 168.545 104.058L166.168 106.431L166.73 109.785C166.83 110.376 166.591 110.976 166.117 111.33C165.847 111.531 165.529 111.631 165.208 111.631Z" fill="white"/>
<path d="M165.208 139.05C164.965 139.05 164.717 138.991 164.491 138.869L161.552 137.287L158.614 138.869C158.388 138.991 158.141 139.05 157.896 139.05C157.576 139.05 157.257 138.95 156.988 138.749C156.514 138.397 156.274 137.796 156.375 137.204L156.935 133.851L154.56 131.479C154.138 131.058 153.987 130.428 154.168 129.856C154.35 129.283 154.83 128.866 155.415 128.779L158.7 128.291L160.17 125.241C160.43 124.702 160.966 124.36 161.553 124.36C162.141 124.36 162.677 124.702 162.936 125.241L164.406 128.291L167.692 128.779C168.273 128.866 168.756 129.283 168.936 129.856C169.118 130.428 168.966 131.058 168.545 131.479L166.168 133.851L166.73 137.204C166.83 137.796 166.591 138.397 166.117 138.749C165.847 138.951 165.529 139.05 165.208 139.05Z" fill="white"/>
<path d="M198.926 29.3712C198.68 29.3712 198.433 29.3142 198.207 29.1892L195.269 27.6072L192.33 29.1892C192.103 29.3132 191.856 29.3712 191.613 29.3712C191.292 29.3712 190.974 29.2702 190.703 29.0692C190.229 28.7172 189.989 28.1162 190.09 27.5242L190.651 24.1702L188.273 21.7972C187.852 21.3762 187.701 20.7472 187.883 20.1752C188.064 19.6022 188.548 19.1852 189.129 19.0982L192.414 18.6102L193.883 15.5582C194.143 15.0192 194.68 14.6782 195.267 14.6782C195.854 14.6782 196.39 15.0202 196.649 15.5582L198.121 18.6102L201.405 19.0982C201.987 19.1862 202.469 19.6022 202.651 20.1752C202.834 20.7472 202.683 21.3762 202.261 21.7972L199.882 24.1702L200.445 27.5242C200.544 28.1162 200.304 28.7162 199.83 29.0692C199.563 29.2692 199.244 29.3712 198.926 29.3712Z" fill="white"/>
<path d="M198.926 56.7911C198.68 56.7911 198.433 56.7311 198.207 56.6101L195.269 55.0271L192.33 56.6101C192.103 56.7321 191.856 56.7911 191.613 56.7911C191.292 56.7911 190.974 56.6891 190.703 56.4901C190.229 56.1351 189.989 55.5371 190.09 54.9451L190.651 51.5911L188.273 49.2171C187.852 48.7971 187.701 48.1681 187.883 47.5951C188.064 47.0231 188.548 46.6071 189.129 46.5201L192.414 46.0311L193.883 42.9801C194.143 42.4411 194.68 42.0991 195.267 42.0991C195.854 42.0991 196.39 42.4421 196.649 42.9801L198.121 46.0311L201.405 46.5201C201.987 46.6071 202.469 47.0241 202.651 47.5951C202.834 48.1681 202.683 48.7971 202.261 49.2171L199.882 51.5911L200.445 54.9451C200.544 55.5371 200.304 56.1351 199.83 56.4901C199.563 56.6891 199.244 56.7911 198.926 56.7911Z" fill="white"/>
<path d="M198.926 84.211C198.68 84.211 198.433 84.152 198.207 84.031L195.269 82.447L192.33 84.031C192.103 84.152 191.856 84.211 191.613 84.211C191.292 84.211 190.974 84.109 190.703 83.91C190.229 83.557 189.989 82.957 190.09 82.364L190.651 79.011L188.273 76.637C187.852 76.217 187.701 75.588 187.883 75.016C188.064 74.443 188.548 74.026 189.129 73.94L192.414 73.452L193.883 70.399C194.143 69.861 194.68 69.52 195.267 69.52C195.854 69.52 196.39 69.861 196.649 70.399L198.121 73.452L201.405 73.94C201.987 74.028 202.469 74.444 202.651 75.016C202.834 75.588 202.683 76.217 202.261 76.637L199.882 79.011L200.445 82.364C200.544 82.957 200.304 83.557 199.83 83.91C199.563 84.109 199.244 84.211 198.926 84.211Z" fill="white"/>
<path d="M198.926 111.631C198.68 111.631 198.433 111.574 198.207 111.45L195.269 109.867L192.33 111.45C192.103 111.573 191.856 111.631 191.613 111.631C191.292 111.631 190.974 111.531 190.703 111.33C190.229 110.977 189.989 110.376 190.09 109.785L190.651 106.431L188.273 104.058C187.852 103.639 187.701 103.009 187.883 102.435C188.064 101.863 188.548 101.447 189.129 101.36L192.414 100.873L193.883 97.8215C194.143 97.2825 194.68 96.9395 195.267 96.9395C195.854 96.9395 196.39 97.2825 196.649 97.8215L198.121 100.873L201.405 101.36C201.987 101.448 202.469 101.864 202.651 102.435C202.834 103.008 202.683 103.638 202.261 104.058L199.882 106.431L200.445 109.785C200.544 110.376 200.304 110.976 199.83 111.33C199.563 111.531 199.244 111.631 198.926 111.631Z" fill="white"/>
<path d="M198.926 139.05C198.68 139.05 198.433 138.991 198.207 138.869L195.269 137.287L192.33 138.869C192.103 138.991 191.856 139.05 191.613 139.05C191.292 139.05 190.974 138.95 190.703 138.749C190.229 138.397 189.989 137.796 190.09 137.204L190.651 133.851L188.273 131.479C187.852 131.058 187.701 130.428 187.883 129.856C188.064 129.283 188.548 128.866 189.129 128.779L192.414 128.291L193.883 125.241C194.143 124.702 194.68 124.36 195.267 124.36C195.854 124.36 196.39 124.702 196.649 125.241L198.121 128.291L201.405 128.779C201.987 128.866 202.469 129.283 202.651 129.856C202.834 130.428 202.683 131.058 202.261 131.479L199.882 133.851L200.445 137.204C200.544 137.796 200.304 138.397 199.83 138.749C199.563 138.951 199.244 139.05 198.926 139.05Z" fill="white"/>
</svg>
