<svg width="22" height="22" viewBox="0 0 22 22" fill="none" xmlns="http://www.w3.org/2000/svg">
<path d="M10.352 10.9372L10.3507 10.6239C10.3507 9.32177 10.4269 8.13463 10.5418 7.36075L10.6424 6.87951C10.6984 6.62463 10.772 6.33443 10.8487 6.18628C11.1296 5.64437 11.6788 5.30908 12.2667 5.30908H12.3178C12.7011 5.32175 13.5061 5.65801 13.5061 5.66971C14.8015 6.21323 17.3006 7.85361 18.4548 9.02306L18.7902 9.37416C18.878 9.46932 18.9767 9.58194 19.038 9.66972C19.2426 9.94068 19.3449 10.276 19.3449 10.6112C19.3449 10.9855 19.2301 11.3335 19.0129 11.6181L18.6683 11.99L18.5911 12.0693C17.5438 13.2048 14.8092 15.0616 13.3787 15.6298L13.1627 15.7126C12.9028 15.8057 12.5387 15.9168 12.3178 15.9271C12.037 15.9271 11.7686 15.8618 11.5128 15.7331C11.1933 15.5528 10.9385 15.2682 10.7976 14.9329C10.7078 14.7009 10.5669 14.004 10.5669 13.9914C10.4377 13.2887 10.3628 12.18 10.352 10.9372ZM3.41797 10.6177C3.41797 9.87596 4.01353 9.2746 4.7481 9.2746L8.02129 9.56407C8.59755 9.56407 9.06473 10.0358 9.06473 10.6177C9.06473 11.2005 8.59755 11.6713 8.02129 11.6713L4.7481 11.9608C4.01353 11.9608 3.41797 11.3594 3.41797 10.6177Z" fill="#24A1DF"/>
</svg>
