<svg width="401" height="401" viewBox="0 0 401 401" fill="none" xmlns="http://www.w3.org/2000/svg">
<path d="M197.611 33.3032C203.945 28.3032 221.211 20.0031 231.611 22.8031C242.011 25.6031 245.278 31.6365 246.611 34.8032C247.945 37.9698 246.611 40.3032 246.611 40.3032" stroke="white" stroke-width="3"/>
<path d="M205.611 34.3032C209.611 31.8032 219.411 27.1032 226.611 28.3032C235.611 29.8032 241.111 30.3032 241.611 34.8032C241.832 36.791 239.111 39.6366 237.611 42.3032" stroke="white" stroke-width="3"/>
<path d="M303.887 213.939C302.887 212.939 304.887 212.939 305.387 212.439C305.887 212.439 307.087 212.339 307.887 211.939C308.887 211.439 311.887 211.439 312.887 210.939C313.887 210.439 316.887 211.439 317.387 211.939C317.887 212.439 316.387 213.939 314.887 214.439C313.387 214.939 309.387 215.439 307.887 215.439C306.387 215.439 304.887 214.939 303.887 213.939Z" stroke="white"/>
<path d="M72.1107 155.303C71.2011 165.001 72.924 189.638 68.1113 210.803C64.9485 224.713 59.1111 234.403 57.1111 242.803C54.6111 253.303 57.1111 282.803 57.1111 293.303C57.1111 303.803 69.1107 352.303 69.1107 361.803C69.1107 367.803 79.6111 370.803 83.6111 371.803C87.6111 372.803 161.111 385.303 169.611 386.803C176.411 388.003 221.111 390.803 242.611 391.803C240.945 351.97 237.111 268.803 235.111 256.803C232.611 241.803 229.112 114.803 214.111 91.8031C205.032 77.8815 200.017 71.7799 191.111 65.3033C180.111 57.3033 167.112 57.3033 150.611 55.3033C135.32 53.4499 118.611 56.3033 108.111 60.8033C99.188 64.6275 86.1111 86.8031 83.6111 95.8031C81.1111 104.803 73.6113 139.303 72.1107 155.303Z" stroke="white" stroke-width="3"/>
<path d="M84.1113 92.8032C87.278 81.3032 98.2113 56.5032 116.611 49.3032C139.611 40.3032 161.48 31.6968 192.111 33.3032C214.152 34.4591 240.111 41.8032 248.611 46.8032C257.111 51.8032 268.857 62.6236 277.611 78.3032C290.225 100.896 288.111 133.303 290.111 145.803C292.111 158.303 288.611 210.803 288.611 213.303C288.611 215.803 291.611 218.803 292.611 221.303C293.611 223.803 290.611 239.303 291.111 246.303C291.611 253.303 292.611 272.303 292.611 279.303C292.611 286.303 292.611 292.303 292.611 297.303C292.611 302.303 291.111 313.303 292.611 323.303C294.111 333.303 294.611 350.303 295.111 356.803C295.611 363.303 295.111 369.803 291.611 373.303C288.111 376.803 287.611 377.803 280.611 379.803C273.611 381.803 278.111 381.303 268.611 384.803C261.011 387.603 247.778 390.636 242.111 391.803" stroke="white" stroke-width="3"/>
<path d="M242.611 43.8031C251.445 35.8031 270.611 19.4031 276.611 17.8031C284.111 15.8031 291.611 12.8031 296.611 15.3031C301.611 17.8031 301.111 17.3031 308.111 20.3031C315.111 23.3031 321.611 25.8031 326.611 27.3031C331.611 28.8031 335.111 28.8031 338.111 31.8031C341.111 34.8031 345.111 51.3031 345.611 57.3031C346.111 63.3031 343.611 74.3031 342.111 79.3031C340.611 84.3031 331.111 112.303 330.611 118.303C330.111 124.303 330.111 126.803 328.611 134.803C327.111 142.803 327.111 147.303 326.111 155.803C325.111 164.303 325.111 167.803 325.111 175.303C325.111 182.803 325.611 188.303 323.611 192.803C321.611 197.303 322.611 201.803 319.111 203.803C315.611 205.803 311.611 209.803 305.611 208.303C299.611 206.803 296.111 208.303 294.111 203.803C292.111 199.303 290.111 193.803 291.611 184.803C293.111 175.803 294.111 152.803 294.111 148.803C294.111 144.803 291.611 140.303 291.611 134.803C291.611 129.303 297.111 87.3031 298.611 84.8031C300.111 82.3031 302.611 65.8031 302.611 59.8031C302.611 55.0031 302.611 49.4698 302.611 47.3031C292.945 53.3031 273.611 66.6031 273.611 71.8031" stroke="white" stroke-width="3"/>
<path d="M300.111 48.8032C300.611 48.8032 319.611 33.3032 329.111 39.3032C338.611 45.3032 345.611 56.3032 345.611 60.8032" stroke="white" stroke-width="3"/>
<path d="M300.611 207.803C300.278 215.137 299.712 242.703 300.112 244.303C300.612 246.303 299.111 257.303 299.111 261.803C299.111 266.303 299.111 268.803 299.111 271.803C299.111 274.803 299.611 289.303 299.111 294.303C298.611 299.303 297.611 301.803 298.111 303.803C298.611 305.803 299.111 314.303 299.111 317.303C299.111 320.303 299.611 327.303 299.611 328.803C299.611 330.303 299.111 342.803 299.111 346.803C299.111 350.803 298.61 352.303 299.111 353.303C299.611 354.303 300.611 346.803 303.611 346.803C306.611 346.803 309.111 345.303 314.611 345.303C320.111 345.303 320.611 344.803 324.611 343.803C328.611 342.803 327.611 342.803 330.111 343.803C332.611 344.803 334.611 344.303 335.611 342.303C336.611 340.303 337.611 331.803 336.611 328.803C335.611 325.803 332.611 325.803 331.611 322.803C330.611 319.803 328.111 317.803 325.111 316.803C322.111 315.803 322.111 316.303 314.611 314.303C307.111 312.303 304.611 311.803 304.111 310.303C303.611 308.803 301.611 305.803 302.611 303.303C303.611 300.803 308.611 280.803 309.111 276.303C309.611 271.803 311.111 260.803 311.111 259.803C311.111 258.803 314.111 243.303 314.111 239.803C314.111 236.303 313.611 234.303 314.111 230.803C314.611 227.303 315.111 225.303 315.111 223.303C315.111 221.303 319.111 218.303 319.611 216.303C320.111 214.303 320.111 211.803 320.111 208.803C320.111 206.403 319.778 204.47 319.611 203.803" stroke="white" stroke-width="3"/>
<path d="M304.611 327.303C301.611 326.303 303.111 328.803 303.111 330.303L306.111 329.303C307.611 328.803 308.611 330.803 309.611 332.803C310.611 334.803 313.611 334.303 318.611 334.803C323.611 335.303 325.111 334.803 325.611 333.803C326.111 332.803 323.611 332.803 320.611 332.303C317.611 331.803 315.611 330.803 312.611 329.303C309.611 327.803 307.611 328.303 304.611 327.303Z" stroke="white"/>
<path d="M288.611 211.303C286.611 212.303 270.611 221.303 268.611 225.303C266.611 229.303 247.111 258.303 244.111 279.303C241.711 296.103 240.111 316.97 239.611 325.303" stroke="white" stroke-width="3"/>
<path d="M292.611 219.803C290.611 220.803 274.611 229.803 272.611 233.803C270.611 237.803 251.111 266.803 248.111 287.803C245.711 304.603 240.111 321.47 239.611 329.803" stroke="white" stroke-width="3"/>
<path d="M219.111 104.303L202.111 122.303L201.111 151.803L229.611 181.303" stroke="white" stroke-width="3"/>
<path d="M116.611 118.803C112.211 118.803 94.4447 116.803 86.1113 115.803L83.1113 141.303C90.4447 142.47 105.411 144.903 106.611 145.303C107.811 145.703 154.778 148.137 178.111 149.303C178.611 140.303 179.311 122.303 178.111 122.303C176.611 122.303 122.111 118.803 116.611 118.803Z" stroke="white" stroke-width="3"/>
<path d="M84.6113 93.3032L86.1113 115.803L83.1113 140.803C79.278 151.97 71.6113 174.603 71.6113 175.803" stroke="white" stroke-width="3"/>
<path d="M202.111 122.303L189.611 122.803L188.111 150.303L201.111 150.803" stroke="white" stroke-width="3"/>
<path d="M176.611 121.803C176.945 120.303 178.811 117.303 183.611 117.303C188.411 117.303 190.945 120.637 191.611 122.303" stroke="white" stroke-width="3"/>
<path d="M171.111 120.803C171.611 116.803 177.071 111.803 184.111 111.803C191.151 111.803 195.611 117.803 196.611 121.803" stroke="white" stroke-width="3"/>
<path d="M189.611 150.303C189.278 151.803 187.411 154.803 182.611 154.803C177.811 154.803 175.778 150.97 175.111 149.303" stroke="white" stroke-width="3"/>
<path d="M194.611 151.303C194.111 154.303 189.725 160.303 182.111 160.303C174.498 160.303 170.611 151.803 170.111 148.803" stroke="white" stroke-width="3"/>
<path d="M143.611 39.3033C143.611 38.8033 144.611 22.3033 146.611 19.8033C148.611 17.3033 155.611 17.3033 157.611 17.3033C159.611 17.3033 174.611 15.3033 178.611 14.3033C182.611 13.3033 187.611 8.80327 190.611 10.3033C193.011 11.5033 199.278 23.8032 202.111 29.8032" stroke="white" stroke-width="3"/>
</svg>
