<svg width="159" height="37" viewBox="0 0 159 37" fill="none" xmlns="http://www.w3.org/2000/svg">
<path d="M67.6559 22.8435C67.8632 23.0668 68.0147 23.2581 68.1103 23.4176C68.206 23.5611 68.2539 23.7365 68.2539 23.9438C68.2539 24.2787 68.1263 24.6773 67.8712 25.1397C67.7436 25.5065 67.6001 25.8493 67.4406 26.1682C67.2971 26.4872 67.1855 26.6945 67.1058 26.7901L66.5556 28.0578C66.3164 28.584 66.0214 29.198 65.6706 29.8996C65.2401 30.7925 64.9371 31.4543 64.7617 31.8848L64.4508 32.3871C63.6535 33.6628 63.0396 34.5557 62.609 35.066C62.2582 35.3849 61.8436 35.7118 61.3653 36.0467C60.8869 36.3975 60.5042 36.5968 60.2172 36.6447C59.9142 36.7084 59.5793 36.7403 59.2126 36.7403C58.5588 36.7403 57.9768 36.6287 57.4665 36.4055C56.9562 36.1822 56.6612 35.9111 56.5815 35.5922L56.5337 35.3052C56.5337 35.0341 56.6453 34.8189 56.8685 34.6594C57.0758 34.5159 57.3071 34.4441 57.5622 34.4441C57.7216 34.4441 57.8412 34.484 57.921 34.5637C57.9529 34.5797 58.0804 34.6674 58.3037 34.8268C58.5269 34.9863 58.8299 35.066 59.2126 35.066C59.9301 35.066 60.6318 34.5956 61.3174 33.6548C61.9872 32.5864 62.4974 31.7333 62.8482 31.0955C62.5293 30.9042 62.2184 30.5852 61.9154 30.1388C61.6124 29.6763 61.4769 29.3574 61.5088 29.182V28.9189C61.3812 28.9189 61.2855 28.6797 61.2218 28.2013C61.1739 27.723 61.15 27.133 61.15 26.4314C61.15 25.666 61.1659 25.1318 61.1978 24.8288C61.2616 24.5737 61.2935 24.2627 61.2935 23.896C61.3095 23.5133 61.3174 23.2661 61.3174 23.1545C61.3015 22.9312 61.3413 22.7399 61.437 22.5804C61.5486 22.405 61.6523 22.2854 61.748 22.2217C61.9553 22.1419 62.1227 22.1021 62.2503 22.1021C62.9838 22.1021 63.3505 22.8834 63.3505 24.4461C63.3505 24.7491 63.3425 24.9803 63.3266 25.1397C63.2947 25.9051 63.2788 26.4473 63.2788 26.7662C63.2788 27.994 63.4462 28.7913 63.7811 29.1581C63.9246 28.8232 64.0442 28.584 64.1398 28.4405C64.3631 27.9781 64.4906 27.6831 64.5225 27.5555C64.5544 27.4439 64.6421 27.2605 64.7856 27.0054L65.0966 26.3596C65.1285 26.2639 65.2321 25.961 65.4075 25.4507C65.5829 24.9245 65.7583 24.5019 65.9337 24.183C65.9975 24.0554 66.0932 23.8721 66.2208 23.6329C66.3483 23.3777 66.452 23.1944 66.5317 23.0827C66.6114 22.9711 66.6991 22.8994 66.7948 22.8675C66.9224 22.7558 67.0579 22.7 67.2014 22.7C67.3449 22.7 67.4964 22.7479 67.6559 22.8435ZM75.5926 22.9631C75.6086 22.995 75.6564 23.0827 75.7361 23.2262C75.8318 23.3538 75.8796 23.5133 75.8796 23.7046C75.8796 24.0076 75.7361 24.3026 75.4491 24.5896C75.3056 24.6534 75.0983 24.8766 74.8272 25.2593C74.5721 25.642 74.3249 26.0327 74.0857 26.4314C74.0379 26.543 73.9741 26.6546 73.8944 26.7662C73.8147 26.8619 73.7509 26.9416 73.703 27.0054L72.5549 29.2298L72.531 29.5169C72.8021 29.5169 72.9855 29.6205 73.0811 29.8278C73.1768 30.1627 73.2247 30.4178 73.2247 30.5932C73.2247 30.7208 73.1928 30.8404 73.129 30.952C73.0652 31.0636 72.9616 31.2071 72.818 31.3825C72.5789 31.6217 72.3317 31.7413 72.0766 31.7413C71.933 31.7413 71.7895 31.7174 71.646 31.6696C71.1995 31.4782 70.8966 31.231 70.7371 30.9281C70.5617 30.6729 70.474 30.2823 70.474 29.7561C70.474 29.4371 70.482 29.198 70.4979 29.0385C70.482 28.9747 70.6016 28.5761 70.8567 27.8426C70.6654 28.002 70.4421 28.1615 70.187 28.3209C69.9318 28.4644 69.6847 28.5681 69.4455 28.6319C69.3498 28.6797 69.2462 28.7036 69.1346 28.7036C68.9113 28.7036 68.6642 28.6239 68.3931 28.4644C68.1379 28.305 67.9386 28.1057 67.7951 27.8665C67.6675 27.5954 67.5958 27.3323 67.5798 27.0772C67.5639 26.9974 67.5559 26.8699 67.5559 26.6945C67.5559 26.2001 67.6596 25.7457 67.8669 25.3311L68.3213 24.3983C68.6721 23.7285 68.9193 23.2262 69.0628 22.8914C69.302 22.5087 69.4296 22.2854 69.4455 22.2217C69.4933 22.0622 69.589 21.9187 69.7325 21.7911C69.892 21.6476 70.0435 21.5759 70.187 21.5759C70.7132 21.6237 71.1039 21.831 71.359 22.1977C71.4866 22.3572 71.5503 22.5485 71.5503 22.7718C71.5503 23.0429 71.4626 23.2741 71.2872 23.4654C70.8248 24.0873 70.3305 24.9643 69.8043 26.0965C69.7724 26.1603 69.7564 26.2241 69.7564 26.2878C69.7564 26.3835 69.7883 26.527 69.8521 26.7184C70.2986 26.6386 70.6813 26.4951 71.0002 26.2878C71.3191 26.0646 71.7018 25.7457 72.1483 25.3311C72.4353 25.0441 72.6586 24.8368 72.818 24.7092C73.1848 24.4222 73.4798 24.0873 73.703 23.7046C74.0698 23.0508 74.4286 22.716 74.7794 22.7C74.9388 22.7 75.0744 22.716 75.186 22.7479C75.3136 22.7798 75.4491 22.8515 75.5926 22.9631ZM77.45 31.3347C77.2906 31.3666 77.1471 31.3825 77.0195 31.3825C76.8122 31.3825 76.6209 31.3666 76.4455 31.3347C76.2701 31.2869 76.1824 31.231 76.1824 31.1673C76.1824 31.1194 76.1744 31.0875 76.1584 31.0716C76.1425 31.0556 76.1106 31.0477 76.0628 31.0477C76.0149 30.9998 75.9033 30.9201 75.7279 30.8085C75.5684 30.6809 75.4329 30.5932 75.3213 30.5454C75.1299 30.2743 75.0343 29.9793 75.0343 29.6604C75.0343 29.3574 75.1299 28.8711 75.3213 28.2013C75.3372 27.5795 75.5605 26.8858 75.991 26.1204C76.4375 25.3391 76.9717 24.6215 77.5936 23.9677C78.2154 23.298 78.7736 22.8196 79.2679 22.5326C79.5071 22.2934 79.8419 22.1738 80.2725 22.1738C80.6073 22.1738 80.9023 22.2456 81.1575 22.3891C81.3647 22.5167 81.6199 22.7877 81.9229 23.2023C82.2418 23.6169 82.481 23.9916 82.6404 24.3265C82.6723 24.4381 82.7122 24.5896 82.76 24.781C82.8238 24.9723 82.8557 25.2035 82.8557 25.4746L82.8078 26.1443C82.6165 26.7981 82.5208 27.3881 82.5208 27.9143C82.4889 28.1376 82.5049 28.3209 82.5687 28.4644C82.6324 28.592 82.7201 28.6558 82.8318 28.6558C82.9115 28.6558 82.9992 28.6319 83.0949 28.584C83.1905 28.5362 83.3022 28.5123 83.4297 28.5123C83.637 28.5123 83.8124 28.5761 83.9559 28.7036C84.0995 28.8312 84.1712 28.9907 84.1712 29.182C84.1712 29.3415 84.1313 29.493 84.0516 29.6365C83.9081 29.9554 83.637 30.2424 83.2384 30.4975C82.8557 30.7527 82.4969 30.8802 82.162 30.8802C81.891 30.8802 81.6279 30.7367 81.3727 30.4497C81.1335 30.1627 80.9422 29.7879 80.7987 29.3255L80.6552 28.7754L79.7941 29.5647L79.244 30.1148C78.9888 30.37 78.8453 30.5215 78.8134 30.5693C78.7337 30.6969 78.5902 30.8165 78.3829 30.9281C78.1915 31.0397 77.8806 31.1752 77.45 31.3347ZM78.0959 29.0385C78.3829 28.879 78.6221 28.6797 78.8134 28.4405C79.0207 28.2013 79.2758 27.8665 79.5788 27.4359C79.6426 27.3403 79.7064 27.2446 79.7702 27.1489C79.8339 27.0373 79.9137 26.9257 80.0094 26.8141C80.2804 26.4473 80.4718 26.1523 80.5834 25.9291C80.711 25.7058 80.8066 25.4666 80.8704 25.2115C80.8066 25.0042 80.711 24.8129 80.5834 24.6375C80.4718 24.4461 80.3681 24.3425 80.2725 24.3265C79.826 24.3265 79.22 24.8527 78.4546 25.9051C78.3749 26.0168 78.2473 26.2161 78.0719 26.5031C77.9125 26.7901 77.8088 26.9815 77.761 27.0772C77.6813 27.1888 77.5696 27.4599 77.4261 27.8904C77.2986 28.305 77.2348 28.5761 77.2348 28.7036C77.2348 29.0544 77.3384 29.2298 77.5457 29.2298C77.7052 29.2298 77.8886 29.1661 78.0959 29.0385ZM86.98 31.4782C86.5016 31.4782 86.1907 31.4543 86.0471 31.4064C85.9036 31.3427 85.7282 31.2151 85.5209 31.0238C85.4731 30.9121 85.3695 30.7606 85.21 30.5693C85.0665 30.3779 84.9469 30.2344 84.8512 30.1388C84.8034 29.9634 84.7795 29.7561 84.7795 29.5169C84.7795 29.1023 84.8353 28.6159 84.9469 28.0578C85.0745 27.4997 85.2259 26.9895 85.4013 26.527C85.4651 26.3995 85.513 26.2799 85.5449 26.1682C85.5927 26.0566 85.6246 25.9849 85.6405 25.953C85.6405 25.8414 85.8399 25.4985 86.2385 24.9245C86.6531 24.3345 86.98 23.9279 87.2192 23.7046C87.3308 23.5771 87.4982 23.4415 87.7215 23.298C87.9606 23.1545 88.1679 23.0508 88.3433 22.9871C88.3912 22.9711 88.5825 22.8994 88.9174 22.7718C89.2682 22.6442 89.5871 22.5804 89.8741 22.5804C90.1293 22.5804 90.3764 22.6362 90.6156 22.7479C90.8708 22.8435 91.0781 23.003 91.2375 23.2262C91.6521 23.6408 91.8594 24.183 91.8594 24.8527C91.8594 24.9803 91.8435 25.1238 91.8116 25.2833C91.7318 25.6022 91.5644 25.8653 91.3093 26.0726C91.0701 26.2639 90.8149 26.3596 90.5439 26.3596C90.2728 26.3596 90.0416 26.256 89.8502 26.0487C89.7864 25.8892 89.7546 25.7855 89.7546 25.7377C89.7546 25.6899 89.7864 25.5543 89.8502 25.3311C89.914 25.0441 89.9459 24.8607 89.9459 24.781C89.9459 24.5737 89.8741 24.47 89.7306 24.47C89.5393 24.47 89.3878 24.5179 89.2762 24.6135C89.1646 24.7092 88.9573 24.9165 88.6543 25.2354C88.447 25.4587 88.1998 25.7855 87.9128 26.2161C87.6417 26.6307 87.4265 27.0293 87.267 27.412C87.1235 27.8426 87.0198 28.1535 86.9561 28.3449C86.9082 28.5203 86.8843 28.6239 86.8843 28.6558C86.8843 28.7196 86.8763 28.7834 86.8604 28.8471C86.8444 28.895 86.8365 28.9508 86.8365 29.0146C86.8365 29.1262 86.8604 29.2139 86.9082 29.2777C86.9561 29.3415 87.0438 29.4052 87.1713 29.469C87.2032 29.485 87.259 29.5169 87.3388 29.5647C87.4185 29.6125 87.4982 29.6365 87.5779 29.6365C87.6736 29.6365 87.8092 29.5966 87.9846 29.5169C88.16 29.4371 88.2716 29.3893 88.3194 29.3734C88.5267 29.2777 88.8217 29.0704 89.2044 28.7515L89.7785 28.3209C89.8901 28.2412 89.9858 28.1774 90.0655 28.1296C90.1612 28.0658 90.2329 28.0259 90.2808 28.01C90.3286 27.9781 90.3525 27.9781 90.3525 28.01C90.3525 28.0738 90.3764 28.1057 90.4243 28.1057C90.4721 28.1057 90.5279 28.0738 90.5917 28.01C90.6555 27.9143 90.7671 27.8665 90.9266 27.8665C91.0541 27.8665 91.1817 27.9063 91.3093 27.9861C91.4528 28.0499 91.5245 28.1057 91.5245 28.1535L91.5006 28.2731C91.5006 28.3528 91.5405 28.4326 91.6202 28.5123C91.6202 28.5761 91.5963 28.6638 91.5485 28.7754C91.5166 28.8711 91.4687 28.9508 91.4049 29.0146C91.2455 29.2538 91.0621 29.5009 90.8548 29.7561C90.6635 30.0112 90.5279 30.1866 90.4482 30.2823H90.4243C90.3445 30.2823 90.2329 30.354 90.0894 30.4975C89.8502 30.7208 89.6429 30.8324 89.4675 30.8324C89.4037 30.8643 89.332 30.9042 89.2523 30.952C89.1725 30.9839 89.1327 31.0238 89.1327 31.0716C88.8616 31.3427 88.144 31.4782 86.98 31.4782ZM104.65 29.7321C104.762 29.8916 104.818 30.0431 104.818 30.1866C104.818 30.3461 104.762 30.4896 104.65 30.6171C104.539 30.7447 104.443 30.8085 104.363 30.8085C103.981 30.8085 103.55 30.7208 103.072 30.5454C102.609 30.354 102.378 30.0829 102.378 29.7321V28.2492C102.378 27.6113 102.322 27.2446 102.211 27.1489C101.971 27.0213 101.652 27.2047 101.254 27.699C100.855 28.1774 100.369 28.895 99.7948 29.8517C99.5716 30.2025 99.3802 30.4577 99.2208 30.6171C99.0613 30.7606 98.9178 30.8324 98.7902 30.8324C98.6786 30.8324 98.5829 30.8005 98.5032 30.7367C98.0089 30.5932 97.7617 30.3142 97.7617 29.8996C97.7617 29.8517 97.7777 29.7481 97.8096 29.5886C97.9531 29.0943 98.1046 28.5442 98.264 27.9382C98.4394 27.3323 98.575 26.8141 98.6706 26.3835C98.6228 26.2878 98.5431 26.24 98.4314 26.24C98.272 26.24 98.0886 26.3197 97.8813 26.4792C97.8175 26.527 97.6979 26.6068 97.5225 26.7184C97.3631 26.8141 97.1956 26.9496 97.0202 27.125C96.8608 27.2845 96.6933 27.5077 96.5179 27.7947C96.4542 27.9063 96.3425 28.0738 96.1831 28.297C95.3858 29.5089 94.8994 30.1946 94.724 30.354C94.6443 30.5773 94.5646 30.7367 94.4849 30.8324C94.4211 30.9121 94.3413 30.952 94.2457 30.952C94.1819 30.952 94.1022 30.9281 94.0065 30.8802C93.7035 30.7367 93.4563 30.5374 93.265 30.2823C93.0896 30.0112 93.0019 29.6923 93.0019 29.3255C93.0019 29.0863 93.0736 28.608 93.2172 27.8904C93.3607 27.1728 93.5201 26.5031 93.6955 25.8812C93.8231 25.6261 93.9188 25.363 93.9826 25.0919C94.0623 24.8049 94.1022 24.6056 94.1022 24.4939C94.15 24.191 94.2457 23.7843 94.3892 23.2741C94.5327 22.7479 94.6363 22.4608 94.7001 22.413C94.7958 22.3173 94.9712 22.2695 95.2263 22.2695C95.4017 22.2695 95.5692 22.3014 95.7286 22.3652C95.8881 22.429 95.9997 22.5246 96.0635 22.6522C96.2708 22.8914 96.3744 23.2183 96.3744 23.6329C96.3744 24.0156 96.2947 24.4222 96.1352 24.8527C95.9758 25.2195 95.7765 25.7537 95.5373 26.4553C95.5373 26.4553 95.5532 26.4393 95.5851 26.4074C95.9678 25.8653 96.4621 25.2593 97.0681 24.5896C97.3551 24.2707 97.674 24.0235 98.0248 23.8481C98.3916 23.6727 98.6866 23.585 98.9098 23.585C99.2925 23.6488 99.6114 23.8402 99.8666 24.1591C100.138 24.462 100.305 24.8846 100.369 25.4268C100.369 25.6181 100.353 25.8573 100.321 26.1443C100.289 26.4154 100.265 26.5908 100.249 26.6705C100.313 26.5908 100.473 26.3995 100.728 26.0965C100.999 25.7776 101.326 25.4507 101.708 25.1158C102.059 24.8447 102.386 24.7092 102.689 24.7092C102.944 24.7092 103.167 24.8129 103.359 25.0201C103.71 25.2274 103.981 25.5623 104.172 26.0247C104.379 26.4872 104.483 27.0134 104.483 27.6034C104.483 27.8107 104.475 27.9701 104.459 28.0817C104.443 28.1934 104.435 28.3528 104.435 28.5601C104.435 28.7834 104.459 28.9986 104.507 29.2059C104.555 29.3973 104.602 29.5727 104.65 29.7321ZM116.5 16.0506C116.803 16.5928 116.954 17.0313 116.954 17.3662C116.954 17.5735 116.914 17.7967 116.834 18.0359C116.755 18.2751 116.643 18.5461 116.5 18.8491C116.372 19.1361 116.284 19.3355 116.237 19.4471C115.934 20.0371 115.503 20.6271 114.945 21.2171C114.387 21.8071 113.733 22.3572 112.984 22.8675C112.314 23.4575 111.66 23.9119 111.022 24.2308L110.783 24.3504C111.198 24.462 111.628 24.7172 112.075 25.1158C112.218 25.2593 112.29 25.4347 112.29 25.642C112.29 25.6899 112.274 25.7776 112.242 25.9051C112.226 26.0965 112.21 26.2799 112.194 26.4553C112.178 26.6147 112.17 26.7662 112.17 26.9097C112.091 27.0851 112.003 27.3642 111.907 27.7469C111.812 28.1136 111.708 28.4405 111.596 28.7276C111.485 29.0146 111.325 29.3255 111.118 29.6604C110.815 30.1866 110.568 30.5454 110.376 30.7367C110.201 30.9121 109.834 31.1832 109.276 31.55L108.606 31.9805C108.559 31.9805 108.391 31.9805 108.104 31.9805C107.817 31.9964 107.522 31.9247 107.219 31.7652C106.932 31.6217 106.693 31.3905 106.502 31.0716C106.374 30.8324 106.262 30.5693 106.167 30.2823C106.087 29.9793 106.047 29.7082 106.047 29.469C106.047 29.2936 106.071 29.1581 106.119 29.0624C106.326 27.9622 106.494 27.1569 106.621 26.6466C106.749 26.1204 106.828 25.8174 106.86 25.7377L107.076 25.2354C107.139 25.0919 107.195 24.9564 107.243 24.8288C107.291 24.6853 107.315 24.5338 107.315 24.3743L107.291 24.1112C107.259 23.7126 107.379 23.4016 107.65 23.1784C107.905 22.9552 108.088 22.724 108.2 22.4848C108.311 22.2137 108.487 21.839 108.726 21.3606C108.981 20.8822 109.173 20.5633 109.3 20.4038L109.778 19.7341C109.986 19.4152 110.161 19.1601 110.305 18.9687C110.464 18.7614 110.647 18.5701 110.855 18.3947C111.03 18.0757 111.269 17.7728 111.572 17.4857C111.891 17.1828 112.266 16.8559 112.697 16.5051C113.047 16.2181 113.263 16.0347 113.342 15.955C113.422 15.8752 113.574 15.8035 113.797 15.7397C114.036 15.6759 114.267 15.6201 114.49 15.5723L115.017 15.4287C115.16 15.349 115.391 15.3809 115.71 15.5244C116.045 15.652 116.308 15.8274 116.5 16.0506ZM114.777 18.5621C115.064 17.988 115.208 17.5256 115.208 17.1748C115.208 17.0472 115.192 16.9595 115.16 16.9117C114.937 17.0233 114.347 17.5416 113.39 18.4664C111.54 20.3161 110.448 21.6476 110.113 22.4608L110.281 22.4848C110.998 22.2137 111.668 21.831 112.29 21.3367C112.928 20.8264 113.462 20.3241 113.892 19.8298C114.323 19.3195 114.618 18.897 114.777 18.5621ZM110.137 26.6466C110.137 26.1045 110.129 25.7616 110.113 25.6181C110.097 25.4746 110.05 25.2992 109.97 25.0919L110.089 24.6853L109.659 24.8288C109.499 24.8926 109.388 25.0042 109.324 25.1637C109.292 25.2593 109.244 25.4347 109.18 25.6899C109.117 25.945 109.037 26.1204 108.941 26.2161C108.878 26.2799 108.742 26.7901 108.535 27.7469C108.327 28.7036 108.224 29.3016 108.224 29.5408C108.224 29.6843 108.28 29.7561 108.391 29.7561C108.471 29.7561 108.567 29.7082 108.678 29.6125C108.806 29.5169 108.933 29.3734 109.061 29.182C109.348 28.8153 109.603 28.2332 109.826 27.4359C109.986 26.9735 110.089 26.7104 110.137 26.6466ZM116.197 31.8848C116.006 31.9008 115.846 31.8848 115.719 31.837C115.607 31.8051 115.44 31.7174 115.216 31.5739C114.866 31.3028 114.571 30.9679 114.331 30.5693C114.108 30.1706 114.005 29.8358 114.02 29.5647C114.036 29.5169 114.044 29.4451 114.044 29.3494C114.044 29.2538 114.036 29.182 114.02 29.1342C114.005 29.0704 113.997 29.0305 113.997 29.0146C113.933 28.9667 113.893 28.9348 113.877 28.9189C113.877 28.887 113.885 28.8551 113.901 28.8232C113.933 28.7913 113.957 28.7594 113.973 28.7276C114.036 28.7116 114.068 28.6797 114.068 28.6319C114.068 28.584 114.052 28.5282 114.02 28.4644C113.973 28.3369 113.997 28.0499 114.092 27.6034C114.204 27.1409 114.347 26.7104 114.523 26.3118C114.65 26.0088 114.85 25.6181 115.121 25.1397C115.408 24.6614 115.671 24.2946 115.91 24.0395C116.309 23.5771 116.636 23.2342 116.891 23.011C117.162 22.7877 117.465 22.6123 117.8 22.4848C118.071 22.3731 118.35 22.3173 118.637 22.3173C119.019 22.3173 119.354 22.429 119.641 22.6522C120.55 22.9073 121.1 23.4016 121.292 24.1352C121.387 24.47 121.435 24.8447 121.435 25.2593C121.435 26.1523 121.156 27.133 120.598 28.2013C120.295 28.8073 119.992 29.3096 119.689 29.7082C119.402 30.0909 119.051 30.4577 118.637 30.8085C118.35 31.0477 117.967 31.2709 117.489 31.4782C117.026 31.6696 116.596 31.8051 116.197 31.8848ZM118.278 28.2731C118.485 27.9701 118.653 27.6831 118.78 27.412C118.908 27.1409 119.019 26.7742 119.115 26.3118C119.179 26.0247 119.211 25.7377 119.211 25.4507C119.211 24.9404 119.139 24.6614 118.996 24.6135C118.884 24.5657 118.772 24.5418 118.661 24.5418C118.326 24.5418 117.975 24.757 117.608 25.1876C117.242 25.5862 116.97 25.9769 116.795 26.3596C116.62 26.7423 116.42 27.3562 116.197 28.2013C116.133 28.4565 116.101 28.7116 116.101 28.9667C116.101 29.2219 116.141 29.4292 116.221 29.5886C116.301 29.7321 116.42 29.8039 116.58 29.8039C117.026 29.8039 117.592 29.2936 118.278 28.2731ZM124.244 31.7174C124.132 31.6217 124.044 31.5659 123.981 31.55C123.933 31.5181 123.861 31.5021 123.765 31.5021C123.67 31.4862 123.574 31.4702 123.478 31.4543C123.43 31.2629 123.319 30.9839 123.143 30.6171C123.016 30.4098 122.92 30.2265 122.856 30.067C122.809 29.9075 122.785 29.7242 122.785 29.5169C122.785 29.4212 122.737 29.3255 122.641 29.2298C122.561 29.1182 122.514 29.0544 122.498 29.0385L122.713 28.895C122.665 28.7993 122.641 28.7036 122.641 28.608C122.641 28.5442 122.665 28.4644 122.713 28.3688C122.681 28.2093 122.665 28.0738 122.665 27.9622C122.665 27.6911 122.705 27.3801 122.785 27.0293C122.864 26.6626 122.912 26.4393 122.928 26.3596C122.96 26.232 122.992 26.0646 123.024 25.8573C123.072 25.6341 123.104 25.4587 123.119 25.3311C123.04 25.2833 122.952 25.2115 122.856 25.1158C122.761 25.0042 122.689 24.9245 122.641 24.8766C122.689 24.4939 122.761 24.2229 122.856 24.0634C122.952 23.888 123.151 23.7206 123.454 23.5611H123.67C123.877 23.2422 124.108 22.6602 124.363 21.815C124.523 21.3207 124.73 20.8423 124.985 20.3799C125.256 19.9175 125.432 19.6225 125.511 19.4949C125.735 18.9687 126.101 18.4106 126.612 17.8206C127.122 17.2147 127.616 16.7602 128.095 16.4572C128.398 16.2818 128.653 16.1702 128.86 16.1224C129.083 16.0745 129.402 16.0427 129.817 16.0267C130.152 16.2181 130.439 16.4572 130.678 16.7443C130.917 17.0313 131.037 17.3422 131.037 17.6771V18.0359C131.037 18.2591 130.997 18.4505 130.917 18.6099C130.917 18.7534 130.893 18.897 130.845 19.0405C130.797 19.184 130.766 19.2717 130.75 19.3036C130.734 19.3514 130.702 19.4311 130.654 19.5428C130.622 19.6544 130.606 19.7501 130.606 19.8298C130.08 20.946 129.593 21.7752 129.147 22.3173C128.716 22.8595 127.999 23.5372 126.994 24.3504C127.313 24.5896 127.513 24.8368 127.592 25.0919C127.672 25.347 127.72 25.7138 127.736 26.1922C127.736 26.4154 127.744 26.5908 127.76 26.7184C127.792 27.133 127.808 27.4359 127.808 27.6273C127.808 28.5203 127.624 29.3335 127.257 30.067C126.954 30.5932 126.604 30.9759 126.205 31.2151C125.806 31.4543 125.28 31.6377 124.626 31.7652L124.244 31.7174ZM128.836 17.8206C127.624 19.1601 126.628 20.8982 125.846 23.0349C126.484 22.7319 127.058 22.3572 127.568 21.9107C128.095 21.4642 128.493 20.9859 128.764 20.4756C128.988 20.0769 129.099 19.5906 129.099 19.0165C129.099 18.5222 129.011 18.1236 128.836 17.8206ZM124.961 29.8517C125.376 29.6444 125.663 29.3654 125.822 29.0146C125.998 28.6478 126.085 28.2253 126.085 27.7469C126.085 27.3323 126.03 26.822 125.918 26.2161C125.87 26.0247 125.846 25.8254 125.846 25.6181C125.83 25.5543 125.759 25.4666 125.631 25.355C125.503 25.2434 125.424 25.1716 125.392 25.1397C125.2 25.2833 125.041 25.6819 124.913 26.3357C124.802 26.9735 124.746 27.6193 124.746 28.2731C124.746 28.9269 124.802 29.3574 124.913 29.5647L124.961 29.8517ZM129.317 31.1673C129.269 31.0716 129.133 30.944 128.91 30.7846C128.687 30.6251 128.575 30.5294 128.575 30.4975C128.575 30.4338 128.536 30.3461 128.456 30.2344C128.392 30.1069 128.328 29.9952 128.264 29.8996C128.137 29.772 128.225 29.3574 128.528 28.6558C128.831 27.9542 129.237 27.125 129.747 26.1682C129.843 26.0726 129.963 25.9051 130.106 25.666C130.266 25.4268 130.369 25.2912 130.417 25.2593C130.417 25.1956 130.441 25.1397 130.489 25.0919C130.537 25.0281 130.593 24.9962 130.656 24.9962L130.848 24.6135C130.911 24.47 131.222 24.1272 131.781 23.585C132.339 23.0429 132.777 22.6761 133.096 22.4848C133.399 22.2775 133.726 22.1738 134.077 22.1738C134.459 22.1738 134.786 22.2854 135.057 22.5087L135.703 23.0588C136.182 23.4575 136.453 23.6887 136.516 23.7525L137.401 24.5418L136.995 25.7377C136.851 26.1682 136.78 26.5749 136.78 26.9576C136.78 27.5635 136.947 28.1296 137.282 28.6558C137.362 28.8312 137.465 28.9667 137.593 29.0624C137.736 29.1581 137.92 29.2219 138.143 29.2538C138.494 29.3175 138.669 29.493 138.669 29.78C138.669 30.1308 138.605 30.3939 138.478 30.5693C138.35 30.7447 138.199 30.8563 138.023 30.9042C137.768 30.936 137.593 30.952 137.497 30.952C137.035 30.952 136.612 30.8324 136.229 30.5932C135.847 30.354 135.512 29.9474 135.225 29.3734C135.161 29.2777 135.073 29.1023 134.962 28.8471C134.866 28.592 134.81 28.4166 134.794 28.3209C134.683 28.4804 134.499 28.6877 134.244 28.9428C132.602 30.6012 131.27 31.4304 130.25 31.4304C129.899 31.4304 129.588 31.3427 129.317 31.1673ZM130.632 29.182C130.888 29.2139 131.382 28.9269 132.115 28.3209C132.195 28.2572 132.283 28.1854 132.378 28.1057C132.474 28.01 132.578 27.9143 132.689 27.8186C133.136 27.4519 133.479 27.1489 133.718 26.9097C133.973 26.6546 134.228 26.3516 134.483 26.0008L135.01 25.1397C134.85 24.7889 134.707 24.5577 134.579 24.4461C134.451 24.3185 134.324 24.2548 134.196 24.2548C133.877 24.2548 133.479 24.5418 133 25.1158C132.522 25.6739 131.948 26.527 131.278 27.6751C131.103 27.9622 130.959 28.2651 130.848 28.584C130.736 28.887 130.664 29.0863 130.632 29.182ZM150.54 29.7321C150.651 29.8916 150.707 30.0431 150.707 30.1866C150.707 30.3461 150.651 30.4896 150.54 30.6171C150.428 30.7447 150.332 30.8085 150.253 30.8085C149.87 30.8085 149.439 30.7208 148.961 30.5454C148.499 30.354 148.267 30.0829 148.267 29.7321V28.2492C148.267 27.6113 148.212 27.2446 148.1 27.1489C147.861 27.0213 147.542 27.2047 147.143 27.699C146.745 28.1774 146.258 28.895 145.684 29.8517C145.461 30.2025 145.27 30.4577 145.11 30.6171C144.951 30.7606 144.807 30.8324 144.68 30.8324C144.568 30.8324 144.472 30.8005 144.393 30.7367C143.898 30.5932 143.651 30.3142 143.651 29.8996C143.651 29.8517 143.667 29.7481 143.699 29.5886C143.842 29.0943 143.994 28.5442 144.153 27.9382C144.329 27.3323 144.464 26.8141 144.56 26.3835C144.512 26.2878 144.432 26.24 144.321 26.24C144.161 26.24 143.978 26.3197 143.771 26.4792C143.707 26.527 143.587 26.6068 143.412 26.7184C143.252 26.8141 143.085 26.9496 142.91 27.125C142.75 27.2845 142.583 27.5077 142.407 27.7947C142.344 27.9063 142.232 28.0738 142.072 28.297C141.275 29.5089 140.789 30.1946 140.613 30.354C140.534 30.5773 140.454 30.7367 140.374 30.8324C140.31 30.9121 140.231 30.952 140.135 30.952C140.071 30.952 139.992 30.9281 139.896 30.8802C139.593 30.7367 139.346 30.5374 139.154 30.2823C138.979 30.0112 138.891 29.6923 138.891 29.3255C138.891 29.0863 138.963 28.608 139.107 27.8904C139.25 27.1728 139.41 26.5031 139.585 25.8812C139.712 25.6261 139.808 25.363 139.872 25.0919C139.952 24.8049 139.992 24.6056 139.992 24.4939C140.039 24.191 140.135 23.7843 140.279 23.2741C140.422 22.7479 140.526 22.4608 140.59 22.413C140.685 22.3173 140.861 22.2695 141.116 22.2695C141.291 22.2695 141.459 22.3014 141.618 22.3652C141.777 22.429 141.889 22.5246 141.953 22.6522C142.16 22.8914 142.264 23.2183 142.264 23.6329C142.264 24.0156 142.184 24.4222 142.025 24.8527C141.865 25.2195 141.666 25.7537 141.427 26.4553C141.427 26.4553 141.443 26.4393 141.474 26.4074C141.857 25.8653 142.352 25.2593 142.957 24.5896C143.244 24.2707 143.563 24.0235 143.914 23.8481C144.281 23.6727 144.576 23.585 144.799 23.585C145.182 23.6488 145.501 23.8402 145.756 24.1591C146.027 24.462 146.194 24.8846 146.258 25.4268C146.258 25.6181 146.242 25.8573 146.21 26.1443C146.179 26.4154 146.155 26.5908 146.139 26.6705C146.202 26.5908 146.362 26.3995 146.617 26.0965C146.888 25.7776 147.215 25.4507 147.598 25.1158C147.948 24.8447 148.275 24.7092 148.578 24.7092C148.833 24.7092 149.057 24.8129 149.248 25.0201C149.599 25.2274 149.87 25.5623 150.061 26.0247C150.269 26.4872 150.372 27.0134 150.372 27.6034C150.372 27.8107 150.364 27.9701 150.348 28.0817C150.332 28.1934 150.324 28.3528 150.324 28.5601C150.324 28.7834 150.348 28.9986 150.396 29.2059C150.444 29.3973 150.492 29.5727 150.54 29.7321ZM158.658 27.3881C158.721 27.4678 158.785 27.6034 158.849 27.7947C158.913 27.9861 158.945 28.1694 158.945 28.3449C158.945 28.4884 158.929 28.592 158.897 28.6558C158.833 29.0225 158.658 29.3734 158.371 29.7082C158.084 30.0271 157.765 30.3062 157.414 30.5454C156.824 30.8962 156.258 31.1513 155.716 31.3108C155.174 31.4543 154.544 31.526 153.826 31.526C153.443 31.526 153.124 31.4623 152.869 31.3347C152.614 31.2071 152.343 30.96 152.056 30.5932C151.849 30.2743 151.745 29.9315 151.745 29.5647C151.745 29.1182 151.841 28.5601 152.032 27.8904C152.239 27.2207 152.463 26.6865 152.702 26.2878C152.718 26.0487 152.79 25.8334 152.917 25.642C153.045 25.4347 153.124 25.2912 153.156 25.2115C153.22 24.9564 153.412 24.5418 153.73 23.9677C154.065 23.3937 154.32 23.0429 154.496 22.9153C154.528 22.6602 154.615 22.4369 154.759 22.2456C154.918 22.0383 155.022 21.9027 155.07 21.839L155.5 21.6954C155.564 21.7273 155.676 21.7592 155.835 21.7911C155.995 21.823 156.154 21.9267 156.314 22.1021C156.346 22.134 156.433 22.2217 156.577 22.3652C156.72 22.4927 156.832 22.6921 156.912 22.9631C156.912 23.1704 156.872 23.3458 156.792 23.4894C156.728 23.6329 156.649 23.7604 156.553 23.8721C156.473 23.9677 156.417 24.0395 156.385 24.0873C156.194 24.3425 155.915 24.7172 155.548 25.2115L155.644 25.2354C155.931 25.2195 156.29 25.3072 156.72 25.4985C157.151 25.6899 157.462 25.8812 157.653 26.0726C157.733 26.1523 157.844 26.2639 157.988 26.4074C158.147 26.5509 158.283 26.7024 158.395 26.8619C158.506 27.0213 158.594 27.1968 158.658 27.3881ZM156.936 27.6751C156.999 27.4838 156.904 27.3084 156.649 27.1489C156.409 26.9895 156.202 26.9177 156.027 26.9336H155.955C155.907 26.9336 155.787 26.9018 155.596 26.838C155.469 26.8061 155.373 26.7901 155.309 26.7901C155.261 26.7901 155.174 26.8061 155.046 26.838C154.902 26.8858 154.807 26.9177 154.759 26.9336C154.727 26.9336 154.711 26.9496 154.711 26.9815V27.0054C154.711 27.1489 154.639 27.2924 154.496 27.4359C154.416 27.5476 154.312 27.8107 154.185 28.2253C154.073 28.6239 153.986 28.9907 153.922 29.3255C154.113 29.3096 154.312 29.2777 154.52 29.2298C154.727 29.182 154.894 29.1421 155.022 29.1103C155.197 29.0943 155.389 29.0225 155.596 28.895C155.803 28.7674 155.963 28.6797 156.074 28.6319C156.505 28.4246 156.792 28.1057 156.936 27.6751Z" fill="white"/>
<path d="M48.6855 28.8816C49.0411 28.8401 49.363 29.0948 49.4045 29.4504C49.446 29.806 49.1914 30.128 48.8357 30.1695L48.6855 28.8816ZM4.51162 0.573666C4.74709 0.303942 5.15664 0.276176 5.42636 0.51165L9.82177 4.34892C10.0915 4.58439 10.1193 4.99393 9.88379 5.26366C9.64832 5.53338 9.23877 5.56115 8.96905 5.32567L5.06202 1.91477L1.65111 5.8218C1.41564 6.09153 1.0061 6.11929 0.736371 5.88382C0.466646 5.64835 0.438881 5.2388 0.674355 4.96908L4.51162 0.573666ZM48.8357 30.1695C38.9665 31.3209 28.2068 28.9383 19.7387 23.841C11.2689 18.7427 5.01989 10.8779 4.35318 1.04388L5.64682 0.956177C6.27672 10.2473 12.1834 17.7797 20.4074 22.7301C28.6333 27.6816 39.1055 29.9992 48.6855 28.8816L48.8357 30.1695Z" fill="white"/>
</svg>
