<svg width="383" height="66" viewBox="0 0 383 66" fill="none" xmlns="http://www.w3.org/2000/svg">
<path d="M101.647 16.386C101.967 16.7304 102.2 17.0255 102.348 17.2715C102.496 17.4928 102.569 17.7634 102.569 18.0832C102.569 18.5997 102.373 19.2146 101.979 19.9279C101.782 20.4936 101.561 21.0224 101.315 21.5143C101.094 22.0062 100.921 22.326 100.798 22.4736L99.9499 24.429C99.5809 25.2406 99.1259 26.1876 98.5848 27.2698C97.9207 28.6472 97.4534 29.668 97.1828 30.332L96.7032 31.1068C95.4734 33.0745 94.5264 34.4519 93.8623 35.239C93.3212 35.7309 92.6817 36.2351 91.9438 36.7516C91.2059 37.2928 90.6156 37.6002 90.1729 37.674C89.7056 37.7724 89.1891 37.8216 88.6233 37.8216C87.6149 37.8216 86.7171 37.6494 85.9301 37.3051C85.143 36.9607 84.688 36.5426 84.565 36.0507L84.4912 35.6079C84.4912 35.1898 84.6634 34.8577 85.0077 34.6118C85.3275 34.3904 85.6841 34.2797 86.0776 34.2797C86.3236 34.2797 86.5081 34.3412 86.6311 34.4642C86.6802 34.4888 86.877 34.6241 87.2214 34.87C87.5657 35.116 88.033 35.239 88.6233 35.239C89.7302 35.239 90.8124 34.5134 91.87 33.0622C92.9031 31.4143 93.6902 30.0984 94.2313 29.1145C93.7393 28.8194 93.2597 28.3275 92.7924 27.6388C92.3251 26.9255 92.116 26.4336 92.1652 26.163V25.7572C91.9684 25.7572 91.8208 25.3882 91.7225 24.6503C91.6487 23.9124 91.6118 23.0024 91.6118 21.9202C91.6118 20.7395 91.6364 19.9156 91.6856 19.4482C91.784 19.0547 91.8331 18.5751 91.8331 18.0094C91.8577 17.4191 91.87 17.0378 91.87 16.8656C91.8454 16.5213 91.9069 16.2261 92.0545 15.9802C92.2267 15.7096 92.3866 15.5252 92.5341 15.4268C92.8539 15.3038 93.1121 15.2423 93.3089 15.2423C94.4403 15.2423 95.0061 16.4475 95.0061 18.8579C95.0061 19.3253 94.9938 19.6819 94.9692 19.9279C94.92 21.1085 94.8954 21.9448 94.8954 22.4367C94.8954 24.3306 95.1536 25.5604 95.6701 26.1261C95.8915 25.6096 96.076 25.2406 96.2236 25.0193C96.5679 24.306 96.7647 23.851 96.8139 23.6542C96.8631 23.482 96.9983 23.1992 97.2197 22.8056L97.6993 21.8095C97.7485 21.6619 97.9084 21.1946 98.179 20.4075C98.4495 19.5958 98.7201 18.944 98.9906 18.4521C99.089 18.2553 99.2366 17.9725 99.4334 17.6035C99.6301 17.21 99.79 16.9271 99.913 16.755C100.036 16.5828 100.171 16.4721 100.319 16.4229C100.516 16.2507 100.725 16.1647 100.946 16.1647C101.167 16.1647 101.401 16.2384 101.647 16.386ZM110.356 23.4328C109.987 24.0231 109.385 24.638 108.548 25.2775C107.737 25.8924 106.814 26.5442 105.781 27.2329C106.076 27.7986 106.335 28.475 106.556 29.2621C106.802 30.0246 106.937 30.701 106.962 31.2913C107.65 31.1683 108.081 31.1068 108.253 31.1068C108.351 31.1806 108.548 31.3159 108.843 31.5127C109.139 31.734 109.36 31.9554 109.508 32.1768C109.68 32.4227 109.766 32.681 109.766 32.9515C109.84 33.1483 109.778 33.3943 109.581 33.6894C109.409 33.9846 109.175 34.1445 108.88 34.169C108.708 34.1936 108.425 34.2059 108.032 34.2059C107.245 34.2059 106.691 34.2797 106.371 34.4273C106.199 34.6979 106.015 35.0914 105.818 35.6079C105.474 36.4934 105.092 37.2805 104.674 37.9692C104.256 38.6824 103.629 39.3834 102.793 40.0721C102.399 40.4165 102.018 40.687 101.649 40.8838C101.28 41.1052 100.985 41.2159 100.764 41.2159C99.7305 41.4864 98.9066 41.6217 98.2917 41.6217C97.7505 41.6217 97.2586 41.511 96.8159 41.2896C96.3486 41.0929 95.8443 40.7485 95.3032 40.2566L94.0857 38.4488C94.0365 38.1044 94.0119 37.8585 94.0119 37.7109C94.0119 37.1452 94.221 36.6164 94.6391 36.1244C95.7706 34.7963 97.3324 33.7755 99.3247 33.0622C99.7182 32.8655 100.038 32.7671 100.284 32.7671L100.69 32.5457C100.764 32.4719 100.85 32.435 100.948 32.435C101.071 32.4596 101.145 32.4596 101.169 32.435C101.268 32.2137 101.44 32.1645 101.686 32.2874L102.534 31.9923C102.903 31.9185 103.334 31.7955 103.826 31.6233C103.85 31.3774 103.863 31.0453 103.863 30.6272C103.863 29.7171 103.703 29.1145 103.383 28.8194C103.162 28.598 102.99 28.3398 102.867 28.0446C102.768 27.7249 102.707 27.5404 102.682 27.4912C102.559 27.0977 102.461 26.8271 102.387 26.6795C102.387 26.3352 102.448 26.1015 102.571 25.9785C102.719 25.831 102.903 25.7203 103.125 25.6465C103.371 25.5727 103.555 25.5112 103.678 25.462C104.564 25.0439 105.535 24.3798 106.593 23.4697C107.675 22.5351 108.524 21.6373 109.139 20.7764C109.286 20.5551 109.36 20.3337 109.36 20.1123C109.36 19.8172 109.249 19.5589 109.028 19.3376C108.807 19.0916 108.511 18.9563 108.142 18.9317C107.429 18.9317 106.371 19.4974 104.97 20.6289C104.601 20.7518 104.318 20.8133 104.121 20.8133C103.85 20.8133 103.617 20.7026 103.42 20.4813C103.223 20.2599 103.051 19.9156 102.903 19.4482C102.953 18.9563 103.039 18.5997 103.162 18.3783C103.285 18.1324 103.457 17.8864 103.678 17.6404C103.924 17.3945 104.109 17.1731 104.232 16.9763C104.404 16.8534 104.625 16.6812 104.896 16.4598C105.191 16.2384 105.461 16.0663 105.707 15.9433C105.978 15.8203 106.273 15.7588 106.593 15.7588C106.691 15.7588 106.827 15.7342 106.999 15.685C107.195 15.6112 107.38 15.5743 107.552 15.5743C108.88 15.6235 109.926 16.1401 110.688 17.1239C111.377 18.0094 111.721 18.8702 111.721 19.7065C111.721 20.6412 111.266 21.8833 110.356 23.4328ZM100.395 38.4119C100.813 38.0675 101.219 37.6494 101.612 37.1575C102.006 36.6656 102.227 36.2228 102.276 35.8293L102.387 35.239L101.022 35.3497C100.235 35.6202 99.4969 35.9523 98.8082 36.3458C98.1195 36.7393 97.6399 37.096 97.3693 37.4157L96.4101 38.7439C96.902 39.0637 97.48 39.2236 98.1441 39.2236C98.9803 39.2236 99.7305 38.953 100.395 38.4119ZM121.1 30.1845C121.002 30.1845 120.854 30.123 120.658 30L119.735 29.7048C119.44 29.2375 119.293 28.6841 119.293 28.0446C119.293 27.5773 119.354 27.11 119.477 26.6426C119.625 26.1507 119.772 25.708 119.92 25.3144C120.092 24.8963 120.203 24.6257 120.252 24.5028C120.055 24.5519 119.354 24.6995 118.149 24.9455C117.509 25.0193 116.907 25.13 116.341 25.2775L115.861 25.0193L115.64 26.0892C115.443 27.2698 115.21 28.1307 114.939 28.6718C114.447 28.721 114.14 28.7456 114.017 28.7456C113.672 28.7456 113.205 28.6472 112.615 28.4504C112.246 27.9585 112.061 27.3928 112.061 26.7533C112.061 26.3352 112.123 25.917 112.246 25.4989C112.369 25.0808 112.553 24.5888 112.799 24.0231C113.021 23.5066 113.18 23.0885 113.279 22.7687C113.377 22.4244 113.426 22.0923 113.426 21.7726C113.574 21.625 113.98 20.6904 114.644 18.9686C115.333 17.2469 115.702 16.2016 115.751 15.8326C115.775 15.2423 116.07 14.9471 116.636 14.9471C117.128 14.9471 117.632 15.1562 118.149 15.5743C118.665 15.9679 118.924 16.3983 118.924 16.8656C118.924 17.0624 118.862 17.2592 118.739 17.456L117.079 21.8464C117.448 21.7972 117.743 21.7111 117.964 21.5881H120.362C120.608 21.7111 120.805 21.8464 120.953 21.9939C121.396 20.9363 121.752 20.0509 122.023 19.3376C122.293 18.6243 122.502 17.8987 122.65 17.1608C122.773 16.5459 123.179 16.0417 123.867 15.6481C124.015 15.6973 124.298 15.7957 124.716 15.9433C125.134 16.0909 125.454 16.2876 125.675 16.5336C125.921 16.7796 126.081 17.0993 126.155 17.4929C126.106 17.6404 126.044 17.8741 125.97 18.1938C125.921 18.5136 125.86 18.7473 125.786 18.8948L125.159 20.4075C125.085 20.6043 124.876 21.1208 124.532 21.9571C124.187 22.7687 123.904 23.5435 123.683 24.2814C123.462 25.0193 123.289 25.6957 123.166 26.3106C123.142 26.3844 123.031 26.7656 122.834 27.4543C122.638 28.0446 122.515 28.4873 122.465 28.7825C122.392 29.3974 122.133 29.8401 121.691 30.1107L121.1 30.1845ZM130.263 29.4835C130.017 29.5327 129.795 29.5573 129.598 29.5573C129.279 29.5573 128.984 29.5327 128.713 29.4835C128.442 29.4097 128.307 29.3236 128.307 29.2252C128.307 29.1514 128.295 29.1022 128.27 29.0776C128.246 29.053 128.196 29.0407 128.123 29.0407C128.049 28.967 127.877 28.844 127.606 28.6718C127.36 28.475 127.151 28.3398 126.979 28.266C126.684 27.8478 126.536 27.3928 126.536 26.9009C126.536 26.4336 126.684 25.6834 126.979 24.6503C127.004 23.6911 127.348 22.6212 128.012 21.4405C128.701 20.2353 129.525 19.1285 130.484 18.1201C131.443 17.087 132.304 16.3491 133.067 15.9064C133.435 15.5375 133.952 15.353 134.616 15.353C135.133 15.353 135.588 15.4637 135.981 15.685C136.301 15.8818 136.694 16.2999 137.162 16.9394C137.654 17.5789 138.023 18.1569 138.269 18.6735C138.318 18.8456 138.379 19.0793 138.453 19.3745C138.551 19.6696 138.601 20.0263 138.601 20.4444L138.527 21.4774C138.232 22.4859 138.084 23.3959 138.084 24.2076C138.035 24.5519 138.06 24.8348 138.158 25.0562C138.256 25.2529 138.392 25.3513 138.564 25.3513C138.687 25.3513 138.822 25.3144 138.97 25.2406C139.117 25.1669 139.289 25.13 139.486 25.13C139.806 25.13 140.076 25.2283 140.298 25.4251C140.519 25.6219 140.63 25.8678 140.63 26.163C140.63 26.409 140.568 26.6426 140.445 26.864C140.224 27.3559 139.806 27.7986 139.191 28.1922C138.601 28.5857 138.047 28.7825 137.531 28.7825C137.113 28.7825 136.707 28.5611 136.313 28.1184C135.944 27.6757 135.649 27.0977 135.428 26.3844L135.206 25.5358L133.878 26.7533L133.03 27.6019C132.636 27.9954 132.415 28.2291 132.366 28.3029C132.243 28.4996 132.021 28.6841 131.701 28.8563C131.406 29.0285 130.927 29.2375 130.263 29.4835ZM131.259 25.9416C131.701 25.6957 132.07 25.3882 132.366 25.0193C132.685 24.6503 133.079 24.1338 133.546 23.4697C133.645 23.3221 133.743 23.1746 133.841 23.027C133.94 22.8548 134.063 22.6826 134.21 22.5105C134.628 21.9448 134.924 21.4897 135.096 21.1454C135.292 20.801 135.44 20.4321 135.538 20.0386C135.44 19.7188 135.292 19.4236 135.096 19.1531C134.924 18.8579 134.764 18.6981 134.616 18.6735C133.927 18.6735 132.993 19.4851 131.812 21.1085C131.689 21.2807 131.492 21.5881 131.222 22.0308C130.976 22.4736 130.816 22.7687 130.742 22.9163C130.619 23.0885 130.447 23.5066 130.226 24.1707C130.029 24.8102 129.93 25.2283 129.93 25.4251C129.93 25.9662 130.09 26.2368 130.41 26.2368C130.656 26.2368 130.939 26.1384 131.259 25.9416ZM149.906 30.2214C149.734 30.3198 149.5 30.2829 149.205 30.1107C148.935 29.9385 148.664 29.6802 148.393 29.3359C148.197 29.0162 148.061 28.7087 147.988 28.4135C147.914 28.0938 147.877 27.6388 147.877 27.0485L147.914 26.1999C147.914 25.9785 147.877 25.8678 147.803 25.8678C147.729 25.8678 147.557 25.9908 147.287 26.2368C147.041 26.4582 146.721 26.7533 146.327 27.1222C145.59 27.8355 144.962 28.389 144.446 28.7825C143.954 29.1514 143.548 29.3236 143.228 29.299C142.958 29.299 142.576 29.0653 142.085 28.598C141.593 28.1061 141.261 27.6388 141.088 27.196C141.015 26.9009 140.978 26.5688 140.978 26.1999C140.978 25.0685 141.224 23.6911 141.716 22.0677C142.208 20.4444 142.786 19.0424 143.45 17.8618C144.114 16.6566 144.667 16.0786 145.11 16.1278C145.503 16.177 145.848 16.3737 146.143 16.7181C146.463 17.0378 146.721 17.4314 146.918 17.8987C146.991 18.0463 147.028 18.1692 147.028 18.2676C147.028 18.4398 146.93 18.612 146.733 18.7841C146.364 19.2761 145.897 20.0877 145.331 21.2192C144.766 22.326 144.311 23.3467 143.966 24.2814C143.622 25.1914 143.536 25.6465 143.708 25.6465C144.052 25.6465 144.36 25.5604 144.63 25.3882C144.925 25.216 145.307 24.9086 145.774 24.4659C146.659 23.5804 147.52 22.449 148.357 21.0716C149.39 19.4236 149.955 18.4644 150.054 18.1938L150.46 17.456C150.706 16.964 150.89 16.6443 151.013 16.4967C151.136 16.3245 151.284 16.2138 151.456 16.1647H152.304C152.452 16.1893 152.624 16.2999 152.821 16.4967C153.042 16.5951 153.251 16.7304 153.448 16.9025C153.645 17.0747 153.743 17.2223 153.743 17.3453L153.153 18.7104L152.821 19.4851C152.157 20.9609 151.652 22.1415 151.308 23.027C150.964 23.8879 150.706 24.7856 150.533 25.7203C150.509 25.8432 150.496 26.0523 150.496 26.3475C150.496 27.0854 150.57 27.6019 150.718 27.897C150.939 28.3398 151.161 28.6595 151.382 28.8563C151.579 29.0039 151.579 29.1883 151.382 29.4097C151.185 29.6065 150.902 29.7909 150.533 29.9631C150.189 30.1353 149.98 30.2214 149.906 30.2214ZM149.537 13.9141C148.676 13.9633 147.963 13.7296 147.397 13.2131C146.856 12.672 146.401 11.8234 146.032 10.6674C145.983 10.4215 145.958 10.2616 145.958 10.1878C145.958 9.89264 146.032 9.63438 146.18 9.41301C146.278 9.24084 146.426 9.13015 146.623 9.08096C146.844 9.00717 147.041 8.99487 147.213 9.04407C147.68 9.21624 148.025 9.41301 148.246 9.63437C148.467 9.83114 148.578 10.114 148.578 10.4829C148.578 10.5813 148.59 10.6797 148.615 10.7781C148.664 10.8765 148.689 10.938 148.689 10.9626C148.787 11.3069 148.971 11.4791 149.242 11.4791L149.537 11.4053C150.054 11.1839 150.484 10.9872 150.828 10.815C151.173 10.6182 151.48 10.3846 151.751 10.114C152.071 9.79425 152.599 9.31463 153.337 8.67513C153.534 8.50295 153.755 8.44146 154.001 8.49065C154.42 8.56444 154.641 8.67513 154.665 8.8227L154.739 8.89649C154.887 9.19165 154.961 9.54829 154.961 9.96642V10.0033C154.961 10.2247 154.887 10.4583 154.739 10.7043C154.641 10.9995 154.493 11.2454 154.297 11.4422C154.1 11.639 153.768 11.9218 153.3 12.2908C152.71 12.7335 151.923 13.2008 150.939 13.6927C150.718 13.8157 150.447 13.8895 150.127 13.9141C149.832 13.9141 149.636 13.9141 149.537 13.9141ZM164.591 29.7417C164.296 29.7417 164.063 29.6925 163.89 29.5942C163.718 29.4958 163.472 29.3113 163.153 29.0407C162.661 28.5242 162.279 27.9954 162.009 27.4543C161.738 26.8886 161.64 26.3967 161.714 25.9785C161.788 25.8064 161.812 25.6342 161.788 25.462C161.788 25.2898 161.788 25.1792 161.788 25.13C161.689 25.0316 161.64 24.9701 161.64 24.9455C161.64 24.8963 161.665 24.8594 161.714 24.8348C161.763 24.7856 161.8 24.7364 161.824 24.6872C161.972 24.6872 162.021 24.5519 161.972 24.2814C161.923 24.0846 162.009 23.6542 162.23 22.9901C162.452 22.326 162.734 21.7111 163.079 21.1454C163.349 20.7026 163.743 20.1492 164.259 19.4851C164.801 18.821 165.28 18.3168 165.698 17.9725C166.928 16.9148 168.035 16.2753 169.019 16.054C169.511 15.931 169.99 15.8695 170.458 15.8695C171.171 15.8695 171.724 16.0663 172.118 16.4598C172.659 16.6812 173.053 17.0009 173.299 17.4191C173.544 17.8372 173.704 18.3906 173.778 19.0793C173.803 19.2269 173.815 19.4728 173.815 19.8172C173.815 21.6373 173.126 23.5312 171.749 25.4989C171.183 26.3106 170.618 26.9624 170.052 27.4543C169.486 27.9462 168.797 28.4381 167.986 28.9301C167.543 29.2252 167.076 29.422 166.584 29.5204C166.092 29.6188 165.428 29.6925 164.591 29.7417ZM168.355 25.2406C168.822 24.8225 169.154 24.4044 169.351 23.9862C169.572 23.5435 169.88 22.781 170.273 21.6988C170.421 21.4774 170.495 21.0347 170.495 20.3706C170.495 19.7803 170.408 19.4482 170.236 19.3745C170.113 19.2761 169.966 19.2269 169.794 19.2269C169.572 19.2269 169.216 19.3991 168.724 19.7434C167.863 20.4813 167.137 21.2561 166.547 22.0677C165.981 22.8548 165.588 23.7649 165.366 24.7979C165.342 24.8963 165.329 25.0439 165.329 25.2406C165.329 26.0769 165.625 26.495 166.215 26.495C166.781 26.495 167.494 26.0769 168.355 25.2406ZM195.121 18.3414C195.023 18.7104 194.863 19.0793 194.642 19.4482C194.42 19.8172 194.273 20.0754 194.199 20.223C194.027 20.592 193.891 20.8871 193.793 21.1085C193.695 21.3053 193.621 21.4774 193.572 21.625C194.064 21.8464 194.285 22.3875 194.236 23.2484L193.83 23.8018L192.649 24.2076C192.551 24.6257 192.477 24.9824 192.428 25.2775C192.379 25.7203 192.231 26.3352 191.985 27.1222L191.764 27.9708C191.641 28.3644 191.481 28.6226 191.284 28.7456C191.112 28.8686 190.841 28.967 190.473 29.0407C190.325 28.9916 190.116 28.9178 189.845 28.8194C189.575 28.721 189.378 28.6349 189.255 28.5611C189.132 28.4873 189.009 28.389 188.886 28.266C188.738 28.0446 188.665 27.8109 188.665 27.565C188.665 27.3436 188.751 26.9378 188.923 26.3475C189.218 25.3882 189.427 24.6626 189.55 24.1707L188.923 24.2814C188.554 24.306 188.271 24.3429 188.074 24.3921C187.878 24.4167 187.73 24.4413 187.632 24.4659C187.435 24.5642 187.041 24.6134 186.451 24.6134C185.959 24.6134 185.529 24.5765 185.16 24.5028C185.111 24.6257 185.049 24.7979 184.975 25.0193C184.901 25.216 184.815 25.4743 184.717 25.7941C184.569 26.286 184.496 26.6303 184.496 26.8271L184.348 27.8232C184.299 28.02 184.25 28.3521 184.2 28.8194C184.176 29.3359 184.053 29.7294 183.832 30C183.61 30.2952 183.327 30.4427 182.983 30.4427C182.417 30.4427 181.765 30.0738 181.028 29.3359L180.88 28.8194L181.47 25.9785C181.519 25.831 181.569 25.6711 181.618 25.4989C181.667 25.3267 181.704 25.1423 181.729 24.9455L182.024 23.9862L182.43 22.8425C182.774 21.8095 183.057 21.0716 183.278 20.6289C183.377 20.2845 183.499 19.9033 183.647 19.4851C183.819 19.067 183.942 18.7719 184.016 18.5997C184.065 18.5259 184.213 18.1078 184.459 17.3453C184.705 16.5582 184.877 16.0294 184.975 15.7588C185.172 15.2669 185.529 15.0209 186.045 15.0209C186.562 14.9963 187.017 15.1439 187.41 15.4637C187.804 15.7588 188.013 16.1401 188.037 16.6074C188.037 16.7058 188.025 16.8779 188.001 17.1239C187.976 17.3453 187.939 17.4929 187.89 17.5666L186.156 21.8464C186.377 21.8218 186.648 21.7849 186.968 21.7357C187.287 21.6619 187.521 21.625 187.669 21.625C188.013 21.5512 188.443 21.5143 188.96 21.5143C189.476 21.5143 189.882 21.5512 190.177 21.625C190.3 21.4282 190.448 21.0716 190.62 20.5551C190.669 20.3337 190.78 20.014 190.952 19.5958C191.149 18.9563 191.419 18.3414 191.764 17.7511C191.788 17.6773 191.813 17.5789 191.838 17.456C191.862 17.3084 192.034 16.9517 192.354 16.386C192.748 16.1893 193.104 16.0909 193.424 16.0909C193.916 16.0909 194.334 16.2507 194.678 16.5705C195.047 16.8902 195.232 17.2838 195.232 17.7511C195.232 17.9233 195.195 18.1201 195.121 18.3414ZM199.71 29.4835C199.464 29.5327 199.243 29.5573 199.046 29.5573C198.726 29.5573 198.431 29.5327 198.161 29.4835C197.89 29.4097 197.755 29.3236 197.755 29.2252C197.755 29.1514 197.742 29.1022 197.718 29.0776C197.693 29.053 197.644 29.0407 197.57 29.0407C197.497 28.967 197.324 28.844 197.054 28.6718C196.808 28.475 196.599 28.3398 196.427 28.266C196.131 27.8478 195.984 27.3928 195.984 26.9009C195.984 26.4336 196.131 25.6834 196.427 24.6503C196.451 23.6911 196.796 22.6212 197.46 21.4405C198.148 20.2353 198.972 19.1285 199.932 18.1201C200.891 17.087 201.752 16.3491 202.514 15.9064C202.883 15.5375 203.4 15.353 204.064 15.353C204.58 15.353 205.035 15.4637 205.429 15.685C205.749 15.8818 206.142 16.2999 206.609 16.9394C207.101 17.5789 207.47 18.1569 207.716 18.6735C207.765 18.8456 207.827 19.0793 207.901 19.3745C207.999 19.6696 208.048 20.0263 208.048 20.4444L207.975 21.4774C207.679 22.4859 207.532 23.3959 207.532 24.2076C207.483 24.5519 207.507 24.8348 207.606 25.0562C207.704 25.2529 207.839 25.3513 208.011 25.3513C208.134 25.3513 208.27 25.3144 208.417 25.2406C208.565 25.1669 208.737 25.13 208.934 25.13C209.254 25.13 209.524 25.2283 209.745 25.4251C209.967 25.6219 210.077 25.8678 210.077 26.163C210.077 26.409 210.016 26.6426 209.893 26.864C209.672 27.3559 209.254 27.7986 208.639 28.1922C208.048 28.5857 207.495 28.7825 206.978 28.7825C206.56 28.7825 206.154 28.5611 205.761 28.1184C205.392 27.6757 205.097 27.0977 204.875 26.3844L204.654 25.5358L203.326 26.7533L202.477 27.6019C202.084 27.9954 201.862 28.2291 201.813 28.3029C201.69 28.4996 201.469 28.6841 201.149 28.8563C200.854 29.0285 200.374 29.2375 199.71 29.4835ZM200.706 25.9416C201.149 25.6957 201.518 25.3882 201.813 25.0193C202.133 24.6503 202.526 24.1338 202.994 23.4697C203.092 23.3221 203.191 23.1746 203.289 23.027C203.387 22.8548 203.51 22.6826 203.658 22.5105C204.076 21.9448 204.371 21.4897 204.543 21.1454C204.74 20.801 204.888 20.4321 204.986 20.0386C204.888 19.7188 204.74 19.4236 204.543 19.1531C204.371 18.8579 204.211 18.6981 204.064 18.6735C203.375 18.6735 202.44 19.4851 201.26 21.1085C201.137 21.2807 200.94 21.5881 200.669 22.0308C200.423 22.4736 200.264 22.7687 200.19 22.9163C200.067 23.0885 199.895 23.5066 199.673 24.1707C199.477 24.8102 199.378 25.2283 199.378 25.4251C199.378 25.9662 199.538 26.2368 199.858 26.2368C200.104 26.2368 200.387 26.1384 200.706 25.9416ZM214.41 29.7048C213.672 29.7048 213.192 29.668 212.971 29.5942C212.75 29.4958 212.479 29.299 212.159 29.0039C212.086 28.8317 211.926 28.598 211.68 28.3029C211.458 28.0077 211.274 27.7863 211.126 27.6388C211.053 27.3682 211.016 27.0485 211.016 26.6795C211.016 26.04 211.102 25.2898 211.274 24.429C211.471 23.5681 211.704 22.781 211.975 22.0677C212.073 21.871 212.147 21.6865 212.196 21.5143C212.27 21.3421 212.319 21.2315 212.344 21.1823C212.344 21.0101 212.651 20.4813 213.266 19.5958C213.906 18.6858 214.41 18.0586 214.779 17.7142C214.951 17.5174 215.209 17.3084 215.554 17.087C215.923 16.8656 216.242 16.7058 216.513 16.6074C216.587 16.5828 216.882 16.4721 217.398 16.2753C217.94 16.0786 218.431 15.9802 218.874 15.9802C219.268 15.9802 219.649 16.0663 220.018 16.2384C220.411 16.386 220.731 16.632 220.977 16.9763C221.617 17.6158 221.936 18.4521 221.936 19.4851C221.936 19.6819 221.912 19.9033 221.863 20.1492C221.74 20.6412 221.481 21.047 221.088 21.3667C220.719 21.6619 220.325 21.8095 219.907 21.8095C219.489 21.8095 219.132 21.6496 218.837 21.3299C218.739 21.0839 218.69 20.924 218.69 20.8502C218.69 20.7764 218.739 20.5674 218.837 20.223C218.936 19.7803 218.985 19.4974 218.985 19.3745C218.985 19.0547 218.874 18.8948 218.653 18.8948C218.358 18.8948 218.124 18.9686 217.952 19.1162C217.78 19.2638 217.46 19.5835 216.993 20.0754C216.673 20.4198 216.292 20.924 215.849 21.5881C215.431 22.2276 215.099 22.8425 214.853 23.4328C214.631 24.0969 214.471 24.5765 214.373 24.8717C214.299 25.1423 214.262 25.3021 214.262 25.3513C214.262 25.4497 214.25 25.5481 214.225 25.6465C214.201 25.7203 214.189 25.8064 214.189 25.9047C214.189 26.0769 214.225 26.2122 214.299 26.3106C214.373 26.409 214.508 26.5073 214.705 26.6057C214.754 26.6303 214.84 26.6795 214.963 26.7533C215.086 26.8271 215.209 26.864 215.332 26.864C215.48 26.864 215.689 26.8025 215.96 26.6795C216.23 26.5565 216.402 26.4827 216.476 26.4582C216.796 26.3106 217.251 25.9908 217.841 25.4989L218.727 24.8348C218.899 24.7118 219.046 24.6134 219.169 24.5397C219.317 24.4413 219.428 24.3798 219.501 24.3552C219.575 24.306 219.612 24.306 219.612 24.3552C219.612 24.4536 219.649 24.5028 219.723 24.5028C219.797 24.5028 219.883 24.4536 219.981 24.3552C220.079 24.2076 220.252 24.1338 220.498 24.1338C220.694 24.1338 220.891 24.1953 221.088 24.3183C221.309 24.4167 221.42 24.5028 221.42 24.5765L221.383 24.761C221.383 24.884 221.444 25.007 221.567 25.13C221.567 25.2283 221.531 25.3636 221.457 25.5358C221.408 25.6834 221.334 25.8064 221.235 25.9047C220.989 26.2737 220.707 26.6549 220.387 27.0485C220.092 27.442 219.883 27.7126 219.76 27.8601H219.723C219.6 27.8601 219.428 27.9708 219.206 28.1922C218.837 28.5365 218.518 28.7087 218.247 28.7087C218.149 28.7579 218.038 28.8194 217.915 28.8932C217.792 28.9424 217.73 29.0039 217.73 29.0776C217.312 29.4958 216.205 29.7048 214.41 29.7048ZM240.788 21.0347C240.32 21.625 239.89 22.1046 239.496 22.4736C239.127 22.8179 238.685 23.0762 238.168 23.2484C238.931 24.1092 239.312 25.0562 239.312 26.0892C239.312 26.8271 239.115 27.5281 238.722 28.1922C238.328 28.9055 237.701 29.4958 236.84 29.9631C236.004 30.4058 235.13 30.6272 234.22 30.6272C233.532 30.6272 232.905 30.4796 232.339 30.1845C231.724 29.8401 231.281 29.545 231.011 29.299C230.74 29.053 230.445 28.6718 230.125 28.1553C230.076 28.1061 230.014 28.0446 229.941 27.9708C229.867 27.8724 229.818 27.7986 229.793 27.7495C229.769 27.6265 229.67 27.4174 229.498 27.1222C229.326 26.8025 229.264 26.5442 229.313 26.3475C229.338 26.1753 229.35 25.9416 229.35 25.6465C229.375 25.3513 229.412 25.13 229.461 24.9824C229.535 24.8102 229.658 24.7241 229.83 24.7241C230.027 24.7487 230.297 24.6995 230.642 24.5765C231.011 24.4536 231.257 24.3921 231.38 24.3921C231.601 24.3921 231.773 24.4659 231.896 24.6134C232.068 24.8102 232.24 25.1792 232.413 25.7203C232.585 26.286 232.794 26.7287 233.04 27.0485C233.286 27.3682 233.667 27.5281 234.184 27.5281C234.675 27.5281 235.032 27.3682 235.253 27.0485C235.475 26.7287 235.586 26.3229 235.586 25.831C235.586 25.5112 235.549 25.2037 235.475 24.9086C235.327 24.761 235.204 24.5765 235.106 24.3552C235.008 24.1092 234.786 23.8633 234.442 23.6173L234.368 22.9901C234.319 22.7933 234.294 22.4736 234.294 22.0308L235.143 21.5881C235.536 21.3913 235.93 21.17 236.323 20.924C236.742 20.6781 237.061 20.4321 237.283 20.1861C237.381 20.0877 237.479 19.8787 237.578 19.5589C237.701 19.2392 237.762 18.944 237.762 18.6735C237.762 18.2061 237.566 17.9725 237.172 17.9725C236.582 17.9725 236.09 18.1446 235.696 18.489C235.327 18.8087 234.946 19.2392 234.552 19.7803C234.503 19.8541 234.417 19.9771 234.294 20.1492C234.171 20.2968 234.061 20.3829 233.962 20.4075L233.298 20.4813C233.347 20.5059 233.323 20.5182 233.224 20.5182C233.15 20.4936 233.089 20.469 233.04 20.4444C232.941 20.3952 232.745 20.2968 232.45 20.1492C232.154 20.0017 231.921 19.8541 231.749 19.7065C231.576 19.5589 231.49 19.4114 231.49 19.2638C231.49 19.1408 231.527 19.0301 231.601 18.9317C231.773 18.7104 231.896 18.4521 231.97 18.1569C232.044 17.8372 232.179 17.5666 232.376 17.3453C232.474 17.2223 232.622 17.0624 232.818 16.8656C233.015 16.6689 233.175 16.4844 233.298 16.3122C233.618 15.8695 234.048 15.5375 234.589 15.3161C235.13 15.0947 235.733 14.984 236.397 14.984C237.11 14.984 237.811 15.107 238.5 15.353C239.213 15.5989 239.791 15.9187 240.234 16.3122C240.8 17.3207 241.083 18.3045 241.083 19.2638C241.083 19.7065 241.009 20.1123 240.861 20.4813C240.812 20.6043 240.788 20.7887 240.788 21.0347ZM243.841 29.3359C243.423 29.4343 242.919 29.2129 242.329 28.6718C241.739 28.1307 241.394 27.6265 241.296 27.1591C241.247 26.9132 241.222 26.7041 241.222 26.5319C241.222 25.5727 241.529 24.4167 242.144 23.0639C242.759 21.6865 243.583 20.3952 244.616 19.19C245.674 17.9848 246.83 17.1116 248.084 16.5705C248.601 16.2999 248.933 16.1647 249.08 16.1647C249.228 16.1647 249.56 16.2999 250.077 16.5705C250.569 16.6935 250.962 16.8288 251.257 16.9763C251.552 17.1239 251.823 17.3576 252.069 17.6773C252.389 18.3168 252.622 19.1039 252.77 20.0386C252.917 20.5551 252.991 20.924 252.991 21.1454C252.991 21.3422 252.917 21.5143 252.77 21.6619C252.745 21.6865 252.696 21.7357 252.622 21.8095C252.573 21.8833 252.549 21.9448 252.549 21.9939C252.549 22.0185 252.573 22.0308 252.622 22.0308C252.622 22.0554 252.61 22.1169 252.585 22.2153C252.561 22.2891 252.512 22.3998 252.438 22.5474C252.143 23.482 251.995 24.2076 251.995 24.7241C251.995 24.8963 252.02 25.1054 252.069 25.3513C252.315 25.9908 252.622 26.3106 252.991 26.3106C253.336 26.3106 253.729 26.0892 254.172 25.6465C254.541 25.4005 254.91 25.2775 255.279 25.2775C255.5 25.2775 255.611 25.339 255.611 25.462C255.635 25.4866 255.685 25.5235 255.758 25.5727C255.832 25.6219 255.906 25.6465 255.98 25.6465C256.078 25.6465 256.127 25.7572 256.127 25.9785C256.127 26.1753 256.078 26.4336 255.98 26.7533C255.906 27.0731 255.808 27.3313 255.685 27.5281C255.512 27.7003 255.377 27.8478 255.279 27.9708C255.18 28.0938 255.131 28.1922 255.131 28.266L254.578 28.7825C254.11 29.053 253.557 29.1883 252.917 29.1883C252.253 29.1883 251.725 29.053 251.331 28.7825C250.937 28.5119 250.569 28.1799 250.224 27.7863C249.88 27.3682 249.658 26.9993 249.56 26.6795L249.376 26.3106L248.306 27.0116L247.383 27.9708C247.187 28.2168 247.014 28.3398 246.867 28.3398H246.498C246.498 28.5119 246.154 28.721 245.465 28.967C244.776 29.2129 244.235 29.3359 243.841 29.3359ZM244.616 26.2368C244.887 26.2368 245.44 25.9293 246.276 25.3144C247.137 24.6749 247.715 24.1707 248.011 23.8018C248.109 23.6788 248.232 23.5066 248.379 23.2852C248.552 23.0393 248.699 22.8548 248.822 22.7318C249.216 22.2645 249.499 21.8956 249.671 21.625C249.868 21.3299 249.966 21.047 249.966 20.7764C249.966 20.5797 249.88 20.3091 249.708 19.9648C249.609 19.6696 249.462 19.522 249.265 19.522C249.167 19.522 248.884 19.6081 248.416 19.7803C247.949 20.0509 247.396 20.6043 246.756 21.4405C246.141 22.2768 245.6 23.1254 245.133 23.9862C244.665 24.8471 244.432 25.4743 244.432 25.8678C244.432 25.9416 244.456 26.0154 244.506 26.0892C244.555 26.163 244.592 26.2122 244.616 26.2368ZM265.191 29.7048C265.043 29.6557 264.76 29.4097 264.342 28.967C263.924 28.4996 263.666 28.143 263.567 27.897C263.543 27.8724 263.531 27.7986 263.531 27.6757C263.531 27.5035 263.567 27.3067 263.641 27.0854C263.715 26.864 263.789 26.7533 263.863 26.7533C263.936 26.8271 264.084 26.6426 264.305 26.1999C264.551 25.7572 264.687 25.462 264.711 25.3144C264.736 25.216 264.81 25.13 264.933 25.0562C265.08 24.9578 265.179 24.8963 265.228 24.8717C265.351 24.6749 265.523 24.4659 265.744 24.2445C265.99 23.9985 266.15 23.8264 266.224 23.728C266.322 23.605 266.507 23.4082 266.777 23.1377C267.048 22.8425 267.294 22.5843 267.515 22.3629C268.105 21.8218 268.536 21.4036 268.806 21.1085C270.085 19.7311 270.75 18.9317 270.799 18.7104C270.823 18.6858 270.873 18.6366 270.946 18.5628C271.02 18.489 271.119 18.4152 271.241 18.3414C271.61 18.0955 271.955 17.8126 272.275 17.4929C272.348 17.1239 272.68 16.6443 273.271 16.054C273.467 15.7834 273.64 15.4883 273.787 15.1685C273.959 14.8242 274.082 14.529 274.156 14.2831C274.23 14.0371 274.218 13.8772 274.119 13.8034C274.021 13.7296 273.677 13.6067 273.086 13.4345C272.668 13.3115 272.324 13.25 272.053 13.25C271.684 13.25 271.291 13.3484 270.873 13.5452C270.479 13.7173 269.975 14.0125 269.36 14.4306C269.016 14.5044 268.745 14.5905 268.548 14.6889C268.105 14.8365 267.823 14.898 267.7 14.8734C267.626 14.8488 267.515 14.7381 267.368 14.5413C267.22 14.3445 267.085 14.1847 266.962 14.0617L266.593 12.4752L267.737 11.848C269.557 10.692 271.045 10.114 272.201 10.114C272.496 10.114 272.779 10.1509 273.049 10.2247C273.271 10.2247 273.492 10.2493 273.713 10.2985C273.935 10.3477 274.07 10.3846 274.119 10.4092C274.439 10.3846 274.931 10.6182 275.595 11.1101C276.259 11.6021 276.702 12.094 276.923 12.5859C277.243 13.1024 277.403 13.6558 277.403 14.2462C277.403 15.2054 277.034 16.2384 276.296 17.3453C275.755 17.9848 274.931 18.9071 273.824 20.1123C272.717 21.3176 272.041 22.0185 271.795 22.2153C271.5 22.3629 270.786 23.0393 269.655 24.2445C268.524 25.4251 268.007 26.0154 268.105 26.0154C268.081 26.1138 268.228 26.1015 268.548 25.9785C268.893 25.8555 269.126 25.7695 269.249 25.7203C269.815 25.5235 270.553 25.3513 271.463 25.2037C272.373 25.0316 273.086 24.9455 273.603 24.9455C273.849 24.9455 274.021 24.9701 274.119 25.0193C274.168 25.1177 274.205 25.1669 274.23 25.1669C274.279 25.1423 274.304 25.1177 274.304 25.0931C274.328 24.9947 274.5 24.9455 274.82 24.9455C275.386 24.9455 276.05 25.0562 276.813 25.2775C277.058 25.3513 277.268 25.4497 277.44 25.5727C277.612 25.6957 277.698 25.8064 277.698 25.9047C277.723 25.9293 277.759 26.0031 277.809 26.1261C277.882 26.2245 277.981 26.3475 278.104 26.495C278.301 26.6426 278.399 26.8271 278.399 27.0485C278.399 27.2698 278.264 27.4666 277.993 27.6388C277.723 27.8109 277.354 27.897 276.886 27.897C276.542 27.897 276.271 27.8724 276.075 27.8232C275.435 27.8232 274.906 27.8601 274.488 27.9339C274.414 27.9831 274.181 28.02 273.787 28.0446C273.418 28.0446 273.135 28.0446 272.939 28.0446C272.816 28.02 272.643 28.0077 272.422 28.0077C271.856 28.0077 271.057 28.1799 270.024 28.5242C269.483 28.7456 268.597 29.0162 267.368 29.3359C266.138 29.6557 265.412 29.7786 265.191 29.7048ZM303.022 18.8579C302.825 19.3007 302.542 20.2599 302.173 21.7357C301.829 23.2115 301.632 24.2445 301.583 24.8348C301.533 25.6219 301.509 26.1876 301.509 26.5319C301.509 27.0239 301.558 27.4666 301.656 27.8601C301.779 28.475 301.841 28.9178 301.841 29.1883C301.841 29.5819 301.743 29.8647 301.546 30.0369C301.374 30.2337 301.078 30.3812 300.66 30.4796C300.242 30.4796 299.91 30.4058 299.664 30.2583C299.443 30.1353 299.258 29.9016 299.111 29.5573C299.012 29.3359 298.889 29.053 298.742 28.7087C298.594 28.3398 298.484 28.02 298.41 27.7495C298.361 27.4789 298.348 27.1837 298.373 26.864C298.348 26.7656 298.324 26.5688 298.299 26.2737C298.275 25.9785 298.287 25.8064 298.336 25.7572L298.299 25.2775C298.299 24.7118 298.434 23.6542 298.705 22.1046C298.582 22.2276 298.397 22.449 298.152 22.7687C298.053 22.8671 297.955 22.9901 297.856 23.1377C297.758 23.2852 297.635 23.4328 297.487 23.5804C296.848 24.4413 296.43 24.9947 296.233 25.2406C295.938 25.6096 295.68 25.9416 295.458 26.2368C295.261 26.5319 295.126 26.8025 295.052 27.0485C294.954 27.442 294.794 27.7126 294.573 27.8601C294.376 28.0077 294.118 28.0938 293.798 28.1184C293.7 28.1184 293.355 27.8355 292.765 27.2698C292.421 26.9255 292.248 26.5073 292.248 26.0154C292.248 25.8924 292.273 25.6834 292.322 25.3882C292.322 25.2406 292.31 24.5519 292.285 23.3221C292.261 22.0677 292.101 21.0593 291.806 20.2968L287.6 27.1222C287.329 27.4174 287.12 27.7986 286.973 28.266C286.653 28.9301 286.296 29.2621 285.903 29.2621C285.706 29.2621 285.509 29.1637 285.312 28.967C284.796 28.6964 284.451 28.4258 284.279 28.1553C284.107 27.8601 284.009 27.3682 283.984 26.6795C284.205 26.2368 284.415 26.0031 284.611 25.9785C286.161 23.5927 287.071 22.2276 287.342 21.8833C287.637 21.5143 287.833 21.2561 287.932 21.1085C288.104 20.7149 288.448 20.223 288.965 19.6327C289.014 19.5097 289.272 19.1531 289.74 18.5628C290.232 17.9725 290.564 17.6404 290.736 17.5666L290.957 17.087C291.08 16.4721 291.498 16.1647 292.212 16.1647C292.359 16.1647 292.482 16.177 292.58 16.2016C292.826 16.2999 293.036 16.4352 293.208 16.6074C293.404 16.755 293.564 16.9025 293.687 17.0501C293.835 17.1977 293.958 17.3207 294.056 17.4191L294.278 18.0094C294.228 18.2061 294.204 18.3537 294.204 18.4521C294.204 18.6243 294.302 19.067 294.499 19.7803C294.474 19.9033 294.536 20.3091 294.683 20.9978C294.88 21.8833 294.942 22.4367 294.868 22.658C295.483 21.8218 297.389 19.8049 300.587 16.6074C300.955 16.3122 301.238 16.1647 301.435 16.1647C301.583 16.1647 301.743 16.2138 301.915 16.3122C302.234 16.4844 302.419 16.6443 302.468 16.7919C302.517 16.9148 302.64 17.0624 302.837 17.2346C303.058 17.5543 303.169 17.8864 303.169 18.2307C303.169 18.4767 303.12 18.6858 303.022 18.8579ZM311.631 29.9262C311.409 29.7048 311.225 29.422 311.077 29.0776C310.954 28.7087 310.794 28.1553 310.598 27.4174C310.548 27.2698 310.524 27.0608 310.524 26.7902C310.524 26.495 310.524 26.286 310.524 26.163C310.425 26.3844 310.302 26.6303 310.155 26.9009C310.007 27.1468 309.86 27.319 309.712 27.4174C309.146 27.9831 308.581 28.4012 308.015 28.6718C307.228 29.1637 306.552 29.4097 305.986 29.4097C305.297 29.4097 304.707 29.0899 304.215 28.4504C303.428 27.8109 303.034 27.0485 303.034 26.163C303.034 26.04 303.059 25.8064 303.108 25.462C303.157 24.5519 303.28 23.6788 303.477 22.8425C303.698 22.0062 304.104 20.9363 304.694 19.6327L305.801 17.4191L306.392 16.2753C306.515 16.2261 306.711 16.2016 306.982 16.2016C307.375 16.2016 307.744 16.2753 308.089 16.4229C308.433 16.5705 308.618 16.7673 308.642 17.0132C308.716 17.1116 308.753 17.2961 308.753 17.5666C308.753 18.3537 308.421 19.3991 307.757 20.7027L307.462 21.4036C307.019 22.4613 306.699 23.2852 306.502 23.8756C306.306 24.4659 306.207 24.9578 306.207 25.3513C306.207 25.7449 306.355 26.0031 306.65 26.1261C306.773 26.1999 306.92 26.2368 307.093 26.2368C307.585 26.2368 308.175 25.8555 308.864 25.0931C309.577 24.3306 310.302 23.0516 311.04 21.2561C311.385 20.4198 311.594 19.5589 311.668 18.6735C311.618 18.4029 311.692 18.1078 311.889 17.788C312.086 17.4683 312.344 17.21 312.664 17.0132C312.762 16.8656 312.897 16.755 313.069 16.6812C313.242 16.5828 313.352 16.5828 313.402 16.6812L313.992 16.6443C314.066 16.6197 314.176 16.7304 314.324 16.9763C314.496 17.2223 314.619 17.3699 314.693 17.4191C314.939 17.6158 315.062 18.0094 315.062 18.5997C315.062 19.4114 314.767 20.5305 314.176 21.9571C313.709 22.9409 313.389 23.7034 313.217 24.2445C313.069 24.761 312.983 25.2652 312.959 25.7572C312.959 26.2737 312.996 26.6795 313.069 26.9747C313.168 27.2452 313.389 27.5281 313.734 27.8232C314.127 28.0938 314.287 28.7333 314.213 29.7417C314.164 29.9139 314.029 30.0492 313.807 30.1476C313.586 30.246 313.315 30.2952 312.996 30.2952C312.455 30.2952 312 30.1722 311.631 29.9262ZM324.474 30.1845C324.376 30.1845 324.228 30.123 324.031 30L323.109 29.7048C322.814 29.2375 322.666 28.6841 322.666 28.0446C322.666 27.5773 322.728 27.11 322.851 26.6426C322.998 26.1507 323.146 25.708 323.294 25.3144C323.466 24.8963 323.576 24.6257 323.626 24.5028C323.429 24.5519 322.728 24.6995 321.523 24.9455C320.883 25.0193 320.28 25.13 319.715 25.2775L319.235 25.0193L319.014 26.0892C318.817 27.2698 318.583 28.1307 318.313 28.6718C317.821 28.721 317.513 28.7456 317.39 28.7456C317.046 28.7456 316.579 28.6472 315.988 28.4504C315.62 27.9585 315.435 27.3928 315.435 26.7533C315.435 26.3352 315.497 25.917 315.62 25.4989C315.742 25.0808 315.927 24.5888 316.173 24.0231C316.394 23.5066 316.554 23.0885 316.653 22.7687C316.751 22.4244 316.8 22.0923 316.8 21.7726C316.948 21.625 317.354 20.6904 318.018 18.9686C318.706 17.2469 319.075 16.2016 319.124 15.8326C319.149 15.2423 319.444 14.9471 320.01 14.9471C320.502 14.9471 321.006 15.1562 321.523 15.5743C322.039 15.9679 322.297 16.3983 322.297 16.8656C322.297 17.0624 322.236 17.2592 322.113 17.456L320.453 21.8464C320.822 21.7972 321.117 21.7111 321.338 21.5881H323.736C323.982 21.7111 324.179 21.8464 324.327 21.9939C324.769 20.9363 325.126 20.0509 325.396 19.3376C325.667 18.6243 325.876 17.8987 326.024 17.1608C326.147 16.5459 326.553 16.0417 327.241 15.6481C327.389 15.6973 327.672 15.7957 328.09 15.9433C328.508 16.0909 328.828 16.2876 329.049 16.5336C329.295 16.7796 329.455 17.0993 329.529 17.4929C329.479 17.6404 329.418 17.8741 329.344 18.1938C329.295 18.5136 329.233 18.7473 329.16 18.8948L328.532 20.4075C328.459 20.6043 328.25 21.1208 327.905 21.9571C327.561 22.7687 327.278 23.5435 327.057 24.2814C326.835 25.0193 326.663 25.6957 326.54 26.3106C326.516 26.3844 326.405 26.7656 326.208 27.4543C326.011 28.0446 325.888 28.4873 325.839 28.7825C325.765 29.3974 325.507 29.8401 325.064 30.1107L324.474 30.1845ZM341.79 16.3122C342.011 16.755 342.122 17.2592 342.122 17.8249C342.122 18.5382 341.962 19.1285 341.642 19.5958C341.396 19.9402 341.175 20.4567 340.978 21.1454C340.806 21.8341 340.634 22.7564 340.462 23.9124C340.24 24.8471 339.97 26.286 339.65 28.2291C339.257 29.2621 339.011 30.0369 338.912 30.5534C338.888 30.701 338.765 31.0084 338.543 31.4758C338.346 31.9431 338.187 32.312 338.064 32.5826C336.957 34.8208 335.641 36.5057 334.116 37.6371C332.616 38.7685 331.078 39.3834 329.504 39.4818C329.111 39.531 328.877 39.5556 328.803 39.5556C328.582 39.5556 328.373 39.5187 328.176 39.4449C328.004 39.3711 327.807 39.2728 327.586 39.1498C327.094 38.8054 326.811 38.5595 326.737 38.4119C326.614 38.1659 326.553 37.92 326.553 37.674C326.553 37.3051 326.725 37.0468 327.069 36.8992C327.413 36.7762 327.807 36.7148 328.25 36.7148C328.422 36.8131 328.717 36.8623 329.135 36.8623C329.553 36.8623 329.799 36.8131 329.873 36.7148C329.922 36.6656 330.07 36.5795 330.316 36.4565C330.562 36.3581 330.845 36.272 331.164 36.1982C331.976 35.8047 332.591 35.4112 333.009 35.0176C333.452 34.6241 333.931 33.9969 334.448 33.136C335.063 32.2014 335.469 31.3528 335.665 30.5903C335.985 29.7786 336.366 28.5734 336.809 26.9747L336.772 27.0116C336.649 27.1591 336.342 27.3805 335.85 27.6757C335.358 27.9462 335.063 28.0815 334.964 28.0815C334.94 28.0815 334.903 28.0938 334.854 28.1184C334.805 28.143 334.78 28.1922 334.78 28.266C334.78 28.3644 334.46 28.5242 333.821 28.7456C333.181 28.9424 332.775 29.0407 332.603 29.0407C332.357 29.0407 332.087 28.9055 331.792 28.6349C331.521 28.3644 331.324 28.1184 331.201 27.897C331.103 27.6757 330.918 27.4543 330.648 27.2329C330.353 26.9378 330.131 26.6795 329.984 26.4582C329.836 26.2122 329.762 25.9293 329.762 25.6096C329.762 25.4374 329.775 25.3021 329.799 25.2037C330.094 24.0969 330.636 22.3998 331.423 20.1123C332.234 17.8003 332.825 16.3614 333.194 15.7957C333.292 15.6481 333.476 15.5252 333.747 15.4268C334.018 15.3284 334.288 15.2792 334.559 15.2792C335.051 15.2792 335.383 15.4268 335.555 15.7219C335.85 16.1401 335.998 16.4967 335.998 16.7919C335.998 17.1362 335.825 17.6404 335.481 18.3045C335.383 18.5751 335.26 18.8702 335.112 19.19C334.964 19.5097 334.891 19.7065 334.891 19.7803C334.866 19.8787 334.792 20.1861 334.669 20.7027C334.546 21.1946 334.436 21.4405 334.337 21.4405C334.19 21.5881 334.018 22.1046 333.821 22.9901C333.649 23.851 333.563 24.5397 333.563 25.0562C333.563 25.3513 333.599 25.4989 333.673 25.4989C334.337 25.4989 334.977 25.3267 335.592 24.9824C336.207 24.6134 336.846 24.0354 337.51 23.2484C337.609 22.6334 337.744 21.9694 337.916 21.2561C338.113 20.5428 338.248 20.0631 338.322 19.8172C338.765 18.2922 339.06 17.0624 339.207 16.1278C339.355 15.7834 339.466 15.5866 339.539 15.5375C339.613 15.4637 339.773 15.4268 340.019 15.4268C340.314 15.4268 340.634 15.5129 340.978 15.685C341.347 15.8572 341.618 16.0663 341.79 16.3122ZM361.255 27.0116C361.428 27.2575 361.514 27.4912 361.514 27.7126C361.514 27.9585 361.428 28.1799 361.255 28.3767C361.083 28.5734 360.936 28.6718 360.813 28.6718C360.222 28.6718 359.558 28.5365 358.82 28.266C358.107 27.9708 357.75 27.5527 357.75 27.0116V24.7241C357.75 23.7403 357.664 23.1746 357.492 23.027C357.123 22.8302 356.631 23.1131 356.016 23.8756C355.401 24.6134 354.651 25.7203 353.766 27.196C353.422 27.7372 353.126 28.1307 352.88 28.3767C352.634 28.598 352.413 28.7087 352.216 28.7087C352.044 28.7087 351.897 28.6595 351.774 28.5611C351.011 28.3398 350.63 27.9093 350.63 27.2698C350.63 27.196 350.654 27.0362 350.704 26.7902C350.925 26.0277 351.159 25.1792 351.405 24.2445C351.675 23.3098 351.884 22.5105 352.032 21.8464C351.958 21.6988 351.835 21.625 351.663 21.625C351.417 21.625 351.134 21.748 350.814 21.9939C350.716 22.0677 350.531 22.1907 350.261 22.3629C350.015 22.5105 349.757 22.7195 349.486 22.9901C349.24 23.2361 348.982 23.5804 348.711 24.0231C348.613 24.1953 348.441 24.4536 348.195 24.7979C346.965 26.6672 346.215 27.7249 345.944 27.9708C345.821 28.3152 345.698 28.5611 345.575 28.7087C345.477 28.8317 345.354 28.8932 345.206 28.8932C345.108 28.8932 344.985 28.8563 344.837 28.7825C344.37 28.5611 343.989 28.2537 343.694 27.8601C343.423 27.442 343.288 26.9501 343.288 26.3844C343.288 26.0154 343.399 25.2775 343.62 24.1707C343.841 23.0639 344.087 22.0308 344.358 21.0716C344.555 20.6781 344.702 20.2722 344.801 19.8541C344.924 19.4114 344.985 19.1039 344.985 18.9317C345.059 18.4644 345.206 17.8372 345.428 17.0501C345.649 16.2384 345.809 15.7957 345.907 15.7219C346.055 15.5743 346.326 15.5006 346.719 15.5006C346.99 15.5006 347.248 15.5498 347.494 15.6481C347.74 15.7465 347.912 15.8941 348.01 16.0909C348.33 16.4598 348.49 16.964 348.49 17.6035C348.49 18.1938 348.367 18.821 348.121 19.4851C347.875 20.0509 347.568 20.8748 347.199 21.9571C347.199 21.9571 347.223 21.9325 347.272 21.8833C347.863 21.047 348.625 20.1123 349.56 19.0793C350.003 18.5874 350.495 18.2061 351.036 17.9356C351.601 17.665 352.056 17.5297 352.401 17.5297C352.991 17.6281 353.483 17.9233 353.877 18.4152C354.295 18.8825 354.553 19.5343 354.651 20.3706C354.651 20.6658 354.627 21.0347 354.578 21.4774C354.528 21.8956 354.491 22.1661 354.467 22.2891C354.565 22.1661 354.811 21.871 355.205 21.4036C355.623 20.9117 356.127 20.4075 356.717 19.891C357.259 19.4728 357.763 19.2638 358.23 19.2638C358.624 19.2638 358.968 19.4236 359.263 19.7434C359.804 20.0631 360.222 20.5797 360.517 21.293C360.837 22.0062 360.997 22.8179 360.997 23.728C360.997 24.0477 360.985 24.2937 360.96 24.4659C360.936 24.638 360.923 24.884 360.923 25.2037C360.923 25.5481 360.96 25.8801 361.034 26.1999C361.108 26.495 361.182 26.7656 361.255 27.0116ZM370.531 20.592C371.318 20.2722 372.068 20.1123 372.781 20.1123C373.593 20.1123 374.245 20.3091 374.737 20.7027C375.253 21.0716 375.511 21.6496 375.511 22.4367C375.634 22.8548 375.696 23.2852 375.696 23.728C375.696 24.0723 375.659 24.429 375.585 24.7979C374.847 26.3229 374.109 27.3436 373.371 27.8601C373.027 28.2045 372.523 28.5734 371.859 28.967C371.195 29.3605 370.592 29.6311 370.051 29.7786C369.067 30.0246 368.428 30.1476 368.132 30.1476C367.862 30.1476 367.628 30.0984 367.431 30C367.235 29.9016 367.001 29.7294 366.73 29.4835C366.386 29.1883 366.214 28.844 366.214 28.4504C366.14 28.9916 365.845 29.3359 365.328 29.4835C364.763 29.4097 364.345 29.2621 364.074 29.0407C363.828 28.7948 363.705 28.4258 363.705 27.9339C363.705 27.8355 363.73 27.6142 363.779 27.2698C363.828 27.0977 363.914 26.7041 364.037 26.0892C364.185 25.4743 364.32 25.007 364.443 24.6872L365.255 22.5474C365.747 21.1946 366.128 20.1615 366.398 19.4482C366.694 18.735 366.964 18.2061 367.21 17.8618L368.022 15.7957L368.538 15.4268C369.153 15.476 369.571 15.6358 369.793 15.9064C370.014 16.1524 370.174 16.5459 370.272 17.087C370.248 17.3576 369.756 18.5997 368.797 20.8133C368.674 21.1331 368.551 21.4282 368.428 21.6988C368.329 21.9694 368.231 22.2153 368.132 22.4367C369.264 21.4036 370.063 20.7887 370.531 20.592ZM382.152 16.7181C382.349 17.1854 382.447 17.6035 382.447 17.9725C382.447 18.2922 382.386 18.5874 382.263 18.8579C382.066 19.3007 381.587 20.6289 380.824 22.8425C380.086 25.0316 379.668 26.3475 379.57 26.7902C379.324 27.4051 379.139 28.1799 379.016 29.1145C379.065 29.3359 379.029 29.5696 378.906 29.8155C378.783 30.0615 378.574 30.2706 378.278 30.4427C377.54 30.3935 376.987 30.246 376.618 30C376.249 29.7294 375.979 29.2621 375.806 28.598C375.806 28.0815 375.868 27.5896 375.991 27.1222C376.114 26.6549 376.2 26.3229 376.249 26.1261C376.544 25.0193 376.852 24.0723 377.172 23.2852C377.245 23.1377 377.43 22.6949 377.725 21.9571C378.217 20.4813 378.586 19.2146 378.832 18.1569C379.102 17.0993 379.262 16.4598 379.311 16.2384C379.656 15.8695 380.025 15.685 380.418 15.685C380.959 15.685 381.537 16.0294 382.152 16.7181ZM371.416 25.9785C372.326 24.8471 372.806 23.9002 372.855 23.1377C372.855 23.0639 372.806 22.9655 372.707 22.8425C372.609 22.7195 372.535 22.6089 372.486 22.5105C371.871 22.7564 371.465 22.9655 371.268 23.1377C371.072 23.2852 370.949 23.3836 370.9 23.4328C369.866 24.2445 369.153 24.8717 368.76 25.3144C368.366 25.7572 367.862 26.4582 367.247 27.4174L367.653 27.4543C367.825 27.5527 368.034 27.6019 368.28 27.6019C368.797 27.6019 369.362 27.442 369.977 27.1222C370.617 26.8025 371.096 26.4213 371.416 25.9785Z" fill="#A100FF"/>
<path d="M74.3841 21.4933C74.9327 21.5573 75.4293 21.1644 75.4933 20.6159C75.5573 20.0673 75.1644 19.5707 74.6159 19.5067L74.3841 21.4933ZM6.24668 65.1578C6.6099 65.5738 7.24161 65.6166 7.65766 65.2534L14.4375 59.3345C14.8536 58.9713 14.8964 58.3396 14.5332 57.9235C14.17 57.5075 13.5382 57.4647 13.1222 57.8279L7.09566 63.0891L1.8344 57.0626C1.47118 56.6466 0.839467 56.6037 0.423421 56.9669C0.00737605 57.3302 -0.0354519 57.9619 0.327763 58.3779L6.24668 65.1578ZM74.6159 19.5067C59.3928 17.7307 42.7961 21.4058 29.7343 29.2683C16.6697 37.1324 7.03068 49.2637 6.00229 64.4325L7.99771 64.5678C8.96932 50.2364 18.0803 38.6177 30.7657 30.9818C43.4539 23.3442 59.6072 19.7693 74.3841 21.4933L74.6159 19.5067Z" fill="#A100FF"/>
</svg>
