<svg width="191" height="457" viewBox="0 0 191 457" fill="none" xmlns="http://www.w3.org/2000/svg">
<mask id="path-1-inside-1" fill="white">
<path fill-rule="evenodd" clip-rule="evenodd" d="M158 110.5H34L28 151.5V424.5C31.5 446.5 162.5 441.5 164 424.5V151.5L158 110.5Z"/>
</mask>
<path d="M34 110.5V107.5H31.4071L31.0316 110.066L34 110.5ZM158 110.5L160.968 110.066L160.593 107.5H158V110.5ZM28 151.5L25.0316 151.066L25 151.282V151.5H28ZM28 424.5H25V424.737L25.0373 424.972L28 424.5ZM164 424.5L166.988 424.764L167 424.632V424.5H164ZM164 151.5H167V151.282L166.968 151.066L164 151.5ZM34 113.5H158V107.5H34V113.5ZM30.9684 151.935L36.9684 110.935L31.0316 110.066L25.0316 151.066L30.9684 151.935ZM31 424.5V151.5H25V424.5H31ZM161.012 424.237C161.006 424.299 160.948 424.673 160.226 425.342C159.504 426.011 158.328 426.768 156.613 427.559C153.192 429.136 148.202 430.585 142.02 431.824C129.7 434.294 113.264 435.815 96.6938 436.126C80.1163 436.436 63.5854 435.531 51.0596 433.222C44.7762 432.063 39.676 430.582 36.1153 428.824C32.409 426.994 31.1602 425.27 30.9627 424.029L25.0373 424.972C25.7148 429.231 29.3253 432.163 33.4589 434.204C37.7381 436.317 43.4582 437.921 49.9717 439.122C63.0396 441.532 80.0087 442.439 96.8062 442.125C113.611 441.81 130.425 440.269 143.199 437.707C149.564 436.431 155.081 434.872 159.125 433.008C161.142 432.078 162.939 431.007 164.302 429.745C165.665 428.483 166.806 426.826 166.988 424.764L161.012 424.237ZM161 151.5V424.5H167V151.5H161ZM155.032 110.935L161.032 151.935L166.968 151.066L160.968 110.066L155.032 110.935Z" fill="white" mask="url(#path-1-inside-1)"/>
<path d="M160.326 71.2136L156.639 109H35.3608L31.6743 71.2136C32.8227 71.3502 34.4677 71.5424 36.5099 71.7721C40.6848 72.2416 46.5207 72.8676 53.1661 73.4936C66.4437 74.7444 83.0018 76.0002 96 76.0002C108.998 76.0002 125.556 74.7444 138.834 73.4936C145.479 72.8676 151.315 72.2416 155.49 71.7721C157.532 71.5424 159.177 71.3502 160.326 71.2136Z" stroke="white" stroke-width="3"/>
<path d="M31.4366 68.1642L29.5596 29.6859C29.7331 29.6473 29.9241 29.6049 30.1321 29.5589C31.2968 29.3017 32.9919 28.9337 35.1098 28.4918C39.3462 27.6079 45.2716 26.4287 52.0258 25.248C65.5581 22.8823 82.328 20.5268 95.503 20.5002C108.869 20.4733 125.888 22.8287 139.622 25.2078C146.476 26.3953 152.49 27.5846 156.79 28.4769C158.94 28.923 160.66 29.2948 161.842 29.5548C162.06 29.6027 162.26 29.6469 162.44 29.687L160.563 68.1636C160.402 68.183 160.225 68.2041 160.034 68.2268C158.88 68.3639 157.201 68.5599 155.104 68.795C150.912 69.2653 145.05 69.8921 138.376 70.5179C125.015 71.7708 108.449 73.015 95.5017 73.0002C82.7482 72.9857 66.4309 71.7415 53.2712 70.4959C46.6979 69.8738 40.9246 69.2525 36.7949 68.7868C34.7302 68.554 33.0767 68.3601 31.94 68.2244C31.7589 68.2028 31.591 68.1827 31.4366 68.1642Z" stroke="white" stroke-width="3"/>
</svg>
