<svg xmlns="http://www.w3.org/2000/svg" viewBox="0 0 116.08 119.59"><defs><style>.cls-1{fill:#9cbbc9;fill-rule:evenodd;}</style></defs><g id="Слой_2" data-name="Слой 2"><g id="Слой_1-2" data-name="Слой 1"><path class="cls-1" d="M73.55,69.05l1.34.5a8.29,8.29,0,0,0,.41-1.92l-1.86,0c0,.5.08,1,.11,1.46ZM53.27,18.38a38.4,38.4,0,0,0,7.94,1.32C57,13.93,50.07,12.59,43.79,14.3a23.92,23.92,0,0,1,9.48,4.08Zm10.63.86A7,7,0,0,0,66.28,17a19.79,19.79,0,0,0-5.42-2.48l-.54.66a15.85,15.85,0,0,1,3.58,4ZM35.18,118.46a108.11,108.11,0,0,0,1.61-13.88c-2.54,3.44-5.13,6.76-7.69,9.73-1.92,2.23-4.22,4.62-6.34,5.28h0A128.14,128.14,0,0,0,36.9,102.74c.13-2.44.22-4.91.29-7.32a166.32,166.32,0,0,1-13.71,16.37c-16.65,15.5-5.25-4.93-4.48-4.06h0s-7.16,13.61,3.54,2.8a200.14,200.14,0,0,0,14.7-17.29v-.49a31.67,31.67,0,0,1-3.43-.9L32.45,93.4a23.67,23.67,0,0,1-4.76,9.73.42.42,0,0,1-.63-.55,23,23,0,0,0,4.21-7.87L30,96.08c-4.39,6.12-6.14,4-6.77,3.39a.42.42,0,1,1,.63-.55s1,1.32,5.53-3.41c.68-.72,1.46-1.56,2.3-2.5a15.73,15.73,0,0,0,.25-1.86L31.52,91A10,10,0,0,1,25,92.4c-.39,0-.77-.07-1.14-.13a6.82,6.82,0,0,1-3.25,2.51,8.36,8.36,0,0,1-4.69.33,9,9,0,0,1-4.45-2.42A10.76,10.76,0,0,1,8.5,86.37h0c-.75-5.63,2.06-8.73,4.67-10.37a20.93,20.93,0,0,1-.82-2.34c-.47-.37-.94-.75-1.4-1.15l-.24.06a2.74,2.74,0,0,1-.08-.34c-.41-.36-.82-.73-1.21-1.1h0l-.05-.06C7.08,68.88,5.18,66.42,4.63,64c-.82-3.61,1.13-6.67,3.3-8.83L8,55.1H8A19.47,19.47,0,0,1,9.9,53.46a18,18,0,0,1,1.4-4.76A34.55,34.55,0,0,1,11,42.85,26.78,26.78,0,0,1,11.25,40a14.27,14.27,0,0,0-2.43.83,11.08,11.08,0,0,0-2.49,1.52A5.85,5.85,0,0,0,4.2,45.78a4,4,0,0,0-.08.59,8.82,8.82,0,0,1,1.19.27c1.91.56,3.73,1.73,4.08,3.13a2.85,2.85,0,0,1-.14,2,1.87,1.87,0,0,1-1,.87,2.44,2.44,0,0,1-1.3.11H7a4.55,4.55,0,0,1-2.44-1.48c-1.13,0-4.67-.18-4.54-3.08a1.85,1.85,0,0,1,1-1.59H1a3.85,3.85,0,0,1,1.77-.38q0-.36.09-.72a7.17,7.17,0,0,1,2.59-4.19,12,12,0,0,1,2.8-1.72,15.15,15.15,0,0,1,3.22-1,20,20,0,0,1,4.37-9.27,42.17,42.17,0,0,0-7.5-5.57h0a15.93,15.93,0,0,1,9.21,3.82,13.4,13.4,0,0,1,5.09-2.86,11,11,0,0,1,1.72-.95C23,21.82,20,18.45,13.35,15h0c8.3,2,11.91,5.6,13.41,7.87l.22-.16h0l0,0h0l.12-.08c.38-.44.82-.94,1.33-1.48A37.4,37.4,0,0,0,18.8,12h0c6.23,1.73,9.7,4.84,11.57,7.32a31.51,31.51,0,0,1,21.55-8.14,35.12,35.12,0,0,1,9.44,1.31c2-2.7,4.81-7,3.69-9.38A3.71,3.71,0,0,0,61.5.84a11.94,11.94,0,0,0-4.58,1.23,15.19,15.19,0,0,0-4,2.74h0c-1.22,1.2-1.51,2.24-1.29,3a1.84,1.84,0,0,0,.62.9,2.37,2.37,0,0,0,1.06.47c3.8.64,2-4.09,1-2.25a.65.65,0,0,1-.75.34c-3.15-.93,5.77-3.33,2.73,1.38A3,3,0,0,1,53.22,10a3.14,3.14,0,0,1-1.44-.64A2.66,2.66,0,0,1,50.88,8c-.3-1,0-2.38,1.5-3.83h0a15.8,15.8,0,0,1,4.17-2.89A12.94,12.94,0,0,1,61.47,0,5.12,5.12,0,0,1,65.4,1.31h0a3.66,3.66,0,0,1,.72,1C67.36,5,64.49,9.65,62.25,12.72a21.07,21.07,0,0,1,5.12,2.46h0a21.23,21.23,0,0,0,1.13-2.74h0a14.46,14.46,0,0,1-.87,2.91,16.29,16.29,0,0,1,3,2.67c1.11-1.1,3-3.37,3.09-6.08C73.83,8.29,71,8,71,8a.43.43,0,0,1-.37-.46.42.42,0,0,1,.46-.37s3.59.36,3.45,4.79c-.1,3-2.2,5.53-3.39,6.7a13.53,13.53,0,0,1,.77,1.12l4.82-3.51a14.17,14.17,0,0,0,2.54-8,.41.41,0,0,1,.4-.43.42.42,0,0,1,.43.41A14.81,14.81,0,0,1,78.47,15L94.05,3.68,73.11,22.45a9,9,0,0,1,.46,4.13l.26.09a67.15,67.15,0,0,1,10.74-5.54h0s-3.91,3.27-8.38,6.49c1,.41,2,.9,3.11,1.46a26.56,26.56,0,0,1,4.89-2.22,11.75,11.75,0,0,1,2.64-2.49.33.33,0,0,1,.35.57,9.3,9.3,0,0,0-1.81,1.59,12.06,12.06,0,0,1,1.66-.3,5.39,5.39,0,0,1,2.74.3,10.37,10.37,0,0,0,1.35-2.14C92.8,20.71,90,22.31,90,22.32a.34.34,0,0,1-.33-.59s4.61-2.62,2.07,2.94a10.78,10.78,0,0,1-1.36,2.17,3.62,3.62,0,0,1,1.53,2.45.41.41,0,0,1-.37.46.42.42,0,0,1-.46-.37,2.69,2.69,0,0,0-1.26-1.88A24.87,24.87,0,0,1,84.16,32a25.73,25.73,0,0,1,6.91,6.89c2.79-2.35,5.26-3,6,1.13h0v0h0l0,.25c.19-.3.39-.6.59-.88a6.12,6.12,0,0,1,1.5-1.59l.12-.37a.34.34,0,0,1,.42-.22.32.32,0,0,1,.21.2c2-.63,3.25,2.22,3.26,2.23a.33.33,0,0,1-.61.27s-1.09-2.53-2.89-1.58A26,26,0,0,1,97.48,43a23.13,23.13,0,0,1-1,9.17l.18.09a8.84,8.84,0,0,1-.57.91,13.42,13.42,0,0,1-1.87,3.08,15.26,15.26,0,0,1-9.92,5.66,12.13,12.13,0,0,1,0,4.07c2.41,0,4.9-.08,7.32-.17,4-.15,7.85-.39,10.66-.77a8.66,8.66,0,0,0,3.41-1c-.56,0-3.34,0-1.49-1.2a2.73,2.73,0,0,1,2.46-.3,1.45,1.45,0,0,1,.53,2.4c-.58.65-2,1.34-4.69,1.71-2.86.38-6.73.63-10.82.78-2.56.09-5.21.14-7.76.17a13.29,13.29,0,0,1-2,4A56.77,56.77,0,0,0,95.2,73.35c14,0,20.88-2.51,20.88-2.51a50.33,50.33,0,0,1-18.67,4.65c-.33,1.1-1.34,2.79-4.45,2.79-3.3,0-7.84-2.25-10.16-3.53a15.72,15.72,0,0,1,2.32,7,.42.42,0,0,1-.84.06s-.36-5.46-3.49-8l-.69-.13a14.29,14.29,0,0,1-3.25,2.26l9.88,11.85-.86.76L75.77,77.14c-.19.2-.42.41-.67.63a24.29,24.29,0,0,1-3.67,5.29,9.42,9.42,0,0,1,5.4,3.37c3,3.75-.83,7-.84,7.06l-.3-.29s3.07-3.08.49-6.25a8.51,8.51,0,0,0-5.43-3.16,30.9,30.9,0,0,1-2.85,2.6,21.55,21.55,0,0,1,2.26,4.16,10,10,0,0,1,.63,3.62c-.13,4.37-4.12,5.8-8,5.68a14.16,14.16,0,0,1-3.29-.52,29.43,29.43,0,0,1,.55,8.86c-1,12-11.22,11.18-11.25,11.18h0s9.55-.7,10.42-11.25A26.14,26.14,0,0,0,58.41,99a28.31,28.31,0,0,1-5.07-2.41,4,4,0,0,1-3.75,2,4.73,4.73,0,0,1-1.25-.2,3.65,3.65,0,0,1-3.09-.75,10.29,10.29,0,0,1-2.16-2c-1.65,2.43-3.36,4.89-5.1,7.31a107.29,107.29,0,0,1-1.6,14.71M66.6,17.23l0,0a8.48,8.48,0,0,1-2.34,2.57c.17.3.32.6.46.88a21.73,21.73,0,0,1,2.74,1.44c.39.24.77.48,1.13.73l1.73-1.59a12.09,12.09,0,0,0-3.7-4.05Zm-8.4,2.86c-1.27-.19-2.57-.46-3.76-.73a14.57,14.57,0,0,1,1.3,1.31c.21,0,1.62-.52,2.46-.58ZM63,84.33h.26l-.08-.1-.18.09Zm1.09,0,.5,0c-.12-.2-.26-.4-.4-.62a4.94,4.94,0,0,1-.42.27c.11.13.22.26.32.4Zm1.22-.15.15,0c-.29-.38-.54-.68-.71-.89h0c.21.32.4.63.57.91Zm.87-.2a7.56,7.56,0,0,0,2.32-1.09q.68-.5,1.23-1c.43-.55.81-1.1,1.17-1.65q-.51.18-1.05.33l-.37.1-.16.14a9.66,9.66,0,0,1-4,2.09c.21.25.49.6.83,1Zm-.73,1.83-.24,0,.22.32.13-.1-.11-.26Zm-1,.13a18.67,18.67,0,0,1-5.56-.47,16.13,16.13,0,0,1-4.38-.26c-1.32.32-2.81.64-4.24,1,2,1.92,6.64,5.59,13.38,1.25q.65-.4,1.23-.84l-.43-.63ZM10.57,68.29a2.67,2.67,0,0,1,.13-.4,2.85,2.85,0,0,1,.8-1.18,47.35,47.35,0,0,1-1.24-4.64,28.66,28.66,0,0,1-.55-3.86c-.49,2.49-.83,6.08.37,9.05a10.85,10.85,0,0,0,.49,1Zm1.6.39A5,5,0,0,0,12,70.42a13.45,13.45,0,0,0,1.51,1.51c-.25-.52-.49-1.06-.72-1.61l-.15,0s-.06-.26-.12-.7-.25-.65-.38-1ZM33.23,29.31a.85.85,0,0,0,.5.35,2.39,2.39,0,0,0,1.84-.29s0,1.19-1,1.33a3.68,3.68,0,0,1-1.31-.11,5.51,5.51,0,0,0,.19.92c.87-.07,1.65-.1,2.31-.1.13-.86.26-1.78.38-2.69-.76-.38-1.57-.76-2.42-1.09a6.25,6.25,0,0,0-.46,1.68Zm-5.74,1.51a25,25,0,0,1-.5-4.66h-.07A11.37,11.37,0,0,0,24.62,34l.64-.35a17.75,17.75,0,0,1,3.59-1.39,9,9,0,0,1-.48-5.77,7.37,7.37,0,0,0-.55,1,7.82,7.82,0,0,0-.33,3.29Zm6.14-6.3c.47-.56,1.06-1.23,1.75-1.91a10,10,0,0,0-4.23.85c.3.09.59.2.89.31q.8.33,1.59.75Zm2.95-.76c-.57.57-1.08,1.14-1.5,1.63.44.29.88.6,1.31.93.09-.83.15-1.61.18-2.29v-.27Zm25.87-2a13,13,0,0,0-1.68-.13,19.91,19.91,0,0,1,2,.78c-.09-.21-.19-.42-.3-.65Zm-.75,6.52a16.25,16.25,0,0,0,.09-3,32,32,0,0,0-3.36-.24,17.69,17.69,0,0,1,1.11,4.24c.64-.28,1.39-.64,2.16-1Zm6,52.74-.51.06-.48.46c.34-.16.67-.33,1-.52Zm4.27-5a9.21,9.21,0,0,0,1.44-1.17,13.72,13.72,0,0,0,.52-2.58l-.25-.06c-.32.64-.82,1.57-1.52,2.68a9.87,9.87,0,0,1-.19,1.13Zm-19.77,16a18,18,0,0,1-.58,2.11c.39.28.79.55,1.2.83a9.42,9.42,0,0,0,.45-3Zm-1,3.13a7.77,7.77,0,0,1-1.36,2.2A2.9,2.9,0,0,0,52.33,96c-.39-.25-.77-.5-1.14-.76Zm-8.74-.42a15.1,15.1,0,0,1-.82-1.34c-.72-.08-1.65-.2-2.69-.37l-.66.89c0,2.35-.1,4.75-.21,7.14,1.5-2.09,3-4.21,4.38-6.32ZM41,92c-.1-.25-.19-.48-.26-.7l-.55.09-.33.45L41,92Zm-8.61-3.64a12.39,12.39,0,0,1-1.14,1l.12.06a7.12,7.12,0,0,0,1-1Zm-4-1a3.43,3.43,0,0,0,2-1.1,8.13,8.13,0,0,0,.79-1,24.68,24.68,0,0,1-4.36-2.57c-.56.65-1.14,1.32-1.73,2,1.2,1,2.33,1.91,3.32,2.67Zm-5.46-.06-.29.37a26.2,26.2,0,0,1-2,2.23,13.64,13.64,0,0,0,4.46,1.12,9.25,9.25,0,0,0,5-.82L29.66,90v0a21.4,21.4,0,0,1-6.78-2.7ZM7.65,63.55A23.76,23.76,0,0,1,8.28,57a11.08,11.08,0,0,0-.74,5.69c0,.28.07.56.11.84ZM47.13,18.89a10.55,10.55,0,0,0-7,2.21c.23.09.46.2.7.31a12.74,12.74,0,0,1,3.08,2,17.9,17.9,0,0,1,6.56-2.52,15.7,15.7,0,0,0-3.3-2Zm-8.2,1a14,14,0,0,1,4.34-2.24,22.89,22.89,0,0,0-4.71-.41c.13.71.26,1.61.37,2.65ZM88,38.82a3.35,3.35,0,0,0-2.06.66,12.72,12.72,0,0,1,1.41,3.29c.63-.74,1.28-1.47,1.92-2.13A17.91,17.91,0,0,0,88,38.82Zm-3.78,2.71a20.69,20.69,0,0,0-1.66,6.16c0,.3,0,.6,0,.9s0,.43,0,.64c.74-1.09,1.7-2.45,2.77-3.85a10.71,10.71,0,0,0-1-3.85Zm-2.4,1.66a13.56,13.56,0,0,1,1.43-3.28c-2.26-3.21-6-5.38-9.36-6.78.14.35.27.71.4,1.1a17.42,17.42,0,0,1,7.53,9ZM85,38.1a5.16,5.16,0,0,1,1.67-.77c-4.09-4.25-9.9-6.9-13.53-8.25l-.21,1c3.9,1.43,9,3.94,12.07,8Zm6.47,16.66a6.26,6.26,0,0,0,4-3.16l.1.06a21.18,21.18,0,0,0,1-7.3,21.13,21.13,0,0,1-2.35,2.76l-.31.66h0a9.34,9.34,0,0,1-2.44,7Zm2.19.53a9,9,0,0,1-4.12,1.06,17.81,17.81,0,0,1-6.28,2.3v.14l.22.44a10.2,10.2,0,0,0,7-.85,15.69,15.69,0,0,0,3-2.8c.08-.1.16-.19.23-.29ZM78.58,64.06a4.76,4.76,0,0,0,2.86-3.14,7,7,0,0,0-.72-1.48l-.42.3a12.55,12.55,0,0,1-1.72,4.32Zm3.17-8.84a11.72,11.72,0,0,0-.38-1.5,18,18,0,0,1-.85,1.83L81,56c.25-.23.5-.48.74-.74Zm.45-3.07A15.26,15.26,0,0,1,82.81,54,13.44,13.44,0,0,0,84,52c-.64.09-1.25.15-1.83.2Zm-.33,10.9a5.63,5.63,0,0,1-4.08,2.57,2.19,2.19,0,0,1,0,.36h3.84v0a10.08,10.08,0,0,0,.2-2.87Zm5.5-3A11.72,11.72,0,0,1,83.76,60a8.42,8.42,0,0,1,.29.93,13,13,0,0,0,3.32-.84Zm-21,27.52a.73.73,0,0,1,.18.57c.12.35,0,.37-.38.08A1,1,0,0,1,65.8,88c-.41.29-.84.57-1.28.85a19,19,0,0,1-8.1,2.94,22,22,0,0,1,2.8,6.43,13.43,13.43,0,0,0,3.49.59c3.57.07,7.28-.26,7.41-4.62a9.12,9.12,0,0,0-.59-3.37,21.23,21.23,0,0,0-2.15-4c-.33.26-.68.51-1,.77ZM55.08,91.91l-.69.07a10.66,10.66,0,0,1-.6,3.67,26,26,0,0,0,4.26,2.12,21.17,21.17,0,0,0-3-5.86Zm-16.5-.42-.26-.35v.47l.16,0,.11-.15Zm4.13-3.62a4.59,4.59,0,0,0,2.55.89,2.88,2.88,0,0,0,1.8-1l.72-1.12c-1.5.29-2.79.52-3.57.62-.38,0-.77.1-1.16.13l-.34.48ZM29.54,79.59a14.83,14.83,0,0,0,2.39,2.12,7.52,7.52,0,0,0,2.19-3.2l-1.63-2c-.9.91-1.89,1.94-3,3.09Zm5,3.31a3.25,3.25,0,0,0,2.81-.67c0-1.45,0-2.77,0-3.9l-.53.31A10.4,10.4,0,0,1,34.5,82.9Zm3.79-1.53a9.74,9.74,0,0,0,1.46-1.75l-1.42-1.91-.09.05,0,3.61Zm1.88,2.82c.6.12,2,.4,3.42.6l1.86-2.55a17.7,17.7,0,0,1-2.71-1.41l-1.5,2c-.36.46-.71.92-1.07,1.37Zm4.6.75A10.86,10.86,0,0,0,46.5,85,3.19,3.19,0,0,0,47,85q.65-.18,1.26-.39a8.67,8.67,0,0,0,1.22-.65l.15-.25c-.46-.21-.77-.37-.89-.43a15,15,0,0,1-2.36-.64c-.53.76-1.07,1.55-1.63,2.34ZM31,36.48,31.52,40l-.72.64c-.52-.15-1.08-.31-1.67-.46s-1.38-.34-2-.46a10.76,10.76,0,0,1,2.57-2.44,12.78,12.78,0,0,1,1.34-.8Zm16.33-7.69c1.33-.15,3.52-.36,6-.48.9,0,1.65,0,2.28,0a18,18,0,0,0-1.48-3.1A19.74,19.74,0,0,0,46.62,27a14.63,14.63,0,0,1,.75,1.77Zm8.46.15c-.64,0-1.45,0-2.47,0-1.38.07-2.68.16-3.78.26,2.64.16,4.8.64,6.54.74-.07-.32-.17-.67-.29-1ZM11.48,56.61a1.25,1.25,0,0,1-.43,1.53,26.91,26.91,0,0,0,.52,3.65c.32,1.48.69,2.87,1.1,4.2A8.81,8.81,0,0,1,15,61.55a48,48,0,0,1-1.91-5.06c-1.74-.23-1.57.12-1.57.12Zm-.34-2.28a7.17,7.17,0,0,1,1.25-.13l-.19-.73c-.3.19-.66.43-1,.71v.15Zm4.28.12c.79.13,1.67.31,2.65.55A14.51,14.51,0,0,1,18,49.4a8.07,8.07,0,0,1,3-4.86,11.64,11.64,0,0,1-.33-1.14,14.14,14.14,0,0,0-5.21,11.05Zm4.46,1c.35.1.69.2,1,.31a10.91,10.91,0,0,1,1.33-5.94,8.16,8.16,0,0,1,1-1.5,16,16,0,0,1,.08-3.3l-.48.25a6.43,6.43,0,0,0-3.18,4.43,13.52,13.52,0,0,0,.24,5.75Zm1.27,3-.45-.15.08.23.37-.08Zm-2.39-.73L18,57.56c-.93-.24-1.73-.44-2.41-.59,0,.38.1.77.17,1.16.28.76.57,1.47.85,2.12A11.32,11.32,0,0,1,19.17,59c-.15-.43-.29-.85-.41-1.26Zm14,33.7,0,.4.27-.31-.23-.09Zm65.9-52.14c-.11.14-.23.29-.34.46q-.51.72-1,1.5c0,.17,0,.36.07.55a26.7,26.7,0,0,0,1.26-2.51Zm-2.18,3.41c-.42.73-.82,1.48-1.19,2.2.45-.55.86-1.12,1.23-1.67l0-.53ZM93.8,46.41c.71-1.47,1.58-3.18,2.54-4.8-.1-.78-.2-1.28-.22-1.38h0v0h0c-.54-2.84-2.37-2.38-4.56-.52a16.56,16.56,0,0,1,2.24,6.72ZM19,74.75a12.47,12.47,0,0,1,3.57-3.47A28.19,28.19,0,0,1,18,66.59a7.4,7.4,0,0,0-1.81,5.35A14.28,14.28,0,0,0,19,74.75ZM23.07,72a11.38,11.38,0,0,0-3.36,3.25A18.14,18.14,0,0,0,22,76.45l.36-.26h0c0-.27.1-.73.19-1.53A20.42,20.42,0,0,1,23.07,72Zm16-48.56c0,.24,0,.48,0,.73,0,1-.16,2.28-.31,3.58a26.44,26.44,0,0,1,3-2.78,10.6,10.6,0,0,0-2-1.26l-.63-.27Zm-.74,7.42c-.13.9-.26,1.77-.39,2.55a17,17,0,0,1,1.44-1.5l-1-1.05ZM36.44,20.17c-.1-1-.23-1.84-.35-2.5a31,31,0,0,0-3.69,2.7,13,13,0,0,1,4-.2ZM83.56,31.58a25.27,25.27,0,0,0,5.62-4.37,4.89,4.89,0,0,0-2.07-.15,13.19,13.19,0,0,0-2.72.62,24.37,24.37,0,0,0-2.07,3.1c.42.26.83.52,1.24.8Zm-1.81-1.15a27.49,27.49,0,0,1,1.5-2.34,25.74,25.74,0,0,0-3.07,1.45c.52.28,1,.58,1.57.89Zm9.54,19A15.42,15.42,0,0,1,87,51.39a14.78,14.78,0,0,1-2.48,4.47c3.51-1,6.22-2.91,6.78-6.38Zm-12,2.73c-.5,0-1-.05-1.42-.09a9.07,9.07,0,0,1,1,1.21c.16-.36.31-.73.44-1.12ZM77,51.35a18.83,18.83,0,0,0,2.44.21A13.49,13.49,0,0,0,80,48.47a12.62,12.62,0,0,0-4.68-10.36,18.67,18.67,0,0,1,.43,4.17A30.63,30.63,0,0,1,76,47.05c0,1.23-.08,2.38-.14,3.44a11.19,11.19,0,0,1,1.16.86Zm5.11.13c.69,0,1.43-.13,2.21-.25A12.2,12.2,0,0,0,85.27,47c-1.39,1.91-2.54,3.63-3.12,4.52Zm5.09-.85a15,15,0,0,0,4.14-2c0-.25,0-.5,0-.77a14.27,14.27,0,0,0-1.68-6.36c-.71.76-1.43,1.6-2.13,2.47.08.43.13.88.17,1.34a15.5,15.5,0,0,1-.51,5.34Zm-12-4.72a9,9,0,0,1-1.85,3.32,13.69,13.69,0,0,1,1.73.78c.05-.93.09-1.92.12-3,0-.37,0-.75,0-1.12Zm-3.6-.09.27.54c.07.14.14.27.2.41A7.53,7.53,0,0,0,72.31,42c-.77-3.56-2.57-.66-2.57-.66a11.3,11.3,0,0,1,1.85,4.52ZM73.28,51a17.81,17.81,0,0,1-.17,5.69l1.35.07c.17-1.22.35-2.86.5-4.88A11.44,11.44,0,0,0,73.28,51ZM26.48,37.88a12.47,12.47,0,0,1,2.29-2,13.89,13.89,0,0,1,3.54-1.76c-.5.06-1,.15-1.56.26l-.08.12-.12-.08a16.25,16.25,0,0,0-4.12,1.46c-.52.27-1,.54-1.39.8.49.38,1,.82,1.44,1.18ZM23.7,50.64a9.28,9.28,0,0,0-1.16,5A26.28,26.28,0,0,1,24.46,51a11.41,11.41,0,0,1,3.05-3.65,7.08,7.08,0,0,0-3.81,3.34Zm-7.92,12.6A8.47,8.47,0,0,0,14.3,70l-.15,0c.21.49.43,1,.65,1.45a8.46,8.46,0,0,1,2.35-6,21.56,21.56,0,0,1-1.37-2.24ZM18.5,32.31a14.6,14.6,0,0,0-1.23-1.53,17.83,17.83,0,0,0-3.67,7.56,15.06,15.06,0,0,1,5.84.89A7.06,7.06,0,0,1,20,38.15a14.52,14.52,0,0,1-1.5-5.84ZM59.59,14.63l.31-.36c-.41-.11-.85-.2-1.3-.29.35.21.68.43,1,.65ZM75.75,52.44c-.13,1.76-.3,3.21-.45,4.33.49,0,1,0,1.47,0a17.81,17.81,0,0,0,1.16-1.72,8.32,8.32,0,0,0-2.18-2.63ZM75,66l.25-.27v0a11.39,11.39,0,0,0-.76-3l-.14,0c-.43.36-.86.69-1.27,1a7.58,7.58,0,0,0,.07,1.38c0,.25.07.51.1.78L75,66Zm6.17,1.68H77.81a11.36,11.36,0,0,1-.56,2.71c.63.2,1.3.41,2,.61a10.69,10.69,0,0,0,2-3.33ZM77.27,63a11.67,11.67,0,0,0,1-2c-.5.28-1,.53-1.42.74.16.39.31.82.45,1.27Zm-1.22,9.79a4.38,4.38,0,0,1-.36.5l-1-.8-.36-.08.82,1.51A10.21,10.21,0,0,0,76.93,73l-.88-.19ZM24.16,78.27l.16.17a3.4,3.4,0,0,0,2.37.48s-.74-.69-1.27-1.27a12,12,0,0,1-1.27-2.09s-.65,1.86,0,2.71ZM36.81,87c-.63-.12-1.28-.26-2-.43A9.09,9.09,0,0,1,32.69,90c.4.16.81.31,1.22.45.93-1.08,1.91-2.23,2.9-3.45ZM11.14,84.16a.42.42,0,1,1,.83-.07s.93,10.34,6.69,6.36a15.86,15.86,0,0,1-6.17-6.7.67.67,0,1,1,1.22-.54,14.41,14.41,0,0,0,6.07,6.33,20.67,20.67,0,0,0,2.15-2.34l.22-.28a22.17,22.17,0,0,1-3.29-2.5,23.73,23.73,0,0,1-5.28-7.49,9,9,0,0,0-4.09,9.3h0A9.77,9.77,0,0,0,12.14,92a7.89,7.89,0,0,0,3.95,2.15,7.31,7.31,0,0,0,4.13-.29,5.9,5.9,0,0,0,2.51-1.78,14.7,14.7,0,0,1-3.2-1.14c-7.25,6-8.38-6.72-8.39-6.76Zm12,1.57.42-.53a41.43,41.43,0,0,1-7.62-9l-.45-.31-.55.25a22.13,22.13,0,0,0,5,7.12,20.16,20.16,0,0,0,3.21,2.42Zm1.25-1.59,1.37-1.75-2.3.89c.31.3.62.59.93.86Zm4.31-5.57c.92-1.21,1.76-2.32,2.52-3.34-.91-.55-2.49-1.22-3.66-.09s.27,2.74,1.14,3.43Zm-4.49,7.2-.33.4c.73.41,1.43.76,2.09,1-.57-.45-1.15-.93-1.76-1.45Zm13.15,2c-.87,1-1.72,2.06-2.54,3,.84.25,1.68.46,2.5.64,0-1.25,0-2.47,0-3.65ZM21.16,36.67a12.48,12.48,0,0,1,1.1-1,15.65,15.65,0,0,1,1.4-9.1,8.72,8.72,0,0,0-1.1.34c-3.52,3.06-2.36,7.5-1.4,9.79Zm9-4.7c.53-.11,1.06-.2,1.57-.28a7.27,7.27,0,0,1,.37-4.63,23.33,23.33,0,0,0-2.36-.61A7.63,7.63,0,0,0,30.17,32ZM18.84,40.43a13.61,13.61,0,0,0-5.51-.73A24.73,24.73,0,0,0,13,42.92c0,.93,0,1.86,0,2.78a19.06,19.06,0,0,1,5.81-5.27ZM4.2,47.74A6.19,6.19,0,0,0,4.6,49a5.17,5.17,0,0,0,.75,1.21,3.39,3.39,0,0,0,1.87,1.26h0a1.07,1.07,0,0,0,.57,0,.59.59,0,0,0,.28-.26,1.62,1.62,0,0,0,0-1.09c-.22-.9-1.64-1.72-3.16-2.17-.24-.07-.49-.13-.73-.18Zm-.82,1.81a6.93,6.93,0,0,1-.55-2,2.43,2.43,0,0,0-1.17.23h0a.55.55,0,0,0-.32.47c-.06,1.18,1.22,1.55,2.23,1.65-.07-.13-.13-.25-.19-.39Zm41.68-24.9c.25.31.49.62.71.94a21,21,0,0,1,7.28-2c-.31-.4-.65-.79-1-1.18l-.67.07a16.17,16.17,0,0,0-6.31,2.18Zm-.12,4.74c-.13-.35-.29-.71-.47-1.08a10.3,10.3,0,0,0-1.54,1.39c.54-.1,1.22-.21,2-.31ZM57.6,23.32c1,0,1.92,0,2.78-.05a18.68,18.68,0,0,0-3.27-.77c.17.27.34.55.49.82Zm37.48,52.2a1.87,1.87,0,0,1-1.52,1.17c-.71,0-1.3-.68-1.7-1.33,1.1.09,2.19.14,3.22.16ZM11.74,51.37c-.09.32-.18.64-.26,1l.41-.25-.15-.72Zm-5,14.39a18.39,18.39,0,0,1-.53-2.93,16.08,16.08,0,0,1,0-2.77,6.49,6.49,0,0,0-.25,3.65,8.32,8.32,0,0,0,.81,2.05Zm64-3.36c.36-.25.75-.52,1.15-.82a1.48,1.48,0,0,0,.13-.45,1.66,1.66,0,0,0-1.09-1.7A6.09,6.09,0,0,1,70.57,62c-.14.26-.06.39.13.4ZM29.58,68.45a9.74,9.74,0,0,0,2.76-.25s-.32,1-1.09,1a2.79,2.79,0,0,1-1.67-.77Zm32.28,7.66a3.26,3.26,0,0,0,3.5-1,4.43,4.43,0,0,0,1-4,7.48,7.48,0,0,1-2.09,3.17,15.74,15.74,0,0,1-2.37,1.83ZM61.45,73a2.31,2.31,0,0,0,2-.45A1.85,1.85,0,0,0,64,70.43L61.45,73Zm5,4a3.38,3.38,0,0,0,2-2.09,7.42,7.42,0,0,0,.45-2.47s1.31,2,.48,3.21-3,1.35-3,1.35Zm1.44-28.8s.36,1.06,1,1.22a1.83,1.83,0,0,0,1,0S70.14,51,69,50.65s-1.18-2.41-1.18-2.41Zm-.71-3.65a14.26,14.26,0,0,1,2.32,3.3,4.68,4.68,0,0,1-2.06-1c-.67-.7-.26-2.3-.26-2.3Zm1-4.66L65,36.12s2.08-.35,2.91.64.19,3.17.19,3.17Zm-5.28-.44a5.29,5.29,0,0,0-1.67-3.92,2.45,2.45,0,0,0-3.68-.13,13,13,0,0,1,3.36,1.74,24.13,24.13,0,0,1,2,2.31ZM27.61,54.62a5.47,5.47,0,0,1,1.08-1.55s-1.09-.15-1.27.38a1.73,1.73,0,0,0,.19,1.17Zm-3.88,11a7.14,7.14,0,0,0,1.95.71,7,7,0,0,0,1.66.09s-2.21,1.29-3.12.58-.49-1.38-.49-1.38ZM29,63.44a6.77,6.77,0,0,0-.42,2.47,2.15,2.15,0,0,0,1.09,1.89A12,12,0,0,1,29,63.44ZM40.19,75a11.94,11.94,0,0,0,3.43,1.7l.93.23h.91a9.45,9.45,0,0,0,1.1.09,5.08,5.08,0,0,1-1.64.68H43.8a4.58,4.58,0,0,1-1.18-.16A3.62,3.62,0,0,1,40.19,75Zm13.19,6.5a3.61,3.61,0,0,0,1.23,1.16c.69.32-.21.59-1,.11a.85.85,0,0,1-.22-1.27Zm1.28-1.65s2.82.73,4.77-.2a7.84,7.84,0,0,0,2.69-1.86s-1.66,4.75-3.58,4.69-3.88-2.63-3.88-2.63Z"/></g></g></svg>