<svg width="279" height="55" viewBox="0 0 279 55" fill="none" xmlns="http://www.w3.org/2000/svg">
<path d="M14.3888 32.8662C15.3726 33.2351 16.1351 33.6533 16.6762 34.1206C17.2173 34.5633 17.451 35.2028 17.3772 36.0391C17.328 36.2605 17.2911 36.5433 17.2665 36.8877C17.2419 37.2074 17.1927 37.5149 17.1189 37.81C17.0697 38.0806 16.9714 38.3388 16.8238 38.5848C16.8238 38.634 16.6393 39.1505 16.2704 40.1344C15.7047 41.4625 15.3972 42.348 15.348 42.7907C15.225 43.2335 15.1266 43.6147 15.0529 43.9345C14.9545 44.4018 14.8561 44.783 14.7577 45.0782C14.6593 45.3733 14.5117 45.6316 14.315 45.853C14.0198 46.1481 13.6632 46.2957 13.245 46.2957C12.7531 46.2957 12.3227 46.1112 11.9537 45.7423C11.5848 45.3733 11.4372 44.9306 11.511 44.4141C11.511 43.9468 11.5848 43.1966 11.7324 42.1635C11.757 41.9668 11.8185 41.77 11.9168 41.5732C12.0152 41.3765 12.0767 41.2412 12.1013 41.1674C12.4949 40.2327 12.8392 39.1751 13.1344 37.9945C13.4541 36.8139 13.6386 35.9161 13.6878 35.3012C12.9253 35.3258 11.7324 35.3996 10.109 35.5226C9.91225 36.3342 9.69089 37.0967 9.44493 37.81C9.12518 38.7939 8.94071 39.4334 8.89151 39.7285C8.81772 40.0975 8.59636 40.7001 8.22742 41.5363C7.61251 42.9629 7.29276 43.8976 7.26817 44.3403C7.14519 44.5125 7.0591 44.7338 7.00991 45.0044C6.96071 45.2749 6.92382 45.5332 6.89922 45.7792C6.82544 46.1727 6.66556 46.4433 6.4196 46.5908C6.19823 46.7384 5.86619 46.8614 5.42345 46.9598C5.02992 46.9598 4.71017 46.886 4.4642 46.7384C4.24284 46.5908 4.05837 46.3941 3.91079 46.1481C3.76321 45.8776 3.62793 45.5947 3.50495 45.2995C3.50495 44.6109 3.64023 43.9345 3.91079 43.2704C3.98458 43.0982 4.05837 42.8891 4.13216 42.6432C4.23054 42.3972 4.30433 42.2004 4.35352 42.0529C4.57489 41.3642 4.75936 40.8722 4.90693 40.5771C4.98072 40.0852 5.18979 39.3965 5.53414 38.511C5.80469 37.8223 5.96457 37.3673 6.01376 37.1459C6.4073 35.8423 6.69016 34.9323 6.86233 34.4157C6.86233 33.8992 6.99761 33.4811 7.26817 33.1613C7.56332 32.8416 7.91996 32.6817 8.3381 32.6817C8.60866 32.7801 8.83002 32.8293 9.0022 32.8293C9.10058 32.8293 9.19897 32.8047 9.29735 32.7555C9.44493 32.6817 10.0475 32.6448 11.1052 32.6448C11.7447 32.6448 12.1505 32.6325 12.3227 32.6079C12.5686 32.5833 12.8023 32.5956 13.0237 32.6448C13.2696 32.694 13.4295 32.7309 13.5033 32.7555C13.6017 32.7801 13.7247 32.8047 13.8722 32.8293C14.0198 32.8539 14.192 32.8662 14.3888 32.8662ZM17.9568 54.0435C17.5387 54.0435 17.1452 53.8221 16.7762 53.3794C16.4319 52.9367 16.2597 52.4324 16.2597 51.8667C16.2597 51.6454 16.2966 51.424 16.3704 51.2026C16.395 51.1042 16.4565 50.8706 16.5549 50.5016C16.6778 50.1573 16.7516 49.8621 16.7762 49.6162C16.8254 49.3456 16.973 48.8537 17.2189 48.1404C17.4649 47.4271 17.6617 46.9475 17.8093 46.7015C17.9322 46.4802 18.0306 46.2219 18.1044 45.9267C18.1782 45.607 18.2151 45.3364 18.2151 45.1151C18.3873 44.574 18.5471 44.205 18.6947 44.0082C18.8669 43.4671 19.0514 43.049 19.2481 42.7538C19.2727 42.6801 19.2973 42.5079 19.3219 42.2373C19.3711 41.9422 19.4572 41.77 19.5802 41.7208C19.654 41.3765 19.7155 41.1428 19.7647 41.0198C19.9368 40.2573 20.2566 39.2981 20.7239 38.1421C21.0928 37.0844 21.2773 36.3711 21.2773 36.0022C21.2773 35.6087 21.142 35.3627 20.8715 35.2643C20.6009 35.1659 20.4656 34.8216 20.4656 34.2313C20.4656 33.9115 20.5148 33.6164 20.6132 33.3458C20.7116 33.0753 20.8469 32.9031 21.0191 32.8293C21.388 32.6817 21.8676 32.6079 22.4579 32.6079C22.8515 32.6079 23.0482 32.6448 23.0482 32.7186C23.0482 32.7924 23.0605 32.8539 23.0851 32.9031C23.1097 32.9277 23.1589 32.94 23.2327 32.94C23.3065 32.8416 23.491 33.0998 23.7861 33.7148C24.0813 34.3051 24.2289 34.6986 24.2289 34.8954C24.1797 34.9692 24.1551 35.0183 24.1551 35.0429C24.1797 35.0675 24.2289 35.0798 24.3026 35.0798C24.4748 35.0061 24.7946 34.8462 25.2619 34.6002C25.7538 34.3297 26.0613 34.1206 26.1842 33.973C26.2334 33.9484 26.3195 33.9115 26.4425 33.8623C26.5655 33.7885 26.6639 33.7148 26.7377 33.641C27.0082 33.5426 27.3157 33.4934 27.66 33.4934C28.0536 33.4934 28.4348 33.5549 28.8037 33.6779C29.1727 33.8008 29.4801 33.973 29.7261 34.1944C30.095 34.6617 30.4025 35.2028 30.6485 35.8177C30.8944 36.4326 31.0174 37.0352 31.0174 37.6255C31.0174 38.1175 30.919 38.6217 30.7222 39.1382C30.673 39.2858 30.5132 39.5809 30.2426 40.0237C29.9967 40.4418 29.8245 40.7247 29.7261 40.8722C28.7423 42.3972 27.3895 43.6516 25.6677 44.6354C25.348 44.8568 24.8807 45.0659 24.2657 45.2627C23.6754 45.4348 23.245 45.5209 22.9744 45.5209C22.8269 45.5209 22.667 45.3979 22.4948 45.152C22.3472 44.8814 22.212 44.574 22.089 44.2296C21.7692 44.9921 21.5848 45.5086 21.5356 45.7792C21.5356 45.853 21.511 45.9759 21.4618 46.1481C21.4372 46.2957 21.3757 46.4064 21.2773 46.4802C21.2773 46.5048 21.2527 46.5662 21.2035 46.6646C21.1789 46.763 21.1051 46.8983 20.9822 47.0705L20.355 48.8783C20.0598 49.5916 19.8753 50.1573 19.8015 50.5754C19.7278 51.4363 19.531 52.2234 19.2112 52.9367C18.8915 53.6745 18.4734 54.0435 17.9568 54.0435ZM23.7492 42.016C24.1182 41.8438 24.6347 41.5732 25.2988 41.2043C25.9875 40.8353 26.4425 40.5156 26.6639 40.245C26.836 40.0483 26.9467 39.8392 26.9959 39.6178C27.0697 39.3965 27.1312 39.1997 27.1804 39.0275C27.4264 38.4126 27.5985 37.9576 27.6969 37.6624C27.7707 37.5149 27.8076 37.3427 27.8076 37.1459C27.8076 36.8754 27.7338 36.6663 27.5862 36.5187C27.2911 36.4941 26.8115 36.6417 26.1474 36.9614C25.5079 37.2566 24.9052 37.7731 24.3395 38.511C23.5279 39.5686 23.122 40.4664 23.122 41.2043C23.122 41.4502 23.1712 41.647 23.2696 41.7946C23.3926 41.9422 23.5525 42.016 23.7492 42.016ZM40.4217 47.1074C40.2003 46.886 40.0158 46.6031 39.8683 46.2588C39.7453 45.8899 39.5854 45.3364 39.3886 44.5986C39.3395 44.451 39.3149 44.2419 39.3149 43.9714C39.3149 43.6762 39.3149 43.4671 39.3149 43.3442C39.2165 43.5655 39.0935 43.8115 38.9459 44.082C38.7983 44.328 38.6508 44.5002 38.5032 44.5986C37.9375 45.1643 37.3718 45.5824 36.806 45.853C36.019 46.3449 35.3426 46.5908 34.7769 46.5908C34.0882 46.5908 33.4979 46.2711 33.0059 45.6316C32.2189 44.9921 31.8253 44.2296 31.8253 43.3442C31.8253 43.2212 31.8499 42.9875 31.8991 42.6432C31.9483 41.7331 32.0713 40.8599 32.2681 40.0237C32.4894 39.1874 32.8953 38.1175 33.4856 36.8139L34.5924 34.6002L35.1827 33.4565C35.3057 33.4073 35.5024 33.3827 35.773 33.3827C36.1665 33.3827 36.5355 33.4565 36.8798 33.6041C37.2242 33.7516 37.4087 33.9484 37.4332 34.1944C37.507 34.2928 37.5439 34.4772 37.5439 34.7478C37.5439 35.5349 37.2119 36.5802 36.5478 37.8838L36.2526 38.5848C35.8099 39.6424 35.4902 40.4664 35.2934 41.0567C35.0966 41.647 34.9982 42.1389 34.9982 42.5325C34.9982 42.926 35.1458 43.1843 35.441 43.3073C35.5639 43.381 35.7115 43.4179 35.8837 43.4179C36.3756 43.4179 36.9659 43.0367 37.6546 42.2742C38.3679 41.5117 39.0935 40.2327 39.8314 38.4372C40.1757 37.6009 40.3848 36.7401 40.4586 35.8546C40.4094 35.5841 40.4832 35.2889 40.6799 34.9692C40.8767 34.6494 41.135 34.3911 41.4547 34.1944C41.5531 34.0468 41.6884 33.9361 41.8606 33.8623C42.0327 33.7639 42.1434 33.7639 42.1926 33.8623L42.7829 33.8254C42.8567 33.8008 42.9674 33.9115 43.115 34.1575C43.2871 34.4034 43.4101 34.551 43.4839 34.6002C43.7299 34.797 43.8528 35.1905 43.8528 35.7808C43.8528 36.5925 43.5577 37.7116 42.9674 39.1382C42.5001 40.1221 42.1803 40.8845 42.0081 41.4256C41.8606 41.9422 41.7745 42.4464 41.7499 42.9383C41.7499 43.4548 41.7868 43.8607 41.8606 44.1558C41.9589 44.4264 42.1803 44.7092 42.5247 45.0044C42.9182 45.2749 43.0781 45.9144 43.0043 46.9229C42.9551 47.0951 42.8198 47.2303 42.5984 47.3287C42.3771 47.4271 42.1065 47.4763 41.7868 47.4763C41.2457 47.4763 40.7906 47.3533 40.4217 47.1074ZM49.834 46.8491C49.5389 46.9721 49.2314 47.0336 48.9117 47.0336C48.3952 47.0336 47.768 46.8983 47.0301 46.6277C46.9317 46.6277 46.5996 46.3941 46.0339 45.9267C45.4928 45.4348 45.1608 45.0536 45.0378 44.783C44.7426 44.3649 44.5951 43.8115 44.5951 43.1228C44.5951 41.9422 45.0132 40.3311 45.8495 38.2896C46.12 37.7239 46.5627 36.986 47.1777 36.076C47.8172 35.1413 48.2476 34.6125 48.469 34.4895C48.5427 34.4649 48.7149 34.4034 48.9855 34.3051C49.256 34.1821 49.5635 34.0345 49.9078 33.8623C50.08 33.7885 50.4366 33.7025 50.9778 33.6041C51.5189 33.4811 51.9001 33.4196 52.1215 33.4196C52.5888 33.4196 53.1053 33.5918 53.671 33.9361C54.2368 34.2559 54.6795 34.6371 54.9992 35.0798C55.3436 35.5226 55.4666 35.9038 55.3682 36.2236C55.3436 36.3219 55.2083 36.6171 54.9623 37.109C54.7164 37.5764 54.5196 37.8838 54.372 38.0314C54.2736 38.1544 54.0892 38.2159 53.8186 38.2159C53.4989 38.2159 53.2037 38.1298 52.9332 37.9576C52.6626 37.7854 52.515 37.5395 52.4904 37.2197C52.4412 37.0721 52.2814 36.9123 52.0108 36.7401C51.7648 36.5679 51.5927 36.4572 51.4943 36.408C51.3221 36.408 51.0884 36.5802 50.7933 36.9246C50.4981 37.2443 50.1415 37.7116 49.7234 38.3265C49.256 38.7939 48.924 39.2981 48.7272 39.8392C48.555 40.3557 48.4321 40.8353 48.3583 41.2781C48.3091 41.6962 48.2599 41.9791 48.2107 42.1266C48.1615 42.2742 48.1369 42.4218 48.1369 42.5694C48.1369 42.8153 48.1861 43.0613 48.2845 43.3073C48.3829 43.5286 48.4812 43.6516 48.5796 43.6762C49.0224 43.7008 49.7111 43.6024 50.6457 43.381C51.605 43.1351 52.4535 42.8645 53.1914 42.5694C53.5358 42.348 53.9047 42.2373 54.2982 42.2373C54.4704 42.2373 54.6426 42.2619 54.8148 42.3111C54.9869 42.3357 55.1099 42.3603 55.1837 42.3849C55.4297 42.4833 55.5526 42.7047 55.5526 43.049C55.5526 43.3687 55.442 43.7008 55.2206 44.0451C54.9992 44.3895 54.6918 44.6723 54.2982 44.8937C53.8801 45.1151 53.5235 45.3364 53.2283 45.5578C52.9332 45.7792 52.7856 45.9513 52.7856 46.0743C52.7364 46.0743 52.638 46.1112 52.4904 46.185C52.3428 46.2342 52.2445 46.2465 52.1953 46.2219C51.9247 46.2465 51.5066 46.3326 50.9409 46.4802C50.3752 46.6277 50.0062 46.7507 49.834 46.8491ZM61.7241 46.886C61.6011 46.9106 61.4412 46.9229 61.2444 46.9229C60.9247 46.9229 60.6664 46.8737 60.4697 46.7753C60.2729 46.6523 60.0392 46.4556 59.7687 46.185C59.203 45.9144 58.711 45.4594 58.2929 44.8199C57.8748 44.1804 57.6903 43.6762 57.7395 43.3073C57.8625 42.1266 58.1945 40.8476 58.7356 39.4703C59.2768 38.0683 59.9777 36.8139 60.8386 35.707C61.7241 34.5756 62.6587 33.7885 63.6426 33.3458C64.0853 33.1736 64.4911 33.0875 64.8601 33.0875C65.6226 33.0875 66.1268 33.3335 66.3727 33.8254C66.5449 34.1698 66.631 34.428 66.631 34.6002C66.631 34.8954 66.4588 35.0921 66.1145 35.1905C66.0407 35.1905 65.9546 35.2274 65.8562 35.3012C65.7578 35.375 65.7087 35.4488 65.7087 35.5226C65.7332 35.5472 65.8439 35.5595 66.0407 35.5595C66.4588 35.5595 66.9754 35.498 67.5903 35.375C68.2052 35.252 68.5987 35.1167 68.7709 34.9692C68.9184 34.8954 69.0414 34.8585 69.1398 34.8585L69.6563 34.9323C70.0745 35.0552 70.2835 35.2028 70.2835 35.375C70.2835 35.498 70.3204 35.6578 70.3942 35.8546C70.4926 36.0514 70.5787 36.1498 70.6525 36.1498C70.7755 36.1498 70.837 36.2359 70.837 36.408C70.837 36.5556 70.7509 36.7524 70.5787 36.9983C70.4311 37.2197 70.2097 37.4411 69.9146 37.6624C69.7916 37.7362 69.6071 37.8469 69.3612 37.9945C69.1398 38.1421 69.0045 38.265 68.9553 38.3634C68.9307 38.4618 68.943 38.5971 68.9922 38.7693C69.0906 38.966 69.1398 39.212 69.1398 39.5071C69.1398 40.3434 68.734 41.3273 67.9223 42.4587C67.1106 43.5655 66.1145 44.5494 64.9339 45.4102C63.7779 46.2711 62.7079 46.763 61.7241 46.886ZM61.8348 43.7869C61.9823 43.7869 62.3513 43.6393 62.9416 43.3442C63.2613 43.0244 63.5196 42.8276 63.7164 42.7538C63.7901 42.7538 63.8516 42.6924 63.9008 42.5694C63.9746 42.4218 64.0853 42.2127 64.2329 41.9422C64.4051 41.647 64.6756 41.2658 65.0446 40.7984C65.4381 40.3557 65.7087 39.9991 65.8562 39.7285C66.0284 39.458 66.1145 39.1874 66.1145 38.9168C66.1145 38.8185 66.0899 38.6463 66.0407 38.4003C66.0161 38.3265 65.93 38.265 65.7824 38.2159C65.6595 38.1421 65.5365 38.0806 65.4135 38.0314C65.2905 38.0314 65.1675 38.0683 65.0446 38.1421C64.9216 38.1913 64.8355 38.2159 64.7863 38.2159C64.6633 38.2159 64.528 38.1544 64.3805 38.0314L63.7901 37.2935L63.1629 37.9207C62.5972 38.4864 62.1176 39.2489 61.7241 40.2081C61.3551 41.1674 61.1338 42.0406 61.06 42.8276C61.0354 43.172 61.0846 43.4179 61.2076 43.5655C61.3551 43.6885 61.5642 43.7623 61.8348 43.7869ZM73.4769 46.8491C72.6652 46.5294 72.0626 46.0374 71.6691 45.3733C71.3001 44.6846 71.1157 43.7992 71.1157 42.7169C71.1157 42.471 71.1403 42.0283 71.1895 41.3888C71.2141 41.192 71.2264 40.9583 71.2264 40.6878C71.2264 40.2696 71.1772 39.9622 71.0788 39.7654C70.9804 39.544 70.8082 39.3227 70.5623 39.1013C70.4885 39.0275 70.3163 38.8676 70.0457 38.6217C69.7752 38.3757 69.6522 38.1913 69.6768 38.0683V37.9576C69.6768 37.7854 69.7137 37.6009 69.7875 37.4042C69.8859 37.1828 69.972 37.0475 70.0457 36.9983C70.1195 36.9737 70.2671 36.9 70.4885 36.777C70.7098 36.654 70.882 36.6171 71.005 36.6663C71.1034 36.6663 71.251 36.7278 71.4477 36.8508C71.6691 36.9737 71.7798 37.0844 71.7798 37.1828C71.9273 37.478 72.3086 36.9983 72.9235 35.7439C73.2678 35.2274 73.7352 34.7232 74.3255 34.2313C74.9158 33.7148 75.4569 33.3212 75.9488 33.0507C76.121 32.9769 76.5022 32.8785 77.0925 32.7555C77.7074 32.6079 78.1871 32.5341 78.5314 32.5341C78.925 32.5341 79.38 32.694 79.8965 33.0138C80.4376 33.3335 80.8804 33.6779 81.2247 34.0468C81.7412 34.4157 81.9995 35.1167 81.9995 36.1498C81.9995 36.7647 81.9011 37.2935 81.7043 37.7362C81.6059 38.1052 81.114 38.6709 80.2286 39.4334C79.3677 40.1712 78.6667 40.6509 78.1256 40.8722C77.5845 40.9952 76.9819 41.0567 76.3178 41.0567C75.6537 41.0567 75.1986 40.9952 74.9527 40.8722C74.7805 40.7739 74.6329 40.823 74.5099 41.0198C74.4116 41.192 74.3255 41.5978 74.2517 42.2373L74.2148 42.6063C74.2148 42.8768 74.2763 43.1351 74.3993 43.381C74.5714 43.6762 74.7313 43.8853 74.8789 44.0082C75.0265 44.1312 75.2478 44.1927 75.543 44.1927L75.875 44.1558C76.1456 44.1312 76.4284 43.9959 76.7236 43.75C77.0433 43.504 77.4123 43.172 77.8304 42.7538C78.2732 42.3357 78.5314 42.0897 78.6052 42.016C78.7282 41.77 79.0602 41.647 79.6014 41.647C79.8227 41.647 80.1056 41.6839 80.4499 41.7577C80.6959 41.9545 80.8189 42.2004 80.8189 42.4956C80.8189 42.9137 80.6221 43.4794 80.2286 44.1927C80.1056 44.4387 79.7243 44.8568 79.0848 45.4471C78.4699 46.0374 77.978 46.4433 77.6091 46.6646C76.945 47.0336 76.2071 47.218 75.3954 47.218C74.7805 47.218 74.141 47.0951 73.4769 46.8491ZM76.2071 38.5479C76.7974 38.4003 77.2524 38.2281 77.5722 38.0314C77.9165 37.81 78.3101 37.3919 78.7528 36.777C78.9496 36.1867 78.9864 35.83 78.8635 35.707C78.7159 35.5595 78.5437 35.4857 78.3469 35.4857C78.101 35.4857 77.8058 35.621 77.4615 35.8915C77.2155 35.9653 76.8712 36.199 76.4284 36.5925C76.0103 36.9614 75.6537 37.3304 75.3585 37.6993C75.0634 38.0437 74.9773 38.2527 75.1003 38.3265C75.0511 38.4003 75.174 38.4618 75.4692 38.511C75.7643 38.5356 76.0103 38.5479 76.2071 38.5479ZM95.8683 31.8331C95.9174 32.5218 95.856 33.4073 95.6838 34.4895C95.5116 35.5718 95.2657 36.4326 94.9459 37.0721C94.3064 39.6055 93.2365 41.8561 91.7361 43.8238C90.2357 45.7915 88.5017 46.9844 86.534 47.4025C86.3372 47.4763 85.8699 47.3656 85.132 47.0705C84.4187 46.7507 83.8899 46.4064 83.5456 46.0374C82.9799 45.4471 82.697 44.8076 82.697 44.1189C82.5248 43.7746 82.4265 43.3442 82.4019 42.8276C82.4019 42.3111 82.4019 41.9791 82.4019 41.8315C82.4019 41.2658 82.5125 40.7001 82.7339 40.1344C82.9799 39.544 83.2627 38.9414 83.5825 38.3265C83.853 37.6378 84.4064 36.8508 85.2427 35.9653C86.1036 35.0552 86.9276 34.4034 87.7146 34.0099C87.9852 33.8377 88.3418 33.6902 88.7846 33.5672C89.2519 33.4442 89.7192 33.3827 90.1865 33.3827C90.5309 33.3827 90.9121 33.4442 91.3303 33.5672C91.5762 33.641 91.7976 33.7639 91.9944 33.9361C92.1911 34.0837 92.4002 34.2805 92.6216 34.5264C92.8183 33.2474 92.9167 31.9315 92.9167 30.5787C92.9167 29.0292 92.7322 27.9838 92.3633 27.4427C91.9944 26.9262 91.5024 26.5204 90.8875 26.2252C90.2726 25.9301 89.6454 25.7825 89.0059 25.7825C88.514 25.7825 88.0344 25.8809 87.5671 26.0776C87.2719 25.9301 87.0505 25.7579 86.903 25.5611C86.7554 25.3644 86.6324 25.1061 86.534 24.7863C86.5586 24.2944 86.7308 23.9132 87.0505 23.6426C87.3949 23.3475 87.8991 23.1384 88.5632 23.0154C89.0059 22.917 89.3872 22.8678 89.7069 22.8678C90.248 22.8678 90.7154 22.9908 91.1089 23.2368C92.9536 23.8517 94.1957 24.8724 94.8352 26.299C95.4747 27.701 95.8191 29.5457 95.8683 31.8331ZM89.8176 40.9091C90.2849 40.2942 90.6908 39.5686 91.0351 38.7324C91.3795 37.8715 91.5516 37.1951 91.5516 36.7032C91.5516 36.2851 91.3426 36.076 90.9244 36.076C90.6293 36.076 90.2603 36.1744 89.8176 36.3711C89.3749 36.5679 88.9444 36.8262 88.5263 37.1459C87.7392 37.7116 86.8292 38.8922 85.7961 40.6878C85.4764 41.2535 85.3165 41.9668 85.3165 42.8276C85.3165 43.2458 85.378 43.6024 85.501 43.8976C85.6485 44.1927 85.8576 44.3403 86.1282 44.3403C86.6201 44.3403 87.1243 44.082 87.6408 43.5655C88.1574 43.049 88.6124 42.5202 89.0059 41.9791C89.4241 41.4134 89.6946 41.0567 89.8176 40.9091ZM103.459 47.1074C103.238 46.886 103.053 46.6031 102.906 46.2588C102.783 45.8899 102.623 45.3364 102.426 44.5986C102.377 44.451 102.352 44.2419 102.352 43.9714C102.352 43.6762 102.352 43.4671 102.352 43.3442C102.254 43.5655 102.131 43.8115 101.983 44.082C101.836 44.328 101.688 44.5002 101.54 44.5986C100.975 45.1643 100.409 45.5824 99.8433 45.853C99.0562 46.3449 98.3799 46.5908 97.8141 46.5908C97.1254 46.5908 96.5351 46.2711 96.0432 45.6316C95.2561 44.9921 94.8626 44.2296 94.8626 43.3442C94.8626 43.2212 94.8872 42.9875 94.9364 42.6432C94.9856 41.7331 95.1086 40.8599 95.3053 40.0237C95.5267 39.1874 95.9325 38.1175 96.5228 36.8139L97.6297 34.6002L98.22 33.4565C98.343 33.4073 98.5397 33.3827 98.8103 33.3827C99.2038 33.3827 99.5728 33.4565 99.9171 33.6041C100.261 33.7516 100.446 33.9484 100.471 34.1944C100.544 34.2928 100.581 34.4772 100.581 34.7478C100.581 35.5349 100.249 36.5802 99.5851 37.8838L99.2899 38.5848C98.8472 39.6424 98.5274 40.4664 98.3307 41.0567C98.1339 41.647 98.0355 42.1389 98.0355 42.5325C98.0355 42.926 98.1831 43.1843 98.4782 43.3073C98.6012 43.381 98.7488 43.4179 98.921 43.4179C99.4129 43.4179 100.003 43.0367 100.692 42.2742C101.405 41.5117 102.131 40.2327 102.869 38.4372C103.213 37.6009 103.422 36.7401 103.496 35.8546C103.447 35.5841 103.52 35.2889 103.717 34.9692C103.914 34.6494 104.172 34.3911 104.492 34.1944C104.59 34.0468 104.726 33.9361 104.898 33.8623C105.07 33.7639 105.181 33.7639 105.23 33.8623L105.82 33.8254C105.894 33.8008 106.005 33.9115 106.152 34.1575C106.324 34.4034 106.447 34.551 106.521 34.6002C106.767 34.797 106.89 35.1905 106.89 35.7808C106.89 36.5925 106.595 37.7116 106.005 39.1382C105.537 40.1221 105.218 40.8845 105.045 41.4256C104.898 41.9422 104.812 42.4464 104.787 42.9383C104.787 43.4548 104.824 43.8607 104.898 44.1558C104.996 44.4264 105.218 44.7092 105.562 45.0044C105.955 45.2749 106.115 45.9144 106.042 46.9229C105.992 47.0951 105.857 47.2303 105.636 47.3287C105.414 47.4271 105.144 47.4763 104.824 47.4763C104.283 47.4763 103.828 47.3533 103.459 47.1074ZM116.302 47.3656C116.204 47.3656 116.057 47.3041 115.86 47.1812L114.937 46.886C114.642 46.4187 114.495 45.8653 114.495 45.2258C114.495 44.7584 114.556 44.2911 114.679 43.8238C114.827 43.3319 114.974 42.8891 115.122 42.4956C115.294 42.0774 115.405 41.8069 115.454 41.6839C115.257 41.7331 114.556 41.8807 113.351 42.1266C112.711 42.2004 112.109 42.3111 111.543 42.4587L111.063 42.2004L110.842 43.2704C110.645 44.451 110.412 45.3118 110.141 45.853C109.649 45.9022 109.342 45.9267 109.219 45.9267C108.874 45.9267 108.407 45.8284 107.817 45.6316C107.448 45.1397 107.263 44.574 107.263 43.9345C107.263 43.5163 107.325 43.0982 107.448 42.6801C107.571 42.2619 107.755 41.77 108.001 41.2043C108.223 40.6878 108.383 40.2696 108.481 39.9499C108.579 39.6055 108.628 39.2735 108.628 38.9537C108.776 38.8062 109.182 37.8715 109.846 36.1498C110.535 34.428 110.904 33.3827 110.953 33.0138C110.977 32.4235 111.273 32.1283 111.838 32.1283C112.33 32.1283 112.834 32.3374 113.351 32.7555C113.867 33.149 114.126 33.5795 114.126 34.0468C114.126 34.2436 114.064 34.4403 113.941 34.6371L112.281 39.0275C112.65 38.9783 112.945 38.8922 113.166 38.7693H115.565C115.811 38.8922 116.007 39.0275 116.155 39.1751C116.598 38.1175 116.954 37.232 117.225 36.5187C117.495 35.8054 117.704 35.0798 117.852 34.342C117.975 33.7271 118.381 33.2228 119.07 32.8293C119.217 32.8785 119.5 32.9769 119.918 33.1244C120.336 33.272 120.656 33.4688 120.877 33.7148C121.123 33.9607 121.283 34.2805 121.357 34.674C121.308 34.8216 121.246 35.0552 121.173 35.375C121.123 35.6947 121.062 35.9284 120.988 36.076L120.361 37.5886C120.287 37.7854 120.078 38.3019 119.734 39.1382C119.389 39.9499 119.106 40.7247 118.885 41.4625C118.664 42.2004 118.492 42.8768 118.369 43.4917C118.344 43.5655 118.233 43.9468 118.037 44.6354C117.84 45.2258 117.717 45.6685 117.668 45.9636C117.594 46.5785 117.336 47.0213 116.893 47.2918L116.302 47.3656ZM132.438 47.2918C131.724 47.0459 131.122 46.5908 130.63 45.9267C130.138 45.2381 129.781 44.4756 129.56 43.6393C129.462 43.7377 129.093 44.1189 128.453 44.783C127.814 45.4225 127.149 45.939 126.461 46.3326C125.772 46.7261 125.157 46.8983 124.616 46.8491C124.001 46.4556 123.546 46.1358 123.251 45.8899C122.956 45.6439 122.747 45.2995 122.624 44.8568V44.8937C122.304 44.0574 122.144 43.2581 122.144 42.4956C122.144 42.0283 122.341 41.0444 122.734 39.544C123.153 38.0437 123.608 36.6171 124.1 35.2643C124.591 33.9115 124.985 33.1244 125.28 32.9031L125.907 32.8662C126.129 32.8662 126.436 33.0138 126.83 33.3089C127.248 33.6041 127.518 33.85 127.641 34.0468C127.691 34.1944 127.715 34.3297 127.715 34.4526C127.715 34.7724 127.629 35.2274 127.457 35.8177C127.285 36.3834 127.039 37.1336 126.719 38.0683C125.883 40.3803 125.465 41.9545 125.465 42.7907C125.465 42.9629 125.477 43.0859 125.502 43.1597C126.412 42.9137 127.223 42.3849 127.937 41.5732C128.65 40.7616 129.191 39.9007 129.56 38.9906C130.027 37.8346 130.347 36.986 130.519 36.4449C130.716 35.8792 130.814 35.4242 130.814 35.0798C130.814 34.6125 130.876 34.2682 130.999 34.0468C131.122 33.8254 131.38 33.6041 131.774 33.3827C132.044 33.3827 132.425 33.4073 132.917 33.4565L134.135 34.6371C134.209 34.8585 134.245 35.1167 134.245 35.4119C134.245 36.1006 133.987 37.1705 133.471 38.6217C133.176 39.5317 132.954 40.245 132.807 40.7616C132.684 41.2781 132.622 41.7823 132.622 42.2742C132.622 42.8891 132.757 43.4179 133.028 43.8607C133.422 43.6885 133.803 43.4671 134.172 43.1966C134.541 42.9014 134.762 42.7292 134.836 42.6801C135.18 42.4095 135.561 42.1389 135.98 41.8684C136.348 42.1143 136.644 42.5325 136.865 43.1228C137.111 43.7131 137.234 44.2542 137.234 44.7461C137.136 44.8691 136.963 45.029 136.717 45.2258C136.422 45.7423 135.881 46.2342 135.094 46.7015C134.332 47.1443 133.631 47.3656 132.991 47.3656C132.745 47.3656 132.561 47.341 132.438 47.2918ZM156.651 44.1927C156.823 44.4387 156.909 44.6723 156.909 44.8937C156.909 45.1397 156.823 45.361 156.651 45.5578C156.478 45.7546 156.331 45.853 156.208 45.853C155.618 45.853 154.954 45.7177 154.216 45.4471C153.502 45.152 153.146 44.7338 153.146 44.1927V41.9053C153.146 40.9214 153.06 40.3557 152.887 40.2081C152.519 40.0114 152.027 40.2942 151.412 41.0567C150.797 41.7946 150.047 42.9014 149.161 44.3772C148.817 44.9183 148.522 45.3118 148.276 45.5578C148.03 45.7792 147.808 45.8899 147.612 45.8899C147.439 45.8899 147.292 45.8407 147.169 45.7423C146.406 45.5209 146.025 45.0905 146.025 44.451C146.025 44.3772 146.05 44.2173 146.099 43.9714C146.32 43.2089 146.554 42.3603 146.8 41.4256C147.07 40.491 147.28 39.6916 147.427 39.0275C147.353 38.8799 147.23 38.8062 147.058 38.8062C146.812 38.8062 146.529 38.9291 146.21 39.1751C146.111 39.2489 145.927 39.3719 145.656 39.544C145.41 39.6916 145.152 39.9007 144.881 40.1712C144.635 40.4172 144.377 40.7616 144.107 41.2043C144.008 41.3765 143.836 41.6347 143.59 41.9791C142.36 43.8484 141.61 44.906 141.34 45.152C141.217 45.4963 141.094 45.7423 140.971 45.8899C140.872 46.0128 140.749 46.0743 140.602 46.0743C140.503 46.0743 140.38 46.0374 140.233 45.9636C139.765 45.7423 139.384 45.4348 139.089 45.0413C138.818 44.6232 138.683 44.1312 138.683 43.5655C138.683 43.1966 138.794 42.4587 139.015 41.3519C139.237 40.245 139.483 39.212 139.753 38.2527C139.95 37.8592 140.097 37.4534 140.196 37.0352C140.319 36.5925 140.38 36.2851 140.38 36.1129C140.454 35.6456 140.602 35.0183 140.823 34.2313C141.044 33.4196 141.204 32.9769 141.303 32.9031C141.45 32.7555 141.721 32.6817 142.114 32.6817C142.385 32.6817 142.643 32.7309 142.889 32.8293C143.135 32.9277 143.307 33.0753 143.406 33.272C143.725 33.641 143.885 34.1452 143.885 34.7847C143.885 35.375 143.762 36.0022 143.516 36.6663C143.27 37.232 142.963 38.056 142.594 39.1382C142.594 39.1382 142.619 39.1136 142.668 39.0644C143.258 38.2281 144.021 37.2935 144.955 36.2605C145.398 35.7685 145.89 35.3873 146.431 35.1167C146.997 34.8462 147.452 34.7109 147.796 34.7109C148.386 34.8093 148.878 35.1044 149.272 35.5964C149.69 36.0637 149.948 36.7155 150.047 37.5518C150.047 37.8469 150.022 38.2159 149.973 38.6586C149.924 39.0767 149.887 39.3473 149.862 39.4703C149.961 39.3473 150.206 39.0521 150.6 38.5848C151.018 38.0929 151.522 37.5886 152.113 37.0721C152.654 36.654 153.158 36.4449 153.625 36.4449C154.019 36.4449 154.363 36.6048 154.658 36.9246C155.199 37.2443 155.618 37.7608 155.913 38.4741C156.233 39.1874 156.392 39.9991 156.392 40.9091C156.392 41.2289 156.38 41.4748 156.356 41.647C156.331 41.8192 156.319 42.0652 156.319 42.3849C156.319 42.7292 156.356 43.0613 156.429 43.381C156.503 43.6762 156.577 43.9468 156.651 44.1927ZM169.173 40.5771C169.271 40.7001 169.369 40.9091 169.468 41.2043C169.566 41.4994 169.615 41.7823 169.615 42.0529C169.615 42.2742 169.591 42.4341 169.541 42.5325C169.443 43.0982 169.173 43.6393 168.73 44.1558C168.287 44.6477 167.795 45.0782 167.254 45.4471C166.344 45.9882 165.471 46.3818 164.635 46.6277C163.798 46.8491 162.827 46.9598 161.72 46.9598C161.13 46.9598 160.638 46.8614 160.244 46.6646C159.851 46.4679 159.432 46.0866 158.99 45.5209C158.67 45.029 158.51 44.5002 158.51 43.9345C158.51 43.2458 158.658 42.3849 158.953 41.3519C159.273 40.3188 159.617 39.4949 159.986 38.8799C160.01 38.511 160.121 38.179 160.318 37.8838C160.515 37.5641 160.638 37.3427 160.687 37.2197C160.785 36.8262 161.08 36.1867 161.572 35.3012C162.089 34.4157 162.482 33.8746 162.753 33.6779C162.802 33.2843 162.937 32.94 163.159 32.6448C163.405 32.3251 163.565 32.116 163.638 32.0176L164.302 31.7963C164.401 31.8454 164.573 31.8946 164.819 31.9438C165.065 31.993 165.311 32.1529 165.557 32.4235C165.606 32.4726 165.741 32.6079 165.963 32.8293C166.184 33.0261 166.356 33.3335 166.479 33.7516C166.479 34.0714 166.418 34.342 166.295 34.5633C166.196 34.7847 166.073 34.9815 165.926 35.1536C165.803 35.3012 165.717 35.4119 165.668 35.4857C165.372 35.8792 164.942 36.4572 164.376 37.2197L164.524 37.2566C164.967 37.232 165.52 37.3673 166.184 37.6624C166.848 37.9576 167.328 38.2527 167.623 38.5479C167.746 38.6709 167.918 38.8431 168.139 39.0644C168.385 39.2858 168.595 39.5194 168.767 39.7654C168.939 40.0114 169.074 40.2819 169.173 40.5771ZM166.516 41.0198C166.615 40.7247 166.467 40.4541 166.073 40.2081C165.704 39.9622 165.385 39.8515 165.114 39.8761H165.003C164.93 39.8761 164.745 39.8269 164.45 39.7285C164.253 39.6793 164.106 39.6547 164.007 39.6547C163.934 39.6547 163.798 39.6793 163.601 39.7285C163.38 39.8023 163.233 39.8515 163.159 39.8761C163.11 39.8761 163.085 39.9007 163.085 39.9499V39.9868C163.085 40.2081 162.974 40.4295 162.753 40.6509C162.63 40.823 162.47 41.2289 162.273 41.8684C162.101 42.4833 161.966 43.049 161.867 43.5655C162.163 43.5409 162.47 43.4917 162.79 43.4179C163.11 43.3442 163.368 43.2827 163.565 43.2335C163.835 43.2089 164.13 43.0982 164.45 42.9014C164.77 42.7047 165.016 42.5694 165.188 42.4956C165.852 42.1758 166.295 41.6839 166.516 41.0198ZM173.882 46.886C173.144 46.886 172.665 46.8491 172.443 46.7753C172.222 46.6769 171.951 46.4802 171.632 46.185C171.558 46.0128 171.398 45.7792 171.152 45.484C170.931 45.1889 170.746 44.9675 170.599 44.8199C170.525 44.5494 170.488 44.2296 170.488 43.8607C170.488 43.2212 170.574 42.471 170.746 41.6101C170.943 40.7493 171.177 39.9622 171.447 39.2489C171.546 39.0521 171.619 38.8676 171.669 38.6955C171.742 38.5233 171.792 38.4126 171.816 38.3634C171.816 38.1913 172.124 37.6624 172.739 36.777C173.378 35.8669 173.882 35.2397 174.251 34.8954C174.423 34.6986 174.682 34.4895 175.026 34.2682C175.395 34.0468 175.715 33.8869 175.985 33.7885C176.059 33.7639 176.354 33.6533 176.871 33.4565C177.412 33.2597 177.904 33.1613 178.347 33.1613C178.74 33.1613 179.121 33.2474 179.49 33.4196C179.884 33.5672 180.204 33.8131 180.449 34.1575C181.089 34.797 181.409 35.6333 181.409 36.6663C181.409 36.8631 181.384 37.0844 181.335 37.3304C181.212 37.8223 180.954 38.2281 180.56 38.5479C180.191 38.8431 179.798 38.9906 179.38 38.9906C178.961 38.9906 178.605 38.8308 178.31 38.511C178.211 38.265 178.162 38.1052 178.162 38.0314C178.162 37.9576 178.211 37.7485 178.31 37.4042C178.408 36.9614 178.457 36.6786 178.457 36.5556C178.457 36.2359 178.347 36.076 178.125 36.076C177.83 36.076 177.596 36.1498 177.424 36.2973C177.252 36.4449 176.932 36.7647 176.465 37.2566C176.145 37.6009 175.764 38.1052 175.321 38.7693C174.903 39.4088 174.571 40.0237 174.325 40.614C174.104 41.2781 173.944 41.7577 173.845 42.0529C173.772 42.3234 173.735 42.4833 173.735 42.5325C173.735 42.6309 173.722 42.7292 173.698 42.8276C173.673 42.9014 173.661 42.9875 173.661 43.0859C173.661 43.2581 173.698 43.3933 173.772 43.4917C173.845 43.5901 173.981 43.6885 174.177 43.7869C174.227 43.8115 174.313 43.8607 174.436 43.9345C174.559 44.0082 174.682 44.0451 174.805 44.0451C174.952 44.0451 175.161 43.9837 175.432 43.8607C175.702 43.7377 175.875 43.6639 175.948 43.6393C176.268 43.4917 176.723 43.172 177.313 42.6801L178.199 42.016C178.371 41.893 178.519 41.7946 178.642 41.7208C178.789 41.6224 178.9 41.5609 178.974 41.5363C179.047 41.4871 179.084 41.4871 179.084 41.5363C179.084 41.6347 179.121 41.6839 179.195 41.6839C179.269 41.6839 179.355 41.6347 179.453 41.5363C179.552 41.3888 179.724 41.315 179.97 41.315C180.167 41.315 180.363 41.3765 180.56 41.4994C180.782 41.5978 180.892 41.6839 180.892 41.7577L180.855 41.9422C180.855 42.0652 180.917 42.1881 181.04 42.3111C181.04 42.4095 181.003 42.5448 180.929 42.7169C180.88 42.8645 180.806 42.9875 180.708 43.0859C180.462 43.4548 180.179 43.8361 179.859 44.2296C179.564 44.6232 179.355 44.8937 179.232 45.0413H179.195C179.072 45.0413 178.9 45.152 178.679 45.3733C178.31 45.7177 177.99 45.8899 177.719 45.8899C177.621 45.939 177.51 46.0005 177.387 46.0743C177.264 46.1235 177.203 46.185 177.203 46.2588C176.785 46.6769 175.678 46.886 173.882 46.886ZM194.165 38.1421C194.19 38.5602 194.141 38.9906 194.018 39.4334C193.92 39.8515 193.723 40.4541 193.428 41.2412C193.182 41.9299 192.985 42.5325 192.837 43.049C192.69 43.5409 192.616 44.0328 192.616 44.5248C192.616 44.8445 192.653 45.152 192.727 45.4471C192.653 45.5209 192.518 45.6562 192.321 45.853C192.149 46.0251 191.976 46.1358 191.804 46.185L191.915 46.1481C191.694 46.2711 191.448 46.3326 191.177 46.3326C190.685 46.3326 190.255 46.1235 189.886 45.7054C189.541 45.2627 189.369 44.783 189.369 44.2665C189.369 43.9714 189.418 43.6639 189.517 43.3442C189.615 42.9998 189.689 42.7538 189.738 42.6063C187.377 44.1804 185.557 45.5086 184.278 46.5908C184.229 46.64 184.13 46.7384 183.983 46.886C183.835 47.009 183.675 47.0705 183.503 47.0705C183.405 47.0705 183.282 47.0336 183.134 46.9598C182.322 46.886 181.769 46.1235 181.474 44.6723C182.212 43.7377 183.626 42.6309 185.717 41.3519C185.102 41.0075 184.647 40.6509 184.352 40.2819C184.056 39.8884 183.909 39.3719 183.909 38.7324C183.909 38.2404 184.02 37.6747 184.241 37.0352C184.462 36.3957 184.733 35.8792 185.053 35.4857C185.102 35.4365 185.139 35.375 185.163 35.3012C185.532 34.5387 186.036 33.9115 186.676 33.4196C187.34 32.9031 188.066 32.5833 188.853 32.4603C189.295 32.4112 189.763 32.3866 190.255 32.3866C191.214 32.3866 191.853 32.4603 192.173 32.6079C192.247 32.6325 192.382 32.694 192.579 32.7924C192.8 32.8908 192.985 32.9277 193.132 32.9031C193.477 32.9277 193.784 33.1121 194.055 33.4565C194.35 33.7762 194.645 34.1821 194.94 34.674C194.916 35.0921 194.817 35.6824 194.645 36.4449C194.498 37.2074 194.338 37.7731 194.165 38.1421ZM190.292 40.4295C190.292 40.5033 190.378 40.1712 190.55 39.4334C191.189 36.9491 191.509 35.5103 191.509 35.1167C191.509 35.0675 191.337 34.9938 190.993 34.8954C190.648 34.7724 190.402 34.6986 190.255 34.674C189.689 34.8462 189.32 34.9692 189.148 35.0429C188.681 35.2397 188.152 35.7193 187.561 36.4818C186.971 37.2197 186.676 37.8346 186.676 38.3265C186.676 38.4741 186.713 38.6094 186.787 38.7324C187.131 39.1751 187.426 39.4703 187.672 39.6178C187.918 39.7654 188.152 39.8638 188.373 39.913C188.594 39.9622 188.767 40.0114 188.89 40.0606C189.136 40.1835 189.406 40.2696 189.701 40.3188C190.021 40.368 190.218 40.4049 190.292 40.4295Z" fill="#24A1DF"/>
<path d="M205.064 40.1827C204.513 40.1471 204.038 40.5651 204.002 41.1162C203.967 41.6673 204.384 42.1429 204.936 42.1785L205.064 40.1827ZM272.253 0.342468C271.89 -0.0735773 271.258 -0.116405 270.842 0.246809L264.062 6.16573C263.646 6.52894 263.604 7.16066 263.967 7.5767C264.33 7.99275 264.962 8.03558 265.378 7.67236L271.404 2.4111L276.666 8.43763C277.029 8.85368 277.661 8.89651 278.077 8.53329C278.493 8.17008 278.535 7.53836 278.172 7.12232L272.253 0.342468ZM204.936 42.1785C220.574 43.1875 236.893 40.5 249.592 33.787C262.316 27.0614 271.469 16.2478 272.498 1.06777L270.502 0.932485C269.531 15.2525 260.934 25.5292 248.658 32.0188C236.357 38.5211 220.426 41.1737 205.064 40.1827L204.936 42.1785Z" fill="#24A1DF"/>
</svg>
