<svg width="174" height="138" viewBox="0 0 174 138" fill="none" xmlns="http://www.w3.org/2000/svg">
<path d="M63.1478 71.2057C63.1297 78.2132 64.7525 85.126 67.8839 91.381C71.5968 98.8763 77.3047 105.181 84.3683 109.588C91.4319 113.995 99.5722 116.331 107.877 116.335C114.823 116.353 121.674 114.716 127.874 111.556L157.869 121.644L147.871 91.381C151.002 85.126 152.625 78.2132 152.607 71.2057C152.604 62.8264 150.288 54.6134 145.92 47.4867C141.552 40.3601 135.303 34.6012 127.874 30.8552C121.674 27.6958 114.823 26.0585 107.877 26.0768H105.246C94.2777 26.6873 83.9179 31.3583 76.1502 39.1953C68.3826 47.0323 63.753 57.4847 63.1478 68.551V71.2057Z" fill="#F5F5F5" stroke="#A100FF" stroke-width="2.66267" stroke-linecap="round" stroke-linejoin="round"/>
<path d="M110.508 61.0568C110.527 68.0643 108.904 74.9771 105.772 81.232C102.059 88.7274 96.3515 95.0318 89.2879 99.439C82.2244 103.846 74.0841 106.182 65.7789 106.186C58.8334 106.204 51.9818 104.567 45.7822 101.407L15.7871 111.495L25.7855 81.232C22.654 74.9771 21.0313 68.0643 21.0494 61.0568C21.0526 52.6774 23.368 44.4645 27.7363 37.3378C32.1046 30.2112 38.3532 24.4523 45.7822 20.7062C51.9818 17.5469 58.8334 15.9096 65.7789 15.9279H68.4101C79.3785 16.5384 89.7384 21.2094 97.506 29.0464C105.274 36.8834 109.903 47.3357 110.508 58.4021V61.0568Z" fill="#F5F5F5" stroke="#A100FF" stroke-width="2.66267" stroke-linecap="round" stroke-linejoin="round"/>
</svg>
