<svg width="56" height="57" viewBox="0 0 56 57" fill="none" xmlns="http://www.w3.org/2000/svg">
<g clip-path="url(#clip0)">
<path fill-rule="evenodd" clip-rule="evenodd" d="M31.7421 30.3382L32.0653 30.4595C32.1165 30.3088 32.1497 30.1525 32.1642 29.9939H31.7156C31.7156 30.1151 31.7349 30.2364 31.7421 30.3479V30.3382ZM26.8503 18.051C27.4758 18.2249 28.1177 18.3321 28.7655 18.3711C27.75 16.9719 26.0784 16.647 24.5636 17.0616C25.3884 17.2202 26.1688 17.5579 26.8503 18.051V18.051ZM29.4144 18.2596C29.6457 18.1266 29.8424 17.9404 29.9885 17.7164C29.5854 17.4507 29.1446 17.2479 28.6811 17.115L28.5509 17.275C28.8915 17.5466 29.1835 17.8747 29.4144 18.245V18.2596ZM22.4868 42.3199C22.6883 41.2076 22.818 40.0833 22.8751 38.9541C22.2624 39.7883 21.6377 40.5934 21.0202 41.3136C20.5571 41.8543 20.0023 42.4339 19.4909 42.5939C20.7422 41.3327 21.8833 39.9657 22.9017 38.5079C22.933 37.9162 22.9547 37.3172 22.9716 36.7328C21.955 38.1259 20.8504 39.4518 19.6646 40.7025C15.6484 44.4612 18.3982 39.507 18.5839 39.7179C18.5839 39.7179 16.8569 43.0183 19.4378 40.3969C20.6977 39.0679 21.8816 37.6681 22.9837 36.2042V36.0854C22.704 36.0282 22.4278 35.9553 22.1563 35.8671L21.8283 36.243C21.6321 37.1081 21.2391 37.9158 20.6801 38.6025C20.6618 38.6199 20.6377 38.6299 20.6125 38.6304C20.5872 38.6309 20.5627 38.622 20.5437 38.6053C20.5247 38.5886 20.5126 38.5654 20.5097 38.5402C20.5068 38.515 20.5134 38.4897 20.5281 38.4691C20.9873 37.9057 21.3323 37.2574 21.5436 36.5607L21.2373 36.8929C20.1784 38.3769 19.7562 37.8629 19.6043 37.7149C19.594 37.7052 19.586 37.6934 19.5805 37.6803C19.5751 37.6672 19.5724 37.6531 19.5727 37.6389C19.573 37.6248 19.5763 37.6108 19.5822 37.598C19.5882 37.5851 19.5968 37.5737 19.6074 37.5643C19.618 37.555 19.6305 37.548 19.6439 37.5438C19.6574 37.5396 19.6716 37.5383 19.6856 37.5399C19.6996 37.5415 19.7131 37.546 19.7253 37.5532C19.7375 37.5604 19.748 37.5701 19.7562 37.5816C19.7562 37.5816 19.9975 37.9017 21.0901 36.7547C21.2542 36.5801 21.4423 36.3764 21.6449 36.1484C21.674 35.9994 21.6941 35.8488 21.7052 35.6974L21.6039 35.661C21.1338 35.9517 20.5787 36.0716 20.0312 36.0005C19.9372 36.0005 19.8455 35.9835 19.7562 35.969C19.5633 36.248 19.2896 36.4605 18.9723 36.5776C18.6106 36.7126 18.218 36.7403 17.841 36.6577C17.4347 36.5694 17.0621 36.3657 16.7676 36.0708C16.366 35.6542 16.1139 35.115 16.0512 34.5383V34.5383C15.8703 33.173 16.5481 32.4213 17.1777 32.0236C17.1006 31.8385 17.0346 31.649 16.9799 31.4561C16.8665 31.3664 16.7531 31.2743 16.6422 31.1773L16.5843 31.1918C16.5761 31.1648 16.5697 31.1372 16.565 31.1094C16.4661 31.0221 16.3672 30.9323 16.2731 30.8426L16.2611 30.8281C15.7087 30.297 15.2504 29.7005 15.1177 29.1136C14.9199 28.2382 15.3903 27.4962 15.9137 26.9724L15.9306 26.9554C16.0747 26.8131 16.2278 26.6803 16.3889 26.5577C16.4479 26.1591 16.5616 25.7707 16.7266 25.4035C16.6626 24.9335 16.6384 24.4589 16.6542 23.9849C16.6621 23.7536 16.6822 23.5229 16.7145 23.2938C16.5135 23.343 16.3174 23.4104 16.1284 23.495C15.9129 23.5907 15.711 23.7147 15.5278 23.8636C15.2638 24.0708 15.0816 24.3656 15.014 24.6954C15.004 24.7425 14.9976 24.7903 14.9947 24.8384C15.0918 24.8536 15.1877 24.8755 15.2817 24.9039C15.7425 25.0397 16.1815 25.3234 16.2659 25.6629C16.3134 25.8234 16.3014 25.9957 16.2321 26.1479C16.18 26.2455 16.0942 26.3205 15.9909 26.3589C15.8907 26.3962 15.7823 26.4055 15.6773 26.3856H15.6894C15.46 26.3325 15.2537 26.2067 15.1008 26.0267C14.8283 26.0267 13.9744 25.983 14.0057 25.2798C14.008 25.1997 14.0316 25.1217 14.074 25.0539C14.1165 24.9861 14.1762 24.931 14.2469 24.8942H14.2421C14.3751 24.8298 14.5215 24.7982 14.6691 24.8021C14.6691 24.7439 14.6763 24.6857 14.6908 24.6275C14.7731 24.2252 14.9944 23.8653 15.3155 23.6114C15.5206 23.4419 15.7478 23.3016 15.9909 23.1943C16.24 23.0847 16.5005 23.0034 16.7676 22.9518C16.9188 22.1232 17.2821 21.3485 17.8217 20.7039C17.2703 20.1877 16.6635 19.7347 16.0126 19.3532V19.3532C16.8327 19.415 17.6113 19.7397 18.2342 20.2795C18.5878 19.9604 19.007 19.7236 19.462 19.586C19.5931 19.4969 19.732 19.4198 19.8768 19.3556C19.5488 18.8852 18.8252 18.068 17.2211 17.2314C19.2232 17.7164 20.0939 18.5893 20.4558 19.1398L20.5088 19.101L20.5378 19.0816C20.6294 18.9749 20.7356 18.8537 20.8586 18.7227C20.2222 17.8497 19.4355 17.0982 18.5357 16.5039V16.5039C20.0385 16.9234 20.8755 17.6776 21.3265 18.279C22.7493 16.985 24.6063 16.2799 26.5247 16.305C27.2945 16.3064 28.0606 16.4133 28.8017 16.6227C29.2842 15.968 29.962 14.9252 29.6918 14.3481C29.6215 14.1799 29.5019 14.0371 29.3489 13.9388C29.196 13.8405 29.0169 13.7913 28.8355 13.7976C28.4511 13.8218 28.0755 13.9232 27.7307 14.0959C27.3758 14.264 27.05 14.4884 26.7659 14.7603C26.4716 15.0513 26.4017 15.3035 26.4547 15.4878C26.4814 15.5741 26.5336 15.6502 26.6043 15.7061C26.6788 15.7648 26.7667 15.8039 26.86 15.8201C27.7766 15.9752 27.3424 14.8282 27.1012 15.2744C27.0851 15.3071 27.0583 15.3331 27.0254 15.3481C26.9924 15.3632 26.9553 15.3663 26.9203 15.3569C26.1604 15.1314 28.3121 14.5494 27.5788 15.6915C27.5018 15.814 27.3902 15.9106 27.2583 15.969C27.1263 16.0273 26.9801 16.0447 26.8383 16.0189C26.7112 15.9977 26.5917 15.9443 26.4909 15.8637C26.386 15.7793 26.31 15.664 26.2738 15.5339C26.2015 15.2914 26.2738 14.9568 26.6356 14.6052C26.9312 14.3186 27.2708 14.0819 27.6415 13.9043C28.0128 13.723 28.4161 13.6175 28.8283 13.5939C28.9996 13.5776 29.1724 13.5974 29.3356 13.6521C29.4989 13.7068 29.649 13.7952 29.7762 13.9116V13.9116C29.8473 13.982 29.9061 14.064 29.9499 14.1541C30.249 14.8064 29.5567 15.934 29.0164 16.6785C29.453 16.8204 29.8684 17.021 30.2514 17.275V17.275C30.3576 17.0602 30.4486 16.8382 30.524 16.6106V16.6106C30.4789 16.8526 30.4085 17.0891 30.3141 17.3162C30.581 17.5012 30.824 17.7187 31.0378 17.9637C31.3055 17.697 31.7614 17.1465 31.7831 16.4893C31.8097 15.6042 31.127 15.5339 31.127 15.5339C31.1008 15.5303 31.0769 15.5167 31.0603 15.496C31.0438 15.4752 31.0357 15.4489 31.0378 15.4224C31.0408 15.3957 31.0542 15.3714 31.0749 15.3546C31.0957 15.3378 31.1222 15.3299 31.1487 15.3326C31.1487 15.3326 32.0147 15.4199 31.9809 16.4942C31.9568 17.2217 31.4502 17.8352 31.1632 18.1189C31.2296 18.2063 31.2916 18.2969 31.3489 18.3905L32.5116 17.5393C32.906 16.9697 33.1196 16.2934 33.1243 15.5994C33.1236 15.5861 33.1256 15.5729 33.1301 15.5604C33.1347 15.5479 33.1416 15.5365 33.1506 15.5268C33.1596 15.5171 33.1705 15.5093 33.1825 15.5038C33.1945 15.4984 33.2076 15.4954 33.2207 15.4951C33.2341 15.4948 33.2473 15.4971 33.2597 15.5019C33.2721 15.5067 33.2835 15.514 33.2931 15.5232C33.3027 15.5324 33.3105 15.5435 33.3158 15.5557C33.3212 15.568 33.3242 15.5812 33.3245 15.5945C33.3236 16.164 33.188 16.725 32.9289 17.2314L36.687 14.4863L31.636 19.038C31.7502 19.3585 31.7882 19.7015 31.7469 20.0395L31.8097 20.0613C32.6313 19.5361 33.4983 19.0865 34.4003 18.7179V18.7179C34.4003 18.7179 33.4571 19.5108 32.3789 20.2917C32.6201 20.3911 32.8613 20.5099 33.1291 20.6457C33.5032 20.4267 33.8984 20.2463 34.3086 20.1074C34.4885 19.8742 34.7033 19.6705 34.9454 19.5036C34.9637 19.4923 34.9856 19.4888 35.0064 19.4938C35.0272 19.4988 35.0452 19.5119 35.0564 19.5302C35.0676 19.5486 35.0711 19.5706 35.0661 19.5915C35.0611 19.6124 35.0481 19.6305 35.0298 19.6418C34.8683 19.7507 34.7215 19.8803 34.5933 20.0273C34.7249 19.9937 34.8587 19.9694 34.9937 19.9546C35.2165 19.9208 35.4443 19.9459 35.6546 20.0273C35.7838 19.8684 35.8932 19.6941 35.9802 19.5084C36.3855 18.616 35.7101 19.004 35.7101 19.0064C35.6915 19.0144 35.6706 19.0151 35.6515 19.0086C35.6323 19.002 35.6163 18.9885 35.6064 18.9708C35.5966 18.9531 35.5936 18.9323 35.598 18.9125C35.6024 18.8926 35.614 18.8751 35.6305 18.8634C35.6305 18.8634 36.7425 18.228 36.1298 19.5763C36.0416 19.7642 35.9315 19.9408 35.8017 20.1025C35.9005 20.1708 35.9843 20.2588 36.0478 20.361C36.1112 20.4632 36.1531 20.5774 36.1708 20.6966C36.1725 20.7099 36.1715 20.7233 36.1678 20.7362C36.1642 20.7491 36.1581 20.7611 36.1497 20.7715C36.1414 20.7819 36.1311 20.7905 36.1194 20.7968C36.1076 20.8031 36.0948 20.807 36.0815 20.8082C36.055 20.8109 36.0285 20.803 36.0077 20.7862C35.987 20.7694 35.9736 20.7451 35.9706 20.7185C35.9559 20.6248 35.9211 20.5355 35.8686 20.4568C35.8161 20.3781 35.7472 20.3118 35.6666 20.2626C35.2669 20.6912 34.8069 21.0589 34.3014 21.3538C34.9579 21.7987 35.5237 22.3659 35.9682 23.0246C36.6411 22.4547 37.2369 22.2971 37.4154 23.2986V23.3592C37.4613 23.2865 37.5095 23.2137 37.5578 23.1458C37.6544 22.9965 37.7769 22.8659 37.9196 22.7603L37.9485 22.6705C37.9552 22.6501 37.9695 22.6331 37.9884 22.6232C38.0073 22.6132 38.0294 22.6111 38.0498 22.6172C38.0615 22.6207 38.0721 22.6269 38.0809 22.6353C38.0897 22.6438 38.0964 22.6542 38.1005 22.6657C38.5829 22.5129 38.8844 23.204 38.8868 23.2065C38.8955 23.2261 38.896 23.2483 38.8883 23.2683C38.8806 23.2883 38.8653 23.3045 38.8458 23.3132C38.8263 23.3218 38.8042 23.3224 38.7843 23.3146C38.7644 23.3069 38.7483 23.2915 38.7397 23.2719C38.7397 23.2719 38.4768 22.6584 38.0426 22.8888C37.9043 23.2829 37.7273 23.6623 37.5143 24.0212C37.5833 24.7712 37.5012 25.5275 37.2731 26.2449L37.3165 26.2667C37.2752 26.343 37.2293 26.4167 37.1791 26.4874C37.0628 26.7556 36.9111 27.0069 36.728 27.2343C36.1372 27.9859 35.2794 28.4779 34.3352 28.6068C34.3904 28.9335 34.3904 29.2671 34.3352 29.5938C34.9165 29.5938 35.5171 29.5744 36.1008 29.5526C37.0657 29.5162 37.9944 29.458 38.6722 29.3658C38.9601 29.343 39.2401 29.2605 39.4947 29.1233C39.3596 29.1233 38.689 29.1233 39.1353 28.8323C39.2215 28.774 39.3202 28.737 39.4233 28.7244C39.5264 28.7117 39.6311 28.7238 39.7287 28.7596C39.7845 28.7796 39.8344 28.8135 39.8736 28.8582C39.9128 28.9029 39.9401 28.9568 39.9529 29.015C39.9656 29.0732 39.9635 29.1337 39.9467 29.1908C39.9298 29.2479 39.8988 29.2998 39.8565 29.3416C39.7166 29.4992 39.3741 29.6665 38.7252 29.7562C38.0354 29.8484 37.1019 29.909 36.1153 29.9454C35.4978 29.9672 34.8586 29.9793 34.2435 29.9866C34.1383 30.335 33.9752 30.663 33.7611 30.9566C34.8084 31.2246 35.8837 31.3671 36.9644 31.381C40.3414 31.381 42.0009 30.7723 42.0009 30.7723C40.5858 31.4358 39.0568 31.8187 37.4975 31.8999C37.4179 32.1666 37.1742 32.5765 36.4241 32.5765C35.6281 32.5765 34.5329 32.0309 33.9733 31.7205C34.2911 32.2337 34.4829 32.8155 34.5329 33.4179C34.5349 33.4449 34.526 33.4716 34.5084 33.4921C34.4907 33.5125 34.4657 33.5251 34.4389 33.527C34.412 33.529 34.3855 33.5201 34.3651 33.5024C34.3448 33.4846 34.3322 33.4595 34.3303 33.4325C34.3303 33.4325 34.2435 32.1084 33.4885 31.4925L33.3221 31.461C33.0873 31.6793 32.8235 31.8638 32.5381 32.009L34.9213 34.8826L34.7139 35.0669L32.2776 32.3C32.2318 32.3485 32.1763 32.3994 32.116 32.4528C31.8788 32.918 31.5811 33.3494 31.2307 33.7356C31.7461 33.8478 32.2066 34.1367 32.5333 34.5528C33.2569 35.4622 32.3331 36.2503 32.3307 36.2648L32.2583 36.1945C32.2583 36.1945 32.9988 35.4476 32.3765 34.6789C32.0531 34.2649 31.5846 33.9907 31.0667 33.9126C30.8509 34.137 30.6213 34.3475 30.3793 34.5431C30.5973 34.8582 30.7801 35.1965 30.9244 35.5519C31.0286 35.8325 31.0801 36.1302 31.0764 36.4297C31.045 37.4894 30.0826 37.8362 29.1467 37.8071C28.8781 37.7966 28.6117 37.7543 28.3531 37.681C28.5051 38.3863 28.5498 39.1107 28.4857 39.8295C28.2445 42.7394 25.7793 42.5406 25.7721 42.5406C25.7721 42.5406 28.0757 42.3708 28.2855 39.8125C28.3503 39.0695 28.2842 38.3209 28.0901 37.601C27.6642 37.4474 27.2546 37.2516 26.8672 37.0165C26.777 37.1747 26.6443 37.304 26.4843 37.3898C26.3243 37.4756 26.1435 37.5143 25.9627 37.5015C25.8604 37.499 25.759 37.4827 25.6611 37.453C25.5313 37.4812 25.3968 37.4795 25.2677 37.448C25.1386 37.4165 25.0183 37.356 24.9158 37.2712C24.7199 37.1354 24.5444 36.9721 24.3948 36.7862C23.9968 37.3754 23.5843 37.972 23.1646 38.5588C23.1177 39.7554 22.9888 40.9472 22.7786 42.1259L22.4868 42.3199ZM30.0657 17.7721C29.9224 18.0168 29.7302 18.229 29.5012 18.3953C29.5423 18.4681 29.5784 18.5408 29.6122 18.6087C29.8405 18.7092 30.0614 18.8259 30.2731 18.9579C30.3672 19.0161 30.4589 19.0743 30.5457 19.135L30.963 18.7494C30.7443 18.3576 30.4389 18.0216 30.0705 17.7673L30.0657 17.7721ZM28.0395 18.4657C27.7332 18.4196 27.4196 18.3541 27.1325 18.2887C27.2436 18.3878 27.3484 18.4939 27.4461 18.6063C27.4968 18.6063 27.8369 18.4802 28.0395 18.4657ZM29.1973 34.0436H29.26L29.2407 34.0193L29.1973 34.0411V34.0436ZM29.4602 34.0436H29.5808C29.5519 33.9951 29.5181 33.9466 29.4844 33.8932C29.4517 33.9167 29.4179 33.9386 29.3831 33.9587C29.4096 33.9902 29.4361 34.0217 29.4602 34.0557V34.0436ZM29.7545 34.0072H29.7907C29.7207 33.915 29.6604 33.8423 29.6194 33.7914C29.6701 33.869 29.7159 33.9441 29.7569 34.012L29.7545 34.0072ZM29.9644 33.9587C30.1645 33.9032 30.3538 33.8139 30.524 33.6944C30.6333 33.6135 30.7322 33.5327 30.8207 33.4519C30.9244 33.3185 31.0161 33.1851 31.1029 33.0518C31.0209 33.0809 30.9365 33.1075 30.8496 33.1318L30.7604 33.156L30.7218 33.19C30.4445 33.4331 30.1138 33.6068 29.7569 33.6968C29.8076 33.7574 29.8751 33.8423 29.9571 33.9393L29.9644 33.9587ZM29.7883 34.4025H29.7304L29.7835 34.4801L29.8148 34.4558L29.7883 34.3928V34.4025ZM29.5471 34.434C29.0969 34.4637 28.6448 34.4253 28.2059 34.32C27.8525 34.3475 27.4971 34.3263 27.1494 34.257C26.831 34.3346 26.4716 34.4122 26.1267 34.4995C26.6091 34.965 27.7283 35.855 29.3541 34.8026C29.4586 34.7379 29.5575 34.67 29.6508 34.5989L29.5471 34.4461V34.434ZM16.5505 30.1539C16.5584 30.1208 16.5689 30.0884 16.5819 30.0569C16.6211 29.9467 16.6875 29.8482 16.7748 29.7708C16.6563 29.4011 16.5564 29.0255 16.4757 28.6456C16.4104 28.337 16.3661 28.0243 16.3431 27.7096C16.2249 28.3134 16.1429 29.184 16.4323 29.9042C16.4676 29.987 16.507 30.0679 16.5505 30.1467V30.1539ZM16.9365 30.2485C16.8983 30.3856 16.8844 30.5285 16.8955 30.6705C17.007 30.802 17.1288 30.9245 17.2597 31.0366C17.1994 30.9105 17.1415 30.7796 17.086 30.6462H17.0498C17.0498 30.6462 17.0354 30.5832 17.0209 30.4765C17.0064 30.3698 16.9606 30.3188 16.9292 30.234L16.9365 30.2485ZM22.0164 20.7015C22.0448 20.7438 22.0877 20.774 22.137 20.7864C22.2119 20.8051 22.2898 20.8085 22.366 20.7964C22.4423 20.7844 22.5153 20.757 22.5808 20.716C22.5808 20.716 22.5808 21.0046 22.3396 21.0385C22.2336 21.0488 22.1265 21.0398 22.0236 21.0119C22.0326 21.0874 22.0479 21.1621 22.0695 21.235C22.2793 21.218 22.4675 21.2107 22.6267 21.2107C22.658 21.0022 22.6894 20.7791 22.7183 20.5584C22.535 20.4663 22.3396 20.3741 22.1346 20.2941C22.0789 20.424 22.0415 20.5611 22.0236 20.7015H22.0164ZM20.6318 21.0676C20.5565 20.6956 20.5162 20.3173 20.5112 19.9376H20.4944C20.0815 20.4803 19.8838 21.1578 19.9396 21.8388L20.0939 21.7539C20.3696 21.6103 20.6599 21.4973 20.9599 21.4168C20.769 20.976 20.7283 20.4841 20.8441 20.0176C20.7937 20.0949 20.7494 20.176 20.7114 20.2601C20.6286 20.5173 20.6015 20.7893 20.6318 21.0579V21.0676ZM22.1129 19.5399C22.2263 19.4041 22.3686 19.2417 22.535 19.0768C22.184 19.07 21.8358 19.1404 21.5147 19.2829C21.587 19.3047 21.657 19.3314 21.7294 19.3581C21.858 19.4114 21.9859 19.472 22.1129 19.5399ZM22.8245 19.3556C22.687 19.4939 22.564 19.6321 22.4627 19.7509C22.5688 19.8212 22.6749 19.8964 22.7786 19.9764C22.8003 19.7751 22.8148 19.586 22.8221 19.4211V19.3556H22.8245ZM29.0647 18.8706C28.9304 18.8513 28.795 18.8408 28.6594 18.8391C28.8235 18.8934 28.9845 18.9565 29.1418 19.0283C29.1201 18.9773 29.096 18.9264 29.0695 18.8706H29.0647ZM28.8837 20.4517C28.9133 20.2104 28.9206 19.9669 28.9054 19.7242C28.6365 19.6905 28.366 19.6711 28.095 19.666C28.2263 19.9963 28.3162 20.3416 28.3627 20.6942C28.5171 20.6263 28.698 20.539 28.8837 20.4517V20.4517ZM30.331 33.2409L30.208 33.2555L30.0922 33.367C30.1742 33.3282 30.2538 33.287 30.3334 33.2409H30.331ZM31.361 32.0284C31.486 31.9458 31.6024 31.8508 31.7083 31.7447C31.77 31.5407 31.812 31.3312 31.8338 31.1191L31.7735 31.1045C31.6963 31.2597 31.5757 31.4852 31.4068 31.7544C31.3968 31.8466 31.3815 31.9381 31.361 32.0284ZM26.5922 35.9083C26.5559 36.0816 26.5092 36.2525 26.4523 36.42C26.5464 36.4879 26.6429 36.5534 26.7418 36.6213C26.8168 36.3863 26.8535 36.1406 26.8503 35.8938L26.5922 35.9083ZM26.351 36.6674C26.2721 36.8624 26.1612 37.0427 26.023 37.2008C26.1426 37.2025 26.2606 37.1732 26.3657 37.1159C26.4709 37.0586 26.5597 36.9751 26.6236 36.8735C26.5295 36.8129 26.4378 36.7522 26.3486 36.6892L26.351 36.6674ZM24.2428 36.5655C24.1713 36.4607 24.1053 36.3523 24.045 36.2406C23.8713 36.2212 23.647 36.1921 23.3961 36.1508L23.2369 36.3667C23.2369 36.9365 23.2128 37.5185 23.1863 38.0981C23.5481 37.5913 23.9099 37.0772 24.2428 36.5655V36.5655ZM23.8906 35.9035C23.8665 35.8429 23.8448 35.7871 23.8279 35.7338L23.6952 35.7556L23.6156 35.8647L23.8906 35.9035ZM21.8138 35.0208C21.7271 35.1072 21.6353 35.1882 21.5388 35.2633L21.5678 35.2779C21.656 35.2053 21.7368 35.124 21.809 35.0354L21.8138 35.0208ZM20.8489 34.7783C21.0353 34.7474 21.2056 34.6533 21.3314 34.5116C21.4011 34.4359 21.4648 34.3548 21.5219 34.2691C21.151 34.0981 20.7986 33.8893 20.4702 33.6459C20.3352 33.8035 20.1952 33.966 20.0529 34.1309C20.3424 34.3734 20.615 34.594 20.8538 34.7783H20.8489ZM19.5319 34.7638L19.462 34.8535C19.3115 35.0429 19.1505 35.2234 18.9795 35.3943C19.3203 35.5453 19.684 35.6372 20.0553 35.6659C20.4679 35.7137 20.8856 35.6448 21.2614 35.467L21.1553 35.4185C20.5769 35.296 20.0237 35.0745 19.5199 34.7638H19.5319ZM15.8462 29.0045C15.8233 28.4705 15.8745 27.936 15.9981 27.4162C15.8192 27.8524 15.7576 28.3283 15.8196 28.796C15.8196 28.8639 15.8365 28.9318 15.8462 28.9997V29.0045ZM25.3693 18.1747C24.7608 18.1444 24.1616 18.3345 23.6808 18.7106C23.7363 18.7324 23.7917 18.7591 23.8496 18.7858C24.1193 18.9105 24.3695 19.0739 24.5926 19.2708C25.0747 18.964 25.6125 18.7563 26.1749 18.6597C25.9304 18.4657 25.6631 18.3028 25.3789 18.1747H25.3693ZM23.3913 18.4172C23.7059 18.1758 24.0603 17.992 24.4382 17.874C24.0639 17.8015 23.6832 17.7682 23.3021 17.7746C23.3334 17.9467 23.3648 18.165 23.3913 18.4172V18.4172ZM35.2276 23.0076C35.049 23.0042 34.8742 23.0605 34.7307 23.1677C34.881 23.4161 34.9955 23.6847 35.0709 23.9655C35.2228 23.786 35.3796 23.609 35.534 23.4489C35.441 23.2956 35.3387 23.1482 35.2276 23.0076V23.0076ZM34.3159 23.6648C34.1064 24.1389 33.9713 24.6428 33.9154 25.1585C33.9154 25.2313 33.9154 25.304 33.9154 25.3768C33.9154 25.4495 33.9154 25.4811 33.9154 25.532C34.0939 25.2677 34.3255 24.9379 34.5836 24.5984C34.5619 24.2748 34.4801 23.9581 34.3424 23.6648H34.3159ZM33.7369 24.0673C33.8165 23.788 33.9325 23.5206 34.0819 23.2719C33.5367 22.4935 32.6346 21.9673 31.8241 21.6278C31.8579 21.7127 31.8893 21.8 31.9206 21.8946C32.7589 22.389 33.4008 23.1602 33.7369 24.077V24.0673ZM34.504 22.833C34.6261 22.747 34.7625 22.6838 34.9068 22.6463C33.9203 21.6157 32.5188 20.9731 31.6432 20.6457L31.5926 20.8882C32.5333 21.235 33.7635 21.8436 34.504 22.8282V22.833ZM36.0647 26.873C36.2699 26.8204 36.4619 26.7251 36.6282 26.593C36.7944 26.461 36.9311 26.2953 37.0295 26.1067L37.0536 26.1212C37.2363 25.5499 37.3179 24.9507 37.2948 24.351C37.1253 24.59 36.9357 24.814 36.728 25.0203L36.6532 25.1804C36.6755 25.4887 36.6348 25.7984 36.5336 26.0903C36.4324 26.3822 36.2728 26.6503 36.0647 26.8778V26.873ZM36.5929 27.0015C36.2868 27.1658 35.946 27.2539 35.5991 27.2585C35.1337 27.539 34.6197 27.7282 34.0843 27.8163V27.8502L34.1374 27.9569C34.7067 28.0922 35.3053 28.0191 35.8259 27.7508C36.0956 27.5573 36.3389 27.329 36.5495 27.0718C36.5688 27.0476 36.5881 27.0258 36.605 27.0015H36.5929ZM32.9554 29.1282C33.1212 29.0636 33.2698 28.9612 33.3895 28.8291C33.5092 28.697 33.5968 28.5387 33.6453 28.3667C33.6016 28.2407 33.5433 28.1202 33.4716 28.0079L33.3703 28.0806C33.2981 28.4527 33.1574 28.808 32.9554 29.1282V29.1282ZM33.7201 26.9845C33.6975 26.8614 33.6669 26.7399 33.6284 26.6208C33.5684 26.7724 33.4999 26.9206 33.4234 27.0646L33.5392 27.1737C33.5995 27.1179 33.6598 27.0573 33.7176 26.9942L33.7201 26.9845ZM33.8286 26.2401C33.8871 26.3863 33.9363 26.5361 33.9757 26.6887C34.0852 26.5357 34.1812 26.3734 34.2628 26.2037C34.1084 26.2255 33.9613 26.2401 33.8214 26.2522L33.8286 26.2401ZM33.749 28.8833C33.6411 29.0539 33.4969 29.1984 33.3267 29.3062C33.1565 29.4139 32.9646 29.4824 32.7649 29.5065C32.7672 29.5355 32.7672 29.5647 32.7649 29.5938H33.6911C33.7402 29.3653 33.7565 29.1309 33.7394 28.8978L33.749 28.8833ZM35.0757 28.1558C34.7865 28.197 34.4928 28.1929 34.2049 28.1437C34.2325 28.2174 34.2559 28.2927 34.2749 28.3692C34.5496 28.3371 34.8188 28.2686 35.0757 28.1655V28.1558ZM30.0102 34.8292C30.0267 34.8479 30.0391 34.8699 30.0466 34.8937C30.0541 34.9175 30.0565 34.9427 30.0536 34.9675C30.0826 35.0523 30.0536 35.0572 29.962 34.9869C29.9287 34.9758 29.8983 34.9576 29.8727 34.9335C29.7738 35.0038 29.6701 35.0717 29.564 35.1396C28.9756 35.5246 28.3071 35.7685 27.6101 35.8526C27.9168 36.3327 28.1448 36.8591 28.2855 37.4118C28.5586 37.4966 28.8417 37.5447 29.1274 37.5549C29.9885 37.5719 30.8834 37.4918 30.9148 36.4346C30.919 36.1556 30.8707 35.8783 30.7724 35.6174C30.6346 35.2763 30.4607 34.9511 30.2538 34.6474C30.1742 34.7104 30.0898 34.771 30.0126 34.8341L30.0102 34.8292ZM27.2869 35.8817L27.1205 35.8986C27.1245 36.2015 27.0755 36.5028 26.9757 36.7886C27.3019 36.9912 27.6459 37.1633 28.0033 37.3027C27.8373 36.794 27.5931 36.3145 27.2797 35.8817H27.2869ZM23.3069 35.7798L23.2442 35.695V35.8089H23.2828L23.3093 35.7726L23.3069 35.7798ZM24.3031 34.902C24.482 35.0343 24.6963 35.1095 24.9182 35.1178C25.0877 35.0935 25.2423 35.0072 25.3524 34.8753L25.5261 34.6037C25.1642 34.674 24.8531 34.7298 24.6649 34.7541C24.5733 34.7541 24.4792 34.7783 24.3851 34.7856L24.3031 34.902V34.902ZM21.1263 32.8941C21.2995 33.0859 21.4928 33.2582 21.7028 33.4082C21.9434 33.2004 22.1255 32.9329 22.2311 32.6322L21.8379 32.1472C21.6208 32.3679 21.382 32.6177 21.1143 32.8966L21.1263 32.8941ZM22.3324 33.6968C22.4502 33.7241 22.5727 33.7236 22.6902 33.6954C22.8078 33.6672 22.9173 33.6121 23.0102 33.5343C23.0102 33.1827 23.0102 32.8626 23.0102 32.5886L22.8824 32.6638C22.7794 33.0476 22.5877 33.4016 22.3227 33.6968H22.3324ZM23.2466 33.3258C23.3801 33.1987 23.4983 33.0562 23.5988 32.9014L23.2562 32.4382L23.2345 32.4504V33.3258H23.2466ZM23.7001 34.0096C23.8448 34.0387 24.1825 34.1066 24.525 34.1551L24.9737 33.5367C24.7464 33.4419 24.5277 33.3275 24.32 33.1948L23.9582 33.6798C23.8713 33.7914 23.7869 33.9029 23.7001 34.012V34.0096ZM24.8097 34.1915C24.945 34.207 25.0813 34.2118 25.2173 34.206C25.2574 34.2092 25.2978 34.2092 25.3379 34.206C25.4424 34.1769 25.5437 34.1454 25.6418 34.1115C25.7439 34.0669 25.8424 34.0142 25.9361 33.9538L25.9723 33.8932C25.8613 33.8423 25.7866 33.8035 25.7576 33.7889C25.564 33.7529 25.3736 33.701 25.1884 33.6337C25.0605 33.818 24.9303 34.0096 24.7952 34.2012L24.8097 34.1915ZM21.4785 22.4402L21.6039 23.2938L21.4303 23.4489C21.3048 23.4126 21.1697 23.3738 21.0274 23.3374C20.8851 23.301 20.6946 23.255 20.545 23.2259C20.7177 22.9955 20.9272 22.7956 21.1649 22.6342C21.2686 22.5629 21.3766 22.4982 21.4882 22.4402H21.4785ZM25.4175 20.5754C25.7383 20.539 26.2666 20.4881 26.8648 20.459C27.0819 20.459 27.2628 20.459 27.4148 20.459C27.3199 20.1975 27.2003 19.9458 27.0578 19.7072C26.4314 19.7307 25.8158 19.8782 25.2462 20.1413C25.3158 20.2802 25.3763 20.4236 25.4272 20.5705L25.4175 20.5754ZM27.4582 20.6118C27.3038 20.6118 27.1084 20.6118 26.8624 20.6118C26.5295 20.6287 26.2159 20.6506 25.9506 20.6748C26.5874 20.7136 27.1084 20.83 27.5281 20.8543C27.5112 20.7767 27.4871 20.6918 27.4582 20.6118ZM16.77 27.3216C16.7982 27.3859 16.8033 27.4581 16.7844 27.5258C16.7654 27.5935 16.7237 27.6525 16.6663 27.6926C16.6879 27.9902 16.7298 28.2859 16.7917 28.5777C16.8689 28.9366 16.9582 29.2737 17.0571 29.5962C17.1367 29.1902 17.332 28.8161 17.6191 28.5195C17.4427 28.1195 17.2889 27.7099 17.1584 27.2925C16.7387 27.2367 16.7797 27.3216 16.7797 27.3216H16.77ZM16.688 26.7687C16.7874 26.7493 16.8883 26.7388 16.9895 26.7372L16.9437 26.5602C16.8713 26.6062 16.7845 26.6644 16.7025 26.7323V26.7687H16.688ZM17.7204 26.7978C17.911 26.8293 18.1232 26.873 18.3596 26.9312C18.2663 26.4839 18.2606 26.0227 18.3427 25.5732C18.433 25.1048 18.6903 24.6857 19.0664 24.3947C19.0352 24.304 19.0086 24.2117 18.9868 24.1182C18.5914 24.442 18.2732 24.8508 18.0557 25.3145C17.8382 25.7783 17.7269 26.2851 17.7301 26.7978H17.7204ZM18.7962 27.0403C18.8806 27.0646 18.9627 27.0888 19.0374 27.1155C19.0063 26.6145 19.1175 26.1149 19.3582 25.6751C19.425 25.5452 19.5059 25.4232 19.5995 25.3113C19.5784 25.0446 19.5849 24.7764 19.6188 24.5111L19.503 24.5717C19.3046 24.6833 19.1331 24.8374 19.0005 25.023C18.868 25.2087 18.7777 25.4213 18.7359 25.646C18.6554 26.1095 18.6752 26.5851 18.7938 27.0403H18.7962ZM19.1026 27.7678L18.994 27.7314L19.0133 27.7872L19.1026 27.7678ZM18.5261 27.5908L18.3427 27.552C18.1184 27.4938 17.9254 27.4453 17.7614 27.4089C17.7614 27.501 17.7855 27.5956 17.8024 27.6902C17.87 27.8745 17.9399 28.0467 18.0074 28.2043C18.1998 28.0775 18.4072 27.9757 18.625 27.9012C18.5888 27.7969 18.555 27.695 18.5261 27.5956V27.5908ZM21.903 35.7629V35.8598L21.9682 35.7847L21.9127 35.7629H21.903ZM37.799 23.1192C37.7724 23.1531 37.7435 23.1895 37.717 23.2307C37.6349 23.3471 37.5545 23.4683 37.4757 23.5944C37.4757 23.6357 37.4757 23.6817 37.4926 23.7278C37.6045 23.5304 37.7059 23.3273 37.7966 23.1192H37.799ZM37.2731 23.9461C37.1718 24.1231 37.0753 24.305 36.9861 24.4796C37.0946 24.3462 37.1935 24.208 37.2828 24.0746V23.9461H37.2731ZM36.6267 24.8481C36.7979 24.4917 37.0078 24.077 37.2394 23.6842C37.2152 23.495 37.1911 23.3738 37.1863 23.3495C37.056 22.6608 36.6146 22.7724 36.0864 23.2234C36.3813 23.7211 36.5656 24.277 36.6267 24.853V24.8481ZM18.5839 31.7205C18.8118 31.3846 19.1047 31.0984 19.4451 30.879C19.0349 30.5442 18.665 30.1626 18.3427 29.7417C18.0323 30.0991 17.8753 30.5656 17.9061 31.039C18.0994 31.2968 18.3275 31.5262 18.5839 31.7205V31.7205ZM19.5657 31.0536C19.2442 31.2571 18.9682 31.5254 18.7552 31.8417C18.9322 31.9518 19.1168 32.049 19.3076 32.1327L19.3944 32.0697C19.3944 32.0042 19.4185 31.8926 19.4403 31.6986C19.4678 31.4811 19.5097 31.2656 19.5657 31.0536V31.0536ZM23.4251 19.278C23.4251 19.3362 23.4251 19.3944 23.4251 19.4551C23.4251 19.6975 23.3865 20.0079 23.3503 20.3232C23.5739 20.08 23.8158 19.8546 24.074 19.649C23.925 19.5294 23.7632 19.427 23.5915 19.3435L23.4396 19.278H23.4251ZM23.2466 21.0773C23.2152 21.2956 23.1839 21.5066 23.1525 21.6957C23.2608 21.5674 23.3768 21.446 23.4999 21.332L23.2587 21.0773H23.2466ZM22.7907 18.4851C22.7666 18.2426 22.7352 18.0389 22.7063 17.8788C22.394 18.0748 22.0965 18.2936 21.8162 18.5336C22.1334 18.4674 22.4589 18.451 22.7811 18.4851H22.7907ZM34.1567 21.2519C34.656 20.9648 35.1124 20.608 35.5123 20.1922C35.3503 20.1443 35.1801 20.1319 35.013 20.1559C34.7896 20.1825 34.5697 20.2329 34.3569 20.3062C34.1716 20.5436 34.0047 20.7949 33.8576 21.0579C33.9589 21.121 34.0578 21.184 34.1567 21.2519V21.2519ZM33.7201 20.9731C33.8311 20.7779 33.9518 20.5885 34.0819 20.4056C33.8276 20.5063 33.5802 20.6238 33.3414 20.7573C33.4668 20.8252 33.5826 20.8979 33.7201 20.9731ZM36.0212 25.5805C35.7026 25.7913 35.3536 25.9516 34.9864 26.0558C34.8512 26.4493 34.6487 26.8161 34.3882 27.1397C35.2349 26.8972 35.8886 26.4341 36.0236 25.5926L36.0212 25.5805ZM33.1267 26.2425C33.0061 26.2425 32.8855 26.2304 32.7842 26.2207C32.8728 26.3113 32.9535 26.4095 33.0254 26.5141C33.064 26.4268 33.1001 26.3371 33.1315 26.2425H33.1267ZM32.5743 26.0461C32.7692 26.0759 32.9658 26.0929 33.1629 26.097C33.2367 25.8534 33.2821 25.6019 33.2979 25.3477C33.3184 24.8693 33.2269 24.3929 33.0308 23.9565C32.8348 23.5202 32.5396 23.1362 32.1691 22.8354C32.2413 23.1675 32.2761 23.5067 32.2728 23.8466C32.3228 24.23 32.343 24.6168 32.3331 25.0033C32.3331 25.3016 32.3138 25.5805 32.2993 25.8375C32.397 25.9009 32.4904 25.9706 32.5791 26.0461H32.5743ZM33.8069 26.0776C33.9733 26.0776 34.1518 26.0461 34.34 26.017C34.4767 25.6915 34.5543 25.3441 34.5691 24.9912C34.2338 25.4544 33.9564 25.8715 33.8165 26.0873L33.8069 26.0776ZM35.0347 25.8715C35.3904 25.7624 35.7272 25.5988 36.0333 25.3865C36.0333 25.3259 36.0333 25.2652 36.0333 25.1998C36.0195 24.661 35.8808 24.1328 35.6281 23.6575C35.4568 23.8418 35.2831 24.0455 35.1143 24.2565C35.1336 24.3607 35.1456 24.4699 35.1553 24.5814C35.1894 25.0169 35.1478 25.4552 35.0323 25.8763L35.0347 25.8715ZM32.1401 24.7269C32.0501 25.0241 31.8979 25.2986 31.6939 25.532C31.8372 25.5853 31.9766 25.6485 32.1112 25.7211C32.1232 25.4956 32.1329 25.2555 32.1401 24.9936C32.1401 24.9039 32.1401 24.8118 32.1401 24.722V24.7269ZM31.2717 24.7051L31.3369 24.836C31.3538 24.87 31.3706 24.9015 31.3851 24.9354C31.5288 24.5664 31.5491 24.1604 31.443 23.7787C31.2573 22.9155 30.8231 23.6187 30.8231 23.6187C31.0495 23.947 31.2018 24.3211 31.2693 24.7148L31.2717 24.7051ZM31.677 25.9612C31.737 26.4204 31.7231 26.8862 31.636 27.341L31.9616 27.358C32.0026 27.0621 32.046 26.6644 32.0822 26.1746C31.9533 26.0923 31.8177 26.0209 31.677 25.9612V25.9612ZM20.3882 22.7797C20.552 22.596 20.7375 22.4331 20.9406 22.2947C21.2035 22.1122 21.4911 21.9685 21.7945 21.8679C21.6739 21.8824 21.5533 21.9043 21.4182 21.9309L21.3989 21.96L21.37 21.9406C21.0243 22.0131 20.6901 22.1322 20.3762 22.2947C20.2507 22.3601 20.1349 22.4256 20.0409 22.4887C20.1591 22.5808 20.2821 22.6875 20.3882 22.7748V22.7797ZM19.7176 25.8739C19.5128 26.2436 19.4159 26.6638 19.4378 27.0864C19.5561 26.6973 19.7112 26.3205 19.901 25.9612C20.0816 25.6175 20.3323 25.3159 20.6367 25.0761C20.2414 25.2229 19.9141 25.5113 19.7176 25.886V25.8739ZM17.8072 28.9293C17.6363 29.1619 17.5161 29.4282 17.4546 29.7106C17.3931 29.9931 17.3916 30.2855 17.4502 30.5686H17.4141C17.4647 30.6874 17.5178 30.8111 17.5709 30.9202C17.5615 30.379 17.7652 29.8561 18.1377 29.4653C18.0167 29.2911 17.9063 29.1097 17.8072 28.9221V28.9293ZM18.4633 21.429C18.3728 21.2987 18.2737 21.1748 18.1666 21.0579C17.7305 21.5894 17.427 22.2179 17.2814 22.8912C17.7605 22.869 18.2393 22.9423 18.6901 23.107C18.7275 23.016 18.7727 22.9284 18.8252 22.8451C18.6073 22.4037 18.484 21.9213 18.4633 21.429V21.429ZM28.3748 17.1417L28.4496 17.0544C28.3507 17.0277 28.2445 17.0059 28.136 16.984C28.2204 17.035 28.3 17.0883 28.3772 17.1417H28.3748ZM32.2728 26.3104C32.2414 26.7372 32.2004 27.0888 32.1642 27.3604C32.2824 27.3604 32.4054 27.3604 32.5188 27.3604C32.6201 27.2269 32.7135 27.0877 32.7986 26.9433C32.6691 26.6964 32.4901 26.4793 32.2728 26.3055V26.3104ZM32.0919 29.5986L32.1522 29.5332C32.1243 29.2834 32.0626 29.0386 31.9689 28.8057H31.9351C31.8314 28.893 31.7276 28.973 31.6287 29.0482C31.6242 29.16 31.6299 29.272 31.6456 29.3828C31.6456 29.4434 31.6625 29.5065 31.6698 29.572L32.0919 29.5986ZM33.5802 30.006H32.7697C32.7515 30.2298 32.7061 30.4505 32.6346 30.6632C32.7866 30.7117 32.9482 30.7626 33.117 30.8111C33.3255 30.5738 33.489 30.3001 33.5995 30.0036L33.5802 30.006ZM32.6394 28.8711C32.7351 28.7176 32.8159 28.5552 32.8806 28.3861C32.76 28.454 32.6394 28.5147 32.5381 28.5656C32.5767 28.6602 32.6129 28.7644 32.6467 28.8736L32.6394 28.8711ZM32.3451 31.2452C32.3191 31.2876 32.2901 31.3281 32.2583 31.3664L32.0171 31.1724L31.9303 31.153L32.1281 31.5192C32.2781 31.4592 32.4219 31.3844 32.5574 31.2961L32.3451 31.25V31.2452ZM19.8286 32.574L19.8672 32.6153C20.0371 32.7232 20.2406 32.7646 20.4389 32.7317C20.4389 32.7317 20.2604 32.5643 20.1325 32.4237C20.0135 32.2657 19.9109 32.0959 19.8262 31.9169C19.8262 31.9169 19.6694 32.3679 19.8262 32.574H19.8286ZM22.8799 34.691C22.728 34.6619 22.5712 34.628 22.3975 34.5867C22.2912 34.899 22.1164 35.1832 21.8862 35.4185C21.9826 35.4573 22.0815 35.4937 22.1804 35.5276C22.4048 35.2657 22.6411 34.9869 22.8799 34.691V34.691ZM16.688 34.0023C16.685 33.9882 16.6849 33.9735 16.688 33.9594C16.691 33.9452 16.697 33.9318 16.7055 33.9202C16.7141 33.9085 16.725 33.8989 16.7376 33.8918C16.7502 33.8847 16.7641 33.8805 16.7785 33.8792C16.7929 33.878 16.8073 33.8799 16.8209 33.8847C16.8345 33.8896 16.8469 33.8973 16.8573 33.9073C16.8676 33.9174 16.8758 33.9295 16.8811 33.943C16.8865 33.9564 16.8889 33.9709 16.8882 33.9854C16.8882 33.9854 17.1125 36.4928 18.5019 35.5276C17.8585 35.144 17.3411 34.5791 17.0136 33.9029C17.0027 33.8832 16.9959 33.8614 16.9938 33.8388C16.9917 33.8163 16.9943 33.7936 17.0014 33.7722C17.0085 33.7507 17.02 33.731 17.0351 33.7143C17.0503 33.6975 17.0687 33.6842 17.0893 33.675C17.1098 33.6659 17.1321 33.6611 17.1546 33.6611C17.1771 33.6611 17.1993 33.6658 17.2199 33.6749C17.2405 33.6841 17.2589 33.6974 17.2741 33.7141C17.2893 33.7308 17.3008 33.7505 17.3079 33.772C17.6255 34.4241 18.1373 34.9607 18.7721 35.307C18.9592 35.1315 19.1326 34.9418 19.2907 34.7395L19.3438 34.6716C19.061 34.4948 18.7954 34.2919 18.5502 34.0654C18.0123 33.5489 17.5797 32.932 17.2766 32.2491C16.9053 32.4814 16.6125 32.821 16.4365 33.2234C16.2605 33.6258 16.2094 34.0722 16.29 34.5043V34.5043C16.3422 35.0292 16.5671 35.5217 16.9292 35.9035C17.1898 36.1665 17.5208 36.3477 17.882 36.4249C18.2139 36.4984 18.5598 36.474 18.8782 36.3545C19.1145 36.267 19.3234 36.1181 19.4837 35.9229C19.2166 35.861 18.9576 35.7683 18.7118 35.6465C16.963 37.1014 16.6904 34.0169 16.688 34.0072V34.0023ZM19.5826 34.3831L19.6839 34.2545C18.9708 33.6189 18.3519 32.8839 17.8458 32.0721L17.7373 31.9969L17.6046 32.0575C17.889 32.7076 18.299 33.2945 18.8107 33.7841C19.0487 34.0051 19.3081 34.2017 19.585 34.3709L19.5826 34.3831ZM19.8841 33.9975L20.2145 33.5731L19.6598 33.7889C19.7345 33.8617 19.8093 33.932 19.8841 33.9975ZM20.9237 32.6468C21.1456 32.3534 21.3482 32.0842 21.5316 31.8369C21.3121 31.7035 20.9309 31.541 20.6487 31.815C20.3665 32.089 20.7139 32.4795 20.9237 32.6468ZM19.8407 34.3928L19.7611 34.4898C19.9372 34.5892 20.106 34.674 20.2652 34.7322C20.1277 34.6231 19.9878 34.5067 19.8407 34.3806V34.3928ZM23.0126 34.8777C22.8028 35.1202 22.5977 35.3773 22.3999 35.6052C22.6026 35.6659 22.8052 35.7168 23.003 35.7604C23.003 35.4573 23.003 35.1615 23.003 34.8753L23.0126 34.8777ZM19.105 22.4862C19.1885 22.4002 19.2771 22.3192 19.3703 22.2437C19.2602 21.4908 19.3779 20.7219 19.708 20.037C19.6178 20.0586 19.5292 20.0862 19.4427 20.1195C18.5936 20.8615 18.8734 21.9382 19.105 22.4935V22.4862ZM21.2759 21.3465C21.4037 21.3198 21.5316 21.298 21.6546 21.2786C21.5614 20.9046 21.5928 20.5102 21.7438 20.1559C21.5568 20.0966 21.3668 20.0472 21.1746 20.0079C21.0393 20.4537 21.0764 20.9343 21.2783 21.3538L21.2759 21.3465ZM18.5454 23.398C18.1192 23.2477 17.6667 23.1875 17.2163 23.221C17.1728 23.4793 17.1462 23.7401 17.1367 24.0018C17.1367 24.2274 17.1367 24.4529 17.1367 24.676C17.5106 24.1569 17.9879 23.7217 18.5381 23.398H18.5454ZM15.014 25.1707C15.0352 25.2757 15.0676 25.3781 15.1105 25.4762C15.157 25.5819 15.2179 25.6807 15.2914 25.7696C15.4027 25.9202 15.5618 26.0281 15.7425 26.0752V26.0752C15.7874 26.0877 15.835 26.0877 15.8799 26.0752C15.9088 26.0623 15.9326 26.0401 15.9475 26.0121C15.9779 25.9267 15.9779 25.8333 15.9475 25.7478C15.8944 25.5296 15.5519 25.3307 15.1853 25.2216C15.1274 25.2046 15.0671 25.1901 15.0092 25.1779L15.014 25.1707ZM14.8162 25.6096C14.748 25.4555 14.7033 25.292 14.6835 25.1246C14.5863 25.1193 14.4893 25.1385 14.4013 25.1804V25.1804C14.3793 25.1905 14.3605 25.2065 14.3469 25.2265C14.3333 25.2466 14.3254 25.2701 14.3241 25.2943C14.3097 25.5805 14.6184 25.6702 14.862 25.6945C14.8451 25.6629 14.8307 25.6338 14.8162 25.5999V25.6096ZM24.87 19.5715C24.9303 19.6466 24.9882 19.7218 25.0412 19.7994C25.5926 19.5324 26.1876 19.3681 26.7972 19.3144C26.7225 19.2174 26.6405 19.1228 26.556 19.0283L26.3944 19.0452C25.856 19.1131 25.3376 19.2931 24.8724 19.5739L24.87 19.5715ZM24.841 20.7209C24.8097 20.636 24.7711 20.5487 24.7276 20.459C24.5929 20.5585 24.4684 20.6714 24.3562 20.7961C24.4864 20.7718 24.6505 20.7451 24.8386 20.7209H24.841ZM27.8948 19.2489C28.136 19.2489 28.3579 19.2489 28.5653 19.2368C28.3085 19.1509 28.0445 19.0884 27.7766 19.0501C27.8176 19.1156 27.8586 19.1835 27.8948 19.2489ZM36.9354 31.9072C36.9055 31.9833 36.8556 32.0499 36.791 32.0999C36.7265 32.1499 36.6497 32.1813 36.5688 32.1909C36.3975 32.1909 36.2552 32.026 36.1587 31.8684C36.4241 31.8902 36.687 31.9023 36.9354 31.9072ZM16.8327 26.0509C16.811 26.1285 16.7893 26.2061 16.77 26.2934L16.8689 26.2328L16.8327 26.0582V26.0509ZM15.6267 29.5404C15.565 29.3075 15.5223 29.0698 15.4988 28.8299C15.4796 28.6064 15.4796 28.3817 15.4988 28.1582C15.3947 28.4413 15.3738 28.7486 15.4385 29.0433C15.4814 29.217 15.5471 29.3842 15.6339 29.5404H15.6267ZM31.0643 28.7256C31.1511 28.665 31.2452 28.5995 31.3417 28.5268C31.3578 28.4923 31.3684 28.4555 31.3731 28.4177C31.3804 28.3295 31.3587 28.2413 31.3111 28.1667C31.2636 28.0922 31.193 28.0355 31.1101 28.0054C31.1261 28.217 31.0964 28.4296 31.0233 28.6286C30.9895 28.6917 31.0088 28.7232 31.0547 28.7256H31.0643ZM21.136 30.1927C21.3596 30.2045 21.5838 30.1841 21.8017 30.1321C21.8017 30.1321 21.7245 30.3746 21.5388 30.3746C21.3874 30.3599 21.2454 30.2941 21.136 30.1879V30.1927ZM28.9223 32.0503C29.0711 32.0988 29.2309 32.1017 29.3813 32.0585C29.5316 32.0153 29.6658 31.928 29.7666 31.8078C29.882 31.6778 29.9643 31.5217 30.0063 31.3527C30.0483 31.1837 30.0488 31.007 30.0078 30.8378C29.9083 31.1333 29.7347 31.3981 29.5037 31.6065C29.3276 31.7723 29.1361 31.9209 28.932 32.0503H28.9223ZM28.8234 31.2961C28.9068 31.3165 28.9937 31.3172 29.0774 31.2983C29.161 31.2793 29.2392 31.2413 29.3059 31.187C29.3795 31.1266 29.4321 31.0442 29.456 30.9518C29.4799 30.8593 29.4737 30.7616 29.4385 30.6729L28.8234 31.2961ZM30.0295 32.2661C30.1422 32.2227 30.2439 32.1548 30.3274 32.0672C30.4108 31.9795 30.4738 31.8744 30.5119 31.7593C30.5817 31.5673 30.6184 31.3647 30.6205 31.1603C30.6205 31.1603 30.9365 31.6453 30.7363 31.9387C30.536 32.2321 30.0126 32.2661 30.0126 32.2661H30.0295ZM30.3768 25.2822C30.3768 25.2822 30.4637 25.5393 30.6181 25.5781C30.6969 25.6006 30.7804 25.6006 30.8593 25.5781C30.8593 25.5781 30.9196 25.9612 30.6446 25.8763C30.3696 25.7915 30.36 25.2919 30.36 25.2919L30.3768 25.2822ZM30.2056 24.3971C30.4289 24.6358 30.6173 24.9053 30.7652 25.1973C30.5821 25.1591 30.4114 25.0758 30.2683 24.9548C30.1067 24.7851 30.2056 24.3971 30.2056 24.3971V24.3971ZM30.4468 23.2671L29.6797 22.3529C29.6797 22.3529 30.1815 22.268 30.3817 22.5081C30.5819 22.7481 30.4275 23.2768 30.4275 23.2768L30.4468 23.2671ZM29.1732 23.1604C29.1753 22.9825 29.1405 22.8062 29.0712 22.6425C29.0018 22.4789 28.8994 22.3315 28.7704 22.2098C28.7172 22.1444 28.6507 22.0911 28.5754 22.0535C28.5001 22.016 28.4177 21.995 28.3336 21.992C28.2496 21.989 28.1659 22.0041 28.0882 22.0362C28.0104 22.0683 27.9404 22.1168 27.8827 22.1783C28.1719 22.2784 28.4449 22.4206 28.6932 22.6002C28.8656 22.7765 29.0267 22.9636 29.1756 23.1604H29.1732ZM20.6608 26.839C20.7253 26.6995 20.8134 26.5723 20.9213 26.4632C20.9213 26.4632 20.6584 26.4268 20.615 26.5553C20.5965 26.6524 20.6128 26.7528 20.6608 26.839V26.839ZM19.7249 29.5065C19.8725 29.5866 20.031 29.6446 20.1952 29.6786C20.3274 29.7019 20.4618 29.7092 20.5957 29.7005C20.5957 29.7005 20.0626 30.0133 19.8431 29.8411C19.6236 29.6689 19.7249 29.5065 19.7249 29.5065ZM20.9961 28.9778C20.9255 29.1694 20.8912 29.3725 20.8948 29.5768C20.8939 29.6698 20.9179 29.7614 20.9641 29.842C21.0103 29.9226 21.0772 29.9893 21.1577 30.0351C21.0393 29.6958 20.9845 29.3373 20.9961 28.9778V28.9778ZM23.6952 31.7811C23.9472 31.9623 24.2266 32.1015 24.5226 32.1933L24.7469 32.2491H24.9664C25.0544 32.2616 25.143 32.2688 25.2318 32.2709C25.1106 32.3488 24.9767 32.4046 24.8362 32.4358H24.566C24.4699 32.4354 24.3742 32.4223 24.2814 32.397C24.1397 32.3529 24.0115 32.2731 23.909 32.1654C23.8064 32.0576 23.7329 31.9254 23.6952 31.7811V31.7811ZM26.8768 33.3573C26.9522 33.4734 27.0539 33.5698 27.1735 33.6386C27.34 33.7162 27.1229 33.7817 26.9323 33.6653C26.907 33.65 26.8852 33.6295 26.8685 33.605C26.8518 33.5806 26.8405 33.5528 26.8355 33.5235C26.8305 33.4943 26.8318 33.4643 26.8393 33.4356C26.8469 33.4069 26.8605 33.3802 26.8793 33.3573H26.8768ZM27.1856 32.9572C27.1856 32.9572 27.8658 33.1342 28.3362 32.9087C28.5816 32.8059 28.8027 32.6522 28.985 32.4576C28.985 32.4576 28.5846 33.6095 28.1215 33.5949C27.6584 33.5804 27.1856 32.9572 27.1856 32.9572V32.9572Z" fill="white"/>
</g>
<rect x="0.5" y="0.59375" width="55" height="55" rx="27.5" stroke="white"/>
<defs>
<clipPath id="clip0">
<rect width="28" height="29" fill="white" transform="translate(14 13.5938)"/>
</clipPath>
</defs>
</svg>
