<svg width="25" height="25" viewBox="0 0 25 25" fill="none" xmlns="http://www.w3.org/2000/svg">
<g clip-path="url(#clip0)">
<path d="M23.0762 4.24951V10.2495H17.0762" stroke="black" stroke-width="2" stroke-linecap="round" stroke-linejoin="round"/>
<path d="M20.5661 15.2495C19.916 17.0894 18.6856 18.6682 17.0602 19.748C15.4348 20.8278 13.5025 21.3501 11.5545 21.2361C9.60643 21.1222 7.74821 20.3781 6.25981 19.1162C4.77141 17.8543 3.73348 16.1427 3.30242 14.2396C2.87136 12.3364 3.07053 10.3447 3.86991 8.56459C4.6693 6.78448 6.02559 5.31239 7.73441 4.37016C9.44322 3.42794 11.412 3.06663 13.344 3.34067C15.276 3.61471 17.0667 4.50926 18.4461 5.88953L23.0761 10.2495" stroke="black" stroke-width="2" stroke-linecap="round" stroke-linejoin="round"/>
</g>
<defs>
<clipPath id="clip0">
<rect width="24" height="24" fill="white" transform="translate(0.0761719 0.249512)"/>
</clipPath>
</defs>
</svg>
