<svg width="56" height="57" viewBox="0 0 56 57" fill="none" xmlns="http://www.w3.org/2000/svg">
<g clip-path="url(#clip0)">
<path d="M39.7861 33.4606C39.7216 33.3526 39.3225 32.4855 37.4024 30.7034C35.3923 28.8373 35.6623 29.1403 38.0834 25.9136C39.5581 23.9484 40.1476 22.7483 39.9631 22.2353C39.7876 21.7462 38.703 21.8753 38.703 21.8753L35.0967 21.8963C35.0967 21.8963 34.8297 21.8603 34.6302 21.9788C34.4367 22.0958 34.3122 22.3658 34.3122 22.3658C34.3122 22.3658 33.7406 23.8869 32.9786 25.18C31.372 27.9087 30.7284 28.0527 30.4659 27.8832C29.8553 27.4887 30.0084 26.2961 30.0084 25.45C30.0084 22.8053 30.4089 21.7027 29.2268 21.4177C28.8338 21.3232 28.5458 21.2602 27.5422 21.2497C26.2551 21.2362 25.1645 21.2542 24.548 21.5557C24.1369 21.7567 23.8204 22.2053 24.0139 22.2308C24.2524 22.2623 24.7925 22.3763 25.079 22.7663C25.4495 23.2689 25.436 24.3999 25.436 24.3999C25.436 24.3999 25.649 27.5127 24.9395 27.8997C24.452 28.1652 23.7844 27.6237 22.3518 25.147C21.6182 23.8794 21.0632 22.4768 21.0632 22.4768C21.0632 22.4768 20.9567 22.2158 20.7662 22.0763C20.5352 21.9068 20.2111 21.8528 20.2111 21.8528L16.7819 21.8738C16.7819 21.8738 16.2674 21.8888 16.0783 22.1123C15.9103 22.3118 16.0648 22.7228 16.0648 22.7228C16.0648 22.7228 18.75 29.0038 21.7893 32.1705C24.578 35.0732 27.7432 34.8827 27.7432 34.8827H29.1773C29.1773 34.8827 29.6108 34.8347 29.8313 34.5962C30.0354 34.3772 30.0279 33.9662 30.0279 33.9662C30.0279 33.9662 29.9994 32.0415 30.8934 31.758C31.774 31.479 32.9051 33.6181 34.1037 34.4417C35.0097 35.0642 35.6983 34.9277 35.6983 34.9277L38.904 34.8827C38.904 34.8827 40.5811 34.7792 39.7861 33.4606Z" fill="white"/>
</g>
<rect x="0.5" y="0.59375" width="55" height="55" rx="27.5" stroke="white"/>
<defs>
<clipPath id="clip0">
<rect width="24" height="24" fill="white" transform="translate(16 16.0938)"/>
</clipPath>
</defs>
</svg>
