<svg width="44" height="43" viewBox="0 0 44 43" fill="none" xmlns="http://www.w3.org/2000/svg">
<path d="M41.7087 32.9952H2.29199C2.68368 29.429 3.92878 26.0096 5.92191 23.0264C7.45393 20.658 9.51075 18.6741 11.9329 17.2286L12.6066 16.8416L9.28845 11.2516C9.23123 11.1577 9.19308 11.0535 9.17616 10.9449C9.15924 10.8362 9.16389 10.7254 9.18985 10.6185C9.21581 10.5117 9.26256 10.4111 9.32744 10.3223C9.39231 10.2336 9.47404 10.1585 9.56795 10.1013C9.75471 9.98971 9.97815 9.95682 10.1891 10.0099C10.4001 10.063 10.5814 10.1977 10.6931 10.3844V10.397L14.117 16.1446C16.6442 15.1352 19.3454 14.6329 22.0666 14.6665C24.7394 14.6347 27.3916 15.1373 29.8675 16.1446L33.2717 10.397C33.326 10.3037 33.3981 10.2221 33.484 10.1567C33.5698 10.0914 33.6677 10.0436 33.7721 10.0162C33.8764 9.9887 33.9852 9.98209 34.0921 9.9967C34.199 10.0113 34.3019 10.0469 34.3951 10.1013L34.4219 10.1175C34.6086 10.2358 34.7409 10.423 34.7902 10.6384C34.8395 10.8538 34.8018 11.08 34.6853 11.2677L31.3618 16.8846L32.1824 17.3432C34.5961 18.8472 36.6353 20.8815 38.145 23.2916C40.0297 26.2259 41.2463 29.5386 41.7087 32.9952V32.9952ZM29.3909 25.6387C29.3909 25.9636 29.4873 26.2813 29.6678 26.5514C29.8484 26.8216 30.105 27.0322 30.4052 27.1566C30.7054 27.2809 31.0357 27.3134 31.3544 27.2501C31.6731 27.1867 31.9659 27.0302 32.1957 26.8004C32.4254 26.5706 32.5819 26.2779 32.6453 25.9592C32.7087 25.6405 32.6762 25.3101 32.5518 25.0099C32.4274 24.7097 32.2169 24.4531 31.9467 24.2726C31.6765 24.0921 31.3589 23.9957 31.0339 23.9957C30.8181 23.9955 30.6043 24.0378 30.4049 24.1203C30.2055 24.2028 30.0242 24.3238 29.8716 24.4764C29.719 24.629 29.598 24.8102 29.5155 25.0096C29.433 25.2091 29.3907 25.4228 29.3909 25.6387V25.6387ZM11.3256 25.6387C11.3256 25.9637 11.422 26.2814 11.6026 26.5516C11.7832 26.8218 12.0399 27.0324 12.3402 27.1567C12.6405 27.281 12.971 27.3135 13.2897 27.2499C13.6085 27.1864 13.9012 27.0297 14.1309 26.7998C14.3606 26.5698 14.5169 26.2769 14.5801 25.9581C14.6433 25.6393 14.6105 25.3089 14.4859 25.0087C14.3613 24.7085 14.1504 24.452 13.88 24.2717C13.6096 24.0914 13.2918 23.9953 12.9667 23.9957C12.7511 23.9957 12.5375 24.0382 12.3383 24.1208C12.139 24.2034 11.958 24.3244 11.8056 24.477C11.6532 24.6296 11.5324 24.8107 11.45 25.0101C11.3676 25.2094 11.3253 25.423 11.3256 25.6387V25.6387Z" fill="#01C854"/>
</svg>
