<svg width="24" height="38" viewBox="0 0 24 38" fill="none" xmlns="http://www.w3.org/2000/svg">
<g clip-path="url(#clip0)">
<path d="M18.624 21.0293C17.1713 21.0293 15.8689 21.6844 14.977 22.7157L12.6916 21.0691C12.9342 20.3893 13.0735 19.6593 13.0735 18.8953C13.0735 18.1445 12.939 17.4268 12.7044 16.7571L14.9847 15.1279C15.8765 16.154 17.1755 16.8055 18.624 16.8055C21.3054 16.8055 23.4873 14.5853 23.4873 11.856C23.4873 9.12667 21.3054 6.9065 18.624 6.9065C15.9426 6.9065 13.7608 9.12667 13.7608 11.856C13.7608 12.3445 13.8333 12.8156 13.9635 13.2617L11.6817 14.8917C10.7285 13.6882 9.35605 12.8479 7.79235 12.5914V9.79258C9.99528 9.32169 11.6551 7.32971 11.6551 4.9495C11.6551 2.22017 9.47327 0 6.79187 0C4.11047 0 1.92864 2.22017 1.92864 4.9495C1.92864 7.29783 3.54546 9.26524 5.70432 9.76975V12.6049C2.75805 13.1313 0.510254 15.7482 0.510254 18.8953C0.510254 22.0578 2.78031 24.6843 5.74785 25.1927V28.1865C3.56692 28.6744 1.92864 30.6539 1.92864 33.0182C1.92864 35.7475 4.11047 37.9677 6.79187 37.9677C9.47327 37.9677 11.6551 35.7475 11.6551 33.0182C11.6551 30.6539 10.0168 28.6744 7.83589 28.1865V25.1926C9.33791 24.9351 10.6968 24.1308 11.6594 22.9294L13.9601 24.5867C13.8323 25.0288 13.7608 25.4953 13.7608 25.9788C13.7608 28.7082 15.9426 30.9283 18.624 30.9283C21.3054 30.9283 23.4873 28.7082 23.4873 25.9788C23.4873 23.2495 21.3054 21.0293 18.624 21.0293V21.0293ZM18.624 9.45625C19.9243 9.45625 20.9819 10.533 20.9819 11.856C20.9819 13.179 19.9243 14.2557 18.624 14.2557C17.3238 14.2557 16.2662 13.179 16.2662 11.856C16.2662 10.533 17.3238 9.45625 18.624 9.45625V9.45625ZM4.43394 4.9495C4.43394 3.62653 5.4916 2.54984 6.79187 2.54984C8.09213 2.54984 9.1497 3.62653 9.1497 4.9495C9.1497 6.27247 8.09213 7.34916 6.79187 7.34916C5.4916 7.34916 4.43394 6.27247 4.43394 4.9495ZM9.1497 33.0182C9.1497 34.3411 8.09213 35.4178 6.79187 35.4178C5.4916 35.4178 4.43394 34.3411 4.43394 33.0182C4.43394 31.6952 5.4916 30.6185 6.79187 30.6185C8.09213 30.6185 9.1497 31.6952 9.1497 33.0182ZM6.79169 22.2421C4.97821 22.2421 3.50292 20.7409 3.50292 18.8953C3.50292 17.0497 4.97821 15.5482 6.79169 15.5482C8.60508 15.5482 10.0804 17.0497 10.0804 18.8953C10.0804 20.7409 8.60508 22.2421 6.79169 22.2421ZM18.624 28.3786C17.3238 28.3786 16.2662 27.3018 16.2662 25.9788C16.2662 24.6559 17.3238 23.5792 18.624 23.5792C19.9243 23.5792 20.9819 24.6559 20.9819 25.9788C20.9819 27.3018 19.9243 28.3786 18.624 28.3786Z" fill="black"/>
</g>
<defs>
<clipPath id="clip0">
<rect width="23" height="38" fill="white" transform="translate(0.5)"/>
</clipPath>
</defs>
</svg>
