<svg width="39" height="36" viewBox="0 0 39 36" fill="none" xmlns="http://www.w3.org/2000/svg">
<g clip-path="url(#clip0)">
<path d="M27.0055 13.5H36.821C37.7483 13.5 38.5 14.2656 38.5 15.21V24.3153C38.5 27.7862 35.7372 30.6 32.329 30.6H32.2998C28.8917 30.6005 26.1284 27.7871 26.1279 24.3162C26.1279 24.3159 26.1279 24.3156 26.1279 24.3153V14.3937C26.1279 13.9001 26.5208 13.5 27.0055 13.5Z" fill="#5059C9"/>
<path d="M33.6398 11.7001C35.8361 11.7001 37.6166 9.88685 37.6166 7.6501C37.6166 5.41334 35.8361 3.6001 33.6398 3.6001C31.4435 3.6001 29.6631 5.41334 29.6631 7.6501C29.6631 9.88685 31.4435 11.7001 33.6398 11.7001Z" fill="#5059C9"/>
<path d="M21.2676 11.7C24.4401 11.7 27.0118 9.08088 27.0118 5.85001C27.0118 2.61914 24.4401 0 21.2676 0C18.0952 0 15.5234 2.61914 15.5234 5.85001C15.5234 9.08088 18.0952 11.7 21.2676 11.7Z" fill="#7B83EB"/>
<path d="M28.9263 13.5H12.7242C11.8079 13.5231 11.0831 14.2975 11.1043 15.2307V25.6158C10.9764 31.2158 15.3267 35.863 20.8252 36C26.3238 35.863 30.6741 31.2158 30.5462 25.6158V15.2307C30.5674 14.2975 29.8426 13.5231 28.9263 13.5Z" fill="#7B83EB"/>
<path opacity="0.1" d="M21.7096 13.5V28.053C21.7052 28.7204 21.3081 29.3199 20.7022 29.574C20.5092 29.6571 20.3019 29.6999 20.0924 29.7H11.8826C11.7678 29.403 11.6617 29.106 11.5733 28.8C11.264 27.7673 11.1061 26.6937 11.1049 25.614V15.228C11.0837 14.2963 11.8073 13.5231 12.7222 13.5H21.7096Z" fill="black"/>
<path opacity="0.2" d="M20.8259 13.5V28.953C20.8259 29.1663 20.7838 29.3775 20.7022 29.574C20.4527 30.1911 19.864 30.5955 19.2087 30.6H12.298C12.1477 30.303 12.0064 30.006 11.8826 29.7C11.7589 29.394 11.6617 29.106 11.5733 28.8C11.264 27.7673 11.1061 26.6937 11.1049 25.614V15.228C11.0837 14.2963 11.8073 13.5231 12.7222 13.5H20.8259Z" fill="black"/>
<path opacity="0.2" d="M20.8259 13.5V27.153C20.8192 28.0598 20.0991 28.7932 19.2087 28.8H11.5733C11.264 27.7673 11.1061 26.6937 11.1049 25.614V15.228C11.0837 14.2963 11.8073 13.5231 12.7222 13.5H20.8259Z" fill="black"/>
<path opacity="0.2" d="M19.9422 13.5V27.153C19.9354 28.0598 19.2153 28.7932 18.325 28.8H11.5733C11.264 27.7673 11.1061 26.6937 11.1049 25.614V15.228C11.0837 14.2963 11.8073 13.5231 12.7222 13.5H19.9422Z" fill="black"/>
<path opacity="0.1" d="M21.7096 8.84694V11.6819C21.5594 11.6909 21.418 11.6999 21.2677 11.6999C21.1175 11.6999 20.9761 11.6909 20.8259 11.6819C20.5276 11.6618 20.2317 11.6136 19.9422 11.5379C18.1526 11.1063 16.6742 9.82819 15.9654 8.09995C15.8435 7.80972 15.7488 7.50836 15.6826 7.19995H20.0924C20.9841 7.20339 21.7062 7.93874 21.7096 8.84694Z" fill="black"/>
<path opacity="0.2" d="M20.8253 9.74683V11.6818C20.527 11.6617 20.2312 11.6135 19.9416 11.5378C18.152 11.1062 16.6736 9.82809 15.9648 8.09985H19.2081C20.0998 8.10329 20.8219 8.83866 20.8253 9.74683Z" fill="black"/>
<path opacity="0.2" d="M20.8253 9.74683V11.6818C20.527 11.6617 20.2312 11.6135 19.9416 11.5378C18.152 11.1062 16.6736 9.82809 15.9648 8.09985H19.2081C20.0998 8.10329 20.8219 8.83866 20.8253 9.74683Z" fill="black"/>
<path opacity="0.2" d="M19.9416 9.74686V11.5379C18.152 11.1063 16.6736 9.8281 15.9648 8.09985H18.3244C19.2161 8.10331 19.9382 8.83868 19.9416 9.74686Z" fill="black"/>
<path d="M2.11985 8.09985H18.322C19.2166 8.09985 19.9418 8.83846 19.9418 9.74955V26.2501C19.9418 27.1612 19.2166 27.8998 18.322 27.8998H2.11985C1.22523 27.8998 0.5 27.1612 0.5 26.2501V9.74955C0.5 8.83846 1.22524 8.09985 2.11985 8.09985Z" fill="url(#paint0_linear)"/>
<path d="M14.4841 14.3803H11.2453V23.3623H9.18182V14.3803H5.95801V12.6379H14.4841V14.3803Z" fill="white"/>
</g>
<defs>
<linearGradient id="paint0_linear" x1="3.87745" y1="6.81081" x2="16.9149" y2="28.9828" gradientUnits="userSpaceOnUse">
<stop stop-color="#5A62C3"/>
<stop offset="0.5" stop-color="#4D55BD"/>
<stop offset="1" stop-color="#3940AB"/>
</linearGradient>
<clipPath id="clip0">
<rect width="38" height="36" fill="white" transform="translate(0.5)"/>
</clipPath>
</defs>
</svg>
