<svg width="43" height="38" viewBox="0 0 43 38" fill="none" xmlns="http://www.w3.org/2000/svg">
<g clip-path="url(#clip0)">
<path d="M42.2428 19.0273C42.2428 16.2475 38.7972 13.613 33.5144 11.9794C34.7335 6.5395 34.1917 2.21154 31.8043 0.825915C31.254 0.500891 30.6106 0.346932 29.9079 0.346932V2.25431C30.2974 2.25431 30.6106 2.33129 30.873 2.47669C32.0244 3.14385 32.5239 5.68417 32.1345 8.95152C32.0413 9.75552 31.889 10.6023 31.7027 11.4662C30.0434 11.0556 28.2317 10.7391 26.3269 10.5339C25.184 8.95152 23.9987 7.51457 22.805 6.25724C25.5649 3.6656 28.1555 2.24576 29.9164 2.24576V0.338379C27.5883 0.338379 24.5405 2.01482 21.4589 4.92293C18.3774 2.03193 15.3296 0.372592 13.0015 0.372592V2.27997C14.7539 2.27997 17.353 3.69126 20.1129 6.26579C18.9276 7.52312 17.7424 8.95152 16.6164 10.5339C14.7031 10.7391 12.8914 11.0556 11.2321 11.4747C11.0374 10.6194 10.8935 9.78974 10.7919 8.99428C10.394 5.72694 10.885 3.18662 12.0279 2.51091C12.2819 2.35695 12.6121 2.28852 13.0015 2.28852V0.381145C12.2904 0.381145 11.6469 0.535104 11.0882 0.860128C8.70928 2.24576 8.17592 6.56515 9.40348 11.9879C4.13768 13.6302 0.708984 16.256 0.708984 19.0273C0.708984 21.8071 4.15461 24.4415 9.43735 26.0752C8.21825 31.515 8.76007 35.843 11.1475 37.2286C11.6977 37.5536 12.3412 37.7076 13.0523 37.7076C15.3804 37.7076 18.4282 36.0311 21.5097 33.123C24.5913 36.014 27.6391 37.6734 29.9672 37.6734C30.6783 37.6734 31.3217 37.5194 31.8805 37.1944C34.2594 35.8088 34.7928 31.4894 33.5652 26.0666C38.8141 24.4329 42.2428 21.7985 42.2428 19.0273ZM31.2202 13.3222C30.9069 14.4256 30.5175 15.5632 30.0773 16.7008C29.7301 16.0165 29.3661 15.3323 28.9682 14.648C28.5788 13.9637 28.164 13.2966 27.7491 12.6465C28.9513 12.8261 30.1111 13.0485 31.2202 13.3222ZM27.3428 22.4315C26.6824 23.5862 26.0051 24.681 25.3025 25.6988C24.0411 25.81 22.7627 25.8699 21.4759 25.8699C20.1975 25.8699 18.9192 25.81 17.6662 25.7074C16.9635 24.6895 16.2778 23.6033 15.6175 22.4571C14.9741 21.3366 14.3899 20.1991 13.8566 19.0529C14.3814 17.9068 14.9741 16.7606 15.609 15.6402C16.2693 14.4855 16.9466 13.3907 17.6493 12.3728C18.9107 12.2616 20.1891 12.2018 21.4759 12.2018C22.7542 12.2018 24.0326 12.2616 25.2855 12.3643C25.9882 13.3821 26.674 14.4684 27.3343 15.6145C27.9777 16.735 28.5619 17.8726 29.0952 19.0187C28.5619 20.1648 27.9777 21.311 27.3428 22.4315ZM30.0773 21.3195C30.5344 22.4657 30.9238 23.6118 31.2456 24.7237C30.1365 24.9974 28.9682 25.2284 27.7576 25.408C28.1724 24.7494 28.5873 24.0737 28.9767 23.3809C29.3661 22.6966 29.7301 22.0038 30.0773 21.3195ZM21.4928 30.4459C20.7055 29.6248 19.9182 28.7096 19.1393 27.7088C19.9012 27.743 20.6801 27.7687 21.4674 27.7687C22.2632 27.7687 23.0505 27.7516 23.8209 27.7088C23.059 28.7096 22.2717 29.6248 21.4928 30.4459ZM15.1942 25.408C13.992 25.2284 12.8322 25.006 11.7231 24.7323C12.0364 23.6289 12.4258 22.4913 12.866 21.3538C13.2131 22.038 13.5772 22.7223 13.9751 23.4065C14.373 24.0908 14.7793 24.7579 15.1942 25.408ZM21.4505 7.60865C22.2378 8.42977 23.0251 9.34497 23.804 10.3457C23.0421 10.3115 22.2632 10.2858 21.4759 10.2858C20.6801 10.2858 19.8928 10.3029 19.1224 10.3457C19.8843 9.34497 20.6716 8.42977 21.4505 7.60865ZM15.1857 12.6465C14.7709 13.3051 14.356 13.9808 13.9666 14.6737C13.5772 15.3579 13.2131 16.0422 12.866 16.7264C12.4089 15.5803 12.0195 14.4342 11.6977 13.3222C12.8068 13.0571 13.9751 12.8261 15.1857 12.6465ZM7.52405 23.3552C4.52711 22.0637 2.58842 20.3701 2.58842 19.0273C2.58842 17.6844 4.52711 15.9823 7.52405 14.6993C8.25212 14.3828 9.04791 14.1006 9.86911 13.8354C10.3517 15.5119 10.9866 17.2567 11.7739 19.0444C10.9951 20.8234 10.3686 22.5598 9.89451 24.2276C9.05638 23.9625 8.26058 23.6717 7.52405 23.3552ZM12.0787 35.5778C10.9273 34.9107 10.4279 32.3704 10.8173 29.103C10.9104 28.299 11.0628 27.4522 11.2491 26.5883C12.9084 26.9989 14.7201 27.3154 16.6249 27.5207C17.7678 29.103 18.953 30.54 20.1467 31.7973C17.3868 34.3889 14.7963 35.8088 13.0354 35.8088C12.6544 35.8002 12.3327 35.7232 12.0787 35.5778ZM32.1599 29.0602C32.5578 32.3276 32.0667 34.8679 30.9238 35.5436C30.6699 35.6976 30.3397 35.766 29.9503 35.766C28.1978 35.766 25.5988 34.3547 22.8389 31.7802C24.0241 30.5228 25.2094 29.0945 26.3353 27.5121C28.2486 27.3068 30.0603 26.9904 31.7196 26.5712C31.9144 27.4351 32.0667 28.2648 32.1599 29.0602ZM35.4192 23.3552C34.6912 23.6717 33.8954 23.9539 33.0742 24.2191C32.5916 22.5427 31.9567 20.7978 31.1694 19.0102C31.9482 17.2311 32.5747 15.4948 33.0488 13.8269C33.8869 14.092 34.6827 14.3828 35.4277 14.6993C38.4246 15.9909 40.3633 17.6844 40.3633 19.0273C40.3549 20.3701 38.4162 22.0722 35.4192 23.3552Z" fill="#61DAFB"/>
<path d="M21.4676 22.9361C23.6043 22.9361 25.3365 21.186 25.3365 19.0272C25.3365 16.8685 23.6043 15.1184 21.4676 15.1184C19.3308 15.1184 17.5986 16.8685 17.5986 19.0272C17.5986 21.186 19.3308 22.9361 21.4676 22.9361Z" fill="#61DAFB"/>
</g>
<defs>
<clipPath id="clip0">
<rect width="42" height="38" fill="white" transform="translate(0.5)"/>
</clipPath>
</defs>
</svg>
