<svg width="32" height="39" viewBox="0 0 32 39" fill="none" xmlns="http://www.w3.org/2000/svg">
<path d="M11.225 29.667C11.225 29.667 9.77721 30.5021 12.2553 30.7847C15.2574 31.1244 16.7917 31.0757 20.1 30.4546C20.1 30.4546 20.9698 30.9956 22.1845 31.4642C14.7681 34.6171 5.39976 31.2815 11.225 29.667Z" fill="#5382A1"/>
<path d="M10.3188 25.5527C10.3188 25.5527 8.69501 26.745 11.1749 26.9994C14.3818 27.3276 16.9144 27.3545 21.2968 26.5174C21.2968 26.5174 21.9029 27.127 22.856 27.4603C13.8891 30.0612 3.90166 27.6654 10.3188 25.5527Z" fill="#5382A1"/>
<path d="M17.9588 18.5734C19.7862 20.6604 17.4787 22.5384 17.4787 22.5384C17.4787 22.5384 22.1188 20.1623 19.9878 17.187C17.9975 14.4123 16.4713 13.0336 24.7339 8.28027C24.7339 8.28027 11.7643 11.4934 17.9588 18.5734Z" fill="#E76F00"/>
<path d="M27.7677 32.7104C27.7677 32.7104 28.8391 33.5861 26.5878 34.2635C22.307 35.5498 8.7705 35.9383 5.01012 34.3147C3.65835 33.7314 6.19329 32.9219 6.99068 32.7521C7.82228 32.5732 8.29751 32.6065 8.29751 32.6065C6.79422 31.556 -1.41917 34.6691 4.12552 35.5607C19.2467 37.9931 31.69 34.4653 27.7677 32.7104Z" fill="#5382A1"/>
<path d="M11.9215 21.2898C11.9215 21.2898 5.03594 22.912 9.48313 23.5011C11.3609 23.7505 15.1041 23.6941 18.5908 23.4043C21.4404 23.1659 24.3016 22.6589 24.3016 22.6589C24.3016 22.6589 23.2969 23.0858 22.5699 23.5781C15.5778 25.4022 2.0703 24.5536 5.95893 22.6878C9.24755 21.1109 11.9215 21.2898 11.9215 21.2898Z" fill="#5382A1"/>
<path d="M24.2732 28.1383C31.381 24.4746 28.0947 20.9538 25.8008 21.4282C25.2386 21.5443 24.9879 21.6448 24.9879 21.6448C24.9879 21.6448 25.1966 21.3205 25.5953 21.1801C30.1332 19.5976 33.6232 25.8476 24.1304 28.323C24.1304 28.3231 24.2403 28.2256 24.2732 28.1383Z" fill="#5382A1"/>
<path d="M19.9879 0.604736C19.9879 0.604736 23.9244 4.51073 16.2544 10.517C10.1039 15.3351 14.8519 18.0823 16.2519 21.221C12.6617 18.008 10.027 15.1795 11.7946 12.547C14.3889 8.68271 21.5762 6.80917 19.9879 0.604736Z" fill="#E76F00"/>
<path d="M12.6198 38.0661C19.4424 38.4993 29.9193 37.8258 30.1674 34.6235C30.1674 34.6235 29.6905 35.8375 24.5289 36.8015C18.7056 37.8886 11.5235 37.7617 7.26367 37.065C7.26377 37.0649 8.13571 37.7809 12.6198 38.0661Z" fill="#5382A1"/>
</svg>
