<svg width="42" height="41" viewBox="0 0 42 41" fill="none" xmlns="http://www.w3.org/2000/svg">
<g clip-path="url(#clip0)">
<path d="M21 41C32.3218 41 41.5 31.8218 41.5 20.5C41.5 9.17816 32.3218 0 21 0C9.67816 0 0.5 9.17816 0.5 20.5C0.5 31.8218 9.67816 41 21 41Z" fill="url(#paint0_linear)"/>
<path d="M17.2421 29.8959C16.5779 29.8959 16.6908 29.6451 16.4618 29.0127L14.5088 22.5854L29.5421 13.6667" fill="#C8DAEA"/>
<path d="M17.2422 29.896C17.7547 29.896 17.981 29.6616 18.2672 29.3835L21.0005 26.7257L17.591 24.6697" fill="#A9C9DD"/>
<path d="M17.5897 24.6701L25.8512 30.7738C26.794 31.294 27.4743 31.0246 27.7092 29.8986L31.072 14.0516C31.4162 12.6713 30.5458 12.045 29.6438 12.4545L9.89722 20.0687C8.54934 20.6094 8.55737 21.3614 9.65156 21.6964L14.719 23.2782L26.4506 15.8768C27.0045 15.5409 27.5129 15.7213 27.0957 16.0917" fill="url(#paint1_linear)"/>
</g>
<defs>
<linearGradient id="paint0_linear" x1="27.847" y1="6.847" x2="17.597" y2="30.75" gradientUnits="userSpaceOnUse">
<stop stop-color="#37AEE2"/>
<stop offset="1" stop-color="#1E96C8"/>
</linearGradient>
<linearGradient id="paint1_linear" x1="23.5695" y1="20.5017" x2="26.7688" y2="27.791" gradientUnits="userSpaceOnUse">
<stop stop-color="#EFF7FC"/>
<stop offset="1" stop-color="white"/>
</linearGradient>
<clipPath id="clip0">
<rect width="41" height="41" fill="white" transform="translate(0.5)"/>
</clipPath>
</defs>
</svg>
