<svg width="39" height="38" viewBox="0 0 39 38" fill="none" xmlns="http://www.w3.org/2000/svg">
<g clip-path="url(#clip0)">
<path d="M34.7891 0H4.21094C2.16144 0 0.5 1.66144 0.5 3.71094V34.2891C0.5 36.3386 2.16144 38 4.21094 38H34.7891C36.8386 38 38.5 36.3386 38.5 34.2891V3.71094C38.5 1.66144 36.8386 0 34.7891 0Z" fill="#3178C6"/>
<path d="M34.7891 0H4.21094C2.16144 0 0.5 1.66144 0.5 3.71094V34.2891C0.5 36.3386 2.16144 38 4.21094 38H34.7891C36.8386 38 38.5 36.3386 38.5 34.2891V3.71094C38.5 1.66144 36.8386 0 34.7891 0Z" fill="#3178C6"/>
<path fill-rule="evenodd" clip-rule="evenodd" d="M24.0228 30.2385V33.954C24.6268 34.2636 25.3412 34.4958 26.1659 34.6506C26.9906 34.8054 27.8598 34.8828 28.7736 34.8828C29.6641 34.8828 30.5101 34.7977 31.3115 34.6274C32.113 34.4571 32.8158 34.1765 33.4198 33.7856C34.0238 33.3947 34.502 32.8838 34.8543 32.2529C35.2066 31.6221 35.3828 30.8423 35.3828 29.9134C35.3828 29.24 35.2822 28.6498 35.0808 28.1428C34.8795 27.6358 34.5891 27.1849 34.2096 26.7901C33.8302 26.3954 33.3753 26.0412 32.8448 25.7277C32.3144 25.4142 31.7162 25.1181 31.0502 24.8395C30.5624 24.6382 30.1249 24.4428 29.7377 24.2532C29.3505 24.0635 29.0214 23.87 28.7503 23.6727C28.4793 23.4752 28.2702 23.2662 28.1231 23.0457C27.976 22.825 27.9024 22.5754 27.9024 22.2967C27.9024 22.0413 27.9682 21.811 28.0999 21.6059C28.2315 21.4008 28.4174 21.2247 28.6574 21.0776C28.8975 20.9306 29.1917 20.8164 29.5402 20.7351C29.8887 20.6538 30.2758 20.6132 30.7018 20.6132C31.0115 20.6132 31.3386 20.6365 31.6832 20.6828C32.0278 20.7293 32.3744 20.8009 32.7229 20.8976C33.0713 20.9944 33.4101 21.1163 33.7392 21.2634C34.0683 21.4105 34.3723 21.5807 34.651 21.7743V18.3026C34.0858 18.0859 33.4682 17.9253 32.7984 17.8208C32.1285 17.7163 31.3599 17.6641 30.4927 17.6641C29.6099 17.6641 28.7736 17.7589 27.9837 17.9485C27.1939 18.1382 26.4989 18.4342 25.8987 18.8367C25.2986 19.2393 24.8243 19.7521 24.4758 20.3752C24.1274 20.9983 23.9531 21.7433 23.9531 22.6102C23.9531 23.7171 24.2726 24.6615 24.9114 25.4433C25.5502 26.225 26.5201 26.8869 27.8211 27.4287C28.3322 27.6377 28.8084 27.8428 29.2498 28.0441C29.6912 28.2454 30.0726 28.4544 30.3939 28.6711C30.7153 28.8878 30.9689 29.1239 31.1548 29.3793C31.3406 29.6347 31.4336 29.925 31.4336 30.2502C31.4336 30.4901 31.3754 30.7126 31.2593 30.9177C31.1431 31.1229 30.9669 31.3009 30.7308 31.4518C30.4946 31.6028 30.2003 31.7208 29.848 31.8059C29.4956 31.8911 29.0833 31.9337 28.6109 31.9337C27.8056 31.9337 27.008 31.7924 26.2181 31.5099C25.4283 31.2274 24.6965 30.8036 24.0228 30.2385V30.2385ZM17.7766 21.0842H22.543V18.0352H9.25781V21.0842H14.0008V34.6602H17.7766V21.0842Z" fill="white"/>
</g>
<defs>
<clipPath id="clip0">
<rect width="38" height="38" fill="white" transform="translate(0.5)"/>
</clipPath>
</defs>
</svg>
