<svg width="45" height="32" viewBox="0 0 45 32" fill="none" xmlns="http://www.w3.org/2000/svg">
<g clip-path="url(#clip0)">
<path fill-rule="evenodd" clip-rule="evenodd" d="M27.026 5.2624H27.0329C27.5593 5.2624 28.08 5.30359 28.591 5.54285C28.6137 5.55334 28.6364 5.56444 28.659 5.5758C28.6996 5.59618 28.7398 5.61786 28.7803 5.64093C26.9878 5.67267 26.4246 7.10452 25.6994 8.34818L25.5766 8.27976C25.6021 8.06417 25.6133 7.84616 25.6546 7.63326C25.7581 7.09776 25.8732 6.5639 25.9886 6.03048C26.0994 5.52273 26.4193 5.26638 26.9382 5.26274H26.9835H27.026V5.2624ZM26.8318 0C26.4659 0 26.0967 0.02142 25.7246 0.0566287C24.047 0.214981 22.5087 0.703653 21.1762 1.75384C20.5658 2.23514 20.0276 2.7886 19.6329 3.52815C20.5897 3.47924 21.615 3.42808 22.5124 3.3822H22.599C22.4069 3.49061 22.2035 3.57784 21.9926 3.64236C20.9876 3.89056 20.0297 4.14777 19.0082 4.30795C18.2122 4.43282 17.5181 4.66185 16.9723 5.29951C15.6493 6.84557 14.2649 8.33986 12.9768 9.91419C12.2958 10.7461 11.7514 11.692 11.1723 12.6042C10.8336 13.1377 10.8251 13.7079 11.2183 14.2259C11.7993 14.9915 12.4033 15.7394 13.0253 16.5308C13.6707 15.7804 14.3261 15.0188 14.9817 14.2575L15.0814 14.3285C15.052 14.4327 15.0164 14.535 14.975 14.635C14.3652 15.895 13.7534 17.1539 13.1398 18.4118C12.5802 19.5536 12.619 19.6934 13.7048 20.3848C14.0868 20.6283 14.4702 20.7761 14.8644 20.7761C15.1858 20.7719 15.4996 20.6785 15.7711 20.5063C16.3268 20.1717 16.9166 19.8929 17.4734 19.5606C18.539 18.9239 19.6637 18.5327 20.9022 18.5327C21.0046 18.5327 21.1078 18.5354 21.2118 18.5408C21.2146 18.5408 21.2174 18.5408 21.2201 18.5408C21.3403 18.5408 21.5387 18.4069 21.5708 18.2987C21.9904 16.8811 22.2759 15.4671 21.8883 13.967C21.495 12.4452 21.3748 10.8899 21.9355 9.36421C22.0554 9.03787 22.229 8.73114 22.3781 8.41617L22.5133 8.45433C22.5248 8.63188 22.5237 8.81001 22.51 8.9874C22.3183 10.3289 22.4856 11.6337 22.8984 12.9127C23.2102 13.8791 23.4978 14.862 23.3716 15.8814C23.218 17.1229 22.9661 18.3516 22.7657 19.5872C22.7137 19.9058 22.5918 20.0332 22.3565 20.0332C22.2643 20.0308 22.1728 20.0175 22.0838 19.9936C21.6775 19.8913 21.2605 19.8383 20.8415 19.8357C20.0451 19.833 19.2643 20.0566 18.5898 20.4806C17.8909 20.9118 17.166 21.302 16.4428 21.6915C15.8578 22.0067 15.2885 22.1702 14.7371 22.1702C13.9972 22.1702 13.2897 21.8758 12.6208 21.2583C12.271 20.9351 11.9175 20.6147 11.5834 20.276C10.8145 19.4941 10.8186 19.4897 11.4179 18.5958L11.4643 18.5224C12.0521 17.646 12.0487 17.5796 11.3626 16.7489L11.2772 16.6509C10.7978 16.0022 10.2974 15.3675 9.84767 14.699C9.48129 14.1543 9.3937 13.51 9.64754 12.9154C9.97884 12.1406 10.3429 11.3581 10.8297 10.6771C11.457 9.79954 12.2182 9.01802 12.9248 8.19772C13.2239 7.84989 13.5455 7.45513 13.8488 7.11111C12.4141 7.30918 11.0633 7.73741 9.77351 8.28713C8.40675 8.86964 7.22461 9.6797 6.31615 10.8752C5.722 11.6565 5.11607 12.4301 4.47714 13.1747C4.11509 13.5966 3.72341 14.0285 3.25939 14.3194C3.06333 14.4403 2.8373 14.5037 2.60702 14.5024C2.09059 14.5024 1.58143 14.1936 1.47158 13.6201C1.6795 13.3501 1.96462 13.1465 1.99139 12.9127C2.07959 12.1555 2.07248 11.3869 2.1028 10.6233C1.51732 10.9397 0.849796 11.6085 0.626449 12.1517C0.44798 12.5853 0.41991 13.0073 0.769398 13.4051C0.887482 13.5395 0.935132 13.7631 0.954451 13.9527C1.07358 15.1122 1.61739 15.7257 2.72043 15.8452C2.78774 15.8523 2.85539 15.8557 2.92307 15.8555C3.20507 15.8555 3.49486 15.8035 3.79081 15.7835C3.80014 15.8643 3.80466 15.9455 3.80433 16.0269C3.74611 16.8026 3.65826 17.5767 3.63106 18.3528C3.59042 19.5149 3.74914 20.644 4.19375 21.7349C4.91777 23.5118 5.63459 24.6766 6.53707 26.1208C6.63306 26.2749 6.75149 26.4743 6.7242 26.6281C6.58177 27.4468 6.45953 28.2787 6.20967 29.0676C5.86824 30.1452 6.07045 30.812 7.1352 31.1542C7.97115 31.411 8.83062 31.5836 9.70082 31.6694C9.82545 31.6838 9.95077 31.6913 10.0762 31.6921C10.8386 31.6921 11.1197 31.3431 11.1969 30.4493C11.2325 30.0418 11.2544 29.5709 11.4701 29.2496C12.4561 27.7787 12.4043 27.0886 12.3131 25.2301C12.3045 25.0576 12.2704 24.8872 12.2606 24.7152C12.2519 24.5576 12.2585 24.3995 12.2585 24.1986C12.6028 24.629 12.8508 25.0485 13.1988 25.3552C13.8595 25.9473 14.7191 26.2679 15.6057 26.253C16.0117 26.2497 16.416 26.1993 16.8105 26.103C17.5841 25.9209 18.1736 25.4947 18.4271 24.6945C18.4669 24.6199 18.5168 24.5513 18.5754 24.4905C18.5965 24.5466 18.6119 24.6047 18.6216 24.6639C18.6266 25.1551 18.6198 25.6463 18.6332 26.1374C18.6448 26.5608 18.4658 26.8509 18.0898 27.0393C17.6648 27.2533 17.2352 27.462 16.8288 27.7091C15.9985 28.2121 15.8567 28.7344 16.4029 29.543C16.8456 30.1843 17.33 30.7958 17.8528 31.3735C18.2271 31.7963 18.5275 32.0001 18.854 32.0001C19.1357 32.0001 19.4367 31.8484 19.8217 31.5549C20.5791 30.9777 21.3242 30.3835 22.0756 29.7985C23.4676 28.7133 24.5546 27.3943 25.2291 25.7466C25.7379 24.5045 26.2621 23.2693 26.8016 22.041C26.937 21.7327 26.8744 21.5879 26.6205 21.3637C25.8915 20.722 25.1135 20.0637 24.6469 19.1578C24.5806 19.03 24.539 18.8895 24.4488 18.6624C25.1375 19.1409 25.678 19.6636 26.3252 19.9326C27.3253 20.3489 28.1078 20.9993 28.8683 21.7312C29.4721 22.3294 30.2831 22.6716 31.1325 22.6867C31.1401 22.6867 31.1476 22.6867 31.1551 22.6867C32.3788 22.6867 33.6961 21.336 33.8188 19.8949C33.6291 20.065 33.5058 20.1482 33.4184 20.2596C33.2055 20.5321 33.0372 20.8426 32.8023 21.0931C32.394 21.529 31.9158 21.7414 31.4529 21.7414C30.8405 21.7414 30.255 21.3694 29.894 20.6507C29.278 19.4242 29.2393 18.0975 29.3415 16.7603C29.364 16.461 29.4063 16.1636 29.4394 15.8651L29.6107 15.7933C29.65 15.8869 29.6989 15.9762 29.7566 16.0598C31.2052 17.7524 33.0215 18.8358 35.1989 19.2839C35.9029 19.4418 36.6211 19.5281 37.3424 19.5413C37.9198 19.5468 38.4945 19.4623 39.046 19.2909C41.2149 18.6 42.5175 16.9875 43.4113 14.9948C44.2819 13.0523 44.6045 10.9985 44.4683 8.881C44.3838 7.57411 44.2816 6.26359 44.0877 4.96936C43.9129 3.79863 43.5802 2.65279 42.8441 1.68316C42.6143 1.3806 42.4236 1.22615 42.2385 1.22615C42.0507 1.22615 41.8688 1.38537 41.6586 1.71057C41.1294 2.53034 40.3977 3.02812 39.4962 3.34092C38.7187 3.61036 38.6094 3.83341 38.7314 4.64538C38.8886 5.69782 39.097 6.74645 39.1831 7.80444C39.3177 9.46602 39.0802 11.0676 38.0322 12.4405C37.7381 12.8257 37.3604 13.1468 37.0205 13.4973L36.8881 13.3846C36.9579 13.2513 37.0348 13.1214 37.0969 12.9841C37.3682 12.3815 37.6544 11.7845 37.8976 11.1706C38.0668 10.7436 37.9158 10.3988 37.5443 10.1145C37.4043 9.99732 37.229 9.93083 37.0466 9.92581C36.8386 9.93668 36.6392 10.0125 36.4765 10.1426C36.1776 10.3553 35.8978 10.5956 35.6101 10.8235C35.7216 10.5801 35.8675 10.354 36.0433 10.1522C36.2746 9.85392 36.4409 9.5347 36.2307 9.15894C36.0902 8.90667 35.7403 8.75577 35.3777 8.75577C35.2891 8.75568 35.2008 8.76487 35.1142 8.78318C34.9098 8.82654 34.7102 8.93355 34.4433 8.92297C35.264 8.20822 35.1446 7.30701 33.6523 7.13366C33.907 6.94365 34.2437 6.8976 34.5539 6.84999C34.6442 6.83729 34.7353 6.83149 34.8265 6.83265C34.8785 6.83265 34.9315 6.83386 34.9841 6.83516C35.0367 6.83647 35.0887 6.83751 35.141 6.83751C35.2189 6.83819 35.2968 6.83417 35.3743 6.82545C35.7468 6.78027 35.8905 6.59252 35.7677 6.24364C35.4444 5.31894 34.3117 4.3572 33.3419 4.33578C33.209 4.33283 32.8685 4.33578 32.7355 4.33578H32.129C32.4687 4.17969 32.7494 3.93609 33.1217 3.76577C32.1278 2.3837 31.0119 1.15972 29.4125 0.480087C28.5745 0.124271 27.7129 0 26.8318 0ZM27.239 24.703C26.8265 26.9638 25.4505 29.1901 23.9421 30.2593C23.7054 30.4279 23.7378 30.6213 23.9189 30.7497C24.0943 30.8677 24.2992 30.9338 24.5104 30.9405C24.9969 30.9492 25.4834 30.9517 25.9699 30.9517C26.4919 30.9517 27.014 30.9489 27.5357 30.9482C28.4245 30.9475 28.8699 30.3455 28.4682 29.5454C28.1764 28.9643 28.1216 28.3902 28.1785 27.7936C28.2863 26.647 27.8571 25.6802 27.239 24.703V24.703ZM3.06836 22.1327C2.44103 22.9351 1.87123 23.638 1.33262 24.3641C1.06942 24.7196 0.984514 25.1679 1.21219 25.5517C1.77342 26.5009 2.45446 27.3646 3.41629 27.9432C3.71656 28.1239 3.98392 28.2132 4.23109 28.2132C4.62009 28.2132 4.95883 27.9921 5.29541 27.5594C5.4452 27.3668 5.418 27.2355 5.30806 27.0251C4.74302 25.9433 4.19098 24.853 3.66796 23.7502C3.4415 23.2724 3.29638 22.7573 3.06836 22.1327V22.1327ZM31.1055 7.76074C29.4421 7.77661 27.4062 9.30359 27.2082 10.6225C27.4692 10.4048 27.7927 10.1201 28.0294 9.9226C27.9836 9.99137 28.4494 10.4247 28.4035 10.4935C28.744 10.7736 28.6589 10.6893 29.0154 10.9828C28.8794 11.2507 28.5356 11.675 28.3643 12.0126L28.4729 12.103C29.6035 10.9012 30.8545 9.86883 32.4284 9.29119L32.3707 9.15122C32.0495 9.22146 31.7273 9.29153 31.4459 9.35302C31.1189 8.93875 30.8236 8.56386 30.5178 8.17596C30.6572 8.07753 30.8383 7.94979 31.1055 7.761V7.76074ZM27.026 5.2624H26.9837H26.9383C26.4195 5.26604 26.0996 5.52256 25.9888 6.03014C25.8733 6.56356 25.7583 7.09741 25.6547 7.63291C25.6133 7.84546 25.602 8.06383 25.5768 8.27941L25.6995 8.34784C26.4248 7.10417 26.988 5.67232 28.7805 5.64058C28.7401 5.61752 28.6998 5.59584 28.6592 5.57546C28.6366 5.5641 28.6139 5.553 28.5912 5.5425C28.08 5.30324 27.5595 5.26239 27.0331 5.26205H27.026V5.2624ZM39.1903 4.30135C39.3074 4.16728 39.3983 3.96783 39.5455 3.90998C40.4414 3.57566 41.2137 2.97509 41.7588 2.18883C41.8745 2.02146 42.1352 1.95521 42.3292 1.84195C42.3335 1.99761 42.3667 2.16282 42.3666 2.31709C42.368 2.38788 42.3582 2.45844 42.3376 2.52618C42.0028 3.55894 40.6841 4.574 39.5626 4.5799C39.5055 4.53724 39.3484 4.41921 39.1901 4.30101L39.1903 4.30135ZM42.329 1.84204C42.135 1.95477 41.8742 2.0212 41.7586 2.18892C41.2135 2.97513 40.4412 3.57567 39.5454 3.90998C39.3981 3.96783 39.3071 4.16728 39.1902 4.30135C39.3482 4.41956 39.5053 4.53758 39.5627 4.58025C40.6842 4.57435 42.0029 3.55928 42.3377 2.52653C42.3583 2.45879 42.3681 2.38823 42.3667 2.31744C42.3667 2.16308 42.3336 1.99796 42.3293 1.8423" fill="#0079D6"/>
</g>
<defs>
<clipPath id="clip0">
<rect width="44" height="32" fill="white" transform="translate(0.5)"/>
</clipPath>
</defs>
</svg>
