<svg width="38" height="39" viewBox="0 0 38 39" fill="none" xmlns="http://www.w3.org/2000/svg">
<g clip-path="url(#clip0)">
<path d="M28.1777 27.765C28.4203 25.744 28.3476 25.4476 29.853 25.775L30.2352 25.8086C31.3927 25.8612 32.9069 25.6224 33.7964 25.2091C35.7114 24.3206 36.8469 22.8371 34.9587 23.2269C30.6515 24.1154 30.3554 22.657 30.3554 22.657C34.9035 15.9088 36.8048 7.34252 35.1637 5.24568C30.6876 -0.473731 22.9396 2.23085 22.8099 2.30107L22.7687 2.30869C21.9176 2.13211 20.9652 2.02661 19.8953 2.00931C17.9462 1.97729 16.4672 2.52029 15.3453 3.37124C15.3453 3.37124 1.52326 -2.32326 2.16629 10.5326C2.30305 13.2675 6.08636 31.2265 10.5987 25.8021C12.2479 23.8185 13.8417 22.1414 13.8417 22.1414C14.6332 22.6672 15.5807 22.9354 16.5745 22.839L16.6513 22.7735C16.6272 23.0198 16.6378 23.2607 16.682 23.5459C15.5198 24.8447 15.8613 25.0727 13.5373 25.5511C11.186 26.0357 12.5674 26.8984 13.469 27.1239C14.5624 27.3973 17.0918 27.7847 18.8013 25.392L18.7332 25.665C19.1892 26.0298 19.1584 28.2871 19.2231 29.8998C19.2878 31.5127 19.3958 33.0177 19.7245 33.905C20.0533 34.7922 20.4412 37.0778 23.4955 36.4232C26.0482 35.8761 27.9999 35.0888 28.1777 27.765" fill="black"/>
<path d="M28.1777 27.765C28.4203 25.744 28.3476 25.4476 29.853 25.775L30.2352 25.8086C31.3927 25.8612 32.9069 25.6224 33.7964 25.2091C35.7114 24.3206 36.8469 22.8371 34.9587 23.2269C30.6515 24.1154 30.3554 22.657 30.3554 22.657C34.9035 15.9088 36.8048 7.34252 35.1637 5.24568C30.6876 -0.473731 22.9396 2.23085 22.8099 2.30107L22.7687 2.30869C21.9176 2.13211 20.9652 2.02661 19.8953 2.00931C17.9462 1.97729 16.4672 2.52029 15.3453 3.37124C15.3453 3.37124 1.52326 -2.32326 2.16629 10.5326C2.30305 13.2675 6.08636 31.2265 10.5987 25.8021C12.2479 23.8185 13.8417 22.1414 13.8417 22.1414C14.6332 22.6672 15.5807 22.9354 16.5745 22.839L16.6513 22.7735C16.6272 23.0198 16.6378 23.2607 16.682 23.5459C15.5198 24.8447 15.8613 25.0727 13.5373 25.5511C11.186 26.0357 12.5674 26.8984 13.469 27.1239C14.5624 27.3973 17.0918 27.7847 18.8013 25.392L18.7332 25.665C19.1892 26.0298 19.1584 28.2871 19.2231 29.8998C19.2878 31.5127 19.3958 33.0177 19.7245 33.905C20.0533 34.7922 20.4412 37.0778 23.4955 36.4232C26.0482 35.8761 27.9999 35.0888 28.1777 27.765" stroke="black" stroke-width="3.20231"/>
<path d="M34.959 23.2266C30.6515 24.1151 30.3553 22.6567 30.3553 22.6567C34.9034 15.908 36.8047 7.34163 35.1639 5.24505C30.6878 -0.474023 22.9395 2.23073 22.8102 2.30095L22.7686 2.3084C21.9175 2.13174 20.9651 2.02649 19.8947 2.00902C17.9456 1.97708 16.4671 2.52 15.3452 3.37078C15.3452 3.37078 1.52294 -2.32346 2.16579 10.5324C2.30255 13.2673 6.08578 31.2264 10.5983 25.8019C12.2476 23.8184 13.8411 22.1413 13.8411 22.1413C14.6327 22.667 15.5802 22.9353 16.5736 22.8389L16.6507 22.7734C16.6267 23.0197 16.6377 23.2606 16.6816 23.5457C15.5191 24.8445 15.8607 25.0726 13.5369 25.5509C11.1855 26.0355 12.5668 26.8983 13.4687 27.1238C14.5621 27.3972 17.0916 27.7845 18.8008 25.3919L18.7326 25.6649C19.1881 26.0297 19.508 28.0379 19.4544 29.8583C19.4008 31.6788 19.365 32.9287 19.7239 33.9049C20.0828 34.8811 20.4404 37.0776 23.4954 36.423C26.048 35.876 27.3708 34.4584 27.5548 32.0938C27.6854 30.4127 27.981 30.6612 27.9996 29.1583L28.2367 28.4467C28.51 26.1679 28.2801 25.4328 29.8527 25.7747L30.2349 25.8083C31.3924 25.8609 32.9074 25.6221 33.7965 25.2088C35.7111 24.3203 36.8466 22.8368 34.9588 23.2266H34.959Z" fill="#336791"/>
<path d="M18.9858 24.533C18.8672 28.7732 19.0156 33.043 19.4305 34.0807C19.8457 35.1184 20.7341 37.1368 23.7893 36.4823C26.3417 35.9351 27.2704 34.8762 27.6734 32.5388C27.9702 30.8191 28.5424 26.0431 28.6158 25.0646" stroke="white" stroke-width="1.06744" stroke-linecap="round" stroke-linejoin="round"/>
<path d="M15.3237 3.27619C15.3237 3.27619 1.492 -2.37703 2.13503 10.4788C2.27178 13.2138 6.05527 31.1735 10.5677 25.7487C12.2166 23.7649 13.708 22.209 13.708 22.209" stroke="white" stroke-width="1.06744" stroke-linecap="round" stroke-linejoin="round"/>
<path d="M22.7946 2.24436C22.3158 2.39447 30.4886 -0.743329 35.1333 5.19163C36.774 7.28829 34.8727 15.8547 30.3247 22.6035" stroke="white" stroke-width="1.06744" stroke-linecap="round" stroke-linejoin="round"/>
<path d="M30.3248 22.6035C30.3248 22.6035 30.6211 24.0624 34.9288 23.1732C36.8162 22.7834 35.6803 24.2671 33.7661 25.1561C32.1952 25.8852 28.6731 26.072 28.6156 25.0646C28.4675 22.4651 30.4693 23.2549 30.3248 22.6035C30.1943 22.0169 29.299 21.4412 28.7069 20.0056C28.1899 18.7525 21.6167 9.14296 30.5298 10.5701C30.8563 10.5026 28.2051 2.0922 19.8638 1.95544C11.5243 1.81868 11.7979 12.2111 11.7979 12.2111" stroke="white" stroke-width="1.06744" stroke-linecap="round" stroke-linejoin="bevel"/>
<path d="M16.6514 23.4927C15.4887 24.7914 15.8306 25.0194 13.5066 25.4979C11.1552 25.9826 12.5367 26.8452 13.4384 27.0706C14.5317 27.3442 17.0613 27.7315 18.7705 25.3383C19.2909 24.6097 18.7674 23.447 18.0524 23.1506C17.707 23.0075 17.2451 22.8282 16.6514 23.4927V23.4927Z" stroke="white" stroke-width="1.06744" stroke-linecap="round" stroke-linejoin="round"/>
<path d="M16.5754 23.4696C16.4582 22.706 16.8263 21.7974 17.2207 20.7343C17.8135 19.1393 19.1811 17.544 18.0871 12.4844C17.2716 8.71404 11.8019 11.6998 11.7984 12.211C11.7951 12.7221 12.0458 14.8023 11.7071 17.2247C11.265 20.3857 13.7184 23.0591 16.5436 22.7856" stroke="white" stroke-width="1.06744" stroke-linecap="round" stroke-linejoin="round"/>
<path d="M15.2732 12.1346C15.2486 12.3092 15.5929 12.7751 16.0419 12.8374C16.4901 12.8999 16.8737 12.5358 16.898 12.3613C16.9224 12.1867 16.5785 11.9944 16.1293 11.9319C15.6808 11.8693 15.297 11.9604 15.2733 12.1346H15.2732Z" fill="white" stroke="white" stroke-width="0.35581"/>
<path d="M28.9259 11.7786C28.9502 11.9532 28.6063 12.4191 28.1572 12.4814C27.7087 12.5439 27.3251 12.1798 27.3005 12.0053C27.2768 11.8307 27.6207 11.6384 28.0694 11.5759C28.518 11.5134 28.9016 11.6044 28.9259 11.7787V11.7786Z" fill="white" stroke="white" stroke-width="0.177905"/>
<path d="M30.5301 10.5701C30.604 11.9397 30.235 12.8726 30.1885 14.3306C30.1197 16.4499 31.1989 18.8755 29.5728 21.3042" stroke="white" stroke-width="1.06744" stroke-linecap="round" stroke-linejoin="round"/>
</g>
<defs>
<clipPath id="clip0">
<rect width="37" height="38.14" fill="white" transform="translate(0.5)"/>
</clipPath>
</defs>
</svg>
