<svg width="43" height="41" viewBox="0 0 43 41" fill="none" xmlns="http://www.w3.org/2000/svg">
<g clip-path="url(#clip0)">
<path d="M38.1023 29.5225C33.0038 36.2539 22.1128 33.9817 15.1302 34.3085C15.1302 34.3085 13.8941 34.3767 12.6491 34.5798C12.6491 34.5798 13.1199 34.3807 13.7203 34.1756C18.6245 32.4951 20.9421 32.1574 23.922 30.6406C29.521 27.7986 35.0933 21.6079 36.2271 15.1769C34.0959 21.3621 27.6142 26.6855 21.7125 28.8472C17.6729 30.3243 10.3678 31.7618 10.3667 31.7624C10.3701 31.7675 10.0756 31.6109 10.0715 31.6075C5.10338 29.2123 4.96003 18.5499 13.983 15.1129C17.9391 13.6049 21.7231 14.4331 25.9998 13.4244C30.5611 12.3498 35.8439 8.96184 37.9911 4.53246C40.3983 11.6077 43.2901 22.6769 38.1023 29.5225V29.5225ZM38.1909 2.34004C37.584 3.76896 36.8432 5.05659 35.9893 6.20831C32.2306 2.38578 26.9844 0.00415017 21.1856 0.00415017C9.77891 0.00415017 0.5 9.1999 0.5 20.501C0.5 26.4255 3.05196 31.7686 7.12058 35.5138L7.57357 35.9115C6.81712 35.3002 6.70079 34.1994 7.31389 33.4491C7.93075 32.6985 9.04269 32.5822 9.7995 33.1901C10.5583 33.7993 10.674 34.9028 10.0595 35.6545C9.4474 36.4064 8.33344 36.52 7.57563 35.9131L7.88388 36.1837C11.4828 39.1865 16.122 41.0002 21.1856 41.0002C32.0887 41.0002 41.0416 32.5924 41.8079 21.9802C42.3755 16.7842 40.8267 10.1865 38.1909 2.34004Z" fill="#5FB832"/>
</g>
<defs>
<clipPath id="clip0">
<rect width="42" height="41" fill="white" transform="translate(0.5)"/>
</clipPath>
</defs>
</svg>
