<svg width="209" height="209" viewBox="0 0 209 209" fill="none" xmlns="http://www.w3.org/2000/svg">
<g clip-path="url(#clip0)">
<rect width="209" height="209" fill="white"/>
<circle cx="108.5" cy="104.5" r="86.5" fill="#E8ECF8"/>
<g filter="url(#filter0_dddd)">
<path d="M33 81H193V158C193 169.046 184.046 178 173 178H53C41.9543 178 33 169.046 33 158V81Z" fill="#A4ADBE"/>
</g>
<path fill-rule="evenodd" clip-rule="evenodd" d="M126.333 25.9999L121.909 22.3502C121.899 22.3417 121.888 22.3331 121.878 22.3246C116.706 18.0825 109.253 18.091 104.09 22.3502L99.6665 25.9999L33 80.9999H192.999L126.333 25.9999Z" fill="#A4ADBE"/>
<rect x="55" y="35" width="116" height="100" rx="8" fill="url(#paint0_linear)"/>
<path d="M88 82.5L104 97.5L138 64" stroke="#A100FF" stroke-width="9" stroke-linecap="round" stroke-linejoin="round"/>
<path fill-rule="evenodd" clip-rule="evenodd" d="M33 82L112.179 131.2L185.011 174.959C181.734 177.304 177.72 178.684 173.383 178.684H53C41.9543 178.684 33 169.73 33 158.684V82Z" fill="url(#paint1_linear)"/>
<path d="M128 140L101.5 125L44.5 173L128 140Z" fill="url(#paint2_linear)"/>
<path fill-rule="evenodd" clip-rule="evenodd" d="M194.011 82L114.831 131.2L42 174.959C45.2766 177.304 49.2908 178.684 53.6274 178.684H174.011C185.056 178.684 194.011 169.73 194.011 158.684V82Z" fill="white"/>
<rect x="139" y="147" width="46" height="3" rx="1.5" fill="#CED7E2"/>
<rect x="139" y="137" width="46" height="3" rx="1.5" fill="#CED7E2"/>
<circle cx="14.5" cy="137.5" r="7.5" fill="#E8ECF8"/>
<circle cx="194" cy="55" r="5" fill="#E8ECF8"/>
<circle cx="188" cy="37" r="4" fill="#E8ECF8"/>
<circle cx="23" cy="50" r="4" fill="#E8ECF8"/>
</g>
<defs>
<filter id="filter0_dddd" x="1" y="73" width="224" height="161" filterUnits="userSpaceOnUse" color-interpolation-filters="sRGB">
<feFlood flood-opacity="0" result="BackgroundImageFix"/>
<feColorMatrix in="SourceAlpha" type="matrix" values="0 0 0 0 0 0 0 0 0 0 0 0 0 0 0 0 0 0 127 0"/>
<feOffset/>
<feGaussianBlur stdDeviation="0.5"/>
<feColorMatrix type="matrix" values="0 0 0 0 0 0 0 0 0 0 0 0 0 0 0 0 0 0 0.04 0"/>
<feBlend mode="normal" in2="BackgroundImageFix" result="effect1_dropShadow"/>
<feColorMatrix in="SourceAlpha" type="matrix" values="0 0 0 0 0 0 0 0 0 0 0 0 0 0 0 0 0 0 127 0"/>
<feOffset dy="4"/>
<feGaussianBlur stdDeviation="4"/>
<feColorMatrix type="matrix" values="0 0 0 0 0 0 0 0 0 0 0 0 0 0 0 0 0 0 0.04 0"/>
<feBlend mode="normal" in2="effect1_dropShadow" result="effect2_dropShadow"/>
<feColorMatrix in="SourceAlpha" type="matrix" values="0 0 0 0 0 0 0 0 0 0 0 0 0 0 0 0 0 0 127 0"/>
<feOffset dy="16"/>
<feGaussianBlur stdDeviation="12"/>
<feColorMatrix type="matrix" values="0 0 0 0 0 0 0 0 0 0 0 0 0 0 0 0 0 0 0.04 0"/>
<feBlend mode="normal" in2="effect2_dropShadow" result="effect3_dropShadow"/>
<feColorMatrix in="SourceAlpha" type="matrix" values="0 0 0 0 0 0 0 0 0 0 0 0 0 0 0 0 0 0 127 0"/>
<feOffset dy="24"/>
<feGaussianBlur stdDeviation="16"/>
<feColorMatrix type="matrix" values="0 0 0 0 0 0 0 0 0 0 0 0 0 0 0 0 0 0 0.04 0"/>
<feBlend mode="normal" in2="effect3_dropShadow" result="effect4_dropShadow"/>
<feBlend mode="normal" in="SourceGraphic" in2="effect4_dropShadow" result="shape"/>
</filter>
<linearGradient id="paint0_linear" x1="113" y1="62.5862" x2="113" y2="135" gradientUnits="userSpaceOnUse">
<stop stop-color="white"/>
<stop offset="1" stop-color="#E1E3EE"/>
</linearGradient>
<linearGradient id="paint1_linear" x1="33" y1="132" x2="99" y2="153.5" gradientUnits="userSpaceOnUse">
<stop stop-color="white"/>
<stop offset="1" stop-color="#F2F3F5"/>
</linearGradient>
<linearGradient id="paint2_linear" x1="87" y1="127.5" x2="102.5" y2="143.5" gradientUnits="userSpaceOnUse">
<stop stop-color="white"/>
<stop offset="1" stop-color="#DBDEED"/>
</linearGradient>
<clipPath id="clip0">
<rect width="209" height="209" fill="white"/>
</clipPath>
</defs>
</svg>
