<svg width="47" height="59" viewBox="0 0 47 59" fill="none" xmlns="http://www.w3.org/2000/svg">
<path fill-rule="evenodd" clip-rule="evenodd" d="M25.2174 56.8002L23.5 58.2998L21.7826 56.8002C7.34064 44.1897 0 33.1788 0 23.5C0 9.7934 10.6979 0 23.5 0C36.3021 0 47 9.7934 47 23.5C47 33.1788 39.6594 44.1897 25.2174 56.8002Z" fill="white"/>
<mask id="mask0" mask-type="alpha" maskUnits="userSpaceOnUse" x="5" y="4" width="36" height="36">
<circle cx="23" cy="22" r="18" fill="#C4C4C4"/>
</mask>
<g mask="url(#mask0)">
<path d="M51.262 16.0267H-3.82031V4.94952C-3.82031 4.42517 -3.39504 4 -2.87057 4H50.3124C50.8368 4 51.2621 4.42517 51.2621 4.94952L51.262 16.0267Z" fill="#FF4B55"/>
<path d="M50.3124 40.0802H-2.87057C-3.39504 40.0802 -3.82031 39.655 -3.82031 39.1307V28.0535H51.2621V39.1307C51.2621 39.6551 50.8368 40.0802 50.3124 40.0802Z" fill="#41479B"/>
<path d="M51.2621 16.0269H-3.82031V28.0536H51.2621V16.0269Z" fill="white"/>
<path d="M37.3926 16.0269H9.16992V28.1338H37.3926V16.0269Z" fill="#151515"/>
<path d="M22.2393 8.51283C22.1956 8.53011 22.1537 8.54739 22.1106 8.56777C22.0915 8.57703 22.0717 8.58629 22.0527 8.59678C21.9651 8.64556 21.8302 8.73322 21.7248 8.91843C21.7033 8.95547 21.683 8.98819 21.662 9.01721C21.6262 9.0666 21.5892 9.10549 21.5406 9.13697C21.4993 9.16291 21.45 9.1839 21.3841 9.20119C21.2892 9.22341 21.1968 9.26847 21.105 9.3228C20.9607 9.40862 20.819 9.51851 20.6724 9.60185C20.5806 9.67408 20.4961 9.68025 20.4598 9.76916C20.4481 9.7994 20.4407 9.83829 20.4407 9.89201C20.4407 9.95313 20.4641 10.0093 20.4961 10.0544C20.527 10.0976 20.5658 10.1303 20.6015 10.1476C20.6151 10.1556 20.6188 10.2377 20.6194 10.3025C20.6199 10.3408 20.6194 10.3723 20.6194 10.3803C20.6188 10.4359 20.6298 10.4878 20.649 10.5365C20.6803 10.6162 20.7346 10.6853 20.8048 10.7415C20.8899 10.8094 20.9977 10.8576 21.1105 10.881C21.1906 10.8977 21.2732 10.902 21.3539 10.8921C21.3724 10.889 21.392 10.886 21.4105 10.8823C21.4093 10.9236 21.4057 10.9508 21.4204 10.994C21.4247 11.0082 21.4315 11.023 21.4407 11.0409C21.474 11.1082 21.6034 11.265 21.7267 11.3607C21.4937 11.3737 21.267 11.3959 21.0692 11.3885C20.8985 11.3811 20.7611 11.3712 20.6428 11.3551C20.413 11.3237 20.2577 11.2663 20.0863 11.144C20.0457 11.115 20.0045 11.0823 19.9601 11.0452C19.9409 11.0292 19.9243 11.0119 19.9077 10.9946C19.774 10.8495 19.7278 10.6495 19.7549 10.5125C19.7851 10.376 19.8726 10.2532 19.8374 10.1692C19.8214 10.176 19.8054 10.1828 19.7888 10.1908C19.5429 10.31 19.2459 10.61 19.2213 10.8872C19.156 11.7009 19.5435 11.904 19.936 12.0275C19.9366 12.0281 19.9373 12.0281 19.9379 12.0281C19.9416 12.0293 19.9447 12.0299 19.9483 12.0312C20.1862 12.1046 20.3938 12.1281 20.6059 12.1336C20.6773 12.1355 20.75 12.1355 20.8246 12.1343C20.856 12.133 20.8899 12.1324 20.9251 12.1312C21.0458 12.1275 21.19 12.1176 21.3539 12.0781C21.378 12.0719 21.4026 12.0657 21.4272 12.0589C21.5412 12.0219 21.5998 12.0287 21.686 12.0583C21.6601 12.0898 21.6361 12.1219 21.6133 12.1546V12.1552C21.5658 12.2232 21.5239 12.2923 21.4851 12.3639C21.4845 12.3652 21.4839 12.3664 21.4833 12.3682C21.4635 12.404 21.4445 12.4411 21.426 12.4781C21.4253 12.48 21.4242 12.4812 21.4235 12.4831C21.4069 12.5164 21.3908 12.5491 21.3742 12.5825C21.3539 12.6232 21.3336 12.6652 21.3126 12.7059C21.3126 12.7065 21.312 12.7065 21.312 12.7072C21.2743 12.7819 21.2349 12.8566 21.1912 12.9294C21.1906 12.9307 21.19 12.9319 21.1893 12.9325C21.1677 12.9671 21.1456 13.0023 21.1215 13.0362C21.1192 13.0393 21.1172 13.0424 21.1148 13.0455C21.0908 13.0801 21.0655 13.114 21.0378 13.1467C21.0378 13.1529 21.0421 13.1591 21.0495 13.164C21.0705 13.1782 21.1179 13.1862 21.1697 13.1899C21.243 13.1961 21.3237 13.1955 21.3483 13.1955C21.394 13.1955 21.4382 13.1819 21.4833 13.1646C21.5159 13.1517 21.5492 13.1381 21.5843 13.1245C21.715 13.0807 21.8376 13.0757 21.9337 13.0807C21.9836 13.0831 22.0045 13.0961 22.0132 13.1097C22.015 13.1122 22.0157 13.1152 22.0169 13.1177C22.0169 13.1183 22.0175 13.1189 22.0175 13.1202C22.0182 13.1208 22.0182 13.1214 22.0182 13.122C22.02 13.1313 22.0193 13.1393 22.0205 13.143C22.0378 13.1776 22.0994 13.156 22.0951 13.222C22.0926 13.2474 22.0865 13.2788 22.0748 13.3165C22.0563 13.3356 22.0372 13.3554 22.0175 13.3751C21.9195 13.4733 21.8154 13.5733 21.7328 13.6622C21.7132 13.6832 21.6909 13.7061 21.6675 13.7295C21.4611 13.9357 21.1197 14.2148 20.8726 13.9623C20.7105 13.795 21.0088 13.5208 20.9195 13.4795C20.9028 13.4715 20.8733 13.4715 20.8246 13.482C20.559 13.5301 20.3606 13.6505 20.2195 13.8067C20.1677 13.7456 20.1165 13.6801 20.066 13.6122C19.9785 13.4949 19.8917 13.3714 19.8011 13.2517C19.7209 13.1461 19.639 13.0443 19.5503 12.9541C19.5108 12.9146 19.4653 12.8701 19.4159 12.8232C19.1615 12.5825 18.7991 12.2645 18.6205 12.0731C18.541 11.9898 18.4362 11.8904 18.3228 11.7842C18.0856 11.562 17.8084 11.3088 17.626 11.1051C17.6136 11.0915 17.6014 11.0773 17.5896 11.065C17.4029 10.8452 17.0751 10.3674 16.9524 10.1377C16.9377 10.1093 16.9254 10.084 16.9168 10.0649C16.9143 10.0587 16.9118 10.0525 16.9093 10.047C16.8471 9.88953 16.7996 9.72718 16.934 9.51912C16.9765 9.45306 17.0092 9.39688 17.0363 9.33886C17.0536 9.30119 17.0689 9.26292 17.0813 9.21971C17.1034 9.16291 17.1163 9.10241 17.1256 9.03202C17.1312 8.98943 17.1355 8.94251 17.1392 8.89004C17.1478 8.78446 17.1176 8.64802 17.0739 8.56407C17.0566 8.53073 17.0326 8.49863 17.0061 8.46652C17.0054 8.46652 17.0054 8.46652 17.0054 8.46591C16.9975 8.45665 16.9901 8.44739 16.982 8.43813C16.9808 8.4375 16.9802 8.43628 16.9796 8.43504C17.0117 8.36959 17.0406 8.29675 17.0634 8.21526C17.1663 7.8609 17.1601 7.43121 16.9136 7.27255L16.714 7.14414L16.6537 7.37565C16.6456 7.40775 16.6327 7.42936 16.5969 7.48862C16.5797 7.51764 16.5593 7.55098 16.5353 7.59358C16.5045 7.6479 16.4361 7.70285 16.3647 7.76088C16.3325 7.78681 16.2993 7.81397 16.2667 7.84238C16.266 7.84238 16.2655 7.84175 16.2648 7.84175C16.2309 7.82447 16.1934 7.80842 16.1533 7.79546C16.1508 7.79484 16.1483 7.7936 16.1459 7.79299C16.1268 7.78681 16.1077 7.78125 16.0886 7.77694C16.0849 7.77631 16.0812 7.7757 16.0781 7.77446C16.0621 7.77076 16.046 7.76829 16.03 7.76582C16.0252 7.7652 16.0208 7.76397 16.0159 7.76397C15.998 7.7615 15.9808 7.76027 15.9641 7.75964C15.958 7.75903 15.9518 7.75903 15.9463 7.75903C15.9333 7.75903 15.9204 7.75964 15.908 7.76088C15.9031 7.7615 15.8981 7.7615 15.8938 7.76212C15.8785 7.76397 15.8643 7.76705 15.8496 7.77076C15.8446 7.77261 15.8397 7.77385 15.8347 7.7757C15.8224 7.78003 15.8101 7.78496 15.7989 7.79114C15.7978 7.79175 15.7959 7.79237 15.794 7.7936C15.7669 7.8078 15.7423 7.8257 15.7182 7.84546C15.6695 7.88497 15.6264 7.93189 15.587 7.98251C15.5796 7.95473 15.5716 7.92818 15.5624 7.90226C15.5599 7.89485 15.5574 7.88868 15.555 7.88127C15.5482 7.86275 15.5414 7.84484 15.534 7.82755C15.5297 7.81768 15.5254 7.80781 15.5211 7.79855C15.5143 7.78496 15.5081 7.77138 15.5013 7.75779C15.4959 7.7473 15.4903 7.73681 15.4841 7.72631C15.4779 7.7152 15.4711 7.70408 15.465 7.69359C15.4582 7.68248 15.4515 7.67136 15.4441 7.66025C15.4379 7.65161 15.4317 7.64297 15.4256 7.63432C15.417 7.6226 15.4083 7.61086 15.399 7.59975C15.3947 7.59358 15.3892 7.5874 15.3837 7.58185C15.3732 7.56951 15.3621 7.55653 15.351 7.54481C15.3485 7.54295 15.3467 7.5411 15.3442 7.53925C15.2044 7.39725 15.0164 7.31268 14.7847 7.2923C14.7447 7.23366 14.6966 7.17562 14.6399 7.11636C14.5013 6.96572 14.1969 6.79286 13.9529 6.77496C13.9264 6.77249 13.8851 6.76941 13.837 6.76941C13.7613 6.76941 13.6941 6.77804 13.6362 6.7941L13.386 6.86695L13.5493 7.0713C13.6208 7.16019 13.7741 7.37256 13.8266 7.60407C13.8155 7.61148 13.8043 7.61951 13.7933 7.62815C13.7878 7.63247 13.7816 7.63741 13.7761 7.64235C13.7705 7.64729 13.7644 7.65161 13.7588 7.65716C13.752 7.66272 13.7452 7.6689 13.7385 7.67507C13.7335 7.6794 13.7292 7.68371 13.7249 7.68803C13.7182 7.69483 13.7107 7.70162 13.704 7.70903C13.7002 7.71273 13.6966 7.71705 13.6929 7.72075C13.6688 7.7473 13.6454 7.77446 13.6238 7.8041C13.6208 7.8078 13.6177 7.81212 13.6146 7.81644C13.6091 7.82447 13.6029 7.83249 13.5974 7.84114C13.5937 7.8467 13.5899 7.85225 13.5863 7.85781C13.5813 7.86583 13.5758 7.87386 13.5715 7.88188C13.5678 7.88868 13.564 7.89485 13.561 7.90103C13.5567 7.90905 13.5523 7.91646 13.548 7.92448C13.5437 7.93312 13.5394 7.94177 13.5358 7.94979C13.5302 7.9609 13.5252 7.9714 13.5209 7.98251C13.5173 7.99116 13.5142 7.99981 13.5105 8.00783C13.508 8.01462 13.5056 8.02203 13.5031 8.02881C13.5006 8.03684 13.4982 8.04425 13.4957 8.05227C13.4932 8.05907 13.4914 8.06586 13.4901 8.07327C13.4883 8.08068 13.4864 8.0887 13.4846 8.09611C13.4833 8.10352 13.4815 8.11031 13.4809 8.1171C13.479 8.12513 13.4784 8.13253 13.4778 8.14055C13.4772 8.14673 13.4759 8.15229 13.4754 8.15785C13.4562 8.35911 13.4574 8.56715 13.4643 8.77026C13.4605 8.7715 13.4569 8.77274 13.4538 8.77459C13.4341 8.78076 13.415 8.78755 13.3958 8.79496C13.3891 8.79804 13.3823 8.80113 13.3749 8.8036C13.3589 8.81039 13.3435 8.81719 13.3275 8.82521C13.3207 8.8283 13.3139 8.83139 13.3071 8.83509C13.2911 8.84373 13.275 8.85237 13.2597 8.86163C13.2547 8.86472 13.2493 8.86719 13.2443 8.87028C13.2252 8.88263 13.206 8.89497 13.1882 8.90793C13.1808 8.91349 13.174 8.91967 13.1666 8.92522C13.1562 8.93325 13.1463 8.94128 13.1364 8.94991C13.1272 8.95795 13.1186 8.96597 13.11 8.97399C13.1032 8.98078 13.0964 8.98696 13.0902 8.99375C13.0804 9.00363 13.0712 9.0135 13.0619 9.02338C13.0613 9.024 13.0606 9.02462 13.0606 9.02523C13.0477 9.02462 13.036 9.02276 13.0237 9.02276C12.8844 9.02276 12.7457 9.06166 12.5868 9.14315C12.4957 9.18884 12.3194 9.31971 12.2387 9.43701L12.1561 9.55616L12.2584 9.65927C12.2935 9.69507 12.6521 9.93646 12.7211 9.97535C12.7378 9.98523 12.7532 9.99387 12.7692 10.0031C12.771 10.0044 12.7729 10.0056 12.7748 10.0062C12.7741 10.0155 12.7735 10.0241 12.7735 10.0328C12.7723 10.0525 12.7716 10.071 12.771 10.0889C12.771 10.1007 12.771 10.1118 12.771 10.1235C12.771 10.1328 12.7716 10.1414 12.7723 10.1507C12.7729 10.1599 12.7729 10.1704 12.7741 10.1803C12.7748 10.189 12.7759 10.1976 12.7766 10.2069C12.7779 10.2161 12.7791 10.2254 12.7802 10.2346C12.7815 10.2433 12.7827 10.2513 12.7846 10.26C12.7865 10.2686 12.7883 10.2779 12.7895 10.2859C12.7914 10.2939 12.7932 10.3025 12.7951 10.31C12.7975 10.318 12.8 10.3272 12.8018 10.3353C12.8043 10.3433 12.8068 10.3507 12.8093 10.3581C12.8117 10.3668 12.8154 10.3754 12.8185 10.3834C12.821 10.3902 12.8241 10.3976 12.8265 10.4044C12.832 10.4186 12.8382 10.4334 12.8456 10.447C12.8487 10.4544 12.8524 10.4606 12.8567 10.468C12.8611 10.476 12.8647 10.4834 12.869 10.4915C12.8733 10.4989 12.8776 10.5063 12.8819 10.5131C12.8863 10.5205 12.8906 10.5279 12.8956 10.5353C12.8999 10.5421 12.9048 10.5495 12.9096 10.5569C12.9146 10.5649 12.9195 10.5723 12.9251 10.5797C12.9301 10.5865 12.935 10.594 12.9398 10.6007C12.9461 10.6094 12.9522 10.6174 12.9583 10.6254C12.9627 10.6316 12.9676 10.6372 12.9725 10.6433C12.9817 10.6551 12.991 10.6668 13.0009 10.6785C13.0027 10.681 13.0052 10.6835 13.0077 10.6859C13.0205 10.7014 13.0336 10.7174 13.0483 10.7335C13.1499 10.8446 13.3663 10.9187 13.5838 10.9403C13.72 10.9533 13.8561 10.9465 13.9652 10.9144C14.0016 10.9026 14.0422 10.8773 14.0816 10.8458C14.0933 10.8366 14.1051 10.8267 14.1161 10.8162C14.123 10.836 14.1316 10.8545 14.142 10.873C14.1427 10.8742 14.1433 10.8755 14.1439 10.8761C14.1753 10.9292 14.2203 10.9773 14.2665 11.0292C14.2917 11.0588 14.3219 11.0829 14.3553 11.1051C14.4211 11.149 14.5025 11.186 14.5999 11.2465C14.5937 11.2502 14.5881 11.2539 14.582 11.257C14.5635 11.2669 14.5457 11.2774 14.529 11.2872C14.5198 11.2928 14.5117 11.2984 14.5031 11.3045C14.4896 11.3138 14.4761 11.3224 14.4637 11.3317C14.4557 11.3379 14.4477 11.3447 14.4403 11.3502C14.4292 11.3595 14.4181 11.3681 14.4071 11.378C14.3996 11.3848 14.3929 11.3916 14.3861 11.3977C14.3762 11.407 14.367 11.4169 14.3577 11.4268C14.3516 11.4336 14.3454 11.4397 14.3399 11.4465C14.3312 11.457 14.3226 11.4681 14.3146 11.4786C14.3097 11.4848 14.3047 11.4916 14.3004 11.4978C14.2917 11.5101 14.2838 11.5231 14.2764 11.536C14.2739 11.541 14.2709 11.5453 14.2678 11.5502C14.2585 11.5681 14.2493 11.5867 14.2419 11.6052C14.2394 11.6107 14.2382 11.6157 14.2357 11.6212C14.2302 11.6348 14.2252 11.649 14.2209 11.6626C14.2184 11.6706 14.2166 11.6786 14.2148 11.6861C14.211 11.6978 14.2086 11.7101 14.2055 11.7219C14.2037 11.7305 14.2018 11.7398 14.2 11.7478C14.1975 11.7595 14.1957 11.7712 14.1938 11.783C14.1925 11.7922 14.1914 11.8015 14.1901 11.8108C14.1882 11.8231 14.1877 11.8355 14.1864 11.8478C14.1858 11.8571 14.1852 11.8657 14.1846 11.875C14.1839 11.8892 14.1833 11.9027 14.1828 11.9169C14.1828 11.925 14.1821 11.933 14.1821 11.941C14.1821 11.9626 14.1821 11.9855 14.1828 12.0077V12.0083C14.1833 12.0299 14.1846 12.0522 14.1858 12.0744C14.1765 12.0855 14.1679 12.0972 14.1605 12.1083C14.1131 12.1799 14.0232 12.2553 13.9208 12.3065C13.8291 12.3565 13.7439 12.383 13.7274 12.3868L13.362 12.4713L13.6589 12.6961C13.7139 12.7368 14.0009 12.9134 14.3084 12.9578C14.3701 12.9677 14.4285 12.9726 14.484 12.9726C14.5518 12.9726 14.6147 12.9652 14.6726 12.9492C14.6862 12.9597 14.7003 12.9695 14.7145 12.9794C14.717 12.9813 14.7207 12.9831 14.7238 12.9856C14.7355 12.9924 14.7471 12.9998 14.7595 13.0053C14.7638 13.0078 14.7681 13.0097 14.7725 13.0115C14.7854 13.0171 14.7989 13.0226 14.8124 13.027C14.8162 13.0282 14.8199 13.0294 14.8235 13.0307C14.842 13.0356 14.8605 13.0393 14.8809 13.0418C14.9098 13.0436 14.9388 13.0424 14.9671 13.0412C14.9727 13.0405 14.9782 13.0405 14.9838 13.0399C15.0361 13.0362 15.0872 13.0276 15.1341 13.0152C15.1397 13.0134 15.1452 13.0121 15.1508 13.0097C15.1661 13.0053 15.181 13.0004 15.1957 12.9949C15.2025 12.9924 15.2087 12.9905 15.2155 12.9875C15.229 12.9819 15.2425 12.9757 15.2543 12.9695C15.2586 12.9677 15.2635 12.9652 15.2678 12.9628C15.2845 12.9541 15.2998 12.9448 15.3128 12.9356C15.3627 12.901 15.4064 12.8442 15.4508 12.7825C15.4909 12.7263 15.5315 12.6658 15.5771 12.6133C15.6948 12.7701 15.8778 12.9381 15.9346 13.085C15.9351 13.0868 15.9357 13.0881 15.9357 13.0899C15.9425 13.1097 15.9481 13.1282 15.9506 13.1473C15.9659 13.2436 15.9906 13.4276 15.8914 13.5073C15.8773 13.519 15.8606 13.5276 15.8408 13.5344C15.6456 13.5999 15.5537 13.3961 15.4625 13.3461C15.4619 13.3461 15.4613 13.3449 15.4607 13.3449C15.3775 13.5604 15.417 13.6659 15.4822 13.8474C15.4921 13.8734 15.5149 13.9036 15.5464 13.9363C15.6357 14.0277 15.7935 14.1339 15.9143 14.1913C15.9659 14.216 16.0115 14.2327 16.0405 14.2351C15.8397 14.3938 15.757 14.6623 15.7047 14.9531C15.6961 15.0068 15.6875 15.0574 15.6807 15.1032C15.6727 15.1525 15.6671 15.1976 15.6652 15.2346C15.6585 15.3556 15.6918 15.4031 15.8316 15.3093C15.839 15.3037 15.8451 15.3001 15.8519 15.2951C16.1693 15.0766 16.181 15.0254 16.3067 15.1741C16.3369 15.2106 16.3745 15.2581 16.425 15.3186C16.4479 15.3445 16.4725 15.3717 16.4971 15.3988C16.608 15.5198 16.7387 15.6482 16.8526 15.7452C16.966 15.8427 17.2279 15.8686 17.3154 15.8866C17.2827 15.9693 17.2403 16.1138 17.2082 16.2564C17.2082 16.2564 17.2082 16.2564 17.2082 16.257C17.2076 16.2588 17.2076 16.2607 17.2069 16.2631C17.1965 16.3089 17.1873 16.3546 17.1805 16.3977C17.1638 16.499 17.1269 17.2059 17.271 17.0033C17.2766 16.9954 17.2827 16.9861 17.2895 16.9743C17.2951 16.9645 17.3018 16.954 17.3086 16.9441C17.3296 16.9139 17.3561 16.883 17.3863 16.8546C17.398 16.8429 17.4096 16.8323 17.4226 16.8219C17.4319 16.8138 17.4418 16.8071 17.4515 16.7996C17.5015 16.762 17.5557 16.7318 17.6081 16.7145C17.8354 16.6441 18.0752 16.5471 18.1232 16.6088C17.992 16.8515 17.9001 16.9787 17.9001 17.296C17.9001 17.3756 17.9131 17.5294 17.9267 17.5997C17.9482 17.701 17.9661 17.7627 17.9747 17.785C17.9754 17.7856 17.9754 17.7868 17.9759 17.7874C17.984 17.8121 18.0056 17.8807 18.0148 17.9084C17.9297 17.9467 17.8207 18.0053 17.6986 18.0763C17.234 18.3437 16.5766 18.7838 16.2937 18.9431C15.844 19.203 15.1366 19.6963 14.4858 19.4803C14.4835 19.4796 14.4815 19.479 14.4791 19.4778C14.4668 19.4735 14.4551 19.4679 14.444 19.4629C14.4403 19.4611 14.4373 19.4598 14.4341 19.458C14.4224 19.4512 14.4107 19.445 14.399 19.4377C14.3965 19.4352 14.3934 19.4339 14.3898 19.4314C14.3793 19.424 14.3688 19.416 14.3589 19.4073C14.3564 19.4049 14.3534 19.403 14.351 19.4006C14.3411 19.392 14.3318 19.3827 14.3226 19.3735C14.3201 19.371 14.3176 19.3685 14.3152 19.366C14.3072 19.3573 14.2992 19.3481 14.2912 19.3395C14.2874 19.3352 14.2838 19.3309 14.2801 19.3265C14.2745 19.3197 14.269 19.3129 14.2635 19.3055C14.1575 19.1728 14.062 19.0135 13.7908 18.9548C13.773 18.8807 13.7409 18.8122 13.6941 18.7518C13.5086 18.5085 13.1531 18.4573 12.8888 18.4573C12.7525 18.4573 12.6348 18.4715 12.5831 18.4837L12.328 18.548L12.4882 18.7586C12.5079 18.7851 12.5246 18.8005 12.5375 18.8129C12.5523 18.8277 12.5764 18.8499 12.6571 19.0055C12.678 19.0431 12.6959 19.0851 12.715 19.129C12.718 19.1351 12.7205 19.1419 12.7236 19.1487C12.718 19.1518 12.7132 19.1549 12.7082 19.1574C12.6952 19.1641 12.683 19.1703 12.6706 19.1783C12.6607 19.1839 12.6521 19.1901 12.6429 19.1962C12.6305 19.2043 12.6183 19.2123 12.6066 19.2209C12.5991 19.2265 12.5924 19.2327 12.5856 19.2383C12.5646 19.2555 12.5443 19.2741 12.5252 19.2931C12.5171 19.3012 12.5085 19.3098 12.5005 19.3178C12.4919 19.3271 12.4839 19.3376 12.4759 19.3475C12.4679 19.3573 12.4605 19.3667 12.4531 19.3771C12.4457 19.3864 12.4389 19.3963 12.4328 19.4062C12.4254 19.4179 12.4179 19.4302 12.4105 19.442C12.4057 19.4506 12.4001 19.4593 12.3952 19.4685C12.3841 19.4889 12.3742 19.5098 12.3656 19.5315C12.3643 19.5333 12.3638 19.5358 12.3631 19.5376C12.3545 19.5587 12.3471 19.5796 12.3415 19.6006C12.3391 19.6074 12.3379 19.6135 12.3366 19.6198C12.3323 19.6371 12.3286 19.6531 12.3255 19.6704C12.3243 19.6772 12.3231 19.684 12.3225 19.6914C12.32 19.7086 12.3188 19.7253 12.3181 19.7419C12.3176 19.7482 12.3169 19.7543 12.3169 19.7599C12.3169 19.7821 12.3181 19.8037 12.3206 19.8248C12.3206 19.8253 12.3206 19.8259 12.3206 19.8266C12.3237 19.8494 12.3286 19.8704 12.3348 19.892C12.3361 19.8976 12.3379 19.9019 12.3397 19.9068C12.3447 19.9229 12.3508 19.9383 12.3575 19.9537C12.3607 19.9605 12.3638 19.9667 12.3674 19.9729C12.3706 19.9796 12.3736 19.9859 12.3773 19.9927C12.3823 20.0001 12.3877 20.0075 12.3933 20.0148C12.3965 20.0192 12.3995 20.0235 12.4026 20.0278C12.4161 20.0457 12.431 20.063 12.4481 20.079C12.323 20.1094 12.222 20.1784 12.1302 20.268C12.089 20.3075 12.0495 20.3507 12.0106 20.3964C12.0002 20.4087 11.9916 20.4211 11.9842 20.4347C11.9824 20.4371 11.9811 20.4402 11.9792 20.4427C11.9731 20.4537 11.9682 20.4649 11.9639 20.476C11.9626 20.4785 11.9614 20.4816 11.9608 20.4841C11.9558 20.4983 11.9515 20.5118 11.9484 20.5254C11.9484 20.526 11.9484 20.5267 11.9484 20.5273C11.9454 20.5409 11.9435 20.5551 11.9411 20.568C11.9411 20.5686 11.9411 20.5686 11.9411 20.5693C11.8807 20.5884 11.8203 20.6143 11.7624 20.6477C11.567 20.7545 11.2996 21.0817 11.2225 21.3082L11.222 21.3113L11.2207 21.3144C11.2065 21.3626 11.1684 21.5348 11.1745 21.6626L11.1887 21.9706L11.4432 21.7996C11.5288 21.7416 11.784 21.6619 12.039 21.6619C12.0451 21.6619 12.0507 21.6626 12.0563 21.6632C12.0563 21.6644 12.0563 21.665 12.0563 21.6657C12.0575 21.6824 12.06 21.6977 12.0636 21.7126C12.0643 21.7157 12.0655 21.7194 12.0661 21.7225C12.0698 21.7373 12.0748 21.7515 12.0803 21.7651C12.0809 21.7663 12.0816 21.7675 12.0822 21.7682C12.0883 21.7817 12.0951 21.7946 12.1031 21.8065C12.1043 21.8077 12.1043 21.809 12.1055 21.8101C12.1142 21.8232 12.1235 21.8349 12.1333 21.8466C12.1345 21.8478 12.1357 21.8491 12.137 21.8503C12.1573 21.8731 12.1814 21.8947 12.2072 21.9158C12.2103 21.9181 12.2134 21.9206 12.2164 21.9237C12.2263 21.9318 12.2374 21.9397 12.2479 21.9478C12.2664 21.9614 12.2861 21.9762 12.3064 21.991C12.394 22.0478 12.5646 22.0966 12.6299 22.1053C12.6484 22.1089 12.665 22.1132 12.6805 22.1175C12.7193 22.1281 12.7501 22.1411 12.7779 22.1558C12.7926 22.1639 12.8068 22.1725 12.8216 22.1817C12.8222 22.188 12.8234 22.1929 12.8241 22.1991C12.8265 22.2195 12.8302 22.2398 12.8339 22.2608C12.8363 22.2713 12.8382 22.2818 12.8406 22.2923C12.8487 22.3268 12.8598 22.3627 12.8727 22.3978C12.8771 22.4084 12.8807 22.4189 12.885 22.4293C12.8893 22.4386 12.8936 22.4485 12.898 22.4584C12.9029 22.4695 12.9085 22.4806 12.914 22.4917C12.9177 22.4997 12.9214 22.5071 12.9258 22.5152C12.935 22.5325 12.9454 22.5503 12.9565 22.5677C12.8487 22.9807 13.1469 23.4863 13.2202 23.5641L13.4328 23.79L13.5123 23.4893C13.5221 23.4541 13.5327 23.4363 13.67 23.2276C13.6923 23.1955 13.7299 23.1609 13.7687 23.1238C13.7865 23.1072 13.8056 23.0893 13.8253 23.0702C13.853 23.0807 13.8802 23.0899 13.903 23.0967C13.903 23.0967 13.903 23.0967 13.9035 23.0967C13.911 23.0992 13.9177 23.101 13.924 23.1023C13.9301 23.1035 13.9357 23.1048 13.9393 23.1053C13.9917 23.114 14.123 23.1096 14.2141 23.0924C14.2554 23.085 14.2949 23.0769 14.3337 23.0683C14.4557 23.0406 14.5635 23.0016 14.6541 22.9294C14.6713 22.9158 14.6873 22.901 14.704 22.8856C14.945 22.6319 15.0417 22.5059 15.0676 22.2287C15.0744 22.1558 15.0768 22.0744 15.0755 21.9756C15.1372 21.9719 15.1995 21.9688 15.2617 21.9651C15.3023 21.9627 15.3417 21.9589 15.3818 21.9559C15.4015 21.9539 15.4219 21.9534 15.4416 21.9515C15.4668 21.9485 15.4903 21.9442 15.5131 21.9392C15.5951 21.9212 15.6603 21.8892 15.7245 21.8435C15.7312 21.8385 15.738 21.8336 15.7448 21.8286C15.7502 21.8441 15.7565 21.8583 15.7639 21.8712C15.7657 21.875 15.7669 21.878 15.7687 21.8811C15.8384 21.9997 15.9432 22.0923 15.9826 22.1324C15.9844 22.1342 15.9875 22.1361 15.9894 22.138C15.9918 22.1404 15.9943 22.1423 15.9968 22.1441C15.9998 22.1472 16.0042 22.1503 16.0079 22.1528C16.0103 22.1546 16.0134 22.1565 16.0165 22.1583C16.0208 22.1614 16.0252 22.1645 16.03 22.1675C16.0338 22.1695 16.0374 22.172 16.0412 22.1744C16.046 22.1774 16.0504 22.1806 16.0553 22.1837C16.0633 22.188 16.0726 22.1929 16.0812 22.1984C16.0849 22.2009 16.0899 22.2034 16.0942 22.2058C16.1003 22.209 16.1064 22.2126 16.1132 22.2157C16.1188 22.2189 16.1244 22.2213 16.1292 22.2238C16.1341 22.2268 16.1397 22.2293 16.1453 22.2318C16.1521 22.2349 16.1589 22.2385 16.1656 22.2417C16.1681 22.2429 16.1706 22.2441 16.173 22.2448C16.1934 22.254 16.213 22.2633 16.2328 22.2713C16.2543 22.3503 16.2543 22.4498 16.2543 22.5467V22.6461C16.2518 22.6571 16.2494 22.6695 16.2475 22.6844L16.2094 22.948L16.4639 22.877C16.4824 22.8714 16.502 22.8683 16.5218 22.864C16.6517 22.8374 16.8489 22.7986 17.0227 22.5232C17.0603 22.4627 17.1226 22.3473 17.1528 22.2071C17.1756 22.1948 17.1983 22.183 17.2211 22.1707C17.2229 22.1695 17.2248 22.1682 17.2267 22.1675C17.2347 22.1626 17.2439 22.1578 17.252 22.1522C17.255 22.1497 17.2587 22.1484 17.2617 22.1459C17.2692 22.1411 17.2772 22.1355 17.284 22.1299C17.2865 22.1281 17.2895 22.1262 17.2919 22.1238C17.3018 22.1157 17.3117 22.1077 17.321 22.0985C17.3221 22.0978 17.3228 22.0966 17.3241 22.0954C17.3327 22.0867 17.3406 22.0781 17.3487 22.0688C17.3512 22.0663 17.353 22.0639 17.3548 22.0614C17.3629 22.0515 17.3703 22.0411 17.3771 22.0299C17.3776 22.0287 17.3789 22.0269 17.3801 22.0256C17.3881 22.012 17.3967 21.9978 17.4041 21.9818C17.4756 21.8324 17.486 21.6305 17.475 21.4663C17.4743 21.46 17.4743 21.4546 17.4743 21.449C17.472 21.4088 17.4763 21.3817 17.4855 21.3631C17.5009 21.3323 17.5311 21.3237 17.5699 21.3194C17.5982 21.3162 17.6309 21.3151 17.6666 21.3082C17.6821 21.3052 17.6963 21.302 17.711 21.2989C18.029 21.2329 18.13 21.1866 18.2304 21.2329C18.422 21.3298 18.3481 21.7261 18.1738 21.8275C18.1762 21.8293 18.1836 21.8286 18.1929 21.8262C18.2299 21.8176 18.3099 21.7849 18.3771 21.7545C18.4177 21.736 18.4535 21.7187 18.4707 21.7083C18.4887 21.6977 18.5059 21.686 18.5219 21.6749C18.6654 21.5718 18.7314 21.4237 18.7862 21.3532C18.8066 21.3268 18.8257 21.3113 18.846 21.3126C18.8891 21.3126 18.8891 21.3082 18.9242 21.3385L18.9249 21.339C18.9304 21.3446 18.9348 21.3521 18.9384 21.3595C18.9391 21.3613 18.9403 21.3638 18.9415 21.3663C18.9446 21.3737 18.947 21.3823 18.9483 21.391C18.9489 21.394 18.9495 21.3965 18.9501 21.4002C18.9508 21.4052 18.9508 21.4107 18.9513 21.4163C18.9526 21.4329 18.9526 21.4503 18.9513 21.4675C18.9513 21.4688 18.9513 21.4699 18.9513 21.4706C18.9513 21.4897 18.9501 21.512 18.9495 21.5348C18.9477 21.5792 18.9465 21.6311 18.9557 21.6953C18.9982 21.9496 19.2509 22.3732 19.4123 22.4534C19.4357 22.4652 19.4567 22.4695 19.4751 22.4658C19.4751 22.3115 19.4776 22.3009 19.4788 22.2435C19.4794 22.2275 19.4794 22.2071 19.4794 22.1793C19.4794 22.0652 19.4794 22.012 19.4923 21.9059C19.4979 21.8422 19.4998 21.7657 19.5151 21.699C19.5244 21.6601 19.5367 21.6249 19.5577 21.5972C19.6366 21.4959 19.846 21.4033 19.9335 21.3286C20.0032 21.2669 20.1997 21.1088 20.2177 21.086C20.2269 21.1144 20.2373 21.1421 20.2472 21.17C20.2836 21.2644 20.3279 21.3539 20.3877 21.4336C20.3895 21.4361 20.3908 21.4385 20.3926 21.441C20.3988 21.449 20.4055 21.4564 20.4123 21.4645C20.4197 21.4737 20.4271 21.483 20.4351 21.4916C20.4506 21.5082 20.4659 21.5237 20.4832 21.5391C20.5577 21.6051 20.9459 21.9268 21.0033 21.7466C20.811 21.3854 20.8067 20.9891 20.9373 20.8921C21.0439 20.8131 21.1425 20.7403 21.2288 20.6711C21.4704 20.9594 22.4531 21.6855 22.7538 21.8608C22.9152 21.9534 23.9986 22.8164 24.0897 22.909C23.9319 22.8881 23.7299 22.875 23.566 22.8671C23.4896 22.864 23.4212 22.8615 23.3694 22.8603C23.3448 22.8603 23.3318 22.8652 23.3282 22.8745C23.3201 22.8967 23.367 22.9436 23.4378 23.0059C23.4939 23.0553 23.5653 23.114 23.6356 23.1776C23.8235 23.3498 24.0158 23.5566 24.0595 23.6091C24.0811 23.6339 24.1064 23.6623 24.1334 23.6918C24.2604 23.8326 24.4305 24.0221 24.4699 24.1814C24.4724 24.1888 24.4742 24.1968 24.4767 24.2042C24.449 24.1987 24.4224 24.1938 24.3985 24.1895C24.3676 24.1839 24.3424 24.1796 24.3307 24.1771C24.2511 24.1592 24.107 24.1425 23.9955 24.1296C23.9665 24.1265 23.9388 24.1228 23.9159 24.1203C23.8137 24.1086 23.6979 24.1005 23.5807 24.0944C23.4285 24.0863 23.2727 24.0827 23.1346 24.0802C22.9775 24.0765 22.8203 24.0783 22.6645 24.0851C22.5591 24.0895 22.4538 24.095 22.349 24.1037C22.1131 24.1215 21.8814 24.1474 21.6577 24.1771C21.4709 24.19 21.2466 24.2394 21.0223 24.2722C20.9639 24.2808 20.9046 24.2889 20.8462 24.2938C20.832 24.295 20.8178 24.2968 20.8043 24.2975C20.8036 24.2975 20.8024 24.2975 20.8018 24.2975C20.6274 24.3098 20.4616 24.3006 20.3212 24.2432C20.3187 24.2419 20.3156 24.2407 20.3131 24.24C20.1178 24.1605 19.8762 24.0289 19.8762 23.7986C19.8762 23.7955 19.8769 23.7925 19.8769 23.79C19.8775 23.7795 19.8781 23.7696 19.8794 23.7603C19.8805 23.7549 19.8812 23.7504 19.8825 23.745C19.8843 23.7363 19.8868 23.7283 19.8892 23.7209C19.8911 23.7147 19.8935 23.7098 19.896 23.7042C19.899 23.6974 19.9028 23.69 19.9064 23.6839C19.9089 23.6795 19.912 23.6745 19.915 23.6702C19.9188 23.6653 19.9224 23.6603 19.9262 23.6567C19.9299 23.6517 19.9342 23.6474 19.9379 23.6425C19.9508 23.6294 19.9644 23.6165 19.9797 23.6055C19.9828 23.603 19.9853 23.6011 19.9884 23.5992C20.0044 23.5875 20.0216 23.5764 20.0396 23.5652C20.0408 23.5652 20.0421 23.5647 20.0426 23.5634C20.0636 23.5517 20.0852 23.5393 20.1061 23.5271C20.1208 23.519 20.135 23.5104 20.1492 23.5017C20.153 23.4992 20.1566 23.4974 20.1603 23.4949C20.1603 23.4943 20.1603 23.4943 20.1603 23.4943C20.0291 23.398 19.7672 23.411 19.5928 23.4419C19.5602 23.448 19.5288 23.4566 19.4973 23.4653C19.3994 23.4942 19.307 23.5368 19.204 23.5869C19.1153 23.6326 18.9964 23.7493 18.9064 23.8739C18.8528 23.948 18.8097 24.0246 18.7887 24.0919C18.7807 24.1179 18.7764 24.1425 18.7757 24.1641C18.7757 24.2783 18.8023 24.4444 18.7757 24.4629C18.7542 24.4759 18.7148 24.4586 18.6667 24.45C18.6377 24.4469 18.6063 24.445 18.5748 24.4432C18.5694 24.4432 18.5631 24.4426 18.5577 24.4419C18.5299 24.4407 18.5009 24.4395 18.4714 24.4388C18.4671 24.4388 18.4628 24.4388 18.4585 24.4388C18.424 24.4383 18.3888 24.4376 18.3537 24.4376H18.353C18.284 24.4383 18.2157 24.4395 18.1497 24.4419H18.1491C18.1368 24.4426 18.1244 24.4432 18.1122 24.4432C18.0942 24.4438 18.0764 24.4444 18.0591 24.445C17.8755 24.4525 17.6857 24.5265 17.507 24.6179C17.3703 24.6882 17.2403 24.7686 17.1244 24.8371C17.1003 24.8494 17.0541 24.8815 16.995 24.9278C16.9882 24.9334 16.9808 24.9389 16.974 24.9444C16.9697 24.9482 16.9654 24.9513 16.9605 24.955C16.9592 24.9562 16.9574 24.9574 16.9562 24.9586C16.6955 25.1686 16.2463 25.5841 16.1754 25.7859C16.1754 25.7871 16.1754 25.7871 16.1749 25.7878C16.1724 25.7958 16.1699 25.8033 16.1681 25.8106C16.1643 25.8292 16.173 25.8835 16.1958 25.8909C16.2008 25.8921 16.2056 25.8928 16.2118 25.8896C16.7227 25.6514 17.4695 25.6075 18.0462 25.7267C18.1682 25.7533 18.2933 25.7718 18.4184 25.7866C18.5466 25.802 18.6753 25.8137 18.7998 25.8261C18.8584 25.8317 18.9163 25.8378 18.9729 25.8439C19.0444 25.8526 19.1147 25.8612 19.1812 25.8723C19.1819 25.873 19.1819 25.8743 19.1824 25.8748C19.2126 25.9335 19.1923 25.9958 19.1541 26.0619C19.1251 26.1125 19.0857 26.165 19.05 26.2206C19.0309 26.2502 19.0124 26.281 18.9975 26.3119C18.9742 26.3632 18.9446 26.4335 18.9144 26.5095C18.8559 26.6577 18.7948 26.8317 18.7659 26.9423C18.7603 26.9601 18.756 26.9775 18.7517 26.9953C18.6981 27.1911 18.6704 27.3799 18.6161 27.6084C18.5946 27.7003 18.5687 27.7985 18.5342 27.9065C18.5306 27.9189 18.5256 27.9306 18.5207 27.9423C18.4147 28.2066 18.1127 28.3641 17.5822 28.4394C17.5323 28.4474 17.4855 28.4536 17.4405 28.4585C17.3814 28.4653 17.3264 28.4696 17.2741 28.4714C17.1903 28.4745 17.1127 28.4727 17.0356 28.4665C17.0097 28.4646 16.9851 28.464 16.9611 28.4628C16.714 28.4498 16.5489 28.4412 16.5329 28.1807C16.5286 28.114 16.5199 28.0338 16.5051 27.9498C16.4835 27.8226 16.4479 27.6874 16.3929 27.575C16.3819 27.5534 16.3708 27.5313 16.3584 27.5115C16.3462 27.4923 16.3332 27.4738 16.3203 27.4553C16.319 27.4534 16.3178 27.4516 16.3165 27.4491C16.2894 27.4114 16.2611 27.3763 16.2309 27.3436C16.2309 27.3436 16.2309 27.3429 16.2303 27.3429C16.1533 27.2602 16.0658 27.1978 15.9684 27.1737C15.7984 26.7774 15.2351 26.5126 15.0669 26.4811L14.8156 26.4335L14.8654 26.6861C14.8771 26.7472 14.887 26.7898 14.8932 26.8206C14.9067 26.888 14.9067 26.888 14.9073 26.9144C14.908 26.9317 14.9086 26.9565 14.9098 26.9928L14.9111 27.0151C14.9148 27.1176 14.9166 27.1818 14.9006 27.3929C14.8913 27.4004 14.8821 27.4065 14.8735 27.4139C14.8717 27.4157 14.8697 27.417 14.8679 27.4182C14.8624 27.4225 14.858 27.4263 14.8537 27.4306C14.8512 27.4324 14.8482 27.4349 14.8464 27.4362C14.807 27.4763 14.7632 27.5448 14.725 27.6077C14.7151 27.6244 14.7053 27.6404 14.6966 27.6559C14.6911 27.6652 14.6855 27.6744 14.6806 27.6831C14.6677 27.7091 14.6498 27.7535 14.6147 27.872C14.5999 27.8659 14.5857 27.8596 14.5728 27.854C14.5549 27.8467 14.5389 27.8393 14.5228 27.8325C14.4563 27.8041 14.4033 27.7837 14.3356 27.7837C14.3312 27.7837 14.3275 27.7843 14.3232 27.785C14.3016 27.7855 14.2813 27.7875 14.2616 27.7893C14.2548 27.7905 14.248 27.7911 14.2412 27.7911C14.2197 27.7942 14.1988 27.7979 14.1796 27.8022C14.1747 27.8035 14.1698 27.8047 14.1648 27.806C14.1445 27.8109 14.1254 27.8164 14.1075 27.8232C14.1069 27.8238 14.1057 27.8238 14.1051 27.8245C14.0866 27.8312 14.0699 27.8393 14.0534 27.8473C14.0509 27.8492 14.0471 27.8504 14.0441 27.8517C14.0281 27.8603 14.0126 27.8702 13.9979 27.8801C13.9948 27.8819 13.9923 27.8837 13.9898 27.8856C13.9585 27.9085 13.9294 27.9344 13.9011 27.964C13.8999 27.9652 13.8987 27.9671 13.8974 27.9677C13.8826 27.9837 13.8679 27.9998 13.853 28.0177C13.8278 28.0153 13.8032 28.0121 13.7773 28.0109H13.7631C13.5493 28.0109 13.1882 28.1363 13.02 28.2677L13.0175 28.2702L13.0138 28.2726C12.988 28.2949 12.9189 28.3603 12.8548 28.4709L12.7137 28.7129L12.9923 28.7326C13.1876 28.7462 13.2966 28.7733 13.4833 28.8974C13.4828 28.9456 13.4833 28.9962 13.4876 29.048C13.4889 29.0642 13.4901 29.0808 13.492 29.0968C13.4932 29.1067 13.4939 29.1166 13.495 29.1264C13.4988 29.1536 13.5031 29.1807 13.5086 29.208C13.5099 29.2154 13.5123 29.2234 13.5135 29.2314C13.5191 29.2573 13.5252 29.2839 13.5327 29.3092C13.5338 29.3123 13.5345 29.316 13.5358 29.3191C13.5444 29.3475 13.5536 29.3758 13.5647 29.4031C13.5672 29.4098 13.5696 29.4166 13.5727 29.4229C13.5845 29.4512 13.5967 29.479 13.6109 29.5056C13.7279 29.737 13.9215 29.9024 14.3072 29.8716C14.2924 29.8975 14.2788 29.9241 14.2665 29.95C14.2339 30.0173 14.2117 30.0803 14.2086 30.118C14.2006 30.2303 14.2024 30.3291 14.2173 30.418C14.2173 30.4193 14.2173 30.4204 14.2178 30.4217C14.0545 30.7501 14.1125 31.1928 14.1211 31.2489L14.1643 31.5373L14.3959 31.362C14.444 31.3255 14.4576 31.3181 14.619 31.2372L14.688 31.202C14.7022 31.1946 14.7188 31.1872 14.736 31.1811C14.7367 31.1816 14.7373 31.1823 14.7373 31.1829C14.7471 31.1934 14.7576 31.2027 14.7681 31.2125C14.773 31.2169 14.7773 31.2212 14.7822 31.2255C14.7928 31.2341 14.8038 31.2422 14.8156 31.2502C14.821 31.2539 14.8266 31.2582 14.8322 31.2613C14.8439 31.2687 14.8556 31.2755 14.8679 31.2823C14.8741 31.2854 14.8803 31.2891 14.887 31.2915C14.8994 31.2978 14.9116 31.3039 14.9246 31.3088C14.9314 31.312 14.9382 31.3138 14.9456 31.3163C14.9585 31.3212 14.9714 31.3255 14.9844 31.3298C14.9924 31.3323 14.9998 31.3335 15.0078 31.336C15.0207 31.3391 15.0343 31.3428 15.0478 31.3453C15.0565 31.3471 15.0658 31.3483 15.075 31.3501C15.0928 31.3526 15.112 31.3557 15.131 31.357C15.147 31.3589 15.1625 31.36 15.1785 31.36C15.1871 31.3607 15.1957 31.36 15.2044 31.36C15.2191 31.36 15.2339 31.36 15.2481 31.3595C15.2567 31.3595 15.2653 31.3582 15.2746 31.3576C15.2894 31.3564 15.3041 31.3551 15.319 31.3533C15.3276 31.3521 15.3356 31.3508 15.3442 31.3496C15.3596 31.3471 15.3744 31.3447 15.3892 31.3409C15.3972 31.3391 15.4053 31.3372 15.4132 31.336C15.4287 31.3316 15.4434 31.328 15.4589 31.323C15.4662 31.3212 15.4736 31.3187 15.4804 31.3163C15.4964 31.3113 15.5112 31.3051 15.5266 31.2996C15.5328 31.2971 15.5396 31.2953 15.5457 31.2915C15.5624 31.2841 15.579 31.2767 15.5951 31.2681C15.5999 31.2663 15.6037 31.2644 15.608 31.262C15.6283 31.2508 15.648 31.239 15.6671 31.2267C15.6862 31.2138 15.704 31.1983 15.7213 31.1823C15.839 31.0687 15.9228 30.8835 16.0559 30.7952C16.2044 30.6951 16.3683 30.6939 16.5113 30.7168C16.5088 30.7421 16.5088 30.7668 16.5101 30.7915C16.5113 30.8143 16.5137 30.8366 16.5187 30.8569C16.5365 30.9229 16.584 31.0551 16.6456 31.1126C16.653 31.1199 16.6616 31.1279 16.6715 31.1372C16.6906 31.1551 16.7128 31.1773 16.7374 31.2002C16.759 31.2212 16.7818 31.2422 16.804 31.2631C16.7991 31.3193 16.7996 31.3749 16.812 31.4472C16.8273 31.5348 16.807 31.6459 16.7885 31.7539L16.7861 31.7669C16.7781 31.8082 16.7744 31.8262 16.7725 31.8336C16.7646 31.8478 16.7553 31.867 16.7423 31.8997L16.6407 32.1639L16.9204 32.1355C17.0954 32.1176 17.3246 32.0644 17.5532 31.8034C17.6192 31.7268 17.6907 31.6304 17.7412 31.5225C17.7541 31.5182 17.7671 31.5126 17.78 31.507C17.7825 31.5058 17.7862 31.5045 17.7887 31.5033C17.8072 31.4947 17.825 31.4853 17.8422 31.4743C17.8453 31.4724 17.8484 31.47 17.8514 31.4681C17.865 31.4594 17.8786 31.4502 17.8915 31.4403C17.8977 31.436 17.9039 31.4305 17.9094 31.4255C17.9186 31.4181 17.9285 31.4094 17.9371 31.4015C17.9439 31.3959 17.9501 31.3891 17.9562 31.383C17.9648 31.3749 17.9729 31.3663 17.9803 31.3582C17.9864 31.3514 17.9926 31.3447 17.9988 31.3372C18.0061 31.3292 18.0129 31.3199 18.0198 31.3107C18.0252 31.3033 18.0314 31.2958 18.0369 31.2879C18.0437 31.278 18.0505 31.2687 18.0567 31.2582C18.0616 31.2508 18.0665 31.2433 18.0714 31.2354C18.08 31.2218 18.0875 31.2076 18.0955 31.1934C18.101 31.1829 18.1066 31.1718 18.1122 31.1613C18.117 31.1502 18.1226 31.139 18.1282 31.1279C18.1318 31.1187 18.1355 31.1094 18.1393 31.1002C18.1436 31.0903 18.1472 31.0804 18.151 31.0705C18.154 31.0606 18.1577 31.0508 18.1608 31.0409C18.1639 31.031 18.167 31.0218 18.1695 31.0119C18.1725 31.002 18.1756 30.9921 18.1781 30.9822C18.1805 30.9724 18.183 30.9632 18.1848 30.9544C18.1873 30.944 18.1891 30.9335 18.1916 30.9229C18.1934 30.9143 18.1947 30.9063 18.1959 30.897C18.1972 30.8859 18.199 30.8754 18.2002 30.865C18.2008 30.8582 18.2015 30.8519 18.2021 30.8458C18.2033 30.8341 18.2046 30.8224 18.2051 30.8113C18.2175 30.81 18.2299 30.8082 18.2409 30.8069C18.2416 30.8069 18.2421 30.8069 18.2421 30.8069C18.2612 30.8044 18.2779 30.8008 18.2946 30.7971C18.2976 30.7964 18.3007 30.7958 18.3038 30.7952C18.3192 30.7909 18.334 30.7866 18.3487 30.781C18.3512 30.7798 18.3543 30.7785 18.3568 30.778C18.371 30.7717 18.3857 30.7649 18.3999 30.7569C18.4017 30.7557 18.4042 30.7544 18.406 30.7539C18.4215 30.7446 18.4362 30.7354 18.4529 30.7235C18.5539 30.9087 18.7062 31.1008 18.8886 31.2613C19.0506 31.4039 19.2355 31.5225 19.4296 31.5885C19.4301 31.5885 19.4301 31.5891 19.4301 31.5891C19.4332 31.5903 19.4363 31.5903 19.4388 31.5916C19.5312 31.6225 19.6255 31.6416 19.7204 31.6459C19.7179 31.6422 19.7148 31.6379 19.7117 31.6336C19.6877 31.599 19.6582 31.5583 19.6267 31.5138C19.4923 31.323 19.3187 31.0637 19.3187 30.91C19.3469 30.9229 19.3753 30.9384 19.4042 30.9551C19.5004 31.0107 19.6027 31.0792 19.7204 31.1304C19.8115 31.173 19.9206 31.1897 20.0297 31.1854C20.0556 31.1841 20.0827 31.1823 20.1086 31.1786C20.1875 31.1699 20.3095 31.1081 20.3661 31.0817C20.3661 31.081 20.3661 31.081 20.3661 31.081C20.27 30.9977 20.1954 30.9446 20.1566 30.9094C20.116 30.873 20.0728 30.8316 20.0304 30.7897C19.9952 30.755 19.9607 30.7205 19.9292 30.689C19.9107 30.673 19.8837 30.6403 19.8602 30.6088C19.8387 30.5791 19.8202 30.5501 19.8158 30.5353C19.8171 30.5353 19.8178 30.5353 19.819 30.5347C19.83 30.5322 19.8424 30.5297 19.8547 30.5272C19.8602 30.5261 19.867 30.5248 19.8732 30.5236C19.8818 30.5223 19.8904 30.5211 19.899 30.5198C19.9107 30.5186 19.9224 30.5168 19.9355 30.5155C19.9452 30.5143 19.9545 30.513 19.9644 30.5124C19.973 30.5119 19.9822 30.5112 19.9914 30.5099C20.0032 30.5094 20.0149 30.5081 20.0272 30.5076C20.0328 30.5069 20.0383 30.5063 20.0439 30.5063C20.2509 30.4939 20.5183 30.5001 20.7364 30.4988C20.7414 30.4988 20.7463 30.4988 20.7518 30.4988C20.7703 30.4982 20.7888 30.4982 20.8061 30.4982C20.8196 30.4977 20.8332 30.4977 20.8455 30.4977C20.8517 30.497 20.8572 30.497 20.8627 30.497C20.8794 30.4964 20.896 30.4957 20.9114 30.4952C20.9805 30.4927 21.0489 30.4482 21.1037 30.4217C21.1289 30.4094 21.1512 30.4013 21.169 30.4026C21.1869 30.4019 21.2047 30.4019 21.2232 30.4013C21.3088 30.3988 21.3945 30.3958 21.4734 30.3871C21.4912 30.3846 21.5097 30.3834 21.527 30.3803C21.5622 30.3747 21.6084 30.3636 21.6515 30.3519C21.6774 30.3451 21.7026 30.3384 21.7236 30.3321C21.7353 30.3285 21.7501 30.3242 21.7655 30.3199C21.8074 30.3081 21.8586 30.2951 21.9035 30.2816C21.9226 30.276 21.9398 30.2704 21.9553 30.2654C21.9553 30.2371 21.9405 30.2037 21.917 30.1698C21.9165 30.1685 21.9159 30.1674 21.9146 30.1667C21.8771 30.113 21.8197 30.0574 21.7692 30.0099C21.7501 29.9926 21.7316 29.9759 21.7155 29.9612C21.6755 29.9254 21.6386 29.8858 21.6053 29.8414C21.5067 29.7099 21.4407 29.5376 21.4309 29.3141C21.4247 29.2203 21.4253 29.1555 21.429 29.0894C21.4303 29.0622 21.4328 29.0351 21.4352 29.0054C21.4352 28.966 21.4481 28.8647 21.4574 28.8252C21.4697 28.7622 21.4907 28.6246 21.5067 28.5585C21.5079 28.5548 21.5085 28.5505 21.5092 28.548C21.532 28.4733 21.5547 28.3788 21.5763 28.2967C21.5924 28.2338 21.6071 28.1769 21.6183 28.143C21.6367 28.0807 21.6472 28.0066 21.6546 27.9313C21.6663 27.8065 21.6663 27.6807 21.6663 27.6066C22.4851 27.5732 23.8002 27.4423 24.5617 27.1028C24.4989 27.3984 24.4428 27.6794 24.4107 27.8522C24.4052 27.8837 24.3997 27.9121 24.396 27.9362C24.3861 27.9905 24.375 28.0461 24.3633 28.1029C24.2844 28.4875 24.1679 28.9098 23.9548 29.1518C23.8839 29.2289 23.6731 29.3518 23.4828 29.408C23.4138 29.4283 23.3472 29.4401 23.2917 29.4382C23.0996 29.4296 22.9553 29.0635 22.8031 29.1475H22.8025C22.7372 29.5469 22.8167 29.9519 23.2197 30.1327C23.3541 30.1933 23.5247 30.2284 23.7373 30.2309C23.7502 30.2309 23.7637 30.2303 23.7767 30.2284C23.7779 30.2284 23.7792 30.2278 23.7804 30.2278C23.8205 30.2235 23.858 30.2149 23.8877 30.2099C23.8913 30.2093 23.8944 30.2087 23.8981 30.2081C23.9012 30.2081 23.9048 30.2075 23.9073 30.2075C23.9104 30.2068 23.9141 30.2068 23.9172 30.2068C23.9203 30.2068 23.9227 30.2068 23.9258 30.2075C23.9283 30.2075 23.9308 30.2081 23.9326 30.2081C23.9351 30.2087 23.9375 30.2099 23.9393 30.2111C23.9406 30.2118 23.9418 30.2124 23.9431 30.2136C23.9751 30.2458 23.903 30.3124 23.8543 30.3864C23.8426 30.4038 23.8327 30.4211 23.8254 30.4384C23.8032 30.4846 23.7817 30.5446 23.7619 30.6162C23.6442 31.0416 23.5949 31.846 23.8081 32.2046C23.8149 32.2151 24.1772 32.9183 24.3122 32.888C24.3165 32.8868 24.3208 32.885 24.3245 32.8825C24.3251 32.8819 24.3257 32.8819 24.3257 32.8819C24.3491 32.8645 24.362 32.8189 24.362 32.7337C24.362 32.2466 24.4749 31.7688 24.7522 31.3959C24.7984 31.3341 24.8482 31.2742 24.9037 31.2187C24.9857 31.136 25.0651 31.02 25.1397 30.8828C25.2198 30.7372 25.2937 30.568 25.3609 30.3884C25.4089 30.4526 25.5033 30.5791 25.5545 30.6439C25.568 30.6613 25.5791 30.6754 25.5845 30.6816C25.6363 30.7427 25.7337 30.8631 25.8151 30.9594C25.8508 31.0013 25.8841 31.0396 25.9075 31.065C26.2132 31.3909 26.2175 31.5101 25.9598 31.9503C25.8293 32.17 25.5975 32.4794 25.3572 32.8264C25.1126 33.1696 24.8286 33.4344 24.5322 33.4826C24.5007 33.4881 24.4668 33.4887 24.4317 33.4875C24.277 33.4814 24.091 33.4215 23.8987 33.4431C23.8969 33.4431 23.8963 33.4436 23.8944 33.4436C23.8692 33.4467 23.8451 33.451 23.8223 33.456C23.8124 33.4585 23.8045 33.4609 23.7946 33.4634C23.7804 33.4677 23.7669 33.4708 23.754 33.4758C23.7441 33.4789 23.7348 33.4832 23.7256 33.4875C23.7139 33.4924 23.7028 33.4974 23.6923 33.5029C23.6837 33.5073 23.6751 33.5122 23.6664 33.5177C23.6559 33.524 23.6461 33.5307 23.6368 33.5375C23.6294 33.5431 23.6214 33.5479 23.6147 33.5542C23.6041 33.5621 23.5949 33.5709 23.5851 33.5801C23.5795 33.5857 23.5739 33.5912 23.5678 33.5968C23.5555 33.6092 23.5444 33.6221 23.5333 33.6363C23.5308 33.6394 23.5277 33.6425 23.5253 33.6461C23.5117 33.6641 23.4982 33.6826 23.4859 33.7023C23.431 33.6906 23.3749 33.6831 23.3151 33.6831C22.8654 33.6831 22.3879 34.0722 22.3275 34.3784L22.2794 34.6216L22.5228 34.5851C22.6257 34.5697 22.6805 34.563 22.7114 34.563C22.7274 34.563 22.7372 34.5636 22.7649 34.5684C22.7883 34.5729 22.8149 34.5772 22.8555 34.5815C22.8789 34.5839 22.8931 34.5913 22.9344 34.6135C22.9911 34.6444 23.0651 34.6851 23.1901 34.7148C23.1901 34.7155 23.1901 34.7155 23.1901 34.716C23.1901 34.7376 23.1901 34.7574 23.1907 34.7766C23.1907 34.784 23.1913 34.7919 23.192 34.7987C23.1932 34.8154 23.195 34.8315 23.1981 34.8476C23.1988 34.8507 23.1988 34.8537 23.1988 34.8562C23.1988 34.8574 23.1993 34.8586 23.1999 34.8599C23.2006 34.8642 23.2018 34.8692 23.2031 34.8735C23.2055 34.8845 23.2085 34.8957 23.2117 34.9068C23.2129 34.9099 23.2148 34.9136 23.2154 34.9172C23.2197 34.9303 23.2252 34.9438 23.2314 34.9568C23.2326 34.9593 23.2333 34.9611 23.2344 34.9642C23.2412 34.9784 23.2493 34.9945 23.2579 35.0105C23.2592 35.0123 23.2597 35.0148 23.261 35.0167C23.314 35.1099 23.3904 35.1303 23.3681 35.2031C23.3633 35.218 23.3546 35.2346 23.341 35.255C23.3392 35.2581 23.3374 35.2612 23.3356 35.2637C23.2967 35.3192 23.2592 35.3741 23.227 35.4328C23.1803 35.5199 23.147 35.615 23.147 35.731C23.147 35.7971 23.1562 35.8581 23.1729 35.9138C23.1796 35.9359 23.1864 35.9575 23.195 35.9773C23.1963 35.9798 23.1981 35.9841 23.2006 35.9897C23.208 36.0082 23.2209 36.0427 23.2351 36.0785C23.224 36.0977 23.2129 36.1168 23.2024 36.1378C23.1014 36.3422 23.0866 36.7496 23.1427 36.9503L23.1451 36.9583C23.1643 37.0145 23.2092 37.0867 23.2801 37.1904L23.4458 37.4343L23.5771 37.1707C23.6535 37.0151 23.7453 36.9176 23.9301 36.7737C23.9461 36.7836 23.9634 36.7923 23.9806 36.8002C23.9837 36.8021 23.9875 36.8033 23.9905 36.8045C24.0065 36.812 24.0238 36.8187 24.041 36.8243C24.046 36.8262 24.0509 36.8274 24.0565 36.8293C24.073 36.8342 24.0903 36.8385 24.1077 36.8422C24.1138 36.8435 24.1199 36.8453 24.1261 36.8466C24.1433 36.8496 24.1606 36.8527 24.1791 36.8545C24.1852 36.8552 24.192 36.8558 24.1988 36.8564C24.2166 36.8583 24.2346 36.8595 24.2536 36.8601C24.2598 36.8601 24.266 36.8601 24.2727 36.8601C24.2919 36.8608 24.3103 36.8608 24.33 36.8595C24.3338 36.8595 24.3374 36.8588 24.3405 36.8588C24.4021 36.8558 24.4637 36.8466 24.5248 36.8329C24.5352 36.8305 24.5464 36.8286 24.5561 36.8262C24.5703 36.8225 24.5839 36.8187 24.5969 36.8144C24.6086 36.8108 24.6203 36.8077 24.6325 36.804C24.6449 36.7996 24.6578 36.7953 24.6702 36.791C24.6825 36.786 24.6942 36.7824 24.7065 36.7774C24.7182 36.7725 24.7294 36.7675 24.7405 36.7626C24.7522 36.757 24.7644 36.7515 24.7756 36.7459C24.786 36.7403 24.7964 36.7354 24.8076 36.7299C24.8187 36.7236 24.8298 36.7169 24.8408 36.7114C24.8507 36.7052 24.86 36.6997 24.8692 36.6934C24.8803 36.6867 24.8902 36.6792 24.9 36.6718C24.9086 36.6657 24.9172 36.6601 24.9247 36.654C24.9357 36.6452 24.9463 36.636 24.956 36.6267C24.9616 36.6218 24.9672 36.6168 24.9727 36.6125C25.0146 36.5724 25.0541 36.5169 25.0929 36.4613C25.1095 36.4379 25.1255 36.415 25.1415 36.3922C25.1668 36.357 25.1921 36.3248 25.2168 36.2989C25.2333 36.2811 25.2531 36.2798 25.2741 36.2878C25.3196 36.3058 25.3696 36.3674 25.3997 36.3946C25.3997 36.3953 25.3997 36.3953 25.3997 36.3953C25.4046 36.4002 25.4109 36.4052 25.4176 36.4107C25.4195 36.4131 25.4219 36.4144 25.4238 36.4163C25.4281 36.4199 25.4324 36.4237 25.4373 36.4273C25.4404 36.4298 25.4429 36.4316 25.4459 36.4341C25.4878 36.6256 25.5982 36.836 25.7781 37.0632L25.7873 37.0749L25.9962 37.346L26.0892 37.0157C26.0978 36.9843 26.1163 36.957 26.1688 36.8836C26.197 36.8422 26.2335 36.7916 26.2772 36.7243C26.2963 36.6947 26.3221 36.665 26.3493 36.6335C26.3942 36.5817 26.4454 36.5218 26.483 36.4458C26.4997 36.4422 26.5162 36.4385 26.5335 36.4341C26.5385 36.4329 26.5434 36.4311 26.5489 36.4298C26.56 36.4268 26.5717 36.423 26.5834 36.4194C26.5902 36.4169 26.5969 36.4144 26.6038 36.412C26.6131 36.4088 26.6228 36.4052 26.6321 36.4014C26.6389 36.3983 26.6463 36.3953 26.653 36.3922C26.6623 36.3885 26.6709 36.3847 26.6796 36.3804C26.687 36.3768 26.6943 36.373 26.7011 36.3687C26.7091 36.3644 26.7171 36.3601 26.7258 36.3557C26.7332 36.352 26.74 36.3477 26.7473 36.3434C26.7554 36.3385 26.7628 36.3335 26.7707 36.3292C26.7781 36.3243 26.7843 36.32 26.7917 36.315C26.7991 36.3101 26.8065 36.3052 26.8145 36.2996C26.8212 36.2946 26.828 36.2897 26.8349 36.2847C26.8428 36.2786 26.8496 36.2736 26.8564 36.2669C26.8631 36.2619 26.8694 36.257 26.8762 36.2514C26.8835 36.2452 26.8903 36.2385 26.8976 36.2322C26.9039 36.2267 26.91 36.2211 26.9156 36.2156C26.9235 36.2082 26.9321 36.2002 26.9402 36.1921C26.9494 36.1829 26.958 36.1736 26.9666 36.1644C26.9735 36.1563 26.9808 36.149 26.9876 36.1403C26.9932 36.1341 26.9988 36.1274 27.0043 36.1206C27.0098 36.1132 27.016 36.1064 27.0216 36.099C27.027 36.0915 27.032 36.0848 27.0376 36.0773C27.0425 36.0693 27.048 36.0625 27.0529 36.0551C27.0579 36.0477 27.0628 36.0402 27.0684 36.0323C27.0733 36.0249 27.0777 36.0174 27.082 36.01C27.0869 36.0019 27.0917 35.994 27.0967 35.9859C27.101 35.9785 27.1053 35.9705 27.1097 35.9631C27.114 35.9545 27.1183 35.9465 27.1226 35.9384C27.1269 35.931 27.1306 35.923 27.1337 35.9149C27.138 35.9063 27.1424 35.8976 27.146 35.889C27.1497 35.8809 27.1528 35.8736 27.1564 35.8656C27.1602 35.8563 27.1639 35.8477 27.1676 35.8378C27.1701 35.8304 27.1725 35.8223 27.1756 35.8149C27.1787 35.805 27.1823 35.7958 27.1855 35.7865C27.1873 35.7791 27.1891 35.7723 27.1916 35.7649C27.2027 35.7266 27.2119 35.6871 27.2181 35.647C27.2193 35.6414 27.22 35.6359 27.2206 35.6297C27.2224 35.618 27.2236 35.6063 27.2249 35.5952C27.2255 35.589 27.2261 35.5822 27.2267 35.5754C27.2274 35.5643 27.2279 35.5519 27.2286 35.5409C27.2292 35.5341 27.2298 35.5272 27.2298 35.5204C27.2298 35.5087 27.2298 35.497 27.2298 35.4852C27.2298 35.4785 27.2298 35.4717 27.2292 35.4649C27.2292 35.4532 27.2286 35.4408 27.2274 35.4285C27.2267 35.4223 27.2261 35.4161 27.2255 35.41C27.2243 35.3969 27.2231 35.3847 27.2211 35.3723C27.22 35.3667 27.2193 35.3606 27.2187 35.3556C27.2163 35.3421 27.2144 35.3279 27.2114 35.3149C27.2107 35.3106 27.2094 35.3063 27.2089 35.3025C27.2051 35.2871 27.2021 35.2723 27.1984 35.2581C27.1984 35.2568 27.1978 35.2556 27.1978 35.255C27.1879 35.2192 27.1769 35.1846 27.1632 35.1495C27.138 35.0846 27.0635 35.0167 26.9729 34.963C26.9778 34.9605 26.9828 34.9568 26.9889 34.9531C27.0216 34.9296 27.069 34.8852 27.0998 34.8605C27.1078 34.8543 27.1145 34.8487 27.1195 34.8457C27.1645 34.816 27.2249 34.7321 27.2606 34.6716C27.2606 34.6716 27.2612 34.6704 27.2612 34.6698C27.3038 34.6926 27.3451 34.7142 27.39 34.7315C27.3919 34.7327 27.3943 34.7333 27.3962 34.734C27.3962 34.734 27.3962 34.734 27.3967 34.7345C27.4276 34.7463 27.4596 34.7556 27.4941 34.7624C27.5466 34.7723 27.6039 34.7747 27.6697 34.7667C27.7012 34.763 27.7339 34.7599 27.7665 34.7561C27.7696 34.7556 27.7727 34.7556 27.7757 34.7556H27.7763C27.7899 34.7537 27.8022 34.7525 27.8158 34.75C27.8238 34.7494 27.8318 34.7488 27.8392 34.7475C27.8589 34.7444 27.8787 34.7407 27.8978 34.7364C27.9415 34.7272 27.9914 34.7105 28.0351 34.6939C28.0364 34.6944 28.0364 34.695 28.0376 34.6969C28.0672 34.7482 28.1017 34.7926 28.135 34.8365C28.1578 34.8667 28.18 34.8957 28.1997 34.9253L28.334 35.1204L28.4813 34.9327C28.6002 34.782 28.6575 34.695 28.6772 34.3611C28.6877 34.1314 28.6193 33.9208 28.488 33.782C28.4819 33.7758 28.4751 33.7703 28.4684 33.764C28.4665 33.7542 28.4652 33.7449 28.4641 33.7363C28.4634 33.7289 28.4616 33.7209 28.4609 33.714C28.4523 33.6745 28.3827 33.5603 28.3735 33.5468C28.3617 33.5344 28.3568 33.5233 28.3568 33.5116C28.3568 33.5109 28.3568 33.5098 28.3568 33.5091C28.3574 33.5042 28.3586 33.4992 28.3611 33.4943C28.3617 33.4931 28.3624 33.4918 28.3629 33.4912C28.3654 33.4862 28.3685 33.4819 28.3722 33.4776C28.3735 33.4764 28.3746 33.4751 28.3759 33.4739C28.3802 33.4695 28.3852 33.4652 28.3907 33.4609C28.3919 33.4598 28.3938 33.4585 28.3956 33.4573C28.4012 33.4529 28.4073 33.4486 28.4141 33.4449C28.4154 33.4436 28.4178 33.4424 28.4197 33.4411C28.4271 33.4375 28.4344 33.4332 28.4431 33.4289C28.4456 33.4276 28.4468 33.4269 28.4486 33.4258C28.4585 33.4208 28.4684 33.4165 28.4788 33.4122C28.4819 33.4109 28.4856 33.4091 28.4887 33.4078C28.4973 33.4048 28.506 33.401 28.5146 33.3974C28.5232 33.3943 28.5312 33.3906 28.5398 33.3881C28.5429 33.3868 28.546 33.3856 28.5497 33.3844C28.5595 33.3807 28.57 33.3769 28.5799 33.3739C28.5817 33.3733 28.5836 33.3726 28.5848 33.3721C28.6323 33.356 28.6809 33.3406 28.724 33.3276C28.7278 33.3264 28.7308 33.3251 28.7339 33.3246C28.7413 33.3221 28.7481 33.3201 28.7542 33.3183C28.7641 33.3152 28.7752 33.3122 28.7844 33.3091C28.8047 33.3023 28.8282 33.2924 28.8516 33.2813C28.9082 33.2536 28.9711 33.2153 29.0241 33.1727C29.0635 33.1412 29.098 33.1078 29.1208 33.0751C29.1301 33.0621 29.1375 33.0486 29.1424 33.0362C29.1462 33.0319 29.1573 33.0072 29.1554 33.0029C29.1554 33.0022 29.1554 33.001 29.1554 33.001C29.1375 33.001 29.0698 32.9893 29.0094 32.9745C28.9779 32.967 28.9483 32.9584 28.9287 32.9497C28.9206 32.9461 28.9145 32.9424 28.9102 32.9393C28.9138 32.938 28.9213 32.9355 28.9323 32.9312C29.0099 32.8992 29.2571 32.7905 29.3304 32.7435C29.3316 32.743 29.3334 32.7417 29.3347 32.7411C29.3359 32.7405 29.3359 32.7405 29.3372 32.7399C29.3408 32.7374 29.3451 32.7349 29.3471 32.7325C29.421 32.6664 29.4869 32.5867 29.5306 32.5256C29.5658 32.4819 29.5917 32.4731 29.5701 32.4294C29.5658 32.4207 29.5392 32.4114 29.509 32.4071C29.4438 32.3985 29.339 32.3942 29.2601 32.3855C29.2404 32.383 29.1726 32.3825 29.1067 32.3744C29.1055 32.3744 29.1048 32.3744 29.1036 32.3744C29.0969 32.3731 29.0907 32.3726 29.0839 32.3719C29.0796 32.3706 29.0759 32.3706 29.0716 32.3701C29.0667 32.3695 29.0624 32.3683 29.0574 32.3676C29.0494 32.3658 29.042 32.3645 29.0346 32.3627C29.0328 32.3627 29.0315 32.362 29.0303 32.3614C29.0223 32.3602 29.0155 32.3577 29.0087 32.3559C29.0063 32.3546 29.0044 32.354 29.0026 32.3534C28.9977 32.3516 28.9927 32.3497 28.9884 32.3478C28.9866 32.3467 28.9847 32.346 28.9828 32.3447C28.9785 32.3429 28.9754 32.3404 28.9724 32.3379C28.9711 32.3368 28.9699 32.3361 28.9681 32.3349C28.965 32.3318 28.9619 32.328 28.96 32.325C28.96 32.3244 28.9594 32.3244 28.9594 32.3237C28.9515 32.3084 28.9625 32.2942 28.9822 32.28C29.0266 32.2503 29.1147 32.2262 29.1375 32.2139C29.2004 32.1824 29.2565 32.1441 29.3082 32.1015C29.3507 32.0664 29.3908 32.0287 29.4258 31.9891C29.4789 31.9317 29.5047 31.8836 29.5442 31.8219C29.5529 31.8039 29.5787 31.7422 29.5874 31.7113C29.6927 31.6935 29.9133 31.4916 30.0322 31.3076C30.0618 31.262 30.0852 31.2181 30.0987 31.1786C30.1007 31.1718 30.1018 31.1669 30.1043 31.1613C30.1142 31.1322 30.1197 31.1126 30.116 31.0903C30.1074 31.0508 30.0895 31.0551 30.055 31.0594C29.9718 31.0687 29.8498 31.1212 29.7845 31.1255C29.7697 31.1261 29.7574 31.1255 29.7463 31.1248C29.7438 31.1248 29.742 31.1243 29.7395 31.1243C29.7309 31.1236 29.7222 31.1223 29.7161 31.1205C29.7143 31.1199 29.7125 31.1193 29.71 31.1187C29.7038 31.1169 29.6983 31.115 29.694 31.1126C29.692 31.1113 29.6909 31.1106 29.6896 31.1094C29.6859 31.107 29.6828 31.1038 29.6803 31.1008C29.6798 31.0995 29.6791 31.0977 29.6779 31.0964C29.676 31.0934 29.6749 31.0896 29.6742 31.086C29.6736 31.0842 29.6736 31.0822 29.6736 31.081C29.6736 31.0767 29.6736 31.0723 29.6748 31.068C29.6748 31.0662 29.6755 31.0637 29.6767 31.0613C29.6779 31.0569 29.6798 31.0514 29.6816 31.0464C29.6823 31.0439 29.6834 31.0421 29.6847 31.0391C29.6877 31.0335 29.6909 31.0279 29.6945 31.0211C29.6958 31.0193 29.697 31.0175 29.6983 31.015C29.7026 31.0082 29.7075 31.0008 29.713 30.9934C29.7143 30.9921 29.7148 30.9909 29.7161 30.9896C29.7635 30.9242 29.8437 30.8415 29.9158 30.7557C29.9287 30.6279 30.0383 30.5173 30.1037 30.4247C30.2479 30.2179 30.3088 30.1254 30.3175 29.9537C30.3175 29.9049 30.3261 29.8654 30.2824 29.8346H30.2817C30.2603 29.8216 30.2301 29.8167 30.1949 29.8167C30.1431 29.8197 30.0914 29.8272 30.0439 29.8327C30.034 29.8339 30.0242 29.8352 30.0144 29.8359C30.0045 29.837 29.994 29.8382 29.9848 29.8389H29.9842C29.9657 29.842 29.9201 29.8512 29.8775 29.858C29.8579 29.8611 29.8387 29.8636 29.8234 29.8654C29.7839 29.8686 29.7168 29.8673 29.6613 29.8605C29.6434 29.8587 29.6273 29.8562 29.6132 29.8524C29.3514 29.8173 28.8448 29.4074 28.7136 29.2271C28.6113 29.0906 28.1128 28.6795 27.8928 28.5894C27.8787 28.5832 27.8651 28.5782 27.8528 28.5757C27.96 27.6442 27.9952 26.5317 27.9273 25.5063C28.1929 25.9428 28.5312 26.3385 28.9052 26.678C29.4073 27.1269 29.9576 27.5146 30.4204 27.9813C30.7076 28.2708 30.9467 28.564 31.1364 28.8993C31.2412 29.0845 31.3305 29.2832 31.4032 29.5012C31.4156 29.5462 31.426 29.5932 31.4353 29.6408C31.4882 29.9235 31.4815 30.2352 31.4815 30.5403C31.4815 30.6476 31.4008 30.949 31.4605 31.0013C31.4839 31.0218 31.529 31.0051 31.609 30.9229C31.8764 30.6569 32.0218 30.4371 32.1765 30.1439C32.2105 30.0791 32.245 30.0099 32.2819 29.9364C32.2837 29.9328 32.2856 29.9278 32.288 29.9235C32.3293 29.8339 32.3762 29.6938 32.4095 29.5592C32.4323 29.4673 32.4489 29.3783 32.4519 29.3116C32.4526 29.2987 32.4526 29.2864 32.4532 29.2733C32.4569 29.1654 32.4587 29.0518 32.4551 28.945C32.4544 28.9234 32.4538 28.9011 32.4526 28.8795C32.4489 28.8147 32.4323 28.7381 32.4125 28.664C32.3854 28.5622 32.354 28.4646 32.3435 28.4085C32.3435 28.3999 32.3435 28.3925 32.3448 28.3857C32.3448 28.3844 32.3448 28.3838 32.3448 28.3832C32.3453 28.3776 32.3466 28.372 32.3478 28.3671C32.3478 28.3665 32.3478 28.3653 32.3485 28.3641C32.3496 28.3597 32.3516 28.3554 32.3534 28.3523C32.354 28.3517 32.354 28.3511 32.354 28.3504C32.3589 28.343 32.3645 28.3375 32.3712 28.335C32.3712 28.335 32.3719 28.335 32.3719 28.3344C32.375 28.3332 32.3786 28.3326 32.3818 28.3319C32.3823 28.3319 32.3829 28.3319 32.3829 28.3319C32.3861 28.3313 32.3891 28.3319 32.3915 28.3319C32.394 28.3319 32.3965 28.3326 32.3996 28.3326C32.4021 28.3332 32.4039 28.3332 32.4064 28.3337C32.4095 28.335 32.412 28.3357 32.415 28.3362C32.4174 28.3375 32.4199 28.3381 32.423 28.3393C32.4255 28.34 32.428 28.3412 32.4305 28.3424C32.4372 28.3455 32.4445 28.3492 32.4513 28.3535C32.4519 28.3542 32.4526 28.3548 32.4538 28.3548C32.4582 28.3572 32.463 28.3603 32.4674 28.3628C32.468 28.3634 32.4686 28.3634 32.4692 28.3641C32.4896 28.377 32.5092 28.3912 32.5265 28.4029C32.6066 28.456 32.7484 28.5036 32.8692 28.5313C32.9388 28.5473 33.0016 28.5572 33.0416 28.5572C33.094 28.5572 33.147 28.5566 33.2006 28.5554C33.3295 28.5529 33.4576 28.5462 33.5746 28.5307C33.9456 28.4955 34.3079 28.4116 34.6314 28.2535C34.7713 28.1832 34.9284 28.1127 35.0331 28.0022C35.0628 27.9732 35.088 27.9423 35.1151 27.9121C35.1354 27.8887 35.157 27.8652 35.1792 27.8418C35.1798 27.8411 35.181 27.8398 35.1816 27.8393C35.1854 27.8355 35.199 27.8213 35.2137 27.7985C35.2161 27.7948 35.2186 27.7911 35.2211 27.7862C35.2217 27.783 35.226 27.7757 35.2303 27.7664C35.2316 27.7646 35.2322 27.7627 35.2334 27.7602C35.2457 27.735 35.2642 27.7003 35.2686 27.6886C35.2698 27.6861 35.2698 27.685 35.2698 27.685C35.2359 27.6812 35.2057 27.6843 35.1762 27.6893C35.1354 27.696 35.096 27.7053 35.0522 27.7066C35.0443 27.7066 35.0369 27.7066 35.0295 27.7066C34.8575 27.6992 34.6708 27.6757 34.4823 27.6417C34.1268 27.5775 33.7644 27.4763 33.4816 27.3818C33.4416 27.3682 33.4021 27.3547 33.3651 27.3416C33.3633 27.3411 33.3627 27.3405 33.3615 27.3392C33.3565 27.3373 33.3522 27.3355 33.3485 27.333C33.3467 27.3319 33.346 27.3306 33.3442 27.3299C33.3412 27.3281 33.3387 27.3263 33.3368 27.3238C33.3356 27.3225 33.3349 27.3207 33.3343 27.32C33.3325 27.3177 33.3313 27.3152 33.33 27.3127C33.3295 27.3114 33.3295 27.3102 33.3295 27.3083C33.3288 27.3065 33.3288 27.3028 33.3295 27.301C33.3295 27.299 33.3295 27.2979 33.33 27.2966C33.3306 27.2936 33.3318 27.2904 33.3331 27.2873C33.3331 27.2861 33.3338 27.2849 33.3343 27.283C33.3362 27.2794 33.3387 27.2756 33.3417 27.2719C33.3417 27.2707 33.343 27.2695 33.3435 27.2695C33.3824 27.2163 33.4902 27.1485 33.6048 27.0843C33.6961 27.033 33.7916 26.9842 33.8588 26.9472C33.871 26.941 33.8815 26.9349 33.8913 26.9293C33.892 26.9293 33.892 26.9293 33.8926 26.9286C33.9142 26.9164 33.9321 26.9058 33.9413 26.8984C34.0941 26.7749 34.1773 26.6471 34.2605 26.4978C34.2869 26.4502 34.3708 26.2749 34.4269 26.1501C34.4539 26.0903 34.4743 26.0421 34.4786 26.0261C34.4983 25.9576 34.5617 25.8199 34.5858 25.7254C34.5883 25.7168 34.5901 25.7075 34.5919 25.7001C34.5926 25.6927 34.5938 25.6859 34.5951 25.6791C34.6049 25.6032 34.6025 25.5538 34.5747 25.5415C34.5408 25.526 34.4853 25.5464 34.4176 25.5859C34.3049 25.6526 34.1575 25.7729 34.0195 25.8736C33.9598 25.9168 33.9025 25.9557 33.8501 25.986C33.7891 26.0199 33.7132 26.0557 33.6301 26.0915C33.4539 26.1687 33.2438 26.2459 33.0595 26.3026C32.956 26.3378 32.8611 26.3885 32.789 26.4335C32.7409 26.4632 32.7021 26.4897 32.6781 26.5083C32.6701 26.5144 32.6627 26.5194 32.6578 26.523C32.6843 26.3076 32.7977 26.0298 32.8414 25.8317C32.8987 25.6001 32.8987 25.3964 32.8951 25.1722C32.8969 25.1722 32.8987 25.1722 32.9005 25.1717C32.903 25.1717 32.9048 25.1717 32.9073 25.1704C33.054 25.1068 33.1945 25.0118 33.3189 24.9043C33.4089 24.8265 33.4902 24.7432 33.5586 24.6598C33.5765 24.6389 33.6092 24.5956 33.6474 24.5395C33.7693 24.3599 33.9517 24.0438 33.9154 23.8919C34.0639 23.8042 34.3559 23.5789 34.5058 23.3998C34.7472 23.1017 34.868 22.8029 34.8791 22.4818C34.9586 22.4262 35.0412 22.3595 35.1343 22.2725C35.4115 22.0102 35.4929 21.6595 35.4959 21.1842C35.5692 21.1101 35.6334 21.0292 35.6839 20.9422C35.8379 20.6847 36.0333 20.0359 35.91 19.6482C36.2274 19.2338 36.419 18.645 36.2698 18.1585C36.2643 18.1412 36.26 18.1239 36.2538 18.1072C36.4066 17.7602 36.4936 17.3818 36.3739 16.9688C36.3518 16.8911 36.3228 16.8114 36.2846 16.7305C36.2853 16.7293 36.2858 16.7275 36.2865 16.7255C36.2995 16.691 36.313 16.6552 36.3259 16.6163C36.3388 16.5804 36.3487 16.536 36.3568 16.486C36.3568 16.486 36.3568 16.4854 36.3573 16.4848C36.3734 16.3854 36.3795 16.2663 36.3746 16.1446C36.3746 16.144 36.3746 16.1434 36.3746 16.1428C36.3739 16.1144 36.3721 16.0854 36.3696 16.057C36.369 16.0545 36.369 16.052 36.369 16.0495C36.3654 16.0069 36.3604 15.965 36.3536 15.9249C36.3518 15.915 36.35 15.9051 36.3487 15.8952C36.3475 15.8859 36.345 15.8773 36.3437 15.8681C36.3407 15.852 36.337 15.8366 36.3333 15.8206C36.332 15.8174 36.3315 15.8137 36.3309 15.81C36.3203 15.7692 36.3074 15.731 36.2932 15.6971C36.2926 15.6951 36.2914 15.6933 36.2908 15.6908C36.284 15.6755 36.2766 15.6606 36.2693 15.6476C36.2686 15.6464 36.268 15.6451 36.2673 15.6433C36.2587 15.6286 36.2501 15.6149 36.2409 15.6032C36.0924 15.6606 35.9963 15.9292 35.7035 16.123C35.6223 16.1755 35.5403 16.2341 35.4583 16.2953C35.311 16.4039 35.1638 16.5187 35.0184 16.612C35.006 16.62 34.995 16.6274 34.9833 16.6354C34.8976 16.6928 34.8286 16.746 34.7743 16.7965C34.7596 16.4799 34.7288 16.1588 34.6253 15.9076C34.4084 15.3747 34.2722 15.0593 34.0109 14.608C33.9936 14.5778 33.9752 14.5469 33.9567 14.5154C33.9357 14.4796 33.9129 14.4413 33.8895 14.403C33.6431 13.9863 33.2887 13.4159 32.9641 13.1257C33.2209 12.9899 33.5827 12.8948 33.9351 13.0628C34.0214 13.1054 34.0923 13.1708 34.1483 13.2492C34.2795 13.4326 34.3295 13.6869 34.3018 13.8863C34.3018 13.8863 34.3018 13.8863 34.3024 13.8863C34.3049 13.8857 34.3072 13.8845 34.3097 13.8832C34.3338 13.8758 34.3579 13.8666 34.3818 13.8561C34.3904 13.8524 34.3985 13.8474 34.4071 13.8431C34.4244 13.8345 34.4422 13.8258 34.4589 13.8153C34.4693 13.8092 34.4792 13.8024 34.4891 13.7956C34.5038 13.7863 34.5186 13.7764 34.5335 13.7666C34.5439 13.7585 34.555 13.7505 34.5655 13.7419C34.5723 13.7363 34.579 13.732 34.5852 13.7264C34.5926 13.7203 34.5994 13.7135 34.6068 13.7067C34.6154 13.6993 34.624 13.6919 34.6327 13.6838C34.6474 13.6696 34.6629 13.6548 34.6771 13.64C34.6838 13.6332 34.6906 13.627 34.6967 13.6196C34.7164 13.5986 34.7349 13.577 34.7534 13.5548C34.7621 13.5449 34.77 13.5344 34.7781 13.5239C34.7885 13.5104 34.799 13.4968 34.8088 13.4826C34.8175 13.4708 34.8255 13.4591 34.8342 13.4468C34.8434 13.4338 34.852 13.4202 34.86 13.406C34.8674 13.3943 34.8755 13.3819 34.8828 13.3696C34.892 13.3535 34.9012 13.3375 34.91 13.3214C34.9204 13.3017 34.9303 13.2819 34.9402 13.2622C34.9469 13.248 34.9531 13.2344 34.9592 13.2208C34.9654 13.2072 34.9709 13.1936 34.9765 13.1807C34.9814 13.1677 34.9864 13.156 34.99 13.1436C34.995 13.1301 34.9999 13.1165 35.0042 13.1029C35.0079 13.0906 35.0116 13.0782 35.0146 13.0659C35.0184 13.0529 35.022 13.0399 35.0252 13.0276C35.0301 13.0053 35.0344 12.9838 35.0375 12.9628C35.0387 12.9504 35.0394 12.9393 35.0412 12.9282C35.0418 12.9165 35.043 12.9047 35.043 12.8936C35.0437 12.8825 35.0437 12.8714 35.043 12.8609C35.0424 12.8498 35.0412 12.8393 35.0405 12.8288C35.0394 12.8183 35.0387 12.8084 35.0369 12.7992C35.0344 12.7868 35.0313 12.7745 35.0276 12.7627C35.0258 12.7572 35.0252 12.751 35.0227 12.7448C34.9598 12.5788 34.8637 12.4411 34.7491 12.3368C35.0597 12.1793 35.4682 11.7132 35.4343 10.8921C35.4368 10.8878 35.4393 10.8835 35.4411 10.8792C35.4546 10.852 35.4675 10.8255 35.4799 10.7977C35.4836 10.789 35.4879 10.7798 35.4916 10.7717C35.4959 10.7606 35.5015 10.7501 35.5058 10.7403C35.5132 10.7236 35.5212 10.7057 35.5279 10.6884C35.5391 10.6631 35.5489 10.6365 35.5581 10.61C35.6038 10.4779 35.6291 10.3254 35.6463 10.1846C35.6494 10.163 35.6518 10.1414 35.6543 10.1204C35.6636 10.0142 35.6426 9.77409 35.6149 9.58951C35.6068 9.53394 35.5982 9.48332 35.5896 9.44257C35.6259 9.34194 35.65 9.25427 35.6593 9.19069C35.6796 9.04437 35.6882 8.89004 35.6777 8.73569C35.6616 8.49987 35.5994 8.26403 35.4608 8.05722C35.4608 8.05722 35.4602 8.05722 35.4602 8.0566C35.4589 8.05413 35.4571 8.05227 35.4559 8.04981C35.4238 8.00351 35.3887 7.95844 35.3493 7.91522C35.3523 7.88683 35.3542 7.86151 35.3542 7.84299C35.3542 7.28366 35.2229 6.76385 34.8083 6.56567C34.8132 7.53493 34.0572 7.99733 33.8741 8.9351C33.7669 8.77026 33.6061 8.63013 33.4206 8.55296C33.4145 8.55048 33.4082 8.54802 33.4021 8.54617C33.3849 8.53937 33.3676 8.53258 33.3498 8.52702C33.3288 8.52024 33.3072 8.51468 33.2863 8.50974C33.2832 8.50913 33.2801 8.50789 33.277 8.50727C33.2542 8.50233 33.2308 8.49863 33.2074 8.49492C33.2055 8.49492 33.2044 8.49431 33.2024 8.49431C33.1852 8.49183 33.1679 8.49122 33.1514 8.49061C33.1433 8.49061 33.1354 8.48874 33.1267 8.48874C33.1169 8.48874 33.1063 8.48937 33.0965 8.48937C33.0811 8.48937 33.0657 8.48937 33.0497 8.49061C33.0472 8.49061 33.0441 8.49122 33.0416 8.49183C32.9671 8.49863 32.8913 8.51591 32.8162 8.54739C32.6731 8.60358 32.5617 8.6647 32.468 8.74557C32.3496 8.84743 32.2597 8.98078 32.1697 9.17649C32.0477 9.44997 32.3311 9.35305 32.4668 9.33947C33.4237 9.22032 33.1045 10.502 33.0213 10.6649C32.8974 10.9063 32.8013 11.081 32.6226 11.2965C32.5376 11.4002 32.4328 11.5126 32.2966 11.6472C32.277 11.6669 32.2548 11.6885 32.2319 11.7107C32.1857 11.7558 32.1334 11.8071 32.0761 11.8632C32.0477 11.8922 32.0175 11.9219 31.9867 11.9534C31.967 11.9731 31.9479 11.9923 31.9276 12.0126C31.6744 11.7441 31.3952 11.3416 31.2177 10.9131C31.1111 10.6563 31.0409 10.3896 31.0347 10.1365C31.0335 10.1056 31.0335 10.0754 31.0342 10.0464C31.0385 9.83089 31.0908 9.6784 31.2184 9.54629C31.219 9.54505 31.2208 9.54382 31.2227 9.54258C31.2301 9.53518 31.2375 9.52777 31.2448 9.52036C31.2486 9.51727 31.2522 9.5148 31.2553 9.51171C31.2609 9.50677 31.2664 9.50245 31.272 9.49814C31.2757 9.49505 31.2794 9.49258 31.2837 9.4901C31.2892 9.48702 31.2941 9.48332 31.2991 9.48023C31.3034 9.47776 31.3077 9.47529 31.3114 9.47344C31.3169 9.47097 31.3219 9.46788 31.3275 9.46541C31.3311 9.46356 31.3354 9.46171 31.3397 9.45986C31.3459 9.45738 31.3514 9.45553 31.357 9.45368C31.3607 9.45245 31.3644 9.45121 31.3681 9.44997C31.3773 9.44751 31.3866 9.44504 31.3952 9.44319C31.3989 9.44257 31.4019 9.44195 31.4057 9.44134C31.4118 9.44071 31.4181 9.43949 31.4242 9.43886C31.4285 9.43825 31.4328 9.43825 31.4371 9.43825C31.442 9.43763 31.4476 9.43701 31.4526 9.43701C31.4569 9.43701 31.4605 9.43701 31.4643 9.43701C31.4722 9.43763 31.4803 9.43763 31.4876 9.43825C31.4907 9.43886 31.4938 9.43886 31.4968 9.43886C31.5074 9.4401 31.5178 9.44134 31.5283 9.44319C31.5314 9.4438 31.5351 9.44504 31.5382 9.44566C31.5462 9.44689 31.5536 9.44875 31.561 9.4506C31.564 9.45121 31.5678 9.45245 31.5714 9.45306C31.5813 9.45553 31.5912 9.45862 31.6016 9.46171C31.6029 9.46232 31.6047 9.46294 31.6066 9.46356C31.6158 9.46603 31.6244 9.46973 31.6331 9.47282C31.6361 9.47344 31.6386 9.47529 31.6417 9.47591C31.6503 9.47899 31.6584 9.48208 31.667 9.48517C31.6681 9.4864 31.6701 9.48702 31.6719 9.48764C31.6817 9.49196 31.6916 9.49566 31.7015 9.49999C31.7039 9.50122 31.7058 9.50122 31.7076 9.50245C31.7163 9.50616 31.7242 9.50986 31.7323 9.51418C31.7335 9.51418 31.7348 9.5148 31.736 9.51542C31.747 9.52036 31.7581 9.5253 31.7686 9.53023C31.7741 9.53271 31.7797 9.53517 31.7858 9.53764C31.7889 9.53888 31.7914 9.54012 31.7945 9.54134C31.8013 9.54443 31.8081 9.54752 31.8142 9.54999C31.8155 9.5506 31.816 9.55123 31.8173 9.55123C31.8253 9.55431 31.8315 9.55678 31.8383 9.55925C31.8401 9.55925 31.8419 9.55986 31.8438 9.56049C31.8493 9.56234 31.8549 9.56357 31.8598 9.56542C31.8611 9.56542 31.8622 9.56604 31.8642 9.56666C31.8703 9.5679 31.8758 9.56912 31.8814 9.56975C31.882 9.56975 31.8827 9.56975 31.8827 9.56975C31.8881 9.56975 31.8924 9.56975 31.8962 9.56975C31.8974 9.56975 31.8987 9.56912 31.8987 9.56912C31.9042 9.56851 31.9085 9.56727 31.9128 9.56542C31.9116 9.56295 31.9097 9.55986 31.9079 9.55678C31.8309 9.41664 31.7822 9.12463 31.5511 8.92213C31.4526 8.83632 31.3212 8.76595 31.1395 8.73261C30.7594 8.66223 30.4629 8.8073 30.2664 9.02771C30.2072 9.09067 30.1456 9.18884 30.0957 9.27588C30.0944 9.27836 30.0932 9.28082 30.092 9.28329C30.0895 9.26724 30.0883 9.2518 30.0865 9.23637C30.0802 9.18699 30.0748 9.14254 30.071 9.10734C30.0685 9.08512 30.0655 9.06289 30.0618 9.04067C30.0063 8.70915 29.8221 8.39924 29.761 8.14735C29.7543 8.12081 29.7481 8.09364 29.742 8.06648C29.7285 8.00721 29.7161 7.94547 29.7056 7.8825C29.6816 7.74298 29.6668 7.59543 29.6693 7.44664C29.6736 7.24847 29.6823 6.80336 29.7783 6.57432C29.7371 6.6021 29.6976 6.62926 29.66 6.65704C29.3994 6.84965 29.2152 7.06388 29.0863 7.44479C29.0685 7.49851 29.0513 7.5553 29.0353 7.6158C28.6717 7.96831 28.3605 8.52887 28.4339 9.15488C28.4406 9.21538 28.4542 9.27958 28.4738 9.34626C28.4486 9.3796 28.4264 9.41664 28.4073 9.45553C28.2576 9.75804 28.2724 10.2266 28.3512 10.5155C28.3617 10.5544 28.3735 10.5902 28.3858 10.6217C28.4203 10.7088 28.4702 10.794 28.5306 10.8742C28.5108 10.9483 28.4973 11.0156 28.4868 11.0786C28.4436 11.3607 28.4918 11.5453 28.5429 11.7138C28.562 11.7811 28.5971 11.849 28.6446 11.9151C28.647 11.9188 28.6501 11.9225 28.6526 11.9256C28.6661 11.9441 28.6803 11.9626 28.6957 11.9812C28.7037 11.9904 28.7123 11.9991 28.7197 12.0077C28.7308 12.02 28.7419 12.0324 28.7536 12.0447C28.7561 12.0478 28.7598 12.0503 28.7623 12.0528C28.8214 12.112 28.8898 12.1676 28.9632 12.2164C28.61 12.3065 28.5435 12.5757 28.573 12.9473C28.5755 12.972 28.5805 12.9986 28.5867 13.027C28.6082 13.1226 28.6544 13.2356 28.7142 13.3406C28.7542 13.411 28.7993 13.4776 28.8485 13.5332C28.8769 13.5659 28.9902 13.6653 29.0975 13.7462C29.098 13.7462 29.0987 13.7468 29.0993 13.7474C29.1 13.7487 29.1012 13.7493 29.1023 13.7499C29.1554 13.7888 29.2053 13.824 29.2435 13.8431C29.2817 13.8635 29.307 13.8678 29.307 13.8456C29.307 13.7814 29.3033 13.7129 29.302 13.6431C29.3002 13.4566 29.3199 13.2646 29.4925 13.1486C29.5128 13.135 29.5349 13.1214 29.5602 13.1103C29.5928 13.0949 29.6348 13.0838 29.6823 13.0763C29.8018 13.056 29.954 13.0578 30.0753 13.0714C30.1142 13.0757 30.1499 13.0813 30.1801 13.0887C30.3755 13.1375 30.6194 13.3393 30.7229 13.4202C30.5757 13.6172 30.4247 13.832 30.2694 14.0641C30.1074 14.3074 29.9422 14.5704 29.7759 14.8549C29.7679 14.8679 29.7605 14.8809 29.7524 14.8945C29.7426 14.9105 29.7328 14.929 29.7217 14.9495C29.5874 15.1964 29.3471 15.731 29.1794 16.2298C29.1788 16.2316 29.1782 16.2336 29.1782 16.2348C29.1739 16.2453 29.1708 16.2564 29.167 16.2674C29.1634 16.2805 29.1584 16.2928 29.1548 16.3057C29.1541 16.307 29.1541 16.3076 29.1535 16.3089C29.1314 16.3774 29.111 16.4452 29.0926 16.5119C29.0919 16.5139 29.0913 16.515 29.0913 16.5169C29.0796 16.5595 29.0685 16.6015 29.0586 16.6428C29.0426 16.7064 29.0297 16.7681 29.0198 16.8256C29.018 16.8237 29.0161 16.8213 29.0143 16.8194C28.7389 16.5157 28.5996 16.5373 28.2718 16.3749C28.188 16.3335 28.1226 16.2928 28.0696 16.2533H28.0691C28.0518 16.2403 28.0358 16.228 28.0216 16.2156C28.021 16.215 28.0204 16.2144 28.0204 16.2144C28.0062 16.2021 27.9927 16.1903 27.981 16.178H27.9803C27.8996 16.0989 27.8669 16.031 27.8331 15.9878C27.8318 15.9866 27.8312 15.9853 27.8306 15.9847C27.8269 15.9804 27.8232 15.9761 27.8195 15.9718C27.8176 15.9699 27.8151 15.9675 27.814 15.9655C27.8108 15.9632 27.8078 15.9601 27.8041 15.9576C27.8016 15.9558 27.7986 15.9538 27.7961 15.952C27.793 15.9495 27.7899 15.9477 27.7862 15.9459C27.7831 15.9446 27.7795 15.9427 27.7763 15.9416C27.7727 15.9403 27.7689 15.9391 27.7653 15.9384C27.7634 15.9378 27.7616 15.9366 27.7597 15.936C27.756 15.936 27.7524 15.9353 27.7486 15.9348C27.748 15.9341 27.7474 15.9335 27.7474 15.9335C27.7431 15.9513 27.7387 15.9687 27.7357 15.986C27.7326 16.0002 27.7295 16.0137 27.7271 16.0273C27.7222 16.0484 27.7172 16.0687 27.7123 16.089C27.7098 16.1008 27.7067 16.1126 27.7042 16.1243C27.6999 16.141 27.6956 16.1576 27.692 16.1743C27.6784 16.2292 27.6648 16.2829 27.6525 16.3348C27.6328 16.4163 27.6156 16.4953 27.6039 16.5737C27.6039 16.5755 27.6032 16.5774 27.6026 16.5793C27.5958 16.6268 27.5903 16.6737 27.5872 16.7212C27.5872 16.7255 27.5865 16.7293 27.5865 16.733C27.586 16.7552 27.5847 16.7774 27.5847 16.7996C27.5847 16.8015 27.5847 16.8028 27.5847 16.8046C27.5847 16.8287 27.586 16.8533 27.5872 16.8774C27.5878 16.8812 27.5878 16.8848 27.5878 16.8886C27.5897 16.9102 27.5915 16.9324 27.5946 16.9553C27.5953 16.9583 27.5958 16.962 27.5958 16.9651C27.5995 16.991 27.6038 17.0175 27.6088 17.0435C27.6088 17.0448 27.6093 17.0454 27.6093 17.0459C27.6143 17.0713 27.6205 17.0984 27.6273 17.1243C27.6285 17.1275 27.6291 17.1311 27.6303 17.1349C27.6377 17.1626 27.6458 17.1904 27.655 17.2194C27.6778 17.2935 27.7042 17.3553 27.7326 17.4084C27.6593 17.543 27.6143 17.801 27.6069 17.964C27.6069 17.9646 27.6069 17.9652 27.6069 17.9659C27.5976 18.1702 27.6857 18.4159 27.8121 18.6146C27.8288 18.6406 27.8453 18.6659 27.8633 18.69C27.809 18.8314 27.7634 19.0172 27.7665 19.1968C27.7671 19.2629 27.7739 19.3284 27.7893 19.3907C27.8127 19.4877 27.8361 19.5685 27.8658 19.642C27.8854 19.6907 27.9082 19.737 27.9366 19.7815C27.9605 19.8192 27.9877 19.8556 28.0209 19.8926C28.0284 19.9007 28.0376 19.9087 28.0457 19.9167C28.0703 19.9413 28.0974 19.9661 28.1289 19.9908C28.1153 20.1686 28.1153 20.3093 28.1246 20.4359C28.1282 20.4828 28.1332 20.5273 28.1386 20.5711C28.143 20.597 28.1473 20.6223 28.1523 20.6483C28.167 20.7304 28.1843 20.8075 28.204 20.8748C28.284 21.1286 28.3766 21.2804 28.5725 21.4286C28.5577 21.6756 28.5829 21.857 28.6409 22.0107C28.6421 22.0151 28.644 22.0201 28.6458 22.0244C28.6593 22.0583 28.6735 22.0916 28.6884 22.1244C28.8374 22.4652 29.013 22.7146 29.1523 22.7948C29.1647 22.8022 29.1782 22.809 29.1918 22.8158C29.1997 22.8201 29.2078 22.8239 29.2164 22.8275C29.2373 22.9356 29.2743 23.0418 29.3212 23.1424C29.3741 23.2567 29.4407 23.3628 29.5153 23.4561C29.5504 23.5005 29.5824 23.5413 29.6138 23.5795C29.713 23.6999 29.8049 23.793 29.9435 23.8833C29.9786 23.9023 30.1536 23.9901 30.2485 24.0327C30.373 24.4018 30.8135 25.108 31.3065 25.1649C31.3182 25.2747 31.3164 25.384 31.3034 25.4872C31.3034 25.4902 31.3027 25.4939 31.3027 25.4971C31.3022 25.5007 31.3016 25.5038 31.3009 25.5075C31.2682 25.7366 31.1765 25.9353 31.0372 26.0502C30.9005 26.1625 30.718 26.1934 30.5006 26.0946C30.3902 26.0446 30.2713 25.9619 30.1449 25.839C30.0464 25.7434 29.954 25.642 29.8658 25.5396C29.6706 25.3099 29.5029 25.071 29.3674 24.8605C29.3624 24.8531 29.3568 24.8445 29.3507 24.8352C29.209 24.6105 28.7524 23.7653 28.66 23.5924C28.6519 23.5764 28.6421 23.5591 28.6341 23.5431C28.3716 23.0386 28.0414 22.4577 27.8219 21.9676C27.6161 21.5145 27.2545 20.686 27.0622 20.2322C26.9427 19.9537 26.756 19.6407 26.6266 19.353C26.5989 19.2919 26.5736 19.232 26.5527 19.1734C26.7418 19.1894 26.9371 19.1808 27.1454 19.1531C27.1417 19.1364 27.1343 19.1191 27.1251 19.1024C27.0714 19.0049 26.9321 18.8987 26.8286 18.8048C26.7892 18.769 26.7554 18.7356 26.7332 18.7054C26.7307 18.7023 26.7276 18.6986 26.7258 18.6955C26.5644 18.4486 26.385 18.0702 26.2544 17.8541C26.2686 17.8417 26.2833 17.8276 26.2982 17.8127C26.2982 17.8121 26.2987 17.8115 26.2993 17.8115C26.3135 17.796 26.3277 17.7794 26.3431 17.7615C26.3437 17.7609 26.3437 17.7609 26.3437 17.7602C26.3733 17.7239 26.4035 17.6818 26.433 17.6356C26.433 17.6349 26.4337 17.6343 26.4343 17.6337C26.4639 17.5874 26.4934 17.538 26.5218 17.4855C26.5322 17.467 26.5415 17.4466 26.552 17.4275C26.5563 17.4188 26.5613 17.4102 26.5656 17.401C26.5748 17.383 26.5834 17.3652 26.5921 17.3467C26.5989 17.333 26.605 17.3188 26.6118 17.3053C26.6198 17.2886 26.6271 17.2713 26.6346 17.2541C26.642 17.2379 26.6481 17.2219 26.6549 17.2059C26.6616 17.1899 26.6679 17.1744 26.6746 17.159C26.6839 17.1361 26.6925 17.1133 26.7005 17.091C26.706 17.0768 26.711 17.0626 26.7159 17.0484C26.7252 17.0231 26.7338 16.9979 26.7418 16.9738C26.7455 16.9626 26.7486 16.9522 26.7517 16.9416C26.7578 16.92 26.764 16.8997 26.7695 16.8793C26.772 16.8694 26.7745 16.8595 26.7775 16.8508C26.7831 16.8274 26.7887 16.8058 26.793 16.7843C26.7941 16.778 26.7954 16.7725 26.7966 16.7669C26.8022 16.7392 26.8072 16.712 26.8095 16.6879C26.8397 16.4058 26.9057 15.5791 26.8095 15.3674C26.9765 15.4531 27.1312 15.581 27.3253 15.6637C27.3771 15.6859 27.4325 15.7032 27.4898 15.7174C27.5047 15.7205 27.5188 15.7255 27.5342 15.7285H27.5349C27.5878 15.7384 27.6415 15.7476 27.6956 15.7557C27.7006 15.7563 27.7055 15.7575 27.7105 15.7582C27.7339 15.7613 27.7567 15.7643 27.7795 15.7674C27.8688 15.7773 27.9587 15.7823 28.0487 15.778C28.0685 15.776 28.0924 15.7717 28.119 15.7668C28.2213 15.7464 28.3556 15.7026 28.3938 15.6495C28.387 15.5927 28.334 15.5502 28.2632 15.5223C28.2465 15.5155 28.2286 15.5094 28.2107 15.5044C28.0444 15.4606 27.9963 15.3896 27.944 15.3105C27.8965 15.2408 27.8293 15.1229 27.7826 15.0099C27.7727 14.9865 27.764 14.963 27.7567 14.9407C27.7511 14.9247 27.7455 14.9069 27.7394 14.8883C27.6636 14.6667 27.5047 14.2555 27.4116 14.0684C27.4294 13.8659 27.4991 13.8351 27.5293 13.69C27.5509 13.5844 27.5471 13.4128 27.5379 13.3116C27.5268 13.2128 27.5096 13.1443 27.4855 13.0708C27.4726 13.0325 27.459 12.9924 27.4424 12.9461C27.4522 12.9257 27.4603 12.9053 27.4682 12.885C27.5872 12.5905 27.5811 12.3213 27.5502 12.1299C27.5403 12.0657 27.5281 12.0096 27.5164 11.9651C27.509 11.9336 27.4941 11.9034 27.4756 11.875C27.44 11.8188 27.3919 11.7663 27.3543 11.7138C27.3543 11.7107 27.3543 11.7077 27.3543 11.7046C27.353 11.6941 27.3512 11.6861 27.3518 11.6786C27.3518 11.6577 27.3678 11.6404 27.4634 11.586C27.4843 11.5743 27.5164 11.5527 27.5509 11.5286C27.6156 11.4823 27.6882 11.4224 27.7172 11.3792C27.724 11.37 27.7314 11.3601 27.7387 11.3502C27.7709 11.307 27.8065 11.2576 27.8176 11.2076C27.8701 10.965 27.8922 10.8816 27.9003 10.6878C27.9089 10.5248 27.8787 10.3569 27.8614 10.1982C27.8614 10.1995 27.8608 10.2007 27.8608 10.2013C27.8608 10.2032 27.8602 10.2062 27.8595 10.2093L27.8589 10.2099C27.8435 10.2624 27.7227 10.4211 27.6907 10.4538C27.6297 10.5149 27.5595 10.5946 27.4547 10.5989C27.3309 10.6032 27.2243 10.5989 27.1318 10.5872C26.995 10.5693 26.889 10.5353 26.8059 10.4902C26.7448 10.4569 26.6956 10.4186 26.6549 10.376C26.8034 10.2705 26.8749 10.1377 26.9402 10.0402C27.0357 9.89448 27.0579 9.59073 27.0406 9.28699C27.0313 9.16043 27.0141 9.03449 26.992 8.91967C26.9821 8.86595 26.9711 8.81471 26.9599 8.76656C26.9366 8.67026 26.9118 8.58691 26.8879 8.52456C26.865 8.46467 26.8336 8.42516 26.7979 8.39985C26.7171 8.34305 26.6087 8.35787 26.5033 8.37885C26.3449 8.4085 26.1952 8.4622 26.059 8.53196C26.0191 8.49863 25.9783 8.46652 25.9389 8.43257C25.1113 7.58247 22.2393 8.51283 22.2393 8.51283ZM32.1697 20.1531C32.0207 19.9852 31.9301 19.8877 31.874 19.8747C31.8018 19.858 31.7865 19.9815 31.7766 20.276C31.7643 20.7297 31.4321 21.236 31.2837 21.7428C31.2812 21.7515 31.2788 21.7601 31.275 21.7707C30.5633 20.1315 30.3329 19.4308 30.2504 18.9184C30.2448 18.8845 30.2398 18.8512 30.2355 18.8185C30.2355 18.8147 30.2344 18.8104 30.2344 18.8054C30.217 18.6561 30.1924 18.3733 30.1967 18.2369C30.2139 17.7609 30.2405 17.4003 30.3187 17.0121C30.4765 16.2323 30.9608 15.1933 31.463 14.5722C31.4636 14.5716 31.4643 14.5704 31.4648 14.5697C31.5795 14.4271 31.7255 14.2635 31.8789 14.0999C32.0213 14.2271 32.1507 14.3722 32.2702 14.5302C32.9708 15.4587 33.2925 16.8614 33.314 18.1257C33.3275 19.0333 33.1834 19.6716 33.0694 20.3803C33.0182 20.6748 32.9067 21.4861 32.7724 21.8349C32.7724 21.8318 32.773 21.8286 32.773 21.825C32.773 21.2761 32.5062 20.5316 32.1697 20.1531ZM21.9472 11.0391C21.9472 11.0366 21.9479 11.0335 21.9479 11.0317C21.9565 10.957 21.9651 10.865 21.9873 10.8069C21.9977 10.789 22.0717 10.673 22.0989 10.6267C22.1586 10.6112 22.219 10.6001 22.2806 10.5958C22.2849 10.5958 22.2887 10.5952 22.293 10.5952C22.2942 10.5952 22.2948 10.5952 22.296 10.5952C22.3188 10.594 22.3404 10.5946 22.362 10.5952C22.3694 10.5958 22.3762 10.5964 22.3835 10.597C22.3983 10.5983 22.4125 10.6001 22.4267 10.602C22.4346 10.6032 22.4414 10.6044 22.4488 10.6063C22.4618 10.6088 22.4741 10.6118 22.4864 10.6155C22.4932 10.6174 22.5 10.6199 22.5067 10.6223C22.5191 10.626 22.5308 10.631 22.5425 10.6365C22.548 10.639 22.5536 10.6409 22.5591 10.6433C22.5727 10.6507 22.5863 10.6582 22.5985 10.6662C22.601 10.6674 22.6035 10.6686 22.6059 10.6705C22.6208 10.6804 22.6343 10.6915 22.6478 10.7032C22.6515 10.7063 22.6546 10.71 22.6577 10.7131C22.667 10.7217 22.6762 10.7316 22.6848 10.7415C22.6891 10.7464 22.6929 10.7514 22.6965 10.7563C22.704 10.7656 22.7107 10.7748 22.7168 10.7841C22.7206 10.7903 22.7243 10.7958 22.7279 10.802C22.7335 10.8119 22.7396 10.8218 22.7446 10.8322C22.7477 10.8384 22.7508 10.8446 22.7538 10.8508C22.7594 10.8625 22.7644 10.8748 22.7686 10.8872C22.7705 10.8928 22.7736 10.8977 22.7754 10.9032C22.7815 10.9211 22.7871 10.9391 22.7921 10.9582C22.7933 10.9637 22.7946 10.9687 22.7957 10.9742C22.7988 10.9878 22.8019 11.0026 22.805 11.0168C22.8063 11.0249 22.8074 11.0329 22.8087 11.0403C22.8106 11.0533 22.8124 11.0662 22.8136 11.0798C22.8142 11.0878 22.8149 11.0959 22.816 11.1045C22.8167 11.1156 22.8173 11.1273 22.818 11.1391C22.8185 11.157 22.8185 11.1755 22.8185 11.194C22.8185 11.2039 22.8185 11.2144 22.818 11.2236C22.8173 11.2521 22.8155 11.2798 22.8124 11.3088C22.8259 11.3934 22.9357 11.4163 22.9424 11.5422C22.9443 11.5712 22.94 11.6052 22.9282 11.6465C22.858 11.5811 22.7815 11.5299 22.7015 11.4891C22.4711 11.3737 22.203 11.3477 21.933 11.3521C21.933 11.349 21.9337 11.3453 21.9337 11.3422C21.9418 11.2453 21.9418 11.0989 21.9472 11.0391ZM16.5297 15.1685C16.502 15.1494 16.4824 15.1254 16.4713 15.0945L16.5297 15.1685Z" fill="#FFC107"/>
<path d="M16.883 7.36425C16.8608 7.44843 16.822 7.49237 16.7481 7.62484C16.6736 7.7573 16.5122 7.84582 16.3902 7.969C16.216 8.1324 16.1808 8.38866 16.447 8.53907C16.9095 8.80337 17.1971 7.56728 16.883 7.36425ZM13.7493 6.90497C13.8411 7.01947 14.0597 7.32464 14.0813 7.65084C14.0899 7.82786 14.3473 8.02656 14.5524 7.93805C14.967 7.76597 14.8321 7.44348 14.5789 7.17856C14.4569 7.0461 14.1902 6.90497 14.0031 6.89135C13.9544 6.88701 13.8411 6.87835 13.7493 6.90497ZM12.4443 9.48363C12.5052 9.39513 12.6579 9.28061 12.7275 9.24471C12.9154 9.14753 13.1205 9.08996 13.3564 9.20943C13.522 9.29795 13.5916 9.37284 13.588 9.58081C13.5793 9.74856 13.4919 9.81912 13.3656 9.86803C13.1433 9.95159 13.0472 9.87236 12.868 9.77022C12.815 9.74422 12.4572 9.49663 12.4443 9.48363ZM13.8276 12.5129C13.8626 12.5395 14.1244 12.7029 14.399 12.7426C14.6744 12.7865 14.9577 12.7339 14.9885 12.3099C14.9971 12.235 14.9626 12.1911 14.9232 12.1335C14.8837 12.0809 14.8092 12.0629 14.7353 12.0499C14.6657 12.0363 14.5912 12.0406 14.526 12.0586C14.4564 12.0765 14.399 12.1118 14.3689 12.1601C14.2993 12.2666 14.1817 12.3594 14.0678 12.4164C13.9544 12.4776 13.8496 12.5086 13.8276 12.5129ZM12.6931 18.6247C12.7368 18.6816 12.7497 18.6513 12.8766 18.894C12.9462 19.0221 12.9813 19.1639 13.0903 19.3007C13.2387 19.4857 13.6051 19.5569 13.6797 19.2605C13.8805 18.4923 12.815 18.5937 12.6931 18.6247ZM16.4863 22.6914C16.6125 22.6561 16.7826 22.6698 16.9446 22.4129C17.0887 22.1789 17.1626 21.8261 16.8312 21.6713C16.7524 21.636 16.6828 21.6403 16.6132 21.6627C16.5523 21.68 16.5214 21.7333 16.4777 21.7951C16.434 21.852 16.4254 21.919 16.4297 21.9895C16.4297 22.0601 16.434 22.1089 16.4605 22.1795C16.4998 22.2984 16.4955 22.4358 16.4955 22.5633C16.4944 22.7044 16.4944 22.6296 16.4863 22.6914ZM13.4131 23.4286C13.4302 23.3624 13.4481 23.3358 13.5959 23.1105C13.6791 22.991 13.8361 22.9074 13.9021 22.7483C13.9846 22.5231 13.8361 22.1789 13.5571 22.2581C12.8366 22.4568 13.3348 23.3451 13.4131 23.4286ZM11.4145 21.636C11.545 21.5475 11.89 21.4461 12.2133 21.4726C12.4183 21.4857 12.7023 21.3135 12.6628 21.0926C12.5927 20.6643 12.2268 20.598 11.9121 20.7788C11.7508 20.8672 11.5149 21.1632 11.4538 21.3445C11.4403 21.3884 11.4102 21.5389 11.4145 21.636ZM15.1067 26.6479C15.1634 26.9352 15.1462 26.8156 15.1547 26.9835C15.1591 27.1073 15.1634 27.1734 15.1419 27.4427C15.1203 27.7033 15.504 28.0128 15.7442 27.7701C16.32 27.1864 15.2939 26.6826 15.1067 26.6479ZM13.0768 28.56C13.3299 28.578 13.474 28.6219 13.753 28.8248C13.9057 28.9394 14.207 28.9574 14.2814 28.7673C14.4342 28.4052 14.1897 28.1978 13.8448 28.1849C13.6747 28.1805 13.3385 28.2951 13.1987 28.4052C13.1686 28.4319 13.1211 28.485 13.0768 28.56ZM14.3646 31.2315C14.4342 31.1783 14.4564 31.1702 14.683 31.0551C14.8142 30.9888 14.9928 30.9709 15.1104 30.8427C15.2761 30.6707 15.2589 30.2863 14.9706 30.251C14.2297 30.1539 14.3516 31.143 14.3646 31.2315ZM16.9747 31.9736C17.1059 31.9606 17.2981 31.9253 17.4939 31.7001C17.6774 31.4884 17.8431 31.1702 17.542 30.9628C17.4681 30.914 17.3541 30.9232 17.2802 30.9405C17.2149 30.9585 17.1841 30.9981 17.1318 31.0464C17.0795 31.0996 17.0615 31.1616 17.053 31.2321C17.0443 31.3027 17.04 31.3516 17.053 31.4264C17.0752 31.5502 17.0487 31.6871 17.0265 31.8102C17.0012 31.9471 17.0049 31.8945 16.9747 31.9736ZM22.5658 34.4291C22.8275 34.3895 22.7882 34.4069 22.9409 34.4242C23.0763 34.4378 23.1023 34.53 23.364 34.5746C23.6129 34.6229 23.9885 34.1902 23.7348 33.9915C23.2901 33.643 22.6225 34.1413 22.5658 34.4291ZM23.4915 37.1136C23.6048 36.884 23.7489 36.7602 24.0193 36.5615C24.2287 36.4073 24.2638 36.2223 24.1456 36.0497C23.9362 35.7407 23.5875 35.9085 23.4256 36.2347C23.3473 36.3938 23.3302 36.7522 23.3776 36.9236C23.3911 36.9638 23.4434 37.0431 23.4915 37.1136ZM25.992 36.9905C26.0179 36.897 26.0745 36.8444 26.2014 36.65C26.2839 36.5219 26.4194 36.4383 26.4324 36.2613C26.4496 36.023 26.1226 35.7625 25.8996 35.8949C25.3545 36.226 25.9304 36.9107 25.992 36.9905ZM28.4099 34.8438C28.5104 34.7157 28.5541 34.6624 28.5713 34.3666C28.5843 34.0844 28.4494 33.7656 28.0823 33.7929C27.9998 33.8015 27.9074 33.8814 27.86 33.9432C27.8206 33.9965 27.8249 34.0448 27.8163 34.1196C27.8071 34.1902 27.8335 34.2521 27.8686 34.3096C27.9038 34.3716 27.9734 34.3716 28.0349 34.4019C28.1439 34.4552 28.1698 34.486 28.253 34.6229C28.2967 34.6984 28.3576 34.764 28.4099 34.8438Z" fill="#E6332A"/>
<path d="M22.8794 11.734C22.844 11.8212 22.8014 11.8782 22.6726 11.8782C22.6404 11.8782 22.605 11.8777 22.5672 11.8753C22.533 11.8451 22.483 11.8003 22.4306 11.766C22.2971 11.6793 22.3488 11.741 22.1537 11.5461C22.1355 11.5275 22.1154 11.5112 22.0953 11.4955C22.1794 11.5013 22.2617 11.5118 22.344 11.5211C22.4166 11.5281 22.7928 11.6421 22.8794 11.734ZM21.7611 11.5042C20.9098 11.5787 20.1097 11.5956 19.7512 11.0686C19.6347 10.8946 19.6255 10.8068 19.617 10.5747C19.5822 10.5997 19.4011 10.7405 19.3713 10.9103C19.3499 11.0435 19.3317 11.1762 19.3969 11.3344C19.453 11.4757 19.4785 11.5002 19.5402 11.5665C19.6524 11.695 19.8639 11.8108 20.0409 11.8614C20.3738 11.9562 20.6762 11.944 20.9744 11.923C21.2531 11.9004 21.5214 11.8602 21.7952 11.8282C21.7994 11.7154 21.8074 11.5886 21.8184 11.4972C21.7994 11.499 21.7805 11.5013 21.7611 11.5042Z" fill="#E6332A"/>
<path d="M22.151 11.7436L22.0402 11.6248C22.0324 11.6123 22.0004 11.5653 21.9809 11.5784C21.9574 11.5879 21.9646 11.7543 21.9703 11.8571C22.0497 11.8428 22.1426 11.8434 22.2371 11.8506C22.2041 11.812 22.1762 11.7704 22.151 11.7436ZM21.5982 10.8594C21.5971 10.8754 21.5959 10.8903 21.5959 10.9046C21.5943 10.945 21.6004 10.9818 21.6324 11.0181C21.6721 11.0561 21.7274 11.1328 21.7795 11.1749C21.8309 11.2219 21.8427 11.1785 21.8444 11.1203C21.8461 11.0834 21.8427 11.0406 21.8427 11.0097C21.8461 10.9456 21.8639 10.8244 21.8835 10.7346C21.7862 10.7774 21.6916 10.8249 21.5982 10.8594Z" fill="#F5F5F5"/>
</g>
</svg>
