<svg width="47" height="59" viewBox="0 0 47 59" fill="none" xmlns="http://www.w3.org/2000/svg">
<path fill-rule="evenodd" clip-rule="evenodd" d="M25.2174 56.8002L23.5 58.2998L21.7826 56.8002C7.34064 44.1897 0 33.1788 0 23.5C0 9.7934 10.6979 0 23.5 0C36.3021 0 47 9.7934 47 23.5C47 33.1788 39.6594 44.1897 25.2174 56.8002Z" fill="white"/>
<mask id="mask0" mask-type="alpha" maskUnits="userSpaceOnUse" x="6" y="6" width="36" height="36">
<circle cx="24" cy="24" r="18" fill="#C4C4C4"/>
</mask>
<g mask="url(#mask0)">
<path d="M51.4799 18.0359H-3.54102V29.9642H51.4799V18.0359Z" fill="#D80027"/>
<path d="M-3.54102 6.8597C-3.54102 6.3849 -3.15611 6 -2.68131 6H50.6202C51.0949 6 51.4799 6.3849 51.4799 6.8597V18.0358H-3.54102V6.8597Z" fill="#1E1E1E"/>
<path d="M51.4799 41.1405C51.4799 41.6152 51.0949 42.0002 50.6202 42.0002H-2.68131C-3.15611 42.0002 -3.54102 41.6152 -3.54102 41.1405V29.9644H51.4799V41.1405Z" fill="#FFDA44"/>
</g>
</svg>
