<svg width="47" height="59" viewBox="0 0 47 59" fill="none" xmlns="http://www.w3.org/2000/svg">
<path fill-rule="evenodd" clip-rule="evenodd" d="M25.2174 56.8002L23.5 58.2998L21.7826 56.8002C7.34064 44.1897 0 33.1788 0 23.5C0 9.7934 10.6979 0 23.5 0C36.3021 0 47 9.7934 47 23.5C47 33.1788 39.6594 44.1897 25.2174 56.8002Z" fill="white"/>
<mask id="mask0" mask-type="alpha" maskUnits="userSpaceOnUse" x="5" y="5" width="36" height="36">
<circle cx="23" cy="23" r="18" fill="#C4C4C4"/>
</mask>
<g mask="url(#mask0)">
<path d="M51.1662 42.2027H-3.64232C-4.18282 42.2027 -4.62109 41.7643 -4.62109 41.2236V5.97906C-4.62109 5.4384 -4.18282 5 -3.64232 5H51.1663C51.7068 5 52.1451 5.4384 52.1451 5.97906V41.2236C52.1449 41.7644 51.7067 42.2027 51.1662 42.2027Z" fill="#C8414B"/>
<path d="M49.7279 19.8328H-3.81836V26.2952H49.7279V19.8328Z" fill="#F5F5F5"/>
</g>
</svg>
