<svg width="47" height="59" viewBox="0 0 47 59" fill="none" xmlns="http://www.w3.org/2000/svg">
<path fill-rule="evenodd" clip-rule="evenodd" d="M25.2174 56.8002L23.5 58.2998L21.7826 56.8002C7.34064 44.1897 0 33.1788 0 23.5C0 9.7934 10.6979 0 23.5 0C36.3021 0 47 9.7934 47 23.5C47 33.1788 39.6594 44.1897 25.2174 56.8002Z" fill="white"/>
<mask id="mask0" mask-type="alpha" maskUnits="userSpaceOnUse" x="5" y="5" width="37" height="37">
<circle cx="23.5" cy="23.8999" r="18" fill="#C4C4C4"/>
</mask>
<g mask="url(#mask0)">
<path d="M52.004 17.9266H-2.91797V6.84942C-2.91797 6.32508 -2.49393 5.8999 -1.97099 5.8999H51.0571C51.58 5.8999 52.0041 6.32508 52.0041 6.84942L52.004 17.9266Z" fill="#F5F5F5"/>
<path d="M51.0571 41.8998H-1.97099C-2.49393 41.8998 -2.91797 41.4746 -2.91797 40.9502V29.873H52.0041V40.9502C52.0041 41.4747 51.58 41.8998 51.0571 41.8998Z" fill="#FF4B55"/>
<path d="M52.0041 17.9265H-2.91797V29.8731H52.0041V17.9265Z" fill="#41479B"/>
</g>
</svg>
