<svg width="47" height="59" viewBox="0 0 47 59" fill="none" xmlns="http://www.w3.org/2000/svg">
<path fill-rule="evenodd" clip-rule="evenodd" d="M25.2174 56.8002L23.5 58.2998L21.7826 56.8002C7.34064 44.1897 0 33.1788 0 23.5C0 9.7934 10.6979 0 23.5 0C36.3021 0 47 9.7934 47 23.5C47 33.1788 39.6594 44.1897 25.2174 56.8002Z" fill="white"/>
<mask id="mask0" mask-type="alpha" maskUnits="userSpaceOnUse" x="5" y="5" width="36" height="36">
<circle cx="23" cy="23" r="18" fill="#C4C4C4"/>
</mask>
<g mask="url(#mask0)">
<path d="M50.2204 39.8509C50.2204 40.4824 49.7038 40.9989 49.0727 40.9989H-3.15296C-3.78432 40.9988 -4.30078 40.4823 -4.30078 39.8509V6.14806C-4.30078 5.51667 -3.78432 5 -3.15296 5H49.0727C49.7039 5 50.2204 5.51667 50.2204 6.14806V39.8509Z" fill="#FFF7EE"/>
<path d="M49.0723 5.00049H17.9941V8.46288H50.22V6.14844C50.22 5.51706 49.7033 5.00049 49.0723 5.00049Z" fill="#E02424"/>
<path d="M17.995 18.0146V20.175C17.995 20.8911 17.4128 21.477 16.7012 21.477H50.2209V18.0148H17.995V18.0146Z" fill="#E02424"/>
<path d="M50.2204 24.522H-4.30078V27.9843H50.2204V24.522Z" fill="#E02424"/>
<path d="M50.2204 31.0291H-4.30078V34.4913H50.2204V31.0291Z" fill="#E02424"/>
<path d="M50.2204 39.851V37.5366H-4.30078V39.851C-4.30078 40.4824 -3.78432 40.999 -3.15296 40.999H49.0727C49.7037 40.9989 50.2204 40.4823 50.2204 39.851Z" fill="#E02424"/>
<path d="M50.2194 11.5076H17.9941V14.9699H50.2194V11.5076Z" fill="#E02424"/>
<path d="M-3.15296 5.00024C-3.78432 5.00024 -4.30078 5.51681 -4.30078 6.1482V21.4771H17.9247C18.6363 21.4771 19.2185 20.8912 19.2185 20.175V5.00024H-3.15296Z" fill="#0853A4"/>
<path d="M7.96104 9.58851C7.93517 9.58851 7.90876 9.58244 7.88459 9.56923L7.57162 9.40063L7.25876 9.56923C7.23459 9.58233 7.2085 9.58851 7.18231 9.58851C7.14823 9.58851 7.11437 9.57786 7.08562 9.55645C7.03514 9.51885 7.00969 9.45505 7.02045 9.392L7.07997 9.03466L6.82696 8.78192C6.78213 8.73708 6.76605 8.67019 6.78543 8.60927C6.80481 8.54824 6.85592 8.50382 6.91822 8.49466L7.26803 8.44258L7.42456 8.11762C7.45204 8.06011 7.50922 8.02368 7.57173 8.02368C7.63434 8.02368 7.69142 8.06011 7.719 8.11762L7.87553 8.44258L8.22545 8.49466C8.28742 8.50393 8.33886 8.54824 8.35813 8.60927C8.37751 8.67019 8.36133 8.73708 8.3165 8.78192L8.06338 9.03466L8.12322 9.392C8.13376 9.45505 8.10842 9.51885 8.05784 9.55645C8.02909 9.57775 7.99512 9.58851 7.96104 9.58851Z" fill="white"/>
<path d="M7.96104 12.509C7.93517 12.509 7.90876 12.503 7.88459 12.4897L7.57162 12.321L7.25876 12.4897C7.23459 12.5029 7.2085 12.509 7.18231 12.509C7.14823 12.509 7.11437 12.4983 7.08562 12.4769C7.03514 12.4393 7.00969 12.3755 7.02045 12.3122L7.07997 11.9551L6.82696 11.7023C6.78213 11.6577 6.76605 11.5905 6.78543 11.5297C6.80481 11.4688 6.85592 11.4245 6.91822 11.415L7.26803 11.363L7.42456 11.0381C7.45204 10.9807 7.50922 10.9443 7.57173 10.9443C7.63434 10.9443 7.69142 10.9807 7.719 11.0381L7.87553 11.363L8.22545 11.415C8.28742 11.4245 8.33886 11.4688 8.35813 11.5297C8.37751 11.5905 8.36133 11.6577 8.3165 11.7023L8.06338 11.9551L8.12322 12.3122C8.13376 12.3756 8.10842 12.4392 8.05784 12.4769C8.02909 12.4984 7.99512 12.509 7.96104 12.509Z" fill="white"/>
<path d="M7.96104 15.4295C7.93517 15.4295 7.90876 15.4232 7.88459 15.4102L7.57162 15.2417L7.25876 15.4102C7.23459 15.4233 7.2085 15.4295 7.18231 15.4295C7.14823 15.4295 7.11437 15.4187 7.08562 15.3974C7.03514 15.3597 7.00969 15.2959 7.02045 15.233L7.07997 14.8758L6.82696 14.6231C6.78213 14.5782 6.76605 14.5111 6.78543 14.4503C6.80481 14.3893 6.85592 14.3448 6.91822 14.3355L7.26803 14.2836L7.42456 13.9586C7.45204 13.9013 7.50922 13.865 7.57173 13.865C7.63434 13.865 7.69142 13.9013 7.719 13.9586L7.87553 14.2836L8.22545 14.3355C8.28742 14.3449 8.33886 14.3894 8.35813 14.4503C8.37751 14.5111 8.36133 14.5782 8.3165 14.6231L8.06338 14.8758L8.12322 15.233C8.13376 15.2959 8.10842 15.3597 8.05784 15.3974C8.02909 15.4187 7.99512 15.4295 7.96104 15.4295Z" fill="white"/>
<path d="M7.96104 18.3499C7.93517 18.3499 7.90876 18.3436 7.88459 18.3306L7.57162 18.1619L7.25876 18.3306C7.23459 18.3437 7.2085 18.3499 7.18231 18.3499C7.14823 18.3499 7.11437 18.3392 7.08562 18.3177C7.03514 18.2801 7.00969 18.2162 7.02045 18.1532L7.07997 17.7961L6.82696 17.5433C6.78213 17.4986 6.76605 17.4315 6.78543 17.3705C6.80481 17.3096 6.85592 17.2651 6.91822 17.2558L7.26803 17.2038L7.42456 16.8789C7.45204 16.8216 7.50922 16.7852 7.57173 16.7852C7.63434 16.7852 7.69142 16.8217 7.719 16.8789L7.87553 17.2038L8.22545 17.2558C8.28742 17.2652 8.33886 17.3097 8.35813 17.3705C8.37751 17.4315 8.36133 17.4986 8.3165 17.5433L8.06338 17.7961L8.12322 18.1532C8.13376 18.2162 8.10842 18.2801 8.05784 18.3177C8.02909 18.3392 7.99512 18.3499 7.96104 18.3499Z" fill="white"/>
<path d="M6.11152 8.12841C6.08543 8.12841 6.05924 8.12234 6.03506 8.10903L5.7222 7.94053L5.40924 8.10903C5.38517 8.12223 5.35898 8.12841 5.33278 8.12841C5.29871 8.12841 5.26474 8.11765 5.23609 8.09625C5.18562 8.05875 5.16006 7.99474 5.17082 7.93169L5.23045 7.57446L4.97744 7.32171C4.93261 7.27687 4.91642 7.20988 4.9358 7.14896C4.95507 7.08793 5.00651 7.04351 5.06859 7.03425L5.41851 6.98227L5.57483 6.6572C5.60262 6.5998 5.65959 6.56348 5.7222 6.56348C5.78461 6.56348 5.8419 6.5999 5.86937 6.6572L6.02591 6.98227L6.37578 7.03425C6.43786 7.04362 6.48908 7.08793 6.50825 7.14896C6.52763 7.20988 6.51144 7.27687 6.46661 7.32171L6.21364 7.57446L6.27338 7.93169C6.28403 7.99474 6.25858 8.05865 6.2081 8.09625C6.17967 8.11755 6.1456 8.12841 6.11152 8.12841Z" fill="white"/>
<path d="M6.11152 11.0487C6.08543 11.0487 6.05924 11.0423 6.03506 11.0294L5.7222 10.8608L5.40924 11.0294C5.38517 11.0424 5.35898 11.0487 5.33278 11.0487C5.29871 11.0487 5.26474 11.0379 5.23609 11.0167C5.18562 10.9788 5.16006 10.9152 5.17082 10.8521L5.23045 10.4949L4.97744 10.242C4.93261 10.1973 4.91642 10.1303 4.9358 10.0693C4.95507 10.0083 5.00651 9.96403 5.06859 9.95476L5.41851 9.90268L5.57483 9.57772C5.60262 9.52031 5.65959 9.48389 5.7222 9.48389C5.78461 9.48389 5.8419 9.52042 5.86937 9.57772L6.02591 9.90268L6.37578 9.95476C6.43786 9.96403 6.48908 10.0084 6.50825 10.0693C6.52763 10.1303 6.51144 10.1973 6.46661 10.242L6.21364 10.4949L6.27338 10.8521C6.28403 10.9152 6.25858 10.9788 6.2081 11.0167C6.17967 11.0379 6.1456 11.0487 6.11152 11.0487Z" fill="white"/>
<path d="M6.11152 13.9693C6.08543 13.9693 6.05924 13.963 6.03506 13.9501L5.7222 13.7814L5.40924 13.9501C5.38517 13.963 5.35898 13.9693 5.33278 13.9693C5.29871 13.9693 5.26474 13.9584 5.23609 13.9372C5.18562 13.8996 5.16006 13.8357 5.17082 13.7725L5.23045 13.4154L4.97744 13.1626C4.93261 13.1178 4.91642 13.0508 4.9358 12.9899C4.95507 12.9289 5.00651 12.8845 5.06859 12.8753L5.41851 12.8233L5.57483 12.4982C5.60262 12.4409 5.65959 12.4045 5.7222 12.4045C5.78461 12.4045 5.8419 12.4409 5.86937 12.4982L6.02591 12.8233L6.37578 12.8753C6.43786 12.8847 6.48908 12.929 6.50825 12.9899C6.52763 13.0508 6.51144 13.1178 6.46661 13.1626L6.21364 13.4154L6.27338 13.7725C6.28403 13.8357 6.25858 13.8996 6.2081 13.9372C6.17967 13.9584 6.1456 13.9693 6.11152 13.9693Z" fill="white"/>
<path d="M6.11152 16.8897C6.08543 16.8897 6.05924 16.8837 6.03506 16.8704L5.7222 16.7018L5.40924 16.8704C5.38517 16.8835 5.35898 16.8897 5.33278 16.8897C5.29871 16.8897 5.26474 16.8791 5.23609 16.8577C5.18562 16.8201 5.16006 16.7561 5.17082 16.6931L5.23045 16.3359L4.97744 16.0831C4.93261 16.0385 4.91642 15.9714 4.9358 15.9103C4.95507 15.8493 5.00651 15.805 5.06859 15.7958L5.41851 15.7439L5.57483 15.4189C5.60262 15.3615 5.65959 15.325 5.7222 15.325C5.78461 15.325 5.8419 15.3615 5.86937 15.4189L6.02591 15.7439L6.37578 15.7958C6.43786 15.8051 6.48908 15.8495 6.50825 15.9103C6.52763 15.9713 6.51144 16.0384 6.46661 16.0831L6.21364 16.3359L6.27338 16.6931C6.28403 16.7561 6.25858 16.82 6.2081 16.8577C6.17967 16.8791 6.1456 16.8897 6.11152 16.8897Z" fill="white"/>
<path d="M6.11152 19.81C6.08543 19.81 6.05924 19.8037 6.03506 19.7907L5.7222 19.6222L5.40924 19.7907C5.38517 19.8037 5.35898 19.81 5.33278 19.81C5.29871 19.81 5.26474 19.7993 5.23609 19.7779C5.18562 19.7404 5.16006 19.6764 5.17082 19.6134L5.23045 19.2562L4.97744 19.0036C4.93261 18.9588 4.91642 18.8917 4.9358 18.8307C4.95507 18.7697 5.00651 18.7253 5.06859 18.716L5.41851 18.664L5.57483 18.3392C5.60262 18.2818 5.65959 18.2454 5.7222 18.2454C5.78461 18.2454 5.8419 18.2818 5.86937 18.3392L6.02591 18.664L6.37578 18.716C6.43786 18.7253 6.48908 18.7697 6.50825 18.8307C6.52763 18.8917 6.51144 18.9588 6.46661 19.0036L6.21364 19.2562L6.27338 19.6134C6.28403 19.6764 6.25858 19.7404 6.2081 19.7779C6.17967 19.7994 6.1456 19.81 6.11152 19.81Z" fill="white"/>
<path d="M11.5511 9.58851C11.5251 9.58851 11.4987 9.58244 11.4746 9.56923L11.1617 9.40063L10.8488 9.56923C10.8247 9.58233 10.7985 9.58851 10.7723 9.58851C10.7382 9.58851 10.7043 9.57786 10.6756 9.55645C10.6251 9.51885 10.5996 9.45505 10.6104 9.392L10.6701 9.03466L10.4169 8.78192C10.3721 8.73708 10.3558 8.67019 10.3753 8.60927C10.3946 8.54824 10.4459 8.50382 10.508 8.49466L10.8578 8.44258L11.0143 8.11762C11.042 8.06011 11.0991 8.02368 11.1616 8.02368C11.2241 8.02368 11.2813 8.06011 11.3089 8.11762L11.4655 8.44258L11.8152 8.49466C11.8772 8.50393 11.9285 8.54824 11.9477 8.60927C11.9672 8.67019 11.951 8.73708 11.906 8.78192L11.6529 9.03466L11.7128 9.392C11.7233 9.45505 11.698 9.51885 11.6474 9.55645C11.6192 9.57775 11.5852 9.58851 11.5511 9.58851Z" fill="white"/>
<path d="M11.5511 12.509C11.5251 12.509 11.4987 12.503 11.4746 12.4897L11.1617 12.321L10.8488 12.4897C10.8247 12.5029 10.7985 12.509 10.7723 12.509C10.7382 12.509 10.7043 12.4983 10.6756 12.4769C10.6251 12.4393 10.5996 12.3755 10.6104 12.3122L10.6701 11.9551L10.4169 11.7023C10.3721 11.6577 10.3558 11.5905 10.3753 11.5297C10.3946 11.4688 10.4459 11.4245 10.508 11.415L10.8578 11.363L11.0143 11.0381C11.042 10.9807 11.0991 10.9443 11.1616 10.9443C11.2241 10.9443 11.2813 10.9807 11.3089 11.0381L11.4655 11.363L11.8152 11.415C11.8772 11.4245 11.9285 11.4688 11.9477 11.5297C11.9672 11.5905 11.951 11.6577 11.906 11.7023L11.6529 11.9551L11.7128 12.3122C11.7233 12.3756 11.698 12.4392 11.6474 12.4769C11.6192 12.4984 11.5852 12.509 11.5511 12.509Z" fill="white"/>
<path d="M11.5511 15.4295C11.5251 15.4295 11.4987 15.4232 11.4746 15.4102L11.1617 15.2417L10.8488 15.4102C10.8247 15.4233 10.7985 15.4295 10.7723 15.4295C10.7382 15.4295 10.7043 15.4187 10.6756 15.3974C10.6251 15.3597 10.5996 15.2959 10.6104 15.233L10.6701 14.8758L10.4169 14.6231C10.3721 14.5782 10.3558 14.5111 10.3753 14.4503C10.3946 14.3893 10.4459 14.3448 10.508 14.3355L10.8578 14.2836L11.0143 13.9586C11.042 13.9013 11.0991 13.865 11.1616 13.865C11.2241 13.865 11.2813 13.9013 11.3089 13.9586L11.4655 14.2836L11.8152 14.3355C11.8772 14.3449 11.9285 14.3894 11.9477 14.4503C11.9672 14.5111 11.951 14.5782 11.906 14.6231L11.6529 14.8758L11.7128 15.233C11.7233 15.2959 11.698 15.3597 11.6474 15.3974C11.6192 15.4187 11.5852 15.4295 11.5511 15.4295Z" fill="white"/>
<path d="M11.5511 18.3499C11.5251 18.3499 11.4987 18.3436 11.4746 18.3306L11.1617 18.1619L10.8488 18.3306C10.8247 18.3437 10.7985 18.3499 10.7723 18.3499C10.7382 18.3499 10.7043 18.3392 10.6756 18.3177C10.6251 18.2801 10.5996 18.2162 10.6104 18.1532L10.6701 17.7961L10.4169 17.5433C10.3721 17.4986 10.3558 17.4315 10.3753 17.3705C10.3946 17.3096 10.4459 17.2651 10.508 17.2558L10.8578 17.2038L11.0143 16.8789C11.042 16.8216 11.0991 16.7852 11.1616 16.7852C11.2241 16.7852 11.2813 16.8217 11.3089 16.8789L11.4655 17.2038L11.8152 17.2558C11.8772 17.2652 11.9285 17.3097 11.9477 17.3705C11.9672 17.4315 11.951 17.4986 11.906 17.5433L11.6529 17.7961L11.7128 18.1532C11.7233 18.2162 11.698 18.2801 11.6474 18.3177C11.6192 18.3392 11.5852 18.3499 11.5511 18.3499Z" fill="white"/>
<path d="M9.70136 8.12841C9.67549 8.12841 9.64908 8.12234 9.6248 8.10903L9.31194 7.94053L8.99908 8.10903C8.97502 8.12223 8.94861 8.12841 8.92273 8.12841C8.88855 8.12841 8.85469 8.11765 8.82583 8.09625C8.77536 8.05875 8.7499 7.99474 8.76066 7.93169L8.82029 7.57446L8.56728 7.32171C8.52245 7.27687 8.50626 7.20988 8.52564 7.14896C8.54503 7.08793 8.59646 7.04351 8.65843 7.03425L9.00835 6.98227L9.16478 6.6572C9.19246 6.5998 9.24965 6.56348 9.31205 6.56348C9.37466 6.56348 9.43174 6.5999 9.45932 6.6572L9.61585 6.98227L9.96566 7.03425C10.0276 7.04362 10.0792 7.08793 10.0983 7.14896C10.1178 7.20988 10.1016 7.27687 10.0567 7.32171L9.80359 7.57446L9.86333 7.93169C9.87398 7.99474 9.84853 8.05865 9.79805 8.09625C9.76951 8.11755 9.73554 8.12841 9.70136 8.12841Z" fill="white"/>
<path d="M9.70136 11.0487C9.67549 11.0487 9.64908 11.0423 9.6248 11.0294L9.31194 10.8608L8.99908 11.0294C8.97502 11.0424 8.94861 11.0487 8.92273 11.0487C8.88855 11.0487 8.85469 11.0379 8.82583 11.0167C8.77536 10.9788 8.7499 10.9152 8.76066 10.8521L8.82029 10.4949L8.56728 10.242C8.52245 10.1973 8.50626 10.1303 8.52564 10.0693C8.54503 10.0083 8.59646 9.96403 8.65843 9.95476L9.00835 9.90268L9.16478 9.57772C9.19246 9.52031 9.24965 9.48389 9.31205 9.48389C9.37466 9.48389 9.43174 9.52042 9.45932 9.57772L9.61585 9.90268L9.96566 9.95476C10.0276 9.96403 10.0792 10.0084 10.0983 10.0693C10.1178 10.1303 10.1016 10.1973 10.0567 10.242L9.80359 10.4949L9.86333 10.8521C9.87398 10.9152 9.84853 10.9788 9.79805 11.0167C9.76951 11.0379 9.73554 11.0487 9.70136 11.0487Z" fill="white"/>
<path d="M9.70136 13.9693C9.67549 13.9693 9.64908 13.963 9.6248 13.9501L9.31194 13.7814L8.99908 13.9501C8.97502 13.963 8.94861 13.9693 8.92273 13.9693C8.88855 13.9693 8.85469 13.9584 8.82583 13.9372C8.77536 13.8996 8.7499 13.8357 8.76066 13.7725L8.82029 13.4154L8.56728 13.1626C8.52245 13.1178 8.50626 13.0508 8.52564 12.9899C8.54503 12.9289 8.59646 12.8845 8.65843 12.8753L9.00835 12.8233L9.16478 12.4982C9.19246 12.4409 9.24965 12.4045 9.31205 12.4045C9.37466 12.4045 9.43174 12.4409 9.45932 12.4982L9.61585 12.8233L9.96566 12.8753C10.0276 12.8847 10.0792 12.929 10.0983 12.9899C10.1178 13.0508 10.1016 13.1178 10.0567 13.1626L9.80359 13.4154L9.86333 13.7725C9.87398 13.8357 9.84853 13.8996 9.79805 13.9372C9.76951 13.9584 9.73554 13.9693 9.70136 13.9693Z" fill="white"/>
<path d="M9.70136 16.8897C9.67549 16.8897 9.64908 16.8837 9.6248 16.8704L9.31194 16.7018L8.99908 16.8704C8.97502 16.8835 8.94861 16.8897 8.92273 16.8897C8.88855 16.8897 8.85469 16.8791 8.82583 16.8577C8.77536 16.8201 8.7499 16.7561 8.76066 16.6931L8.82029 16.3359L8.56728 16.0831C8.52245 16.0385 8.50626 15.9714 8.52564 15.9103C8.54503 15.8493 8.59646 15.805 8.65843 15.7958L9.00835 15.7439L9.16478 15.4189C9.19246 15.3615 9.24965 15.325 9.31205 15.325C9.37466 15.325 9.43174 15.3615 9.45932 15.4189L9.61585 15.7439L9.96566 15.7958C10.0276 15.8051 10.0792 15.8495 10.0983 15.9103C10.1178 15.9713 10.1016 16.0384 10.0567 16.0831L9.80359 16.3359L9.86333 16.6931C9.87398 16.7561 9.84853 16.82 9.79805 16.8577C9.76951 16.8791 9.73554 16.8897 9.70136 16.8897Z" fill="white"/>
<path d="M9.70136 19.81C9.67549 19.81 9.64908 19.8037 9.6248 19.7907L9.31194 19.6222L8.99908 19.7907C8.97502 19.8037 8.94861 19.81 8.92273 19.81C8.88855 19.81 8.85469 19.7993 8.82583 19.7779C8.77536 19.7404 8.7499 19.6764 8.76066 19.6134L8.82029 19.2562L8.56728 19.0036C8.52245 18.9588 8.50626 18.8917 8.52564 18.8307C8.54503 18.7697 8.59646 18.7253 8.65843 18.716L9.00835 18.664L9.16478 18.3392C9.19246 18.2818 9.24965 18.2454 9.31205 18.2454C9.37466 18.2454 9.43174 18.2818 9.45932 18.3392L9.61585 18.664L9.96566 18.716C10.0276 18.7253 10.0792 18.7697 10.0983 18.8307C10.1178 18.8917 10.1016 18.9588 10.0567 19.0036L9.80359 19.2562L9.86333 19.6134C9.87398 19.6764 9.84853 19.7404 9.79805 19.7779C9.76951 19.7994 9.73554 19.81 9.70136 19.81Z" fill="white"/>
<path d="M15.1408 9.58851C15.1147 9.58851 15.0885 9.58244 15.0642 9.56923L14.7513 9.40063L14.4384 9.56923C14.4142 9.58233 14.388 9.58851 14.3621 9.58851C14.3279 9.58851 14.294 9.57786 14.2655 9.55645C14.2148 9.51885 14.1891 9.45505 14.2002 9.392L14.2597 9.03466L14.0067 8.78192C13.962 8.73708 13.9457 8.67019 13.9651 8.60927C13.9845 8.54824 14.0359 8.50382 14.0979 8.49466L14.4477 8.44258L14.6042 8.11762C14.6318 8.06011 14.6889 8.02368 14.7514 8.02368C14.8141 8.02368 14.8713 8.06011 14.8988 8.11762L15.0553 8.44258L15.4052 8.49466C15.4671 8.50393 15.5185 8.54824 15.5376 8.60927C15.5569 8.67019 15.5409 8.73708 15.4959 8.78192L15.2429 9.03466L15.3027 9.392C15.3133 9.45505 15.288 9.51885 15.2375 9.55645C15.209 9.57775 15.175 9.58851 15.1408 9.58851Z" fill="white"/>
<path d="M15.1408 12.509C15.1147 12.509 15.0885 12.503 15.0642 12.4897L14.7513 12.321L14.4384 12.4897C14.4142 12.5029 14.388 12.509 14.3621 12.509C14.3279 12.509 14.294 12.4983 14.2655 12.4769C14.2148 12.4393 14.1891 12.3755 14.2002 12.3122L14.2597 11.9551L14.0067 11.7023C13.962 11.6577 13.9457 11.5905 13.9651 11.5297C13.9845 11.4688 14.0359 11.4245 14.0979 11.415L14.4477 11.363L14.6042 11.0381C14.6318 10.9807 14.6889 10.9443 14.7514 10.9443C14.8141 10.9443 14.8713 10.9807 14.8988 11.0381L15.0553 11.363L15.4052 11.415C15.4671 11.4245 15.5185 11.4688 15.5376 11.5297C15.5569 11.5905 15.5409 11.6577 15.4959 11.7023L15.2429 11.9551L15.3027 12.3122C15.3133 12.3756 15.288 12.4392 15.2375 12.4769C15.209 12.4984 15.175 12.509 15.1408 12.509Z" fill="white"/>
<path d="M15.1408 15.4295C15.1147 15.4295 15.0885 15.4232 15.0642 15.4102L14.7513 15.2417L14.4384 15.4102C14.4142 15.4233 14.388 15.4295 14.3621 15.4295C14.3279 15.4295 14.294 15.4187 14.2655 15.3974C14.2148 15.3597 14.1891 15.2959 14.2002 15.233L14.2597 14.8758L14.0067 14.6231C13.962 14.5782 13.9457 14.5111 13.9651 14.4503C13.9845 14.3893 14.0359 14.3448 14.0979 14.3355L14.4477 14.2836L14.6042 13.9586C14.6318 13.9013 14.6889 13.865 14.7514 13.865C14.8141 13.865 14.8713 13.9013 14.8988 13.9586L15.0553 14.2836L15.4052 14.3355C15.4671 14.3449 15.5185 14.3894 15.5376 14.4503C15.5569 14.5111 15.5409 14.5782 15.4959 14.6231L15.2429 14.8758L15.3027 15.233C15.3133 15.2959 15.288 15.3597 15.2375 15.3974C15.209 15.4187 15.175 15.4295 15.1408 15.4295Z" fill="white"/>
<path d="M15.1408 18.3499C15.1147 18.3499 15.0885 18.3436 15.0642 18.3306L14.7513 18.1619L14.4384 18.3306C14.4142 18.3437 14.388 18.3499 14.3621 18.3499C14.3279 18.3499 14.294 18.3392 14.2655 18.3177C14.2148 18.2801 14.1891 18.2162 14.2002 18.1532L14.2597 17.7961L14.0067 17.5433C13.962 17.4986 13.9457 17.4315 13.9651 17.3705C13.9845 17.3096 14.0359 17.2651 14.0979 17.2558L14.4477 17.2038L14.6042 16.8789C14.6318 16.8216 14.6889 16.7852 14.7514 16.7852C14.8141 16.7852 14.8713 16.8217 14.8988 16.8789L15.0553 17.2038L15.4052 17.2558C15.4671 17.2652 15.5185 17.3097 15.5376 17.3705C15.5569 17.4315 15.5409 17.4986 15.4959 17.5433L15.2429 17.7961L15.3027 18.1532C15.3133 18.2162 15.288 18.2801 15.2375 18.3177C15.209 18.3392 15.175 18.3499 15.1408 18.3499Z" fill="white"/>
<path d="M13.293 8.12841C13.2671 8.12841 13.2407 8.12234 13.2167 8.10903L12.9037 7.94053L12.5908 8.10903C12.5668 8.12223 12.5405 8.12841 12.5144 8.12841C12.4803 8.12841 12.4463 8.11765 12.4177 8.09625C12.3672 8.05875 12.3417 7.99474 12.3524 7.93169L12.412 7.57446L12.1591 7.32171C12.1142 7.27687 12.0981 7.20988 12.1174 7.14896C12.1368 7.08793 12.1879 7.04351 12.2502 7.03425L12.6 6.98227L12.7565 6.6572C12.7842 6.5998 12.8413 6.56348 12.9038 6.56348C12.9664 6.56348 13.0235 6.5999 13.0511 6.6572L13.2076 6.98227L13.5575 7.03425C13.6194 7.04362 13.6708 7.08793 13.69 7.14896C13.7094 7.20988 13.6932 7.27687 13.6484 7.32171L13.3952 7.57446L13.4551 7.93169C13.4657 7.99474 13.4403 8.05865 13.3898 8.09625C13.3611 8.11755 13.3272 8.12841 13.293 8.12841Z" fill="white"/>
<path d="M13.293 11.0487C13.2671 11.0487 13.2407 11.0423 13.2167 11.0294L12.9037 10.8608L12.5908 11.0294C12.5668 11.0424 12.5405 11.0487 12.5144 11.0487C12.4803 11.0487 12.4463 11.0379 12.4177 11.0167C12.3672 10.9788 12.3417 10.9152 12.3524 10.8521L12.412 10.4949L12.1591 10.242C12.1142 10.1973 12.0981 10.1303 12.1174 10.0693C12.1368 10.0083 12.1879 9.96403 12.2502 9.95476L12.6 9.90268L12.7565 9.57772C12.7842 9.52031 12.8413 9.48389 12.9038 9.48389C12.9664 9.48389 13.0235 9.52042 13.0511 9.57772L13.2076 9.90268L13.5575 9.95476C13.6194 9.96403 13.6708 10.0084 13.69 10.0693C13.7094 10.1303 13.6932 10.1973 13.6484 10.242L13.3952 10.4949L13.4551 10.8521C13.4657 10.9152 13.4403 10.9788 13.3898 11.0167C13.3611 11.0379 13.3272 11.0487 13.293 11.0487Z" fill="white"/>
<path d="M13.293 13.9693C13.2671 13.9693 13.2407 13.963 13.2167 13.9501L12.9037 13.7814L12.5908 13.9501C12.5668 13.963 12.5405 13.9693 12.5144 13.9693C12.4803 13.9693 12.4463 13.9584 12.4177 13.9372C12.3672 13.8996 12.3417 13.8357 12.3524 13.7725L12.412 13.4154L12.1591 13.1626C12.1142 13.1178 12.0981 13.0508 12.1174 12.9899C12.1368 12.9289 12.1879 12.8845 12.2502 12.8753L12.6 12.8233L12.7565 12.4982C12.7842 12.4409 12.8413 12.4045 12.9038 12.4045C12.9664 12.4045 13.0235 12.4409 13.0511 12.4982L13.2076 12.8233L13.5575 12.8753C13.6194 12.8847 13.6708 12.929 13.69 12.9899C13.7094 13.0508 13.6932 13.1178 13.6484 13.1626L13.3952 13.4154L13.4551 13.7725C13.4657 13.8357 13.4403 13.8996 13.3898 13.9372C13.3611 13.9584 13.3272 13.9693 13.293 13.9693Z" fill="white"/>
<path d="M13.293 16.8897C13.2671 16.8897 13.2407 16.8837 13.2167 16.8704L12.9037 16.7018L12.5908 16.8704C12.5668 16.8835 12.5405 16.8897 12.5144 16.8897C12.4803 16.8897 12.4463 16.8791 12.4177 16.8577C12.3672 16.8201 12.3417 16.7561 12.3524 16.6931L12.412 16.3359L12.1591 16.0831C12.1142 16.0385 12.0981 15.9714 12.1174 15.9103C12.1368 15.8493 12.1879 15.805 12.2502 15.7958L12.6 15.7439L12.7565 15.4189C12.7842 15.3615 12.8413 15.325 12.9038 15.325C12.9664 15.325 13.0235 15.3615 13.0511 15.4189L13.2076 15.7439L13.5575 15.7958C13.6194 15.8051 13.6708 15.8495 13.69 15.9103C13.7094 15.9713 13.6932 16.0384 13.6484 16.0831L13.3952 16.3359L13.4551 16.6931C13.4657 16.7561 13.4403 16.82 13.3898 16.8577C13.3611 16.8791 13.3272 16.8897 13.293 16.8897Z" fill="white"/>
<path d="M13.293 19.81C13.2671 19.81 13.2407 19.8037 13.2167 19.7907L12.9037 19.6222L12.5908 19.7907C12.5668 19.8037 12.5405 19.81 12.5144 19.81C12.4803 19.81 12.4463 19.7993 12.4177 19.7779C12.3672 19.7404 12.3417 19.6764 12.3524 19.6134L12.412 19.2562L12.1591 19.0036C12.1142 18.9588 12.0981 18.8917 12.1174 18.8307C12.1368 18.7697 12.1879 18.7253 12.2502 18.716L12.6 18.664L12.7565 18.3392C12.7842 18.2818 12.8413 18.2454 12.9038 18.2454C12.9664 18.2454 13.0235 18.2818 13.0511 18.3392L13.2076 18.664L13.5575 18.716C13.6194 18.7253 13.6708 18.7697 13.69 18.8307C13.7094 18.8917 13.6932 18.9588 13.6484 19.0036L13.3952 19.2562L13.4551 19.6134C13.4657 19.6764 13.4403 19.7404 13.3898 19.7779C13.3611 19.7994 13.3272 19.81 13.293 19.81Z" fill="white"/>
<path d="M16.8813 8.12841C16.8551 8.12841 16.8288 8.12234 16.8047 8.10903L16.4919 7.94053L16.1789 8.10903C16.1547 8.12223 16.1284 8.12841 16.1025 8.12841C16.0684 8.12841 16.0345 8.11765 16.0056 8.09625C15.9552 8.05875 15.9296 7.99474 15.9404 7.93169L16.0001 7.57446L15.7469 7.32171C15.7021 7.27687 15.686 7.20988 15.7054 7.14896C15.7246 7.08793 15.7762 7.04351 15.838 7.03425L16.1878 6.98227L16.3443 6.6572C16.372 6.5998 16.4291 6.56348 16.4916 6.56348C16.5542 6.56348 16.6112 6.5999 16.6388 6.6572L16.7956 6.98227L17.1453 7.03425C17.2072 7.04362 17.2586 7.08793 17.2779 7.14896C17.2974 7.20988 17.2814 7.27687 17.2364 7.32171L16.9831 7.57446L17.043 7.93169C17.0536 7.99474 17.028 8.05865 16.9775 8.09625C16.9491 8.11755 16.9151 8.12841 16.8813 8.12841Z" fill="white"/>
<path d="M16.8813 11.0487C16.8551 11.0487 16.8288 11.0423 16.8047 11.0294L16.4919 10.8608L16.1789 11.0294C16.1547 11.0424 16.1284 11.0487 16.1025 11.0487C16.0684 11.0487 16.0345 11.0379 16.0056 11.0167C15.9552 10.9788 15.9296 10.9152 15.9404 10.8521L16.0001 10.4949L15.7469 10.242C15.7021 10.1973 15.686 10.1303 15.7054 10.0693C15.7246 10.0083 15.7762 9.96403 15.838 9.95476L16.1878 9.90268L16.3443 9.57772C16.372 9.52031 16.4291 9.48389 16.4916 9.48389C16.5542 9.48389 16.6112 9.52042 16.6388 9.57772L16.7956 9.90268L17.1453 9.95476C17.2072 9.96403 17.2586 10.0084 17.2779 10.0693C17.2974 10.1303 17.2814 10.1973 17.2364 10.242L16.9831 10.4949L17.043 10.8521C17.0536 10.9152 17.028 10.9788 16.9775 11.0167C16.9491 11.0379 16.9151 11.0487 16.8813 11.0487Z" fill="white"/>
<path d="M16.8813 13.9693C16.8551 13.9693 16.8288 13.963 16.8047 13.9501L16.4919 13.7814L16.1789 13.9501C16.1547 13.963 16.1284 13.9693 16.1025 13.9693C16.0684 13.9693 16.0345 13.9584 16.0056 13.9372C15.9552 13.8996 15.9296 13.8357 15.9404 13.7725L16.0001 13.4154L15.7469 13.1626C15.7021 13.1178 15.686 13.0508 15.7054 12.9899C15.7246 12.9289 15.7762 12.8845 15.838 12.8753L16.1878 12.8233L16.3443 12.4982C16.372 12.4409 16.4291 12.4045 16.4916 12.4045C16.5542 12.4045 16.6112 12.4409 16.6388 12.4982L16.7956 12.8233L17.1453 12.8753C17.2072 12.8847 17.2586 12.929 17.2779 12.9899C17.2974 13.0508 17.2814 13.1178 17.2364 13.1626L16.9831 13.4154L17.043 13.7725C17.0536 13.8357 17.028 13.8996 16.9775 13.9372C16.9491 13.9584 16.9151 13.9693 16.8813 13.9693Z" fill="white"/>
<path d="M16.8813 16.8897C16.8551 16.8897 16.8288 16.8837 16.8047 16.8704L16.4919 16.7018L16.1789 16.8704C16.1547 16.8835 16.1284 16.8897 16.1025 16.8897C16.0684 16.8897 16.0345 16.8791 16.0056 16.8577C15.9552 16.8201 15.9296 16.7561 15.9404 16.6931L16.0001 16.3359L15.7469 16.0831C15.7021 16.0385 15.686 15.9714 15.7054 15.9103C15.7246 15.8493 15.7762 15.805 15.838 15.7958L16.1878 15.7439L16.3443 15.4189C16.372 15.3615 16.4291 15.325 16.4916 15.325C16.5542 15.325 16.6112 15.3615 16.6388 15.4189L16.7956 15.7439L17.1453 15.7958C17.2072 15.8051 17.2586 15.8495 17.2779 15.9103C17.2974 15.9713 17.2814 16.0384 17.2364 16.0831L16.9831 16.3359L17.043 16.6931C17.0536 16.7561 17.028 16.82 16.9775 16.8577C16.9491 16.8791 16.9151 16.8897 16.8813 16.8897Z" fill="white"/>
<path d="M16.8813 19.81C16.8551 19.81 16.8288 19.8037 16.8047 19.7907L16.4919 19.6222L16.1789 19.7907C16.1547 19.8037 16.1284 19.81 16.1025 19.81C16.0684 19.81 16.0345 19.7993 16.0056 19.7779C15.9552 19.7404 15.9296 19.6764 15.9404 19.6134L16.0001 19.2562L15.7469 19.0036C15.7021 18.9588 15.686 18.8917 15.7054 18.8307C15.7246 18.7697 15.7762 18.7253 15.838 18.716L16.1878 18.664L16.3443 18.3392C16.372 18.2818 16.4291 18.2454 16.4916 18.2454C16.5542 18.2454 16.6112 18.2818 16.6388 18.3392L16.7956 18.664L17.1453 18.716C17.2072 18.7253 17.2586 18.7697 17.2779 18.8307C17.2974 18.8917 17.2814 18.9588 17.2364 19.0036L16.9831 19.2562L17.043 19.6134C17.0536 19.6764 17.028 19.7404 16.9775 19.7779C16.9491 19.7994 16.9151 19.81 16.8813 19.81Z" fill="white"/>
</g>
</svg>
