<svg width="490" height="110" viewBox="0 0 490 110" fill="none" xmlns="http://www.w3.org/2000/svg">
<path d="M153.3 17.5004C152.405 14.1951 150.661 11.1819 148.239 8.76067C145.818 6.33945 142.805 4.59478 139.5 3.70039C127.4 0.400391 78.6997 0.400391 78.6997 0.400391C78.6997 0.400391 29.9997 0.500391 17.8997 3.80039C14.5944 4.69478 11.5812 6.43945 9.15994 8.86067C6.73872 11.2819 4.99405 14.2951 4.09966 17.6004C0.439664 39.1004 -0.980336 71.8604 4.19966 92.5004C5.09405 95.8056 6.83872 98.8189 9.25994 101.24C11.6812 103.661 14.6944 105.406 17.9997 106.3C30.0997 109.6 78.7997 109.6 78.7997 109.6C78.7997 109.6 127.5 109.6 139.6 106.3C142.905 105.406 145.918 103.661 148.339 101.24C150.761 98.8189 152.505 95.8056 153.4 92.5004C157.26 70.9704 158.45 38.2304 153.3 17.5004Z" fill="#FF0000"/>
<path d="M63.1992 78.3996L103.599 54.9996L63.1992 31.5996V78.3996Z" fill="white"/>
<path d="M226.9 99.7002C223.8 97.6002 221.6 94.4002 220.3 90.0002C219 85.6002 218.4 79.8002 218.4 72.5002V62.6002C218.4 55.3002 219.1 49.3002 220.6 44.9002C222.1 40.4002 224.4 37.2002 227.6 35.2002C230.8 33.2002 234.9 32.1002 240 32.1002C245 32.1002 249.1 33.1002 252.1 35.2002C255.1 37.3002 257.4 40.5002 258.8 44.9002C260.2 49.3002 260.9 55.2002 260.9 62.5002V72.4002C260.9 79.7002 260.2 85.5002 258.8 89.9002C257.4 94.3002 255.2 97.5002 252.1 99.6002C249 101.6 244.8 102.7 239.6 102.7C234.2 102.8 230 101.7 226.9 99.7002V99.7002ZM244.2 89.0002C245.1 86.8002 245.5 83.1002 245.5 78.1002V56.8002C245.5 51.9002 245.1 48.3002 244.2 46.1002C243.3 43.8002 241.8 42.7002 239.7 42.7002C237.6 42.7002 236.2 43.8002 235.3 46.1002C234.4 48.4002 234 51.9002 234 56.8002V78.1002C234 83.1002 234.4 86.8002 235.2 89.0002C236 91.2002 237.5 92.3002 239.7 92.3002C241.8 92.3002 243.3 91.2002 244.2 89.0002V89.0002ZM463.4 72.7002V76.2002L463.8 86.1002C464.1 88.3002 464.6 89.9002 465.4 90.9002C466.2 91.9002 467.5 92.4002 469.2 92.4002C471.5 92.4002 473.1 91.5002 473.9 89.7002C474.8 87.9002 475.2 84.9002 475.3 80.8002L488.6 81.6002C488.7 82.2002 488.7 83.0002 488.7 84.0002C488.7 90.3002 487 95.0002 483.5 98.1002C480 101.2 475.2 102.8 468.9 102.8C461.3 102.8 456 100.4 453 95.7002C450 91.0002 448.4 83.6002 448.4 73.7002V61.6002C448.74 44.6002 451.73 32.1502 469.3 32.1002C474.6 32.1002 478.6 33.1002 481.4 35.0002C484.2 36.9002 486.2 39.9002 487.4 44.0002C488.6 48.1002 489.1 53.7002 489.1 60.9002V72.6002H463.4V72.7002ZM465.4 43.9002C464.6 44.9002 464.1 46.4002 463.8 48.6002C463.5 50.8002 463.4 58.6002 463.4 58.6002V63.5002H474.6V58.6002C474.6 63.5002 474.5 50.9002 474.2 48.6002C473.9 46.3002 473.4 44.7002 472.6 43.8002C471.8 42.9002 470.6 42.4002 469 42.4002C467.3 42.5002 466.1 43.0002 465.4 43.9002V43.9002ZM189.5 71.4002L172 8.2002H187.3C187.3 8.2002 194.45 39.9002 196.9 54.8002H197.3C200.08 38.9802 207.1 8.2002 207.1 8.2002H222.4L204.7 71.3002V101.6H189.6V71.4002H189.5Z" fill="white"/>
<path d="M310.5 33.4004V101.7H298.5L297.2 93.3004H296.9C293.6 99.6004 288.7 102.8 282.2 102.8C270.43 102.77 269.12 92.8004 269 84.4004V33.4004H284.4V83.5004C284.4 86.5004 284.7 88.7004 285.4 90.0004C286.82 92.7804 290.5 92.0704 292.5 90.7004C293.655 89.9199 294.585 88.8513 295.2 87.6004V33.4004H310.5Z" fill="white"/>
<path d="M388.5 32V100.3H376.5L375.2 91.9H374.9C371.6 98.2 366.7 101.4 360.2 101.4C348.43 101.37 347.12 91.4 347 83V32H362.4V82.1C362.4 85.1 362.7 87.3 363.4 88.6C364.82 91.38 368.5 90.67 370.5 89.3C371.655 88.5195 372.585 87.4509 373.2 86.2V32H388.5Z" fill="white"/>
<path d="M352.299 20.6002H336.999V101.7H321.999V20.6002H306.699V8.2002H352.199V20.6002H352.299ZM440.199 44.3002C439.299 40.0002 437.799 36.9002 435.699 34.9002C433.599 33.0002 430.799 32.0002 427.099 32.0002C424.285 31.994 421.534 32.8298 419.199 34.4002C416.699 36.0002 414.899 38.1002 413.499 40.7002H413.399V4.7002H398.599V101.6H411.299L412.899 95.1002H413.199C414.422 97.3893 416.257 99.2935 418.499 100.6C420.899 101.9 423.499 102.6 426.399 102.6C431.599 102.6 435.399 100.2 437.899 95.4002C440.299 90.6002 441.599 83.1002 441.599 73.0002V62.2002C441.599 54.6002 441.099 48.6002 440.199 44.3002V44.3002ZM426.099 72.2002C426.099 77.2002 425.899 81.1002 425.499 83.9002C425.099 86.7002 424.399 88.7002 423.399 89.9002C422.399 91.1002 421.099 91.7002 419.499 91.7002C416.399 91.6002 414.639 90.2002 413.399 88.1002V49.3002C413.899 47.4002 414.799 45.9002 416.099 44.7002C418.299 42.2302 422.059 42.2002 423.799 44.7002C424.699 45.9002 425.199 48.0002 425.599 50.9002C425.899 53.8002 426.099 57.9002 426.099 63.3002V72.2002Z" fill="white"/>
</svg>
