<svg width="78" height="27" viewBox="0 0 78 27" fill="none" xmlns="http://www.w3.org/2000/svg">
<g clip-path="url(#clip0)">
<path d="M4.37452 19.2725C7.24685 19.2725 8.73811 17.5553 8.74075 14.5435V12.0431H5.97506V14.7324C5.97506 16.077 5.38896 16.56 4.45736 16.56C3.52577 16.56 2.94231 16.0743 2.94319 14.7297L2.95201 4.56504C2.95201 3.22128 3.53811 2.71068 4.4697 2.71158C5.4013 2.71247 5.98475 3.22395 5.98387 4.56771V6.58514H8.74957V4.75663C8.75133 1.74385 7.2636 0.0222687 4.39126 0.0195954C1.51892 0.0169221 0.0276696 1.73672 0.0250256 4.74861L0.0170934 14.5363C0.0144493 17.5482 1.49865 19.2707 4.37452 19.2725Z" fill="white"/>
<path d="M12.9408 15.6502H16.5315L17.0338 19.0657H19.9864L17.0233 0.245911H12.7408L9.74414 19.0657H12.4296L12.9408 15.6502ZM14.7326 3.57769L16.1349 13.099H13.3145L14.7326 3.57769Z" fill="white"/>
<path d="M23.8802 5.76357L26.0501 19.0764L28.8158 19.0782L30.8482 5.58179L30.8367 19.0809L33.6033 19.0827L33.6192 0.260205L29.5499 0.25664L27.544 13.6185L25.4005 0.253076L21.3313 0.249512L21.3154 19.072L23.8687 19.0747L23.8802 5.76357Z" fill="white"/>
<path d="M39.959 19.3304C42.8313 19.3304 44.3226 17.6133 44.3252 14.6014L44.3367 0.267346H41.571L41.5586 14.7921C41.5586 16.1368 40.9725 16.6206 40.041 16.6197C39.1094 16.6188 38.5259 16.1341 38.5268 14.7903L38.5391 0.265564H35.613L35.6016 14.5978C35.5989 17.6053 37.0867 19.3277 39.959 19.3304Z" fill="white"/>
<path d="M48.9335 5.46236L52.5656 19.0987L55.571 19.1014L55.5869 0.278894L52.9798 0.276221L52.971 11.5431L49.9753 0.273547L46.3044 0.270874L46.2886 19.0933L48.9221 19.096L48.9335 5.46236Z" fill="white"/>
<path d="M66.6648 14.4589L66.6727 4.94024C66.6727 1.92836 65.2405 0.286975 62.3153 0.284302H57.6873L57.6714 19.1068L62.2994 19.1112C65.2246 19.1095 66.6621 17.4707 66.6648 14.4589ZM60.5993 16.4193L60.6107 2.97361H62.2597C63.1904 2.97361 63.7483 3.45925 63.7475 4.80302L63.7395 14.5907C63.7395 15.9354 63.179 16.4193 62.2483 16.4184L60.5993 16.4193Z" fill="white"/>
<path d="M70.9488 15.7001H74.5395L75.0418 19.1156H77.9944L75.0278 0.295837H70.7461L67.7495 19.1165H70.4359L70.9488 15.7001ZM72.738 3.62762L74.1393 13.148H71.319L72.738 3.62762Z" fill="white"/>
<path d="M77.9915 22.0375H0.0170898V27.0241H77.9915V22.0375Z" fill="white"/>
</g>
<defs>
<clipPath id="clip0">
<rect width="78" height="27" fill="white"/>
</clipPath>
</defs>
</svg>
