<svg width="42" height="31" viewBox="0 0 42 31" fill="none" xmlns="http://www.w3.org/2000/svg">
<g clip-path="url(#clip0)">
<path fill-rule="evenodd" clip-rule="evenodd" d="M25.2353 5.00154H25.2419C25.7427 5.00154 26.2381 5.04069 26.7242 5.26809C26.7458 5.27806 26.7674 5.28861 26.7889 5.29941C26.8275 5.31878 26.8658 5.33938 26.9043 5.36131C25.199 5.39147 24.6632 6.75234 23.9732 7.93436L23.8564 7.86933C23.8806 7.66443 23.8914 7.45722 23.9306 7.25487C24.0291 6.74591 24.1385 6.23852 24.2484 5.73155C24.3538 5.24897 24.6581 5.00533 25.1518 5.00186H25.1949H25.2353V5.00154ZM25.0505 0C24.7025 0 24.3512 0.0203582 23.9972 0.0538216C22.4012 0.204324 20.9377 0.668772 19.67 1.6669C19.0893 2.12435 18.5773 2.65036 18.2018 3.35326C19.112 3.30677 20.0875 3.25814 20.9412 3.21454H21.0237C20.8408 3.31757 20.6474 3.40048 20.4467 3.46181C19.4906 3.6977 18.5793 3.94216 17.6075 4.0944C16.8502 4.21309 16.1898 4.43076 15.6706 5.03681C14.4119 6.50623 13.0948 7.92645 11.8694 9.42274C11.2215 10.2134 10.7036 11.1124 10.1527 11.9794C9.83041 12.4864 9.82233 13.0284 10.1964 13.5207C10.7492 14.2484 11.3238 14.9592 11.9155 15.7114C12.5296 14.9982 13.1531 14.2743 13.7768 13.5508L13.8716 13.6183C13.8436 13.7173 13.8098 13.8145 13.7704 13.9095C13.1902 15.107 12.6083 16.3035 12.0245 17.4991C11.492 18.5843 11.529 18.7171 12.562 19.3743C12.9254 19.6057 13.2902 19.7462 13.6652 19.7462C13.9709 19.7422 14.2695 19.6534 14.5278 19.4898C15.0565 19.1718 15.6176 18.9068 16.1473 18.591C17.1611 17.9858 18.2311 17.614 19.4093 17.614C19.5068 17.614 19.605 17.6166 19.7039 17.6218C19.7065 17.6218 19.7092 17.6218 19.7117 17.6218C19.8261 17.6218 20.0149 17.4945 20.0454 17.3916C20.4446 16.0443 20.7162 14.7004 20.3475 13.2746C19.9733 11.8283 19.8589 10.3501 20.3924 8.90002C20.5065 8.58986 20.6716 8.29833 20.8135 7.99898L20.9421 8.03524C20.953 8.20399 20.952 8.3733 20.9389 8.54189C20.7566 9.81688 20.9158 11.057 21.3084 12.2726C21.6051 13.1911 21.8787 14.1253 21.7587 15.0941C21.6126 16.2742 21.3729 17.4419 21.1822 18.6163C21.1328 18.9191 21.0167 19.0402 20.7929 19.0402C20.7052 19.0379 20.6182 19.0252 20.5335 19.0025C20.147 18.9053 19.7502 18.8549 19.3516 18.8525C18.5939 18.8499 17.8511 19.0624 17.2094 19.4654C16.5445 19.8752 15.8549 20.2461 15.1668 20.6162C14.6103 20.9158 14.0686 21.0712 13.5441 21.0712C12.8401 21.0712 12.1671 20.7914 11.5307 20.2045C11.198 19.8973 10.8616 19.5928 10.5438 19.2709C9.81228 18.5277 9.81615 18.5236 10.3863 17.674L10.4304 17.6042C10.9897 16.7712 10.9865 16.7082 10.3337 15.9187L10.2524 15.8255C9.79637 15.2089 9.3203 14.6057 8.89245 13.9704C8.54388 13.4527 8.46056 12.8403 8.70205 12.2752C9.01723 11.5388 9.36357 10.7951 9.8267 10.1478C10.4235 9.31377 11.1477 8.57099 11.8199 7.79136C12.1044 7.46076 12.4105 7.08558 12.6989 6.75861C11.334 6.94686 10.049 7.35386 8.82189 7.87633C7.5216 8.42996 6.39696 9.19987 5.53268 10.3361C4.96743 11.0787 4.39097 11.814 3.78311 12.5216C3.43866 12.9226 3.06603 13.3331 2.62458 13.6096C2.43806 13.7245 2.22302 13.7848 2.00394 13.7835C1.51263 13.7835 1.02823 13.49 0.92372 12.945C1.12153 12.6883 1.39278 12.4949 1.41825 12.2726C1.50216 11.5529 1.4954 10.8224 1.52425 10.0967C0.967238 10.3975 0.332177 11.033 0.119693 11.5493C-0.0500968 11.9614 -0.0768015 12.3626 0.255689 12.7406C0.36803 12.8683 0.413362 13.0809 0.431742 13.261C0.545073 14.3631 1.06244 14.9462 2.11183 15.0597C2.17587 15.0664 2.24023 15.0697 2.30462 15.0696C2.5729 15.0696 2.8486 15.0201 3.13016 15.0011C3.13904 15.0779 3.14333 15.1551 3.14302 15.2324C3.08763 15.9697 3.00405 16.7054 2.97817 17.4431C2.93952 18.5475 3.09051 19.6207 3.5135 20.6575C4.2023 22.3463 4.88426 23.4534 5.74285 24.826C5.83418 24.9724 5.94685 25.162 5.92089 25.3081C5.78538 26.0862 5.66909 26.8769 5.43138 27.6267C5.10656 28.6509 5.29893 29.2846 6.3119 29.6099C7.10718 29.8539 7.92486 30.018 8.75274 30.0995C8.87131 30.1132 8.99053 30.1204 9.10988 30.1211C9.83519 30.1211 10.1026 29.7894 10.1761 28.9399C10.21 28.5526 10.2307 28.1051 10.436 27.7997C11.374 26.4017 11.3247 25.7458 11.238 23.9795C11.2298 23.8155 11.1974 23.6535 11.188 23.49C11.1797 23.3403 11.186 23.19 11.186 22.999C11.5136 23.4081 11.7495 23.8068 12.0806 24.0983C12.7092 24.661 13.5269 24.9658 14.3705 24.9516C14.7567 24.9485 15.1413 24.9006 15.5166 24.809C16.2527 24.636 16.8135 24.2309 17.0546 23.4703C17.0924 23.3995 17.1399 23.3342 17.1957 23.2765C17.2158 23.3299 17.2305 23.3851 17.2397 23.4413C17.2444 23.9082 17.2379 24.375 17.2507 24.8418C17.2617 25.2441 17.0915 25.5199 16.7338 25.6989C16.3294 25.9024 15.9207 26.1007 15.534 26.3356C14.7442 26.8136 14.6092 27.31 15.1288 28.0786C15.5501 28.688 16.0109 29.2692 16.5082 29.8183C16.8644 30.2201 17.1501 30.4138 17.4608 30.4138C17.7288 30.4138 18.0152 30.2697 18.3814 29.9907C19.102 29.4421 19.8108 28.8774 20.5257 28.3214C21.8499 27.2899 22.8841 26.0363 23.5258 24.4703C24.0099 23.2898 24.5086 22.1159 25.0219 20.9484C25.1506 20.6554 25.0911 20.5178 24.8495 20.3047C24.156 19.6947 23.4159 19.0692 22.9719 18.2081C22.9089 18.0867 22.8692 17.9532 22.7834 17.7373C23.4387 18.192 23.9528 18.6889 24.5686 18.9445C25.5201 19.3402 26.2645 19.9583 26.988 20.654C27.5625 21.2225 28.334 21.5478 29.1421 21.5621C29.1493 21.5621 29.1565 21.5621 29.1637 21.5621C30.3278 21.5621 31.581 20.2784 31.6977 18.9087C31.5173 19.0703 31.4 19.1494 31.3168 19.2554C31.1143 19.5143 30.9542 19.8094 30.7307 20.0475C30.3423 20.4618 29.8873 20.6637 29.4469 20.6637C28.8643 20.6637 28.3073 20.3101 27.9638 19.627C27.3778 18.4613 27.341 17.2004 27.4382 15.9295C27.4597 15.645 27.4999 15.3623 27.5314 15.0786L27.6943 15.0104C27.7318 15.0994 27.7783 15.1843 27.8331 15.2637C29.2113 16.8724 30.9392 17.9021 33.0108 18.3279C33.6805 18.4781 34.3637 18.56 35.05 18.5727C35.5993 18.5779 36.1461 18.4975 36.6707 18.3346C38.7342 17.678 39.9734 16.1454 40.8237 14.2515C41.652 12.4053 41.9589 10.4533 41.8293 8.44076C41.7489 7.19866 41.6517 5.9531 41.4672 4.72303C41.301 3.61033 40.9844 2.52129 40.2841 1.59973C40.0655 1.31216 39.884 1.16537 39.708 1.16537C39.5293 1.16537 39.3563 1.31669 39.1563 1.62577C38.6528 2.40491 37.9567 2.87801 37.0991 3.17531C36.3593 3.43139 36.2553 3.64338 36.3715 4.4151C36.521 5.41538 36.7193 6.41202 36.8012 7.41757C36.9292 8.99678 36.7033 10.5189 35.7062 11.8238C35.4264 12.1899 35.0671 12.4951 34.7438 12.8283L34.6178 12.7211C34.6842 12.5944 34.7573 12.471 34.8164 12.3405C35.0745 11.7677 35.3468 11.2003 35.5781 10.6169C35.7391 10.211 35.5955 9.88331 35.242 9.61313C35.1089 9.50174 34.9421 9.43855 34.7686 9.43378C34.5707 9.44411 34.381 9.51617 34.2262 9.63984C33.9418 9.84202 33.6757 10.0704 33.402 10.287C33.508 10.0556 33.6468 9.84072 33.8141 9.6489C34.0341 9.36545 34.1923 9.06206 33.9923 8.70492C33.8587 8.46516 33.5258 8.32174 33.1808 8.32174C33.0966 8.32166 33.0126 8.33039 32.9302 8.34779C32.7357 8.389 32.5458 8.49071 32.2919 8.48065C33.0727 7.80133 32.9591 6.9448 31.5394 6.78004C31.7816 6.59945 32.102 6.55568 32.3971 6.51044C32.483 6.49836 32.5697 6.49285 32.6565 6.49395C32.7059 6.49395 32.7563 6.4951 32.8064 6.49634C32.8564 6.49758 32.9059 6.49857 32.9556 6.49857C33.0298 6.49922 33.1039 6.49539 33.1776 6.48711C33.532 6.44417 33.6687 6.26572 33.5519 5.93414C33.2443 5.05527 32.1667 4.14121 31.2441 4.12086C31.1176 4.11805 30.7936 4.12086 30.6671 4.12086H30.0902C30.4133 3.9725 30.6804 3.74097 31.0346 3.5791C30.089 2.26554 29.0274 1.10223 27.5057 0.456289C26.7085 0.118111 25.8889 0 25.0505 0ZM25.4379 23.4784C25.0455 25.6272 23.7365 27.7431 22.3014 28.7593C22.0762 28.9196 22.107 29.1034 22.2794 29.2255C22.4462 29.3375 22.6412 29.4004 22.842 29.4068C23.3049 29.415 23.7677 29.4174 24.2306 29.4174C24.7272 29.4174 25.2239 29.4147 25.7202 29.414C26.5658 29.4134 26.9895 28.8413 26.6073 28.0808C26.3297 27.5286 26.2776 26.9828 26.3318 26.4159C26.4343 25.3261 26.026 24.4072 25.4379 23.4784V23.4784ZM2.44284 21.0356C1.84602 21.7982 1.30393 22.4663 0.791515 23.1563C0.541116 23.4942 0.460343 23.9203 0.676948 24.2851C1.21088 25.1872 1.8588 26.0081 2.77385 26.558C3.05952 26.7298 3.31388 26.8146 3.54903 26.8146C3.9191 26.8146 4.24137 26.6045 4.56158 26.1932C4.70409 26.0102 4.67821 25.8854 4.57361 25.6854C4.03606 24.6573 3.51087 23.621 3.01328 22.5728C2.79783 22.1188 2.65978 21.6292 2.44284 21.0356V21.0356ZM29.1164 7.37603C27.5339 7.39111 25.597 8.8424 25.4087 10.096C25.657 9.889 25.9647 9.61841 26.1899 9.43073C26.1463 9.49609 26.5894 9.90795 26.5458 9.97332C26.8698 10.2395 26.7888 10.1594 27.128 10.4383C26.9986 10.693 26.6715 11.0962 26.5085 11.4171L26.6119 11.5031C27.6875 10.3609 28.8776 9.37963 30.375 8.83062L30.3201 8.69759C30.0145 8.76435 29.708 8.83095 29.4403 8.88938C29.1292 8.49565 28.8482 8.13934 28.5573 7.77067C28.6899 7.67712 28.8622 7.55571 29.1164 7.37628V7.37603ZM25.2353 5.00154H25.195H25.1519C24.6583 5.005 24.354 5.2488 24.2486 5.73122C24.1387 6.2382 24.0293 6.74559 23.9308 7.25454C23.8913 7.45656 23.8806 7.6641 23.8566 7.869L23.9734 7.93403C24.6633 6.75201 25.1992 5.39114 26.9045 5.36098C26.8661 5.33905 26.8277 5.31845 26.7891 5.29908C26.7676 5.28828 26.746 5.27773 26.7244 5.26776C26.2381 5.04036 25.7429 5.00153 25.2421 5.0012H25.2353V5.00154ZM36.808 4.08813C36.9194 3.96071 37.0059 3.77114 37.146 3.71616C37.9983 3.39841 38.733 2.82761 39.2516 2.08033C39.3616 1.92126 39.6097 1.85829 39.7943 1.75064C39.7983 1.89859 39.83 2.05561 39.8299 2.20223C39.8312 2.26951 39.8219 2.33658 39.8023 2.40095C39.4837 3.38252 38.2292 4.34727 37.1622 4.35287C37.1079 4.31232 36.9584 4.20015 36.8078 4.0878L36.808 4.08813ZM39.794 1.75073C39.6095 1.85788 39.3614 1.92101 39.2514 2.08041C38.7328 2.82765 37.9981 3.39842 37.1458 3.71616C37.0057 3.77114 36.9192 3.96071 36.8079 4.08813C36.9582 4.20047 37.1077 4.31265 37.1623 4.3532C38.2293 4.3476 39.4838 3.38285 39.8024 2.40128C39.8219 2.33691 39.8313 2.26984 39.83 2.20256C39.83 2.05585 39.7984 1.89892 39.7944 1.75097" fill="white"/>
</g>
<defs>
<clipPath id="clip0">
<rect width="41.8601" height="30.4137" fill="white"/>
</clipPath>
</defs>
</svg>
