<svg width="26" height="35" viewBox="0 0 26 35" fill="none" xmlns="http://www.w3.org/2000/svg">
<g clip-path="url(#clip0)">
<path d="M8.89919 25.9969C8.89919 25.9969 7.67043 26.7327 9.77366 26.9817C12.3217 27.281 13.6239 27.2381 16.4318 26.6909C16.4318 26.6909 17.1701 27.1675 18.201 27.5803C11.9064 30.3581 3.95512 27.4194 8.89919 25.9969Z" fill="white"/>
<path d="M8.13 22.3721C8.13 22.3721 6.75183 23.4225 8.85662 23.6467C11.5785 23.9358 13.728 23.9595 17.4475 23.222C17.4475 23.222 17.9619 23.7591 18.7709 24.0527C11.1603 26.3442 2.68352 24.2334 8.13 22.3721Z" fill="white"/>
<path d="M14.614 16.2232C16.165 18.0619 14.2065 19.7164 14.2065 19.7164C14.2065 19.7164 18.1447 17.6231 16.3361 15.0018C14.6468 12.5572 13.3514 11.3426 20.3642 7.15479C20.3642 7.15479 9.35645 9.98557 14.614 16.2232Z" fill="white"/>
<path d="M22.9395 28.678C22.9395 28.678 23.8489 29.4495 21.9381 30.0463C18.3048 31.1796 6.81582 31.5218 3.62423 30.0915C2.47694 29.5775 4.62844 28.8644 5.30522 28.7147C6.01103 28.5571 6.41438 28.5865 6.41438 28.5865C5.13847 27.661 -1.83256 30.4037 2.87344 31.1892C15.7074 33.3322 26.2685 30.2242 22.9395 28.678Z" fill="white"/>
<path d="M9.48992 18.6164C9.48992 18.6164 3.64591 20.0456 7.42041 20.5646C9.01413 20.7843 12.1912 20.7346 15.1505 20.4793C17.569 20.2693 19.9975 19.8226 19.9975 19.8226C19.9975 19.8226 19.1447 20.1987 18.5277 20.6325C12.5932 22.2395 1.12885 21.4919 4.42929 19.8481C7.22047 18.4588 9.48992 18.6164 9.48992 18.6164Z" fill="white"/>
<path d="M19.9738 24.6501C26.0065 21.4223 23.2172 18.3204 21.2703 18.7383C20.7931 18.8405 20.5804 18.9291 20.5804 18.9291C20.5804 18.9291 20.7575 18.6434 21.0959 18.5197C24.9474 17.1255 27.9095 22.6319 19.8525 24.8127C19.8525 24.8128 19.9459 24.7269 19.9738 24.6501Z" fill="white"/>
<path d="M16.3361 0.392578C16.3361 0.392578 19.6771 3.83383 13.1673 9.12551C7.94714 13.3703 11.977 15.7906 13.1652 18.5559C10.1181 15.7251 7.88188 13.2332 9.38208 10.9139C11.584 7.50942 17.6841 5.8588 16.3361 0.392578Z" fill="white"/>
<path d="M10.0825 33.3966C15.8732 33.7783 24.7654 33.1849 24.976 30.3636C24.976 30.3636 24.5711 31.4332 20.1903 32.2825C15.2479 33.2402 9.1521 33.1284 5.53662 32.5146C5.53671 32.5145 6.27675 33.1453 10.0825 33.3966Z" fill="white"/>
</g>
<defs>
<clipPath id="clip0">
<rect width="26" height="35" fill="white"/>
</clipPath>
</defs>
</svg>
