<svg width="18" height="30" viewBox="0 0 18 30" fill="none" xmlns="http://www.w3.org/2000/svg">
<g clip-path="url(#clip0)">
<path d="M14.1853 16.6021C13.0483 16.6021 12.0291 17.1193 11.3311 17.9334L9.54249 16.6335C9.73235 16.0968 9.84137 15.5205 9.84137 14.9174C9.84137 14.3246 9.73614 13.758 9.55253 13.2293L11.3371 11.9431C12.035 12.7532 13.0516 13.2675 14.1853 13.2675C16.2838 13.2675 17.9913 11.5147 17.9913 9.36C17.9913 7.20526 16.2838 5.4525 14.1853 5.4525C12.0868 5.4525 10.3793 7.20526 10.3793 9.36C10.3793 9.74567 10.436 10.1176 10.5379 10.4698L8.75212 11.7566C8.00615 10.8065 6.93207 10.1431 5.70831 9.9406V7.73099C7.43234 7.35923 8.73133 5.78661 8.73133 3.9075C8.73133 1.75276 7.02381 0 4.92532 0C2.82683 0 1.11932 1.75276 1.11932 3.9075C1.11932 5.76144 2.38466 7.31466 4.0742 7.71296V9.95127C1.76842 10.3668 0.00927734 12.4328 0.00927734 14.9174C0.00927734 17.4141 1.78584 19.4876 4.10826 19.889V22.2525C2.40145 22.6377 1.11932 24.2004 1.11932 26.067C1.11932 28.2217 2.82683 29.9745 4.92532 29.9745C7.02381 29.9745 8.73133 28.2217 8.73133 26.067C8.73133 24.2004 7.4492 22.6377 5.74238 22.2525V19.8889C6.91788 19.6856 7.98134 19.0506 8.7347 18.1022L10.5352 19.4106C10.4353 19.7596 10.3793 20.1278 10.3793 20.5096C10.3793 22.6644 12.0868 24.4171 14.1853 24.4171C16.2838 24.4171 17.9913 22.6644 17.9913 20.5096C17.9913 18.3549 16.2838 16.6021 14.1853 16.6021V16.6021ZM14.1853 7.46546C15.2029 7.46546 16.0306 8.31555 16.0306 9.36C16.0306 10.4044 15.2029 11.2545 14.1853 11.2545C13.1677 11.2545 12.34 10.4044 12.34 9.36C12.34 8.31555 13.1677 7.46546 14.1853 7.46546V7.46546ZM3.07999 3.9075C3.07999 2.86305 3.90772 2.01303 4.92532 2.01303C5.94292 2.01303 6.77059 2.86305 6.77059 3.9075C6.77059 4.95195 5.94292 5.80197 4.92532 5.80197C3.90772 5.80197 3.07999 4.95195 3.07999 3.9075ZM6.77059 26.067C6.77059 27.1114 5.94292 27.9614 4.92532 27.9614C3.90772 27.9614 3.07999 27.1114 3.07999 26.067C3.07999 25.0225 3.90772 24.1725 4.92532 24.1725C5.94292 24.1725 6.77059 25.0225 6.77059 26.067ZM4.92518 17.5595C3.50594 17.5595 2.35137 16.3744 2.35137 14.9174C2.35137 13.4603 3.50594 12.2749 4.92518 12.2749C6.34436 12.2749 7.49893 13.4603 7.49893 14.9174C7.49893 16.3744 6.34436 17.5595 4.92518 17.5595ZM14.1853 22.4042C13.1677 22.4042 12.34 21.5541 12.34 20.5096C12.34 19.4652 13.1677 18.6151 14.1853 18.6151C15.2029 18.6151 16.0306 19.4652 16.0306 20.5096C16.0306 21.5541 15.2029 22.4042 14.1853 22.4042Z" fill="white"/>
</g>
<defs>
<clipPath id="clip0">
<rect width="18" height="30" fill="white"/>
</clipPath>
</defs>
</svg>
