<svg width="30" height="30" viewBox="0 0 30 30" fill="none" xmlns="http://www.w3.org/2000/svg">
<g clip-path="url(#clip0)">
<path d="M4.39715 0H0.882519C0.397305 0 0.00390625 0.393398 0.00390625 0.878672V4.45189C0.00390625 4.93717 0.397246 5.33057 0.882578 5.33057C1.36785 5.33057 1.76125 4.93717 1.76125 4.45189V1.75734H4.39721C4.88248 1.75734 5.27588 1.36395 5.27588 0.878672C5.27582 0.393398 4.88242 0 4.39715 0Z" fill="white"/>
<path d="M29.1169 0H25.6023C25.117 0 24.7236 0.393398 24.7236 0.878672C24.7236 1.36395 25.117 1.75734 25.6023 1.75734H28.2383V4.45189C28.2383 4.93717 28.6317 5.33057 29.1169 5.33057C29.6022 5.33057 29.9956 4.93717 29.9956 4.45189V0.878672C29.9956 0.393398 29.6022 0 29.1169 0Z" fill="white"/>
<path d="M4.39818 28.2342H1.76223V25.5397C1.76223 25.0544 1.36883 24.661 0.883555 24.661C0.398281 24.661 0.00488281 25.0544 0.00488281 25.5397V29.1129C0.00488281 29.5982 0.398223 29.9916 0.883555 29.9916H4.39818C4.88346 29.9916 5.27686 29.5982 5.27686 29.1129C5.27686 28.6276 4.88346 28.2342 4.39818 28.2342Z" fill="white"/>
<path d="M29.1169 24.661C28.6317 24.661 28.2383 25.0544 28.2383 25.5397V28.2342H25.6023C25.117 28.2342 24.7236 28.6276 24.7236 29.1129C24.7236 29.5982 25.117 29.9916 25.6023 29.9916H29.1169C29.6022 29.9916 29.9956 29.5982 29.9956 29.1129V25.5397C29.9956 25.0544 29.6022 24.661 29.1169 24.661Z" fill="white"/>
<path d="M27.6781 7.20835L15.4407 0.118389C15.1683 -0.0394629 14.8321 -0.0394629 14.5597 0.118389L2.31725 7.20829C2.04736 7.36468 1.87891 7.65583 1.87891 7.96802C1.87891 7.96978 1.87908 7.97154 1.87908 7.97324V22.0313C1.87908 22.3465 2.05035 22.6414 2.32615 22.7967L14.5598 29.8816C14.6915 29.958 14.8483 30 15.0003 30C15.1589 30 15.3139 29.9551 15.4408 29.8816L27.6694 22.7966C27.6715 22.7955 27.6735 22.7943 27.6755 22.7931C27.9589 22.5886 28.1117 22.4168 28.116 22.0419C28.116 22.0384 28.1163 22.0349 28.1163 22.0314V7.97335C28.1163 7.97159 28.1165 7.96984 28.1165 7.96814C28.1165 7.65566 27.9479 7.36445 27.6781 7.20835ZM14.1215 27.5968L4.52236 22.0353L11.9227 17.7914C12.3437 17.55 12.4892 17.013 12.2478 16.5921C12.0064 16.1711 11.4695 16.0256 11.0485 16.267L3.63625 20.5146V9.48683L14.1215 15.5085V27.5968V27.5968ZM15.0002 13.9867L4.52107 7.9655L15.0002 1.89413L25.4794 7.9655L15.0002 13.9867ZM26.3647 20.5146L18.952 16.267C18.531 16.0256 17.9941 16.171 17.7527 16.592C17.5112 17.013 17.6567 17.5499 18.0777 17.7913L25.4781 22.0352L15.8788 27.5967V15.5085L26.3646 9.48683V20.5146H26.3647Z" fill="white"/>
</g>
<defs>
<clipPath id="clip0">
<rect width="30" height="30" fill="white"/>
</clipPath>
</defs>
</svg>
