<svg width="30" height="30" viewBox="0 0 30 30" fill="none" xmlns="http://www.w3.org/2000/svg">
<path d="M14.559 19.2969C14.4655 22.6322 14.5824 25.9907 14.9092 26.8069C15.2362 27.6232 15.936 29.2108 18.3424 28.696C20.3528 28.2656 21.0843 27.4326 21.4017 25.5941C21.6355 24.2414 22.0862 20.4847 22.144 19.715" stroke="white" stroke-width="1.11277" stroke-linecap="round" stroke-linejoin="round"/>
<path d="M11.6751 2.57676C11.6751 2.57676 0.780671 -1.86993 1.28715 8.24216C1.39486 10.3934 4.37491 24.5201 7.92908 20.2531C9.22788 18.6927 10.4025 17.4689 10.4025 17.4689" stroke="white" stroke-width="1.11277" stroke-linecap="round" stroke-linejoin="round"/>
<path d="M17.5598 1.76519C17.1827 1.88327 23.62 -0.584852 27.2784 4.08345C28.5706 5.73263 27.0731 12.4708 23.4909 17.7792" stroke="white" stroke-width="1.11277" stroke-linecap="round" stroke-linejoin="round"/>
<path d="M23.4909 17.7792C23.4909 17.7792 23.7243 18.9267 27.1172 18.2274C28.6038 17.9207 27.7091 19.0878 26.2014 19.787C24.9641 20.3605 22.19 20.5075 22.1446 19.715C22.028 17.6704 23.6047 18.2915 23.4909 17.7792C23.3881 17.3178 22.6829 16.865 22.2165 15.7357C21.8093 14.7501 16.632 7.19146 23.6523 8.31404C23.9095 8.2609 21.8214 1.64549 15.2513 1.53792C8.68278 1.43035 8.89828 9.60482 8.89828 9.60482" stroke="white" stroke-width="1.11277" stroke-linecap="round" stroke-linejoin="bevel"/>
<path d="M12.7202 18.4785C11.8044 19.5 12.0737 19.6794 10.2432 20.0558C8.39115 20.4371 9.47931 21.1155 10.1895 21.2928C11.0507 21.508 13.0431 21.8127 14.3893 19.9303C14.7992 19.3571 14.3868 18.4426 13.8237 18.2095C13.5516 18.0969 13.1878 17.9559 12.7202 18.4785V18.4785Z" stroke="white" stroke-width="1.11277" stroke-linecap="round" stroke-linejoin="round"/>
<path d="M12.6609 18.4606C12.5687 17.86 12.8586 17.1453 13.1692 16.3091C13.6361 15.0545 14.7133 13.7997 13.8516 9.81989C13.2093 6.8542 8.90111 9.20269 8.89841 9.60482C8.89578 10.0068 9.09327 11.6431 8.82644 13.5485C8.47827 16.0349 10.4107 18.1377 12.6359 17.9226" stroke="white" stroke-width="1.11277" stroke-linecap="round" stroke-linejoin="round"/>
<path d="M11.6357 9.54455C11.6163 9.68189 11.8875 10.0484 12.2412 10.0974C12.5942 10.1465 12.8964 9.86012 12.9155 9.72291C12.9347 9.58557 12.6638 9.43428 12.31 9.38511C11.9568 9.33587 11.6545 9.40754 11.6358 9.54455H11.6357Z" fill="white" stroke="white" stroke-width="0.370921"/>
<path d="M22.3886 9.26449C22.4077 9.40183 22.1369 9.76833 21.7832 9.8173C21.4299 9.86647 21.1277 9.58006 21.1083 9.44286C21.0896 9.30551 21.3606 9.15423 21.714 9.10506C22.0673 9.05588 22.3694 9.12749 22.3886 9.26456V9.26449Z" fill="white" stroke="white" stroke-width="0.185461"/>
<path d="M23.6525 8.31403C23.7107 9.39135 23.4201 10.1251 23.3835 11.272C23.3292 12.9389 24.1793 14.8469 22.8984 16.7573" stroke="white" stroke-width="1.11277" stroke-linecap="round" stroke-linejoin="round"/>
</svg>
