<svg width="34" height="30" viewBox="0 0 34 30" fill="none" xmlns="http://www.w3.org/2000/svg">
<g clip-path="url(#clip0)">
<path d="M34.0209 15C34.0209 12.7689 31.2197 10.6545 26.9249 9.34325C27.916 4.97712 27.4755 1.50343 25.5346 0.391304C25.0873 0.130435 24.5642 0.00686488 23.9929 0.00686488V1.53776C24.3095 1.53776 24.5642 1.59954 24.7776 1.71625C25.7136 2.25172 26.1197 4.29062 25.8031 6.91304C25.7274 7.55835 25.6035 8.23799 25.452 8.93135C24.1031 8.60183 22.6302 8.34783 21.0816 8.18307C20.1525 6.91304 19.1889 5.75972 18.2184 4.75057C20.4622 2.67048 22.5682 1.53089 23.9998 1.53089V0C22.1071 0 19.6294 1.34554 17.1241 3.67963C14.6188 1.35927 12.1411 0.0274601 10.2484 0.0274601V1.55835C11.6731 1.55835 13.7861 2.69108 16.0298 4.75744C15.0662 5.76659 14.1027 6.91304 13.1873 8.18307C11.6318 8.34783 10.1589 8.60183 8.80994 8.93821C8.65164 8.25172 8.53464 7.58581 8.45205 6.94737C8.12857 4.32494 8.52776 2.28604 9.45691 1.74371C9.66338 1.62014 9.93181 1.56522 10.2484 1.56522V0.0343249C9.67027 0.0343249 9.14719 0.157895 8.69294 0.418764C6.75893 1.53089 6.32533 4.99771 7.3233 9.35011C3.04233 10.6682 0.254883 12.7757 0.254883 15C0.254883 17.2311 3.0561 19.3455 7.35083 20.6567C6.35974 25.0229 6.80023 28.4966 8.74112 29.6087C9.18849 29.8696 9.71156 29.9931 10.2897 29.9931C12.1824 29.9931 14.6601 28.6476 17.1654 26.3135C19.6707 28.6339 22.1484 29.9657 24.0411 29.9657C24.6193 29.9657 25.1423 29.8421 25.5966 29.5812C27.5306 28.4691 27.9642 25.0023 26.9662 20.6499C31.2334 19.3387 34.0209 17.2243 34.0209 15ZM25.0597 10.4211C24.8051 11.3066 24.4885 12.2197 24.1306 13.1327C23.8484 12.5835 23.5525 12.0343 23.229 11.4851C22.9124 10.9359 22.5751 10.4005 22.2379 9.87872C23.2152 10.0229 24.1581 10.2014 25.0597 10.4211ZM21.9075 17.7323C21.3707 18.659 20.8201 19.5378 20.2488 20.3547C19.2233 20.4439 18.184 20.492 17.1379 20.492C16.0986 20.492 15.0593 20.4439 14.0407 20.3616C13.4695 19.5446 12.912 18.6728 12.3751 17.7529C11.852 16.8535 11.3771 15.9405 10.9435 15.0206C11.3703 14.1007 11.852 13.1808 12.3682 12.2815C12.9051 11.3547 13.4557 10.476 14.0269 9.65904C15.0525 9.56979 16.0917 9.52174 17.1379 9.52174C18.1771 9.52174 19.2164 9.56979 20.235 9.65217C20.8063 10.4691 21.3638 11.341 21.9006 12.2609C22.4237 13.1602 22.8986 14.0732 23.3322 14.9931C22.8986 15.913 22.4237 16.8329 21.9075 17.7323ZM24.1306 16.8398C24.5022 17.7597 24.8189 18.6796 25.0804 19.5721C24.1788 19.7918 23.229 19.9771 22.2448 20.1213C22.582 19.5927 22.9193 19.0503 23.2359 18.4943C23.5525 17.9451 23.8484 17.389 24.1306 16.8398ZM17.1516 24.1648C16.5116 23.5057 15.8715 22.7712 15.2383 21.968C15.8577 21.9954 16.4909 22.016 17.131 22.016C17.778 22.016 18.418 22.0023 19.0444 21.968C18.4249 22.7712 17.7848 23.5057 17.1516 24.1648ZM12.031 20.1213C11.0537 19.9771 10.1108 19.7986 9.20913 19.5789C9.46379 18.6934 9.78039 17.7803 10.1383 16.8673C10.4205 17.4165 10.7164 17.9657 11.0399 18.5149C11.3634 19.0641 11.6937 19.5995 12.031 20.1213ZM17.1172 5.83524C17.7573 6.49428 18.3974 7.22883 19.0306 8.03204C18.4112 8.00458 17.778 7.98398 17.1379 7.98398C16.4909 7.98398 15.8508 7.99771 15.2245 8.03204C15.844 7.22883 16.484 6.49428 17.1172 5.83524ZM12.0241 9.87872C11.6869 10.4073 11.3496 10.9497 11.033 11.5057C10.7164 12.0549 10.4205 12.6041 10.1383 13.1533C9.76662 12.2334 9.45002 11.3135 9.18849 10.4211C10.0901 10.2082 11.0399 10.0229 12.0241 9.87872ZM5.79537 18.4737C3.35893 17.4371 1.78282 16.0778 1.78282 15C1.78282 13.9222 3.35893 12.5561 5.79537 11.5263C6.38727 11.2723 7.03423 11.0458 7.70185 10.833C8.09415 12.1785 8.61035 13.5789 9.25043 15.0137C8.61723 16.4416 8.10792 17.8352 7.72249 19.1739C7.04112 18.9611 6.39415 18.7277 5.79537 18.4737ZM9.4982 28.2838C8.56217 27.7483 8.1561 25.7094 8.4727 23.087C8.54841 22.4416 8.67229 21.762 8.82371 21.0686C10.1727 21.3982 11.6456 21.6522 13.1942 21.8169C14.1233 23.087 15.0869 24.2403 16.0573 25.2494C13.8136 27.3295 11.7075 28.4691 10.2759 28.4691C9.96622 28.4622 9.70468 28.4005 9.4982 28.2838ZM25.8237 23.0526C26.1472 25.6751 25.748 27.714 24.8188 28.2563C24.6124 28.3799 24.3439 28.4348 24.0273 28.4348C22.6027 28.4348 20.4897 27.3021 18.246 25.2357C19.2095 24.2265 20.1731 23.0801 21.0885 21.8101C22.644 21.6453 24.1168 21.3913 25.4658 21.0549C25.6241 21.7483 25.748 22.4142 25.8237 23.0526ZM28.4735 18.4737C27.8816 18.7277 27.2346 18.9542 26.567 19.167C26.1747 17.8215 25.6585 16.4211 25.0184 14.9863C25.6516 13.5584 26.161 12.1648 26.5464 10.8261C27.2278 11.0389 27.8747 11.2723 28.4804 11.5263C30.9168 12.5629 32.4929 13.9222 32.4929 15C32.4861 16.0778 30.9099 17.4439 28.4735 18.4737Z" fill="white"/>
<path d="M17.1307 18.1373C18.8678 18.1373 20.276 16.7327 20.276 15C20.276 13.2673 18.8678 11.8627 17.1307 11.8627C15.3936 11.8627 13.9854 13.2673 13.9854 15C13.9854 16.7327 15.3936 18.1373 17.1307 18.1373Z" fill="white"/>
</g>
<defs>
<clipPath id="clip0">
<rect width="34" height="30" fill="white"/>
</clipPath>
</defs>
</svg>
