<svg width="26" height="43" viewBox="0 0 26 43" fill="none" xmlns="http://www.w3.org/2000/svg">
<path d="M26 26.4536V29.7603C26 30.3177 14.1805 31.2512 6.47969 33.067C2.75966 32.1897 0 31.1069 0 29.7603V26.4536C0 25.1078 2.75966 24.0242 6.47969 23.1469C14.1806 24.963 26 25.8966 26 26.4536Z" fill="white" fill-opacity="0.71"/>
<path d="M26 13.2268V16.5335C26 17.0909 14.1805 18.0244 6.47969 19.8402C2.75966 18.9629 0 17.8801 0 16.5335V13.2268C0 11.881 2.75966 10.7974 6.47969 9.92011C14.1806 11.7362 26 12.6698 26 13.2268Z" fill="white" fill-opacity="0.71"/>
<path d="M26 19.8402V29.7603C26 28.9336 0 27.2803 0 23.1469V13.2268C0 17.3602 26 19.0135 26 19.8402Z" fill="white"/>
<path d="M26 6.61341V16.5335C26 15.7068 0 14.0535 0 9.92011V7.15256e-06C0 4.13338 26 5.78673 26 6.61341Z" fill="white"/>
<path d="M26 33.067V42.9871C26 42.1604 0 40.5071 0 36.3737V26.4536C0 30.587 26 32.2403 26 33.067Z" fill="white"/>
</svg>
