<svg width="30" height="30" viewBox="0 0 30 30" fill="none" xmlns="http://www.w3.org/2000/svg">
<g clip-path="url(#clip0)">
<path d="M27.2584 21.5971C23.5625 26.5214 15.6674 24.8592 10.6056 25.0983C10.6056 25.0983 9.70959 25.1482 8.80705 25.2967C8.80705 25.2967 9.14832 25.1511 9.58355 25.0011C13.1387 23.7717 14.8187 23.5246 16.9789 22.415C21.0377 20.3359 25.0771 15.8071 25.899 11.1025C24.3542 15.6273 19.6555 19.5217 15.3772 21.1031C12.4489 22.1836 7.15327 23.2352 7.15251 23.2357C7.15498 23.2394 6.94146 23.1248 6.93847 23.1224C3.33705 21.3702 3.23314 13.57 9.77403 11.0557C12.6418 9.95251 15.3849 10.5584 18.4851 9.82051C21.7917 9.03435 25.6213 6.55588 27.1778 3.31556C28.9229 8.49143 31.0191 16.5891 27.2584 21.5971V21.5971ZM27.3227 1.71169C26.8827 2.75702 26.3457 3.69899 25.7267 4.54153C23.002 1.74515 19.1989 0.00285978 14.9953 0.00285978C6.72641 0.00285978 0 6.73004 0 14.9974C0 19.3314 1.84995 23.2402 4.79935 25.98L5.12773 26.2709C4.57936 25.8238 4.49504 25.0185 4.93948 24.4696C5.38665 23.9205 6.19271 23.8354 6.74133 24.2801C7.29143 24.7258 7.37524 25.5331 6.92984 26.0829C6.48609 26.633 5.67857 26.7161 5.12922 26.2722L5.35268 26.4701C7.96159 28.6668 11.3246 29.9937 14.9953 29.9937C22.899 29.9937 29.3891 23.8429 29.9447 16.0795C30.3561 12.2784 29.2334 7.45175 27.3227 1.71169Z" fill="white"/>
</g>
<defs>
<clipPath id="clip0">
<rect width="30" height="30" fill="white"/>
</clipPath>
</defs>
</svg>
