<svg width="30" height="30" viewBox="0 0 30 30" fill="none" xmlns="http://www.w3.org/2000/svg">
<path fill-rule="evenodd" clip-rule="evenodd" d="M2.92969 0H27.0703C28.6883 0 30 1.31167 30 2.92969V27.0703C30 28.6883 28.6883 30 27.0703 30H2.92969C1.31167 30 0 28.6883 0 27.0703V2.92969C0 1.31167 1.31167 0 2.92969 0ZM18.5706 26.8058V23.8725C19.1025 24.3186 19.6802 24.6532 20.3038 24.8762C20.9274 25.0993 21.5571 25.2108 22.1929 25.2108C22.5658 25.2108 22.8913 25.1772 23.1695 25.1099C23.4476 25.0427 23.68 24.9496 23.8664 24.8304C24.0529 24.7112 24.192 24.5707 24.2837 24.4087C24.3754 24.2468 24.4212 24.0711 24.4212 23.8817C24.4212 23.625 24.3479 23.3958 24.2012 23.1942C24.0544 22.9925 23.8542 22.8062 23.6004 22.6351C23.3468 22.464 23.0457 22.299 22.6972 22.1401C22.3488 21.9812 21.9728 21.8193 21.5693 21.6543C20.5422 21.2265 19.7765 20.704 19.2722 20.0868C18.7678 19.4696 18.5156 18.724 18.5156 17.8502C18.5156 17.1657 18.6532 16.5776 18.9283 16.0857C19.2034 15.5937 19.5778 15.1889 20.0516 14.8711C20.5254 14.5533 21.0741 14.3196 21.6977 14.1699C22.3212 14.0202 22.9815 13.9453 23.6784 13.9453C24.3631 13.9453 24.9699 13.9866 25.4987 14.0691C26.0275 14.1516 26.5151 14.2784 26.9613 14.4495V17.1902C26.7413 17.0374 26.5013 16.903 26.2415 16.7869C25.9816 16.6708 25.7142 16.5745 25.4391 16.4981C25.164 16.4218 24.8904 16.3652 24.6183 16.3286C24.3463 16.2919 24.088 16.2736 23.8435 16.2736C23.5072 16.2736 23.2016 16.3056 22.9264 16.3698C22.6514 16.434 22.4191 16.5241 22.2295 16.6402C22.04 16.7563 21.8933 16.8953 21.7894 17.0573C21.6854 17.2192 21.6335 17.4011 21.6335 17.6027C21.6335 17.8227 21.6916 18.0197 21.8077 18.1939C21.9238 18.3681 22.0889 18.5331 22.3029 18.6889C22.5169 18.8447 22.7767 18.9975 23.0824 19.1473C23.388 19.297 23.7335 19.4513 24.1186 19.6102C24.6444 19.8301 25.1166 20.0638 25.5354 20.3113C25.9542 20.5588 26.3133 20.8385 26.6129 21.1501C26.9125 21.4618 27.1417 21.8177 27.3006 22.218C27.4596 22.6182 27.5391 23.0842 27.5391 23.6159C27.5391 24.3492 27.4 24.9648 27.1218 25.4629C26.8437 25.9609 26.4662 26.3643 25.9893 26.6728C25.5125 26.9814 24.9577 27.203 24.3249 27.3374C23.6921 27.4719 23.0243 27.5391 22.3212 27.5391C21.5998 27.5391 20.9136 27.4779 20.2625 27.3557C19.6114 27.2335 19.0475 27.0502 18.5706 26.8058ZM17.4023 16.6454H13.6395V27.3633H10.6586V16.6454H6.91406V14.2383H17.4023V16.6454Z" fill="white"/>
</svg>
