<svg width="128" height="34" viewBox="0 0 128 34" fill="none" xmlns="http://www.w3.org/2000/svg">
<g clip-path="url(#clip0)">
<path d="M74.5879 9.30305L81.9604 6.61701L74.5879 3.85422V0.09375L87.2153 5.08212V8.15189L74.5879 13.1403V9.30305Z" fill="#A100FF"/>
<path d="M4.86274 33.0937C2.19608 33.0937 0 31.789 0 28.8727V28.7193C0 25.189 3.13725 23.9611 6.98039 23.9611H8.78431V23.2704C8.78431 21.8123 8.15686 20.9681 6.58823 20.9681C5.17647 20.9681 4.47059 21.7355 4.39216 22.81H0.470588C0.784314 19.5867 3.37255 18.0518 6.82353 18.0518C10.3529 18.0518 12.9412 19.51 12.9412 23.1169V32.7867H8.94118V31.0983C8.15686 32.1727 6.82353 33.0937 4.86274 33.0937ZM8.78431 28.0286V26.6472H7.13726C5.09804 26.6472 4.07843 27.1844 4.07843 28.489V28.6425C4.07843 29.6402 4.70588 30.3309 6.11765 30.3309C7.52941 30.2541 8.78431 29.4867 8.78431 28.0286ZM22.2745 33.0937C18.1961 33.0937 15.2157 30.6379 15.2157 25.7262V25.496C15.2157 20.5844 18.3529 17.9751 22.2745 17.9751C25.6471 17.9751 28.3922 19.6634 28.7059 23.4239H24.7843C24.549 22.0425 23.7647 21.1216 22.3529 21.1216C20.6275 21.1216 19.3725 22.503 19.3725 25.3425V25.803C19.3725 28.7193 20.4706 30.0239 22.3529 30.0239C23.7647 30.0239 24.7843 29.0262 25.0196 27.4146H28.7843C28.549 30.7913 26.2745 33.0937 22.2745 33.0937ZM37.6471 33.0937C33.5686 33.0937 30.5882 30.6379 30.5882 25.7262V25.496C30.5882 20.5844 33.7255 17.9751 37.6471 17.9751C41.0196 17.9751 43.7647 19.6634 44.0784 23.4239H40.1569C39.9216 22.0425 39.1373 21.1216 37.7255 21.1216C36 21.1216 34.7451 22.503 34.7451 25.3425V25.803C34.7451 28.7193 35.8431 30.0239 37.7255 30.0239C39.1373 30.0239 40.1569 29.0262 40.3922 27.4146H44.1569C43.9216 30.7913 41.6471 33.0937 37.6471 33.0937ZM53.098 33.0937C48.8627 33.0937 45.9608 30.6379 45.9608 25.803V25.496C45.9608 20.6611 49.0196 17.9751 53.0196 17.9751C56.7059 17.9751 59.7647 19.9704 59.7647 24.8053V26.5704H50.1176C50.2745 29.1797 51.451 30.1774 53.1765 30.1774C54.7451 30.1774 55.6078 29.3332 55.9216 28.3355H59.7647C59.2941 31.0216 56.9412 33.0937 53.098 33.0937ZM50.1961 23.8844H55.6863C55.6078 21.7355 54.5882 20.8146 52.9412 20.8146C51.6863 20.8914 50.5098 21.582 50.1961 23.8844ZM62.2745 18.3588H66.4314V20.5076C67.1373 19.1262 68.6275 18.0518 70.902 18.0518C73.5686 18.0518 75.3726 19.6634 75.3726 23.1169V32.7867H71.2157V23.7309C71.2157 22.0425 70.5098 21.2751 69.0196 21.2751C67.6078 21.2751 66.4314 22.1193 66.4314 23.9611V32.7867H62.2745V18.3588ZM82.9804 13.9844V18.3588H85.8039V21.3518H82.9804V28.182C82.9804 29.2565 83.451 29.7937 84.4706 29.7937C85.098 29.7937 85.4902 29.7169 85.8824 29.5634V32.71C85.4118 32.8634 84.549 33.0169 83.5294 33.0169C80.3137 33.0169 78.8235 31.5588 78.8235 28.6425V21.3518H77.098V18.3588H78.8235V15.6727L82.9804 13.9844ZM101.333 32.7867H97.2549V30.6379C96.549 32.0193 95.1373 33.0937 92.9412 33.0937C90.2745 33.0937 88.3137 31.482 88.3137 28.1053V18.3588H92.4706V27.5681C92.4706 29.2565 93.1765 30.0239 94.5882 30.0239C96 30.0239 97.1765 29.103 97.1765 27.3379V18.3588H101.333V32.7867ZM104.392 18.3588H108.549V21.0448C109.412 19.1262 110.824 18.2053 113.02 18.2053V22.196C110.196 22.196 108.549 23.0402 108.549 25.4193V32.8634H104.392V18.3588ZM121.412 33.0937C117.176 33.0937 114.275 30.6379 114.275 25.803V25.496C114.275 20.6611 117.333 17.9751 121.333 17.9751C125.02 17.9751 128.078 19.9704 128.078 24.8053V26.5704H118.51C118.667 29.1797 119.843 30.1774 121.569 30.1774C123.137 30.1774 124 29.3332 124.314 28.3355H128.157C127.529 31.0216 125.255 33.0937 121.412 33.0937ZM118.431 23.8844H124C123.922 21.7355 122.902 20.8146 121.255 20.8146C120 20.8914 118.824 21.582 118.431 23.8844Z" fill="white"/>
</g>
<defs>
<clipPath id="clip0">
<rect width="128" height="33" fill="white" transform="translate(0 0.09375)"/>
</clipPath>
</defs>
</svg>
