<svg width="56" height="57" viewBox="0 0 56 57" fill="none" xmlns="http://www.w3.org/2000/svg">
<path fill-rule="evenodd" clip-rule="evenodd" d="M37.3903 20.2171C38.4182 20.494 39.2288 21.3044 39.5055 22.3325C40.0197 24.2104 39.9999 28.1248 39.9999 28.1248C39.9999 28.1248 39.9999 32.0193 39.5057 33.8974C39.2288 34.9254 38.4184 35.736 37.3903 36.0126C35.5122 36.507 27.9999 36.507 27.9999 36.507C27.9999 36.507 20.5073 36.507 18.6096 35.993C17.5815 35.7162 16.7711 34.9056 16.4942 33.8776C16 32.0193 16 28.1051 16 28.1051C16 28.1051 16 24.2104 16.4942 22.3325C16.7709 21.3046 17.6013 20.4742 18.6094 20.1975C20.4875 19.7031 27.9998 19.7031 27.9998 19.7031C27.9998 19.7031 35.5122 19.7031 37.3903 20.2171ZM31.8549 28.1049L25.6079 31.7029V24.5068L31.8549 28.1049Z" fill="white"/>
<rect x="0.5" y="0.59375" width="55" height="55" rx="27.5" stroke="white"/>
</svg>
